<svg width="302" height="302" viewBox="0 0 302 302" fill="none" xmlns="http://www.w3.org/2000/svg">
<path fill-rule="evenodd" clip-rule="evenodd" d="M0.493164 150.794C0.493164 67.2937 67.6001 -0.00976562 151.139 -0.00976562C234.671 -0.00976562 301.725 67.2937 301.725 150.794C301.725 234.295 234.671 301.598 151.139 301.598C67.6031 301.598 0.493164 234.295 0.493164 150.794ZM5.13514 150.797C5.13514 176.969 26.1596 198.079 52.363 198.079C68.4533 198.079 74.743 186.719 74.743 186.719V197.053H99.5909V150.797C99.5909 124.625 78.5664 103.515 52.363 103.515C26.1596 103.516 5.13514 124.626 5.13514 150.797ZM52.363 128.237C64.8558 128.237 74.8703 138.31 74.8703 150.798C74.8703 163.286 64.8558 173.36 52.363 173.36C39.8702 173.36 29.8557 163.286 29.8557 150.798C29.8557 138.31 39.8702 128.237 52.363 128.237ZM105.6 150.797V70.9551L130.442 70.9536V114.889C130.442 114.889 136.754 103.499 152.844 103.499C179.048 103.499 200.034 124.625 200.034 150.797C200.034 176.968 179.048 198.095 152.844 198.095C126.641 198.095 105.6 176.968 105.6 150.797ZM175.354 150.798C175.354 138.31 165.337 128.234 152.844 128.234C140.351 128.234 130.334 138.31 130.334 150.798C130.334 163.286 140.351 173.363 152.844 173.363C165.338 173.363 175.354 163.286 175.354 150.798ZM251.314 198.079C225.11 198.079 204.086 176.969 204.086 150.797C204.086 124.626 225.11 103.516 251.313 103.515C273.95 103.515 292.716 119.272 297.407 140.434H271.338C267.603 133.191 260.059 128.235 251.314 128.235C238.821 128.235 228.806 138.308 228.806 150.797C228.806 163.285 238.821 173.358 251.314 173.358C260.033 173.358 267.538 168.421 271.285 161.214H297.408C292.698 182.349 273.932 198.079 251.314 198.079Z" fill="#929292"/>
<path fill-rule="evenodd" clip-rule="evenodd" d="M0.493164 150.794C0.493164 67.2937 67.6001 -0.00976562 151.139 -0.00976562C234.671 -0.00976562 301.725 67.2937 301.725 150.794C301.725 234.295 234.671 301.598 151.139 301.598C67.6031 301.598 0.493164 234.295 0.493164 150.794ZM5.13514 150.797C5.13514 176.969 26.1596 198.079 52.363 198.079C68.4533 198.079 74.743 186.719 74.743 186.719V197.053H99.5909V150.797C99.5909 124.625 78.5664 103.515 52.363 103.515C26.1596 103.516 5.13514 124.626 5.13514 150.797ZM52.363 128.237C64.8558 128.237 74.8703 138.31 74.8703 150.798C74.8703 163.286 64.8558 173.36 52.363 173.36C39.8702 173.36 29.8557 163.286 29.8557 150.798C29.8557 138.31 39.8702 128.237 52.363 128.237ZM105.6 150.797V70.9551L130.442 70.9536V114.889C130.442 114.889 136.754 103.499 152.844 103.499C179.048 103.499 200.034 124.625 200.034 150.797C200.034 176.968 179.048 198.095 152.844 198.095C126.641 198.095 105.6 176.968 105.6 150.797ZM175.354 150.798C175.354 138.31 165.337 128.234 152.844 128.234C140.351 128.234 130.334 138.31 130.334 150.798C130.334 163.286 140.351 173.363 152.844 173.363C165.338 173.363 175.354 163.286 175.354 150.798ZM251.314 198.079C225.11 198.079 204.086 176.969 204.086 150.797C204.086 124.626 225.11 103.516 251.313 103.515C273.95 103.515 292.716 119.272 297.407 140.434H271.338C267.603 133.191 260.059 128.235 251.314 128.235C238.821 128.235 228.806 138.308 228.806 150.797C228.806 163.285 238.821 173.358 251.314 173.358C260.033 173.358 267.538 168.421 271.285 161.214H297.408C292.698 182.349 273.932 198.079 251.314 198.079Z" fill="#929292"/>
</svg>
