<svg width="450" height="268" viewBox="0 0 450 268" fill="none" xmlns="http://www.w3.org/2000/svg">
<path fill-rule="evenodd" clip-rule="evenodd" d="M381.258 0.961716C392.942 -0.394993 405.04 1.48844 415.591 6.77162C431.887 14.6724 444.113 30.2826 448.168 47.9038C450.897 59.9865 449.939 72.8992 445.358 84.4232C442.214 92.2442 437.426 99.4109 431.376 105.285C424.034 112.419 414.888 117.718 405.024 120.464C395.336 123.129 384.993 123.369 375.193 121.198C365.76 119.123 356.901 114.638 349.511 108.445C341.961 102.06 335.992 93.8244 332.257 84.6626C328.298 75.0699 327.085 64.4397 328.251 54.1606C329.368 44.2327 333.087 34.624 338.785 26.4359C348.537 12.5177 364.275 2.7813 381.226 0.929793L381.258 0.961716ZM383.7 23.3713C371.49 24.9036 360.365 32.98 355.034 44.0572C349.878 54.4958 349.671 67.2489 354.491 77.8631C357.859 85.3649 363.653 91.8133 370.947 95.6759C380.364 100.656 391.92 101.358 401.912 97.687C409.797 94.7821 416.596 89.0839 420.906 81.8694C425.71 73.9686 427.45 64.3439 425.982 55.246C424.449 45.6214 419.134 36.6352 411.361 30.7455C403.572 24.7919 393.421 22.0785 383.716 23.3873L383.7 23.3713ZM45.6243 2.17477H68.3213C71.5369 10.6801 74.7525 19.1861 77.9683 27.6925L77.9857 27.7385C89.7365 58.8221 101.489 89.9112 113.252 120.99H89.5657C88.1812 117.127 86.7875 113.273 85.3944 109.421L85.3937 109.419C84.1854 106.078 82.9776 102.738 81.7766 99.3949C65.2407 99.347 48.7049 99.347 32.169 99.3949C30.7842 103.259 29.3902 107.113 27.9969 110.966C26.7886 114.307 25.5808 117.647 24.3799 120.99H0.693359C6.25637 106.276 11.8238 91.5623 17.3915 76.8474L17.393 76.8434L17.4035 76.8156L17.4108 76.7964L17.412 76.7931L17.4123 76.7923L17.4132 76.7899C26.8227 51.9219 36.2329 27.0515 45.6243 2.17477ZM57.0526 31.4477C52.8811 42.934 48.6839 54.4032 44.4861 65.8741L44.4774 65.8978C42.944 70.0879 41.4106 74.2782 39.8783 78.4697H74.0993L72.5923 74.3009C67.428 60.0142 62.2602 45.7177 57.0526 31.4477ZM126.021 2.17477H126.037V120.975H149.197V72.979H202.588V51.4791H149.181V24.0098H202.572V2.17477H126.037V2.15881L126.021 2.17477ZM221.757 2.17477H264.469C265.399 2.18134 266.33 2.17845 267.262 2.17555C270.856 2.16436 274.459 2.15315 278.02 2.68553C286.656 3.85071 295.115 7.37815 301.515 13.3796C307.389 18.8862 311.411 26.3242 312.848 34.241C314.811 44.5041 313.008 55.5493 307.373 64.4078C303.846 70.0261 298.722 74.5751 292.817 77.5599C298.009 87.2218 303.216 96.8695 308.423 106.517C311.027 111.341 313.63 116.165 316.232 120.99H290.422C286.534 113.311 282.627 105.644 278.72 97.9773L278.713 97.964C276.273 93.1743 273.832 88.3849 271.397 83.5932H244.773V120.99H221.757V2.17477ZM244.741 23.3873V62.5403H268.524C272.546 62.5403 276.632 61.8221 280.207 59.9227C283.878 58.0233 287.023 54.9268 288.587 51.0482C290.742 45.765 290.949 39.604 288.699 34.3048C287.214 30.7614 284.485 27.7447 281.037 26.0209C276.696 23.7863 271.7 23.3235 266.895 23.3873H244.757H244.741ZM8.22723 155.981C8.28294 151.533 12.3813 147.614 16.8142 147.662H100.276C104.729 147.582 108.847 151.54 108.879 156.01C108.655 160.335 104.665 164.182 100.292 164.038H69.7418C69.7418 171.831 69.7408 179.624 69.7398 187.417C69.7368 210.797 69.7338 234.176 69.7578 257.555C70.2207 262.328 65.8792 266.988 61.0749 266.701C56.9568 266.286 53.3975 262.519 53.4134 258.353C53.4074 252.079 53.4198 245.804 53.4323 239.529C53.4525 229.33 53.4727 219.129 53.4134 208.921C53.3943 199.939 53.4096 190.962 53.4249 181.984L53.4249 181.979C53.4352 175.994 53.4454 170.01 53.4454 164.022H16.2716C12.1067 163.831 8.43635 160.129 8.22723 155.981ZM8.22723 155.981L8.22708 155.994V155.978L8.22723 155.981ZM135.391 147.71C131.32 147.965 127.665 151.588 127.585 155.706L127.617 155.674V256.965C127.617 257.248 127.609 257.532 127.601 257.818C127.575 258.739 127.549 259.666 127.793 260.556C128.735 264.387 132.533 267.292 136.492 267.036H198.326C202.476 267.292 206.466 264.035 207.121 259.965C207.599 256.31 204.982 252.735 201.614 251.506C200.405 251.037 199.109 251.055 197.832 251.072C197.457 251.077 197.083 251.082 196.714 251.075C189.121 251.041 181.525 251.05 173.929 251.06H173.929H173.929C163.8 251.073 153.671 251.086 143.547 250.995V216.136H198.9C202.763 216.231 206.275 213.119 207.073 209.4C207.839 204.899 203.88 200.414 199.395 200.206H143.547C143.547 196.147 143.545 192.087 143.543 188.028C143.54 179.909 143.536 171.79 143.547 163.671C161.982 163.639 180.417 163.639 198.853 163.687C202.843 163.767 206.498 160.463 207.105 156.568C207.615 152.147 203.721 147.949 199.363 147.726C190.224 147.719 181.085 147.721 171.946 147.723C159.761 147.725 147.576 147.728 135.391 147.71ZM249.977 147.789C258.545 147.728 267.118 147.744 275.691 147.76H275.692C282.657 147.773 289.622 147.786 296.583 147.758C299.903 147.678 303.144 149.673 304.468 152.737C304.951 153.651 305.089 154.654 305.228 155.657C305.345 156.511 305.463 157.364 305.793 158.164C306.527 160.128 307.996 161.819 309.879 162.745C310.882 163.266 311.99 163.451 313.099 163.637C314.232 163.826 315.367 164.016 316.391 164.565C318.929 165.874 320.972 168.459 321.084 171.396C321.164 175.307 317.908 178.77 314.157 179.473C311.076 179.967 308.044 178.116 306.432 175.578C305.611 174.356 305.338 172.935 305.065 171.513L305.065 171.513C304.795 170.113 304.526 168.713 303.734 167.502C302.25 164.932 299.169 163.735 296.312 163.719C292.262 163.719 288.212 163.717 284.162 163.715C272.011 163.709 259.861 163.703 247.71 163.751C243.416 163.783 239.666 167.709 239.713 171.987C239.703 187.576 239.706 203.173 239.71 218.767V218.769C239.712 226.564 239.713 234.359 239.713 242.153C239.682 244.722 240.671 247.404 242.698 249.064C244.374 250.468 246.609 251.027 248.763 251.027H293.088C293.746 250.989 294.412 250.997 295.077 251.006C296.67 251.025 298.262 251.044 299.76 250.436C302.234 249.559 304.181 247.388 304.788 244.834C304.912 244.313 305.003 243.779 305.095 243.243C305.32 241.926 305.546 240.601 306.272 239.455C307.82 236.742 310.949 234.746 314.141 235.241C317.86 235.912 321.004 239.407 321.036 243.222C320.972 246.031 319.169 248.585 316.806 249.974C315.65 250.68 314.332 250.918 313.015 251.156C311.622 251.408 310.231 251.66 309.033 252.464C306.575 253.884 305.474 256.757 305.155 259.455C304.851 262.567 302.633 265.312 299.744 266.446C298.563 266.924 297.27 267.02 296.009 267.004C290.364 266.998 284.721 267.001 279.079 267.004H279.019H279.018C269.11 267.008 259.203 267.013 249.29 266.972C247.71 267.036 246.082 266.972 244.63 266.286C242.076 265.153 240.144 262.727 239.729 259.965C239.705 259.823 239.681 259.679 239.657 259.535C239.366 257.798 239.065 256 237.974 254.57C236.441 252.384 233.776 251.282 231.174 251.059C226.976 250.644 223.497 246.67 223.704 242.44V171.955C223.688 168.922 225.54 166.033 228.205 164.645C229.269 164.049 230.459 163.853 231.647 163.656C232.849 163.458 234.049 163.259 235.117 162.649C237.192 161.612 238.644 159.585 239.267 157.382C239.45 156.792 239.526 156.181 239.602 155.571L239.602 155.571L239.602 155.57C239.678 154.96 239.753 154.349 239.937 153.759C240.719 151.221 242.746 149.13 245.252 148.252C246.395 147.815 247.603 147.821 248.806 147.828H248.806C249.181 147.831 249.556 147.833 249.929 147.821L249.977 147.789ZM347.037 147.965C343.206 148.556 339.966 152.099 339.902 156.01H339.918V258.912C339.966 263.11 343.685 266.892 347.883 267.052C352.177 266.908 356.023 262.934 355.88 258.609C355.848 244.658 355.816 230.708 355.88 216.742C358.677 216.748 361.475 216.745 364.272 216.743C369.168 216.738 374.064 216.733 378.96 216.774C393.133 216.742 407.291 216.742 421.464 216.742C421.511 225.108 421.503 233.473 421.495 241.839C421.489 247.695 421.483 253.551 421.496 259.407C421.848 263.684 425.934 267.451 430.291 266.988C434.138 266.414 437.442 262.854 437.426 258.896V156.025C437.41 152.003 433.978 148.396 430.036 147.949C425.694 147.646 421.704 151.492 421.48 155.754V200.845H355.832C355.837 195.509 355.833 190.172 355.828 184.834C355.82 175.225 355.812 165.614 355.864 156.01C355.816 151.54 351.538 147.47 347.037 147.965Z" fill="#929292"/>
<path fill-rule="evenodd" clip-rule="evenodd" d="M381.258 0.961716C392.942 -0.394993 405.04 1.48844 415.591 6.77162C431.887 14.6724 444.113 30.2826 448.168 47.9038C450.897 59.9865 449.939 72.8992 445.358 84.4232C442.214 92.2442 437.426 99.4109 431.376 105.285C424.034 112.419 414.888 117.718 405.024 120.464C395.336 123.129 384.993 123.369 375.193 121.198C365.76 119.123 356.901 114.638 349.511 108.445C341.961 102.06 335.992 93.8244 332.257 84.6626C328.298 75.0699 327.085 64.4397 328.251 54.1606C329.368 44.2327 333.087 34.624 338.785 26.4359C348.537 12.5177 364.275 2.7813 381.226 0.929793L381.258 0.961716ZM383.7 23.3713C371.49 24.9036 360.365 32.98 355.034 44.0572C349.878 54.4958 349.671 67.2489 354.491 77.8631C357.859 85.3649 363.653 91.8133 370.947 95.6759C380.364 100.656 391.92 101.358 401.912 97.687C409.797 94.7821 416.596 89.0839 420.906 81.8694C425.71 73.9686 427.45 64.3439 425.982 55.246C424.449 45.6214 419.134 36.6352 411.361 30.7455C403.572 24.7919 393.421 22.0785 383.716 23.3873L383.7 23.3713ZM45.6243 2.17477H68.3213C71.5369 10.6801 74.7525 19.1861 77.9683 27.6925L77.9857 27.7385C89.7365 58.8221 101.489 89.9112 113.252 120.99H89.5657C88.1812 117.127 86.7875 113.273 85.3944 109.421L85.3937 109.419C84.1854 106.078 82.9776 102.738 81.7766 99.3949C65.2407 99.347 48.7049 99.347 32.169 99.3949C30.7842 103.259 29.3902 107.113 27.9969 110.966C26.7886 114.307 25.5808 117.647 24.3799 120.99H0.693359C6.25637 106.276 11.8238 91.5623 17.3915 76.8474L17.393 76.8434L17.4035 76.8156L17.4108 76.7964L17.412 76.7931L17.4123 76.7923L17.4132 76.7899C26.8227 51.9219 36.2329 27.0515 45.6243 2.17477ZM57.0526 31.4477C52.8811 42.934 48.6839 54.4032 44.4861 65.8741L44.4774 65.8978C42.944 70.0879 41.4106 74.2782 39.8783 78.4697H74.0993L72.5923 74.3009C67.428 60.0142 62.2602 45.7177 57.0526 31.4477ZM126.021 2.17477H126.037V120.975H149.197V72.979H202.588V51.4791H149.181V24.0098H202.572V2.17477H126.037V2.15881L126.021 2.17477ZM221.757 2.17477H264.469C265.399 2.18134 266.33 2.17845 267.262 2.17555C270.856 2.16436 274.459 2.15315 278.02 2.68553C286.656 3.85071 295.115 7.37815 301.515 13.3796C307.389 18.8862 311.411 26.3242 312.848 34.241C314.811 44.5041 313.008 55.5493 307.373 64.4078C303.846 70.0261 298.722 74.5751 292.817 77.5599C298.009 87.2218 303.216 96.8695 308.423 106.517C311.027 111.341 313.63 116.165 316.232 120.99H290.422C286.534 113.311 282.627 105.644 278.72 97.9773L278.713 97.964C276.273 93.1743 273.832 88.3849 271.397 83.5932H244.773V120.99H221.757V2.17477ZM244.741 23.3873V62.5403H268.524C272.546 62.5403 276.632 61.8221 280.207 59.9227C283.878 58.0233 287.023 54.9268 288.587 51.0482C290.742 45.765 290.949 39.604 288.699 34.3048C287.214 30.7614 284.485 27.7447 281.037 26.0209C276.696 23.7863 271.7 23.3235 266.895 23.3873H244.757H244.741ZM8.22723 155.981C8.28294 151.533 12.3813 147.614 16.8142 147.662H100.276C104.729 147.582 108.847 151.54 108.879 156.01C108.655 160.335 104.665 164.182 100.292 164.038H69.7418C69.7418 171.831 69.7408 179.624 69.7398 187.417C69.7368 210.797 69.7338 234.176 69.7578 257.555C70.2207 262.328 65.8792 266.988 61.0749 266.701C56.9568 266.286 53.3975 262.519 53.4134 258.353C53.4074 252.079 53.4198 245.804 53.4323 239.529C53.4525 229.33 53.4727 219.129 53.4134 208.921C53.3943 199.939 53.4096 190.962 53.4249 181.984L53.4249 181.979C53.4352 175.994 53.4454 170.01 53.4454 164.022H16.2716C12.1067 163.831 8.43635 160.129 8.22723 155.981ZM8.22723 155.981L8.22708 155.994V155.978L8.22723 155.981ZM135.391 147.71C131.32 147.965 127.665 151.588 127.585 155.706L127.617 155.674V256.965C127.617 257.248 127.609 257.532 127.601 257.818C127.575 258.739 127.549 259.666 127.793 260.556C128.735 264.387 132.533 267.292 136.492 267.036H198.326C202.476 267.292 206.466 264.035 207.121 259.965C207.599 256.31 204.982 252.735 201.614 251.506C200.405 251.037 199.109 251.055 197.832 251.072C197.457 251.077 197.083 251.082 196.714 251.075C189.121 251.041 181.525 251.05 173.929 251.06H173.929H173.929C163.8 251.073 153.671 251.086 143.547 250.995V216.136H198.9C202.763 216.231 206.275 213.119 207.073 209.4C207.839 204.899 203.88 200.414 199.395 200.206H143.547C143.547 196.147 143.545 192.087 143.543 188.028C143.54 179.909 143.536 171.79 143.547 163.671C161.982 163.639 180.417 163.639 198.853 163.687C202.843 163.767 206.498 160.463 207.105 156.568C207.615 152.147 203.721 147.949 199.363 147.726C190.224 147.719 181.085 147.721 171.946 147.723C159.761 147.725 147.576 147.728 135.391 147.71ZM249.977 147.789C258.545 147.728 267.118 147.744 275.691 147.76H275.692C282.657 147.773 289.622 147.786 296.583 147.758C299.903 147.678 303.144 149.673 304.468 152.737C304.951 153.651 305.089 154.654 305.228 155.657C305.345 156.511 305.463 157.364 305.793 158.164C306.527 160.128 307.996 161.819 309.879 162.745C310.882 163.266 311.99 163.451 313.099 163.637C314.232 163.826 315.367 164.016 316.391 164.565C318.929 165.874 320.972 168.459 321.084 171.396C321.164 175.307 317.908 178.77 314.157 179.473C311.076 179.967 308.044 178.116 306.432 175.578C305.611 174.356 305.338 172.935 305.065 171.513L305.065 171.513C304.795 170.113 304.526 168.713 303.734 167.502C302.25 164.932 299.169 163.735 296.312 163.719C292.262 163.719 288.212 163.717 284.162 163.715C272.011 163.709 259.861 163.703 247.71 163.751C243.416 163.783 239.666 167.709 239.713 171.987C239.703 187.576 239.706 203.173 239.71 218.767V218.769C239.712 226.564 239.713 234.359 239.713 242.153C239.682 244.722 240.671 247.404 242.698 249.064C244.374 250.468 246.609 251.027 248.763 251.027H293.088C293.746 250.989 294.412 250.997 295.077 251.006C296.67 251.025 298.262 251.044 299.76 250.436C302.234 249.559 304.181 247.388 304.788 244.834C304.912 244.313 305.003 243.779 305.095 243.243C305.32 241.926 305.546 240.601 306.272 239.455C307.82 236.742 310.949 234.746 314.141 235.241C317.86 235.912 321.004 239.407 321.036 243.222C320.972 246.031 319.169 248.585 316.806 249.974C315.65 250.68 314.332 250.918 313.015 251.156C311.622 251.408 310.231 251.66 309.033 252.464C306.575 253.884 305.474 256.757 305.155 259.455C304.851 262.567 302.633 265.312 299.744 266.446C298.563 266.924 297.27 267.02 296.009 267.004C290.364 266.998 284.721 267.001 279.079 267.004H279.019H279.018C269.11 267.008 259.203 267.013 249.29 266.972C247.71 267.036 246.082 266.972 244.63 266.286C242.076 265.153 240.144 262.727 239.729 259.965C239.705 259.823 239.681 259.679 239.657 259.535C239.366 257.798 239.065 256 237.974 254.57C236.441 252.384 233.776 251.282 231.174 251.059C226.976 250.644 223.497 246.67 223.704 242.44V171.955C223.688 168.922 225.54 166.033 228.205 164.645C229.269 164.049 230.459 163.853 231.647 163.656C232.849 163.458 234.049 163.259 235.117 162.649C237.192 161.612 238.644 159.585 239.267 157.382C239.45 156.792 239.526 156.181 239.602 155.571L239.602 155.571L239.602 155.57C239.678 154.96 239.753 154.349 239.937 153.759C240.719 151.221 242.746 149.13 245.252 148.252C246.395 147.815 247.603 147.821 248.806 147.828H248.806C249.181 147.831 249.556 147.833 249.929 147.821L249.977 147.789ZM347.037 147.965C343.206 148.556 339.966 152.099 339.902 156.01H339.918V258.912C339.966 263.11 343.685 266.892 347.883 267.052C352.177 266.908 356.023 262.934 355.88 258.609C355.848 244.658 355.816 230.708 355.88 216.742C358.677 216.748 361.475 216.745 364.272 216.743C369.168 216.738 374.064 216.733 378.96 216.774C393.133 216.742 407.291 216.742 421.464 216.742C421.511 225.108 421.503 233.473 421.495 241.839C421.489 247.695 421.483 253.551 421.496 259.407C421.848 263.684 425.934 267.451 430.291 266.988C434.138 266.414 437.442 262.854 437.426 258.896V156.025C437.41 152.003 433.978 148.396 430.036 147.949C425.694 147.646 421.704 151.492 421.48 155.754V200.845H355.832C355.837 195.509 355.833 190.172 355.828 184.834C355.82 175.225 355.812 165.614 355.864 156.01C355.816 151.54 351.538 147.47 347.037 147.965Z" fill="#929292"/>
</svg>
