<?xml version="1.0" encoding="UTF-8"?>
<svg width="144px" height="61px" viewBox="0 0 144 61" version="1.1" xmlns="http://www.w3.org/2000/svg" xmlns:xlink="http://www.w3.org/1999/xlink">
    <title>All Tech Is Human</title>
    <defs>
        <path d="M2508.41591,17.5878522 C2510.98329,17.8504539 2513.66265,18.4263114 2515.72082,20.0779028 C2517.4804,21.5615357 2519.30396,22.9678544 2521.02621,24.4954765 C2523.08838,26.3576824 2525.05724,28.4225049 2526.26629,30.9578776 C2527.24205,32.9293898 2527.62996,35.1595047 2527.458,37.3482965 C2527.1674,40.6301512 2526.72218,43.9040079 2525.99435,47.1192124 C2525.48247,49.3133362 2524.84929,51.498129 2523.8442,53.5229614 C2523.18569,54.8373028 2522.35522,56.1049892 2521.18884,57.0234286 C2520.24373,57.7805746 2519.46125,58.7523342 2518.99736,59.8747232 C2518.16156,61.8955565 2518.26154,64.1616625 2518.63612,66.2758061 C2518.96937,68.2553164 2519.79184,70.2108326 2519.50258,72.250328 C2519.37594,73.2820727 2518.74143,74.2644963 2517.76166,74.6670634 C2516.24469,75.3135701 2514.56776,74.9296651 2512.98148,74.895007 C2511.47384,74.9363301 2509.96487,75.0722964 2508.45723,74.9749872 C2507.35083,74.889675 2506.16978,74.5550911 2505.43795,73.6673107 C2505.05005,73.2474146 2504.90741,72.6822211 2504.66081,72.1836778 C2504.16759,71.7891087 2503.60373,71.4745199 2503.18516,70.9906396 C2501.63487,69.3283842 2501.07633,67.0049591 2500.93104,64.7948392 C2500.88838,63.3218703 2500.84972,61.8235743 2501.17898,60.3772655 C2501.61621,58.305778 2501.99211,56.2222935 2502.3147,54.129478 C2502.48,52.9764299 2502.66929,51.8220489 2502.71594,50.6556708 C2501.65486,51.8207158 2500.61245,53.00309 2499.5487,54.1654691 C2499.34875,54.4027437 2499.04616,54.5627041 2498.7289,54.4813909 C2498.16103,54.4040767 2497.91043,53.5989426 2498.32766,53.2057065 C2499.8473,51.484799 2501.40426,49.7945505 2502.92789,48.0763089 C2503.11318,47.8550303 2503.39178,47.7603871 2503.65038,47.6550798 C2504.29156,47.9816657 2504.77945,48.5255311 2505.31398,48.9947484 C2506.58168,50.1264684 2507.83471,51.2755174 2509.11041,52.3992394 C2509.33702,52.613853 2509.62228,52.8511276 2509.60362,53.1963755 C2509.62761,53.6042746 2509.2557,53.9881796 2508.84514,53.9708505 C2508.52921,54.0055086 2508.2906,53.7709 2508.07066,53.5842795 C2506.84695,52.4512265 2505.58592,51.3608296 2504.36488,50.2251106 C2504.04096,53.7309099 2503.43044,57.2033841 2502.71727,60.6491982 C2502.55865,61.310368 2502.50266,61.9901998 2502.48666,62.6700316 C2502.41335,64.6282138 2502.51999,66.6623772 2503.35179,68.4699299 C2503.59973,69.0177944 2503.95831,69.5043407 2504.34888,69.9588949 C2504.26624,68.0793599 2504.64614,66.0891856 2505.87385,64.6082187 C2507.09622,63.1112558 2509.08641,62.44742 2510.97396,62.464749 C2512.01637,62.4834111 2513.08545,62.9512953 2513.67598,63.8350767 C2514.47845,64.9974558 2514.50244,66.5224118 2514.13986,67.8434183 C2513.55067,70.0402081 2511.9244,72.0517104 2509.71026,72.7408733 C2508.80914,73.0607941 2507.84538,72.9888119 2506.90827,72.9781479 C2507.43214,73.2140895 2507.99067,73.391379 2508.57053,73.41404 C2510.62204,73.5220133 2512.67888,73.2220875 2514.72772,73.4393671 C2515.55819,73.5300114 2516.44331,73.5473404 2517.22046,73.1967605 C2517.76166,72.9208287 2517.97761,72.2903181 2517.98561,71.7184596 C2518.0337,70.7566462 2517.84912,69.8245928 2517.62625,68.8975341 L2517.43037,68.1035578 C2517.29958,67.5742857 2517.17442,67.0443339 2517.09116,66.5090818 C2516.69392,64.2696358 2516.6086,61.9075536 2517.37509,59.7347578 C2517.76833,58.6270319 2518.38951,57.6019522 2519.19065,56.7394989 C2519.8265,56.046337 2520.64897,55.5451277 2521.22483,54.7919807 C2522.41788,53.2576937 2523.13637,51.4181488 2523.72023,49.5812699 C2524.9426,45.5649303 2525.51713,41.3832982 2525.90237,37.2123302 C2526.16231,34.5356591 2525.26653,31.8416589 2523.70557,29.6795272 C2521.37946,26.4176676 2518.05492,24.0995744 2515.03698,21.5362086 C2513.51735,20.1845431 2511.49117,19.6060195 2509.52364,19.2967627 C2506.46837,18.8475405 2503.35445,19.046158 2500.32185,19.5540324 C2497.95175,19.9619315 2495.61365,20.5804451 2493.37952,21.4748905 C2491.42265,22.2600296 2489.52311,23.2731122 2487.99548,24.7487471 C2484.99353,27.6546948 2483.55788,31.881649 2483.4699,35.9979639 C2483.49922,37.2083311 2482.92336,38.3160571 2482.37283,39.3571328 C2480.83986,42.1057861 2478.84434,44.5545136 2477.05277,47.1325424 C2476.64754,47.7603871 2476.12366,48.4228899 2476.20764,49.21736 C2476.23963,49.6599171 2476.69152,49.8811957 2477.04477,50.0451551 C2477.95922,50.4743823 2479.03629,50.2877618 2479.93075,50.7703091 C2480.75322,51.2088672 2481.36507,51.9446852 2481.90361,52.6885011 C2482.57411,53.6495967 2482.68608,54.8546319 2482.73807,55.9916839 C2482.73689,57.1670968 2482.61827,58.3330305 2482.47431,59.4969748 L2482.25088,61.2423354 C2482.14118,62.1152059 2482.04313,62.9890638 2481.99558,63.8670688 C2481.98359,64.4922474 2481.93693,65.1947403 2482.34083,65.7199437 C2482.73941,66.1451718 2483.37125,66.1971589 2483.92046,66.2011579 C2486.23057,66.211822 2488.53135,65.3573667 2490.83879,65.853244 C2492.49973,66.1824959 2493.84341,67.350207 2494.84583,68.6605495 C2495.82293,69.9388998 2496.87734,71.3638806 2496.80403,73.0581281 C2496.72671,75.3682232 2495.00979,77.2664202 2493.11158,78.3914752 C2492.6317,78.698066 2491.88654,78.316827 2491.94653,77.7263065 C2491.90787,77.1331199 2492.58104,76.9385014 2492.95562,76.6279116 C2494.11934,75.7454632 2495.26173,74.4751109 2495.22707,72.9234947 C2495.26173,71.898415 2494.63655,71.0332957 2494.07668,70.2348266 C2493.41551,69.3163872 2492.66769,68.4166098 2491.68659,67.8287552 C2490.83479,67.3288789 2489.82037,67.2089086 2488.8486,67.2702268 C2487.24499,67.370202 2485.66537,67.735445 2484.05642,67.7767681 C2482.96069,67.7900981 2481.72898,67.5234974 2481.04515,66.591728 C2480.30932,65.5786453 2480.36664,64.2496408 2480.48795,63.0646006 C2480.66524,60.3959276 2481.36507,57.7432505 2481.10247,55.0585814 C2481.04781,53.9335264 2480.30132,53.008422 2479.47086,52.3205922 C2478.93898,51.9006961 2478.22182,51.9753443 2477.59531,51.8353789 C2476.62087,51.6340954 2475.59579,51.2355273 2475.00926,50.385071 C2474.57337,49.7745554 2474.54404,48.9694213 2474.724,48.2655954 C2474.9906,47.3071659 2475.59579,46.4993658 2476.15432,45.6942316 C2477.85525,43.2974913 2479.6988,40.9860632 2481.11713,38.4027023 C2481.52636,37.6175632 2481.9436,36.785769 2481.91027,35.8739946 C2482.04224,31.4604199 2483.55788,26.9228759 2486.76511,23.7876516 C2488.70197,21.8041423 2491.25336,20.5724471 2493.82741,19.6353456 C2498.48629,17.9930853 2503.47976,17.2266082 2508.41591,17.5878522 Z M2506.7603,66.0411975 C2505.83119,67.5354945 2505.75788,69.3937014 2506.04981,71.0839499 C2507.14554,71.4558579 2508.37858,71.5931572 2509.47965,71.1652631 C2510.88998,70.6400597 2511.93239,69.3937014 2512.45094,68.0087107 C2512.77086,67.1409254 2512.92949,66.1678329 2512.66022,65.2653895 C2512.47626,64.6255478 2511.90173,64.1136744 2511.23123,64.0550223 C2509.54763,63.9137239 2507.67875,64.5495666 2506.7603,66.0411975 Z M2511.39119,21.8587955 C2512.62689,22.9158673 2513.35339,24.4634844 2513.63199,26.0457596 C2515.02365,26.0697536 2516.43931,26.562965 2517.41774,27.5800466 C2518.62679,28.7690858 2519.10667,30.4913264 2519.22798,32.1402517 C2519.33862,32.9693799 2519.24797,33.8025071 2519.18399,34.6316353 C2520.26106,35.27281 2521.2155,36.2405706 2521.54875,37.4789309 C2521.95265,38.8745856 2521.3328,40.3768805 2520.37837,41.4006273 C2519.07335,42.7389628 2517.1858,43.2681652 2515.3849,43.5027738 C2511.0646,44.0186462 2506.7523,43.193517 2502.44934,42.9015892 C2499.48738,42.7936159 2496.62007,43.8093646 2493.66212,43.7973676 C2492.48773,43.8093646 2491.26669,43.6294092 2490.2456,43.0175605 C2488.83261,42.1497752 2487.84618,40.5941601 2487.74354,38.9305717 C2487.66356,37.7308685 2487.97148,36.4365221 2488.84994,35.5714028 C2488.72997,34.6369673 2488.31807,33.753186 2488.34073,32.7974225 C2488.26208,31.4284278 2488.82061,30.0301071 2489.85236,29.1196657 C2490.43756,28.5678023 2491.19737,28.2505474 2491.96386,28.0425989 C2492.19313,26.4949818 2492.88897,24.9406997 2494.18332,24.0022652 C2495.18042,23.2464522 2496.45611,23.0331716 2497.67182,22.9491924 C2498.78222,22.8545491 2499.91395,23.0171756 2500.94303,23.4477357 C2502.40535,21.9894298 2504.27423,20.8710399 2506.33374,20.54712 C2508.09732,20.2698553 2510.02485,20.6630913 2511.39119,21.8587955 Z M2505.76588,22.2666946 C2503.89033,22.8252231 2502.27338,24.0795794 2501.12299,25.6458585 C2500.98169,25.5058932 2500.84306,25.3645948 2500.69776,25.2286284 C2500.05258,24.5674587 2499.06082,24.4994755 2498.19169,24.4821464 C2497.00398,24.5421316 2495.67097,24.6501049 2494.77785,25.5352192 C2493.72343,26.5602989 2493.40884,28.110582 2493.48482,29.5315638 C2492.83965,29.5222328 2492.15981,29.5049037 2491.57728,29.8274906 C2490.32692,30.3926841 2489.68041,31.8869811 2489.93234,33.2039885 C2490.04298,34.12776 2490.54286,35.0035433 2490.38024,35.9526418 C2490.27759,36.5151693 2489.71106,36.8110961 2489.51778,37.3296345 C2488.99524,38.651974 2489.39781,40.2542442 2490.44555,41.2060087 C2491.16805,41.9564897 2492.24379,42.2070944 2493.25288,42.2230904 C2496.2175,42.3097357 2499.09015,41.317981 2502.05077,41.320647 C2506.26975,41.5432586 2510.47541,42.3857169 2514.71173,42.0084769 C2516.17937,41.8458504 2517.72967,41.5619207 2518.91605,40.6208202 C2519.75985,39.9329904 2520.40103,38.7372862 2519.96646,37.6522213 C2519.51457,36.5831525 2518.46682,35.9339798 2517.43507,35.5127507 C2517.81365,33.7771801 2517.84031,31.9203061 2517.26578,30.2233926 C2516.89654,29.1276637 2516.04741,28.1825642 2514.93167,27.8253193 C2514.03589,27.4947344 2513.07079,27.6533618 2512.16167,27.8279853 C2512.26965,25.9057942 2511.58848,23.7623245 2509.89555,22.6879237 C2508.67584,21.9214467 2507.12022,21.8814566 2505.76588,22.2666946 Z M2546.09619,34.1744151 C2546.05487,33.5252424 2546.69738,33.1706635 2547.24925,33.0680222 C2547.76779,32.984043 2548.31166,32.9747119 2548.82753,33.0866842 C2549.16479,33.1733295 2549.29009,33.5572345 2549.27276,33.8704903 C2549.27009,37.5602441 2549.27409,41.2513309 2549.27009,44.9424176 C2549.27809,45.1210401 2549.26609,45.3116596 2549.34074,45.4822841 C2549.59935,45.7622148 2550.02191,45.7355547 2550.3645,45.838196 C2550.47914,46.1021307 2550.54312,46.4540436 2550.30051,46.6686572 C2549.96326,46.9192619 2549.51404,46.8979338 2549.1168,46.9419229 C2548.33965,46.964584 2547.54118,47.0245691 2546.78269,46.8219526 C2546.43211,46.7313084 2546.16817,46.3673984 2546.27615,46.0048214 C2546.53208,45.6875666 2547.01064,45.7848759 2547.31723,45.5489342 C2547.49719,45.3996378 2547.43853,45.1383692 2547.46253,44.9357526 C2547.4572,41.7365441 2547.45986,38.5373357 2547.46119,35.3394602 C2547.46253,35.0022103 2547.45453,34.5836472 2547.11061,34.4036917 C2546.78802,34.2703914 2546.43211,34.2530623 2546.09619,34.1744151 Z M2551.97878,33.5412384 C2552.62395,32.9293898 2553.60372,32.9547169 2554.42752,33.0666892 C2554.80876,33.1213423 2554.98206,33.5212434 2554.94206,33.8691573 C2554.94073,37.5575781 2554.94473,41.2459988 2554.9394,44.9344196 C2554.94473,45.1650292 2554.94073,45.4382949 2555.12869,45.6089194 C2555.44194,45.7435528 2555.83118,45.7142267 2556.09912,45.9475023 C2556.21109,46.2674231 2556.12445,46.6913183 2555.76053,46.7966255 C2554.95006,47.0099061 2554.09427,46.961918 2553.2638,46.952587 C2552.8359,46.9005998 2552.3107,46.8992668 2552.02943,46.5180278 C2551.97611,46.3287413 2551.93879,46.1367888 2551.91612,45.9421703 C2552.24938,45.7995389 2552.60663,45.7302227 2552.94521,45.6009214 C2553.16649,45.456957 2553.14516,45.1650292 2553.15316,44.9344196 C2553.14783,41.7338781 2553.14783,38.5320037 2553.15316,35.3314622 C2553.15049,35.0062093 2553.12917,34.6009762 2552.81857,34.4143557 C2552.49465,34.2810554 2552.13874,34.2583943 2551.79882,34.1877451 C2551.83214,33.9677996 2551.78416,33.6985329 2551.97878,33.5412384 Z M2587.29429,33.2906338 C2587.94481,33.017368 2588.68063,32.9587159 2589.37779,33.0520261 C2589.72304,33.0946823 2590.08029,33.3492859 2590.0563,33.7345239 C2590.07229,35.5434097 2590.05497,37.3536285 2590.06163,39.1638473 C2590.80145,38.3360521 2591.85187,37.7921867 2592.9676,37.7428656 C2594.11132,37.6788814 2595.48833,37.8708339 2596.14684,38.9319047 C2596.97197,40.2929013 2596.75202,41.9511577 2596.77202,43.4681157 C2596.81068,44.1906036 2596.65205,44.9437506 2596.91732,45.6382455 C2597.2559,45.7315557 2597.69313,45.6835676 2597.93841,45.9808274 C2598.0797,46.3260753 2597.88242,46.7513034 2597.50651,46.8246186 C2596.71603,46.9952431 2595.89623,46.971249 2595.09242,46.9499209 C2594.66852,46.9032658 2594.16864,46.8979338 2593.87005,46.5433549 C2593.73941,46.3327403 2593.82873,46.0768036 2593.83272,45.84886 C2594.17797,45.7502178 2594.58454,45.7595488 2594.87514,45.5262732 C2595.08042,45.095713 2594.96579,44.5971697 2594.99644,44.1386165 C2594.95379,42.7656229 2595.14974,41.3313111 2594.6472,40.0196356 C2594.44191,39.423783 2593.85139,39.046543 2593.24087,38.9878909 C2592.43439,38.8972466 2591.51062,38.9439017 2590.88943,39.5317563 C2590.3229,40.0889518 2590.15494,40.916747 2590.08029,41.677892 C2590.0323,42.7629569 2590.06563,43.8520207 2590.05497,44.9384186 C2590.07629,45.1823583 2590.00831,45.5276062 2590.30291,45.6342465 C2590.57884,45.7355547 2590.8721,45.7768778 2591.16137,45.834197 C2591.25068,46.1207928 2591.24934,46.4140535 2591.14404,46.6979833 C2590.27758,47.0179041 2589.3378,46.96725 2588.43136,46.955253 C2588.02612,46.9152629 2587.58089,46.9072648 2587.24364,46.6513282 C2587.03702,46.4540436 2586.90505,45.9954904 2587.23698,45.854192 C2587.55823,45.7275567 2587.89948,45.6555745 2588.22207,45.5302722 C2588.30605,42.1351122 2588.22874,38.7359532 2588.26206,35.3394602 C2588.23407,35.0288704 2588.33405,34.6089743 2588.01945,34.4143557 C2587.65421,34.2437313 2587.25297,34.1810801 2586.87573,34.0464468 C2586.91439,33.753186 2586.99037,33.4186021 2587.29429,33.2906338 Z M2604.4875,34.0957679 C2605.26331,33.7998411 2606.50568,34.3637016 2606.26041,35.3301292 C2605.96581,36.4725132 2604.09426,36.4871762 2603.69036,35.4207734 C2603.52373,34.8395839 2603.97562,34.3010504 2604.4875,34.0957679 Z M2561.68711,37.7855217 C2562.27364,36.9963836 2562.30963,35.7740193 2563.2734,35.2941381 C2563.58532,36.1432613 2563.4187,37.0643668 2563.45469,37.9468151 C2564.22517,37.9534801 2564.99698,37.9401501 2565.7688,37.9641441 C2566.05806,37.9721422 2566.36732,38.1281036 2566.4633,38.4200314 C2566.58194,38.7719443 2566.23269,39.0945311 2565.90077,39.1145262 C2565.08763,39.1678463 2564.27049,39.1185252 2563.45735,39.1358543 C2563.44402,40.8460978 2563.44002,42.5563413 2563.45069,44.2679178 C2563.48668,44.8517734 2563.55333,45.5969224 2564.12519,45.9128442 C2564.89034,46.1327898 2565.59551,45.5382702 2566.36865,45.6635725 C2566.35266,45.8888501 2566.48329,46.1941079 2566.26335,46.3540684 C2565.72747,46.7792965 2565.03431,46.9392569 2564.37713,47.0618932 C2563.73995,47.1645345 2563.01479,47.1658675 2562.49225,46.7326414 C2561.80708,46.1767789 2561.6138,45.2423434 2561.5978,44.4038842 C2561.59513,42.6549836 2561.6018,40.9074159 2561.59513,39.1598483 C2561.24055,39.1518503 2560.88064,39.1878414 2560.53272,39.1105272 C2560.27278,38.9945559 2560.3341,38.6373109 2560.51539,38.4773505 C2560.84998,38.1600957 2561.3352,38.0787825 2561.68711,37.7855217 Z M2536.78776,38.4813495 C2537.96481,37.7975187 2539.3818,37.6922114 2540.71082,37.8228458 C2541.6186,37.9321521 2542.57837,38.3573802 2542.99027,39.2238325 C2543.60212,40.4581938 2543.37284,41.8805085 2543.41417,43.206847 C2543.44216,43.9240029 2543.2862,44.699811 2543.61412,45.3663128 C2544.06068,45.6569075 2544.60721,45.7448858 2545.08177,45.9874924 C2545.01245,46.6446631 2544.36994,46.956586 2543.77941,46.9952431 C2543.26354,47.0192371 2542.69834,47.1165464 2542.21845,46.8832708 C2541.7559,46.595342 2541.83055,45.9768284 2541.77589,45.5102771 C2541.13205,46.4900347 2540.00832,47.1205454 2538.8366,47.1592025 C2537.89949,47.1938606 2536.86641,47.0792223 2536.13858,46.4287166 C2534.99486,45.454291 2535.2228,43.3534774 2536.54782,42.6483186 C2538.09145,41.7698692 2539.939,41.9831498 2541.6026,41.5192646 C2541.58794,40.7541205 2541.6186,39.9209933 2541.20136,39.2451605 C2540.79346,38.662638 2540.00165,38.649308 2539.36447,38.7012951 C2538.80594,38.7239562 2538.25674,39.042544 2538.01546,39.5557504 C2537.80085,39.9729805 2537.82351,40.4541947 2537.80751,40.910082 C2537.12634,41.1086995 2536.21723,40.9594031 2535.87864,40.2675742 C2535.67869,39.5437533 2536.18257,38.8319294 2536.78776,38.4813495 M2539.21651,42.7816189 C2538.58333,42.9042552 2537.85284,43.1361978 2537.56624,43.7733735 C2537.28097,44.4905294 2537.35162,45.5196082 2538.09678,45.9315063 C2539.05521,46.4127205 2540.4882,46.2967492 2541.07606,45.2969966 C2541.57594,44.3972192 2541.58661,43.3294834 2541.6066,42.3270647 C2540.83479,42.5976644 2540.01632,42.6509846 2539.21651,42.7816189 Z M2568.87339,39.0998632 C2570.37702,37.5535791 2573.13103,37.2536533 2574.80396,38.6906311 C2575.62776,39.3717959 2576.10498,40.4528617 2576.045,41.5192646 C2575.95302,42.1444432 2575.1972,42.1977634 2574.69732,42.1857663 C2572.92708,42.1804343 2571.15684,42.1791013 2569.38793,42.1844333 C2569.41592,43.0828777 2569.69719,43.9879871 2570.30771,44.6638199 C2571.07019,45.5742613 2572.35122,45.9728294 2573.50294,45.7155597 C2574.19611,45.5875913 2574.77997,45.1703612 2575.39182,44.8477744 C2575.54778,44.9930718 2575.73707,45.1170411 2575.84238,45.3103266 C2575.87704,45.8008719 2575.46913,46.1581169 2575.09189,46.3953915 C2573.83353,47.1645345 2572.25791,47.3778151 2570.83158,47.0192371 C2569.53989,46.7019823 2568.41483,45.7488848 2567.92828,44.5078585 C2567.24978,42.7256328 2567.48972,40.4875198 2568.87339,39.0998632 M2569.49324,41.2353348 C2571.09818,41.2086747 2572.71113,41.307317 2574.31208,41.1646856 C2574.32941,40.1955921 2573.8242,39.0772021 2572.80711,38.8332625 C2571.27548,38.3920383 2569.55989,39.6517266 2569.49324,41.2353348 Z M2577.98053,39.5490853 C2578.94297,38.3507152 2580.50259,37.7068745 2582.02756,37.7695256 C2583.16462,37.7521966 2584.40032,38.0934455 2585.14548,39.0038869 C2585.54138,39.4944322 2585.66802,40.3822126 2585.07883,40.7781146 C2584.65626,41.1113655 2584.0964,41.0100572 2583.60185,40.9793981 C2583.52053,40.3195614 2583.45388,39.5744124 2582.95267,39.0825341 C2582.44479,38.6399769 2581.70364,38.6999621 2581.08912,38.8239314 C2580.04804,39.025215 2579.22957,39.9063303 2578.98696,40.919413 C2578.71236,42.072461 2578.82833,43.3708065 2579.53749,44.3532301 C2580.16934,45.3103266 2581.27707,45.9261742 2582.4288,45.9261742 C2583.33924,45.9408373 2584.16971,45.5329382 2584.98685,45.1863573 C2585.21746,45.091714 2585.63603,45.0343949 2585.70934,45.3556487 C2585.83198,45.828865 2585.35076,46.1127947 2585.03617,46.3580674 C2583.94443,47.1565365 2582.52477,47.2605108 2581.21975,47.1552035 C2579.82009,47.0498962 2578.42976,46.3647324 2577.64728,45.1743602 C2576.56221,43.4841118 2576.69817,41.0980354 2577.98053,39.5490853 Z M2603.96096,37.9788072 C2604.55548,37.8575039 2605.19,37.8375088 2605.78452,37.9748082 C2606.20175,38.1121075 2606.12977,38.5919888 2606.14177,38.9385697 C2606.12044,40.6248192 2606.18442,42.3124017 2606.1351,43.9986511 C2606.14044,44.5011935 2606.14177,45.0104008 2606.23108,45.5076111 C2606.51768,45.7342217 2606.90825,45.7222247 2607.23617,45.8648561 C2607.43079,46.1367888 2607.3948,46.6379981 2607.04022,46.7659665 C2606.50568,46.969916 2605.91516,46.9392569 2605.35262,46.963251 C2604.71544,46.95392 2604.03161,47.0085731 2603.44775,46.7166453 C2603.14915,46.5593509 2602.98653,45.9861594 2603.3691,45.842195 C2603.71435,45.6835676 2604.36086,45.7368877 2604.35553,45.2143504 C2604.38086,43.6147461 2604.35153,42.0138089 2604.36753,40.4128716 C2604.3542,40.0569597 2604.41018,39.6370636 2604.13692,39.3584658 C2603.83032,39.0745361 2603.32778,39.2478265 2603.01985,38.9692288 C2602.93854,38.4173653 2603.51707,38.1134405 2603.96096,37.9788072 Z M2609.53829,38.9945559 C2610.23812,38.1667607 2611.34852,37.7588616 2612.41626,37.7628606 C2613.54266,37.7202045 2614.70238,37.914823 2615.69414,38.4706855 C2616.29533,38.8252644 2616.82853,39.5464193 2616.58726,40.2715733 C2616.28333,40.932743 2615.42887,41.1206965 2614.79036,40.8714248 C2614.74903,40.3488875 2614.76636,39.7716969 2614.43178,39.3358048 C2614.14651,38.9492338 2613.66663,38.7692783 2613.20407,38.7279552 C2612.48958,38.655973 2611.70976,38.7839413 2611.15656,39.2704876 C2610.76466,39.6050715 2610.738,40.2782383 2611.1379,40.6168212 C2611.72443,41.1686846 2612.54423,41.3326441 2613.29605,41.5405926 C2614.27981,41.8018613 2615.29024,42.0911231 2616.12604,42.6949737 C2616.8472,43.2148451 2617.17912,44.2105987 2616.90185,45.0570559 C2616.70323,45.7728788 2616.10338,46.2900842 2615.48086,46.6433301 C2614.31714,47.2685088 2612.93347,47.2538458 2611.65911,47.0778893 C2610.76999,46.9019328 2609.77423,46.6553272 2609.22769,45.8648561 C2608.86511,45.3809758 2608.88911,44.5491816 2609.46497,44.2372588 C2609.94619,43.9173379 2610.69134,44.1252865 2610.90329,44.6731509 C2610.96594,45.0263969 2610.91529,45.3889738 2610.90462,45.7462188 C2611.90438,46.0581416 2612.98013,46.200773 2614.01721,45.9914914 C2614.49709,45.8915161 2615.00631,45.5969224 2615.10228,45.075718 C2615.27158,44.5238545 2614.85834,44.0159802 2614.41045,43.7533785 C2613.22007,43.0642157 2611.77908,43.0335566 2610.56737,42.3963809 C2609.96485,42.051133 2609.39965,41.5472576 2609.1837,40.8700918 C2609.03441,40.2342492 2609.09439,39.5050962 2609.53829,38.9945559 Z M2537.58757,52.249943 C2538.4367,52.1592987 2539.29782,52.1566327 2540.14828,52.2312809 C2540.62417,52.2925991 2541.20003,52.4418955 2541.38532,52.9444378 C2541.52929,53.3669999 2541.52529,53.8215541 2541.53329,54.2641113 C2541.53195,55.5477937 2541.52395,56.8328091 2541.51596,58.1178245 C2542.75699,56.8941273 2544.64054,56.5235523 2546.31347,56.8421401 C2547.34256,57.0340927 2548.27167,57.7165905 2548.70756,58.676353 C2549.59535,60.565219 2549.16479,62.7073557 2549.31675,64.714859 C2549.42206,65.2880505 2550.10056,65.3240416 2550.52579,65.5559842 C2550.49913,65.9772133 2550.44848,66.4477636 2550.10456,66.7410244 C2549.46738,67.3155489 2548.5556,67.3821991 2547.74513,67.4835073 C2546.56008,67.5461585 2545.32704,67.5608215 2544.19798,67.1502565 C2543.55413,66.9223128 2542.9956,66.2704741 2543.17556,65.5533182 C2543.57679,65.2800525 2544.27929,65.2787195 2544.33928,64.6735359 C2544.40993,63.5191548 2544.34461,62.3594418 2544.36994,61.2023947 C2544.36327,60.4999018 2544.36594,59.6787717 2543.82873,59.1509023 C2543.1289,58.5670467 2542.06649,58.8123194 2541.47197,59.433499 C2541.48263,60.954456 2541.4773,62.4754131 2541.4733,63.9963701 C2541.47996,64.3136249 2541.47063,64.6482088 2541.60527,64.9454686 C2541.7679,65.2880505 2542.19313,65.2973815 2542.49705,65.4453449 C2542.73433,65.5133281 2542.68234,65.8145869 2542.67301,66.0025404 C2542.61836,66.607724 2542.05716,67.0089581 2541.52129,67.1849145 C2540.40422,67.5394935 2539.21118,67.5528235 2538.05145,67.4848403 C2537.38228,67.4115251 2536.69045,67.3302119 2536.08793,67.0129571 C2535.57605,66.7570204 2535.25213,66.1651668 2535.34277,65.5959743 C2535.60004,65.3093786 2536.05327,65.3520347 2536.3252,65.084101 C2536.51982,64.8574904 2536.50783,64.5442345 2536.51582,64.2656368 C2536.50916,61.2877069 2536.51316,58.31111 2536.51316,55.3331802 C2536.51316,55.0425854 2536.4945,54.6813414 2536.21323,54.514716 C2535.92663,54.3600876 2535.61337,54.2694433 2535.31345,54.152139 C2535.34677,53.774899 2535.35077,53.3523369 2535.62537,53.0577431 C2536.11192,52.4978816 2536.89307,52.3672473 2537.58757,52.249943 Z M2572.48985,57.7859066 C2573.89885,56.8927943 2575.64376,56.5382153 2577.28736,56.8381411 C2577.96054,56.9581115 2578.57772,57.2793653 2579.10426,57.7112585 C2580.31864,56.800817 2581.90892,56.7248358 2583.36857,56.7408319 C2584.64293,56.7474969 2585.99727,57.3433495 2586.57847,58.5323886 C2587.59689,60.4225876 2587.03302,62.6300415 2587.23564,64.6668709 C2587.28363,65.1694132 2587.81284,65.2960485 2588.20341,65.4466779 C2588.46601,65.4906671 2588.3887,65.8079219 2588.39403,65.9998744 C2588.35137,66.5730659 2587.8435,66.982298 2587.34095,67.1729175 C2586.45716,67.4981704 2585.49739,67.5274965 2584.56695,67.5128334 C2583.73382,67.4755093 2582.8487,67.4115251 2582.1222,66.963636 C2581.62899,66.6663762 2581.32906,66.0052064 2581.55701,65.456009 C2581.76629,65.3347056 2582.05022,65.2840515 2582.17286,65.0494429 C2582.28883,64.8055032 2582.26217,64.5242395 2582.27417,64.2629708 C2582.26484,63.0632676 2582.27417,61.8635644 2582.27017,60.6651943 C2582.2555,60.1346589 2582.22218,59.5334743 2581.84494,59.1215762 C2581.55434,58.7856593 2581.05446,58.7749953 2580.65722,58.8829686 C2580.21733,59.053593 2580.0547,59.5574683 2580.06803,59.9933605 C2580.0507,61.32903 2580.06936,62.6646996 2580.0587,64.0017021 C2580.06936,64.3136249 2580.04537,64.6402108 2580.14934,64.9414696 C2580.26265,65.2653895 2580.63723,65.3320396 2580.90916,65.476004 C2581.04113,66.1011827 2580.80919,66.7983435 2580.21466,67.0956033 C2579.2109,67.5834826 2578.04718,67.5288295 2576.96078,67.4928384 C2576.10498,67.4008611 2575.09456,67.2928878 2574.54669,66.5410738 C2574.30008,66.242481 2574.34274,65.835915 2574.36273,65.477337 C2574.57602,65.3586997 2574.83995,65.3000476 2575.00391,65.108095 C2575.20253,64.725523 2575.14255,64.2776338 2575.15588,63.8617367 C2575.13322,62.7086887 2575.18387,61.5543076 2575.13055,60.4025926 C2575.0599,59.8507291 2574.99458,59.0895841 2574.37873,58.8763035 C2573.60292,58.6283649 2572.77645,59.3175277 2572.82177,60.1159968 C2572.86709,61.6302888 2572.74979,63.1512459 2572.84976,64.6642049 C2572.83377,65.1547502 2573.31632,65.3360386 2573.70289,65.457342 C2573.95616,66.1265097 2573.49628,66.8609947 2572.85909,67.0996023 C2571.70337,67.5634875 2570.41968,67.5528235 2569.19597,67.4768423 C2568.34018,67.370202 2567.2911,67.2342357 2566.81255,66.4171045 C2566.68858,66.1225107 2566.47929,65.5893093 2566.88986,65.4426789 C2567.21645,65.2920495 2567.67634,65.2400624 2567.80031,64.8388283 C2567.89895,64.2536398 2567.82564,63.6537882 2567.84563,63.0632676 C2567.82564,61.9542087 2567.88429,60.8411507 2567.82031,59.7347578 C2567.75765,59.2615416 2567.21778,59.1868934 2566.86453,59.0255999 C2566.5726,58.9696138 2566.65925,58.6256989 2566.68858,58.4164173 C2566.79255,57.8472248 2567.30576,57.4726508 2567.81897,57.2860303 C2568.69476,56.9821055 2569.6372,56.9567785 2570.55432,56.9874375 C2571.26614,57.0167636 2572.00997,57.2260452 2572.48985,57.7859066 Z M2591.73723,57.1420659 C2592.94227,56.7248358 2594.23929,56.6888447 2595.50032,56.774157 C2596.68537,56.8727992 2597.92507,57.178057 2598.81953,58.0085182 C2599.63666,58.7909913 2599.96459,59.9547034 2599.99924,61.0584303 C2600.02057,62.1274991 2599.98991,63.199234 2600.00724,64.2696358 C2600.02324,64.6308798 2600.06723,65.1227581 2600.4778,65.2547254 C2600.7364,65.3986898 2601.11764,65.4066878 2601.26427,65.7012816 C2601.31626,66.3851124 2600.82171,66.9996271 2600.19653,67.2235716 C2599.29808,67.5608215 2598.30365,67.5808166 2597.36388,67.4395182 C2596.62939,67.3368769 2595.95621,66.9076498 2595.59763,66.2518121 C2594.84715,67.354206 2593.43015,67.723448 2592.16379,67.7034529 C2591.1667,67.7127839 2590.07363,67.4088591 2589.44978,66.5797309 C2588.90457,65.8665741 2588.91524,64.9041455 2589.0592,64.0603543 C2589.22983,63.1645759 2589.85235,62.3914338 2590.67215,62.0008638 C2592.08914,61.2663789 2593.72608,61.3356951 2595.27371,61.3476921 C2595.27638,60.578549 2595.26038,59.800075 2595.07376,59.050927 C2594.98045,58.687017 2594.73651,58.2471259 2594.29928,58.28445 C2593.98069,58.2351288 2593.6661,58.3950893 2593.51947,58.680352 C2593.13822,59.3841779 2593.16755,60.2119731 2593.13956,60.9877811 C2592.16779,60.9717851 2591.09472,61.0011112 2590.25758,60.4319187 C2589.69772,60.0386826 2589.69105,59.2535435 2589.89234,58.665689 C2590.19227,57.8725519 2590.97608,57.4126657 2591.73723,57.1420659 M2593.93403,62.5780543 C2593.45148,63.0499376 2593.39416,63.7670935 2593.3915,64.4029362 C2593.40216,64.7961722 2593.3715,65.2507264 2593.66343,65.5599832 C2593.93803,65.8732391 2594.40192,65.861242 2594.7805,65.8039229 C2595.17107,65.7239427 2595.28438,65.2733875 2595.29371,64.9308056 C2595.32703,64.0510232 2595.26705,63.1712409 2595.26705,62.2927916 C2594.80849,62.1928163 2594.27795,62.2221424 2593.93403,62.5780543 Z M2607.89335,57.7979037 C2609.30767,56.9127893 2611.04459,56.5795385 2612.6922,56.803483 C2613.80926,56.9567785 2614.86101,57.6632703 2615.31423,58.7136771 C2616.06205,60.3226124 2615.81544,62.1461612 2615.85544,63.8644027 C2615.86077,64.340285 2615.77812,65.0494429 2616.34465,65.2440614 C2616.58193,65.3866928 2617.06048,65.3493687 2617.06448,65.7186107 C2617.15779,66.3624514 2616.66591,66.9049838 2616.09671,67.1142654 C2614.97298,67.5434925 2613.74261,67.5421595 2612.55889,67.4955044 C2611.79241,67.4221892 2610.97794,67.344875 2610.32076,66.9049838 C2609.85954,66.609057 2609.57694,65.9758803 2609.82488,65.456009 C2610.22212,65.3280406 2610.82598,65.2773865 2610.90596,64.7655131 C2610.97794,63.6684512 2610.91129,62.5660573 2610.93662,61.4676624 C2610.92329,60.7771666 2611.00193,60.0226866 2610.62736,59.4081719 C2609.98884,58.4004213 2608.06797,58.7296731 2607.99599,59.9933605 C2607.98666,61.5543076 2607.952,63.1192538 2608.00132,64.6788679 C2608.06664,65.2800525 2608.75447,65.3320396 2609.19437,65.5453202 C2609.24369,66.1971589 2608.89577,66.8436656 2608.27192,67.0809403 C2607.07354,67.5594885 2605.74586,67.5474915 2604.47683,67.4848403 C2603.66103,67.3861981 2602.73992,67.2942208 2602.1414,66.6650432 C2601.84013,66.3784474 2601.82814,65.9372232 2601.79081,65.5519852 C2602.22404,65.3307066 2602.93454,65.2893835 2602.98253,64.6762019 C2603.02118,63.0712656 2603.01319,61.4623304 2602.98653,59.8573941 C2602.9732,59.2255505 2602.26537,59.1748963 2601.8388,58.9376217 C2601.69217,58.3151091 2602.09607,57.6992614 2602.64927,57.4406587 C2603.56905,56.9861045 2604.62613,56.9794395 2605.62856,56.9781065 C2606.44436,56.9794395 2607.33082,57.155396 2607.89335,57.7979037 Z M2559.23703,57.5832901 C2560.02618,57.0927448 2560.99128,57.0207626 2561.89906,56.9821055 C2562.64155,56.9621105 2563.46135,56.9487804 2564.09053,57.4099997 C2564.67973,57.8472248 2564.78637,58.6403619 2564.7997,59.3241927 C2564.8077,60.9691191 2564.7997,62.6140454 2564.80103,64.2603048 C2564.81969,64.5535656 2564.8077,64.9094775 2565.03697,65.1334221 C2565.32357,65.3373717 2565.67682,65.4106868 2565.99808,65.5493192 C2566.03807,66.1185117 2565.82878,66.7236953 2565.29291,66.994295 C2564.29582,67.5181654 2563.12143,67.5434925 2562.02036,67.5154994 C2561.10858,67.4928384 2560.15681,66.986297 2559.90887,66.0531945 C2558.89445,67.1515895 2557.39614,67.7567731 2555.90717,67.7047859 C2554.83009,67.722115 2553.6917,67.362204 2552.97987,66.5210788 C2552.32136,65.7146116 2552.04676,64.6615389 2551.97211,63.6404582 C2551.92279,62.4740801 2551.96945,61.306369 2551.94945,60.1399909 C2551.94145,59.8267351 2551.87347,59.4508281 2551.56688,59.2948666 C2551.29894,59.1628993 2551.01367,59.0749211 2550.73641,58.9696138 C2550.68709,58.4377454 2550.83772,57.8432258 2551.3376,57.5699601 C2552.26671,57.0247616 2553.3891,56.9901035 2554.43819,56.9754405 C2555.13269,56.9701085 2555.9205,57.0727498 2556.40838,57.6219472 C2556.81095,58.0884985 2556.85361,58.7416702 2556.8776,59.3295247 C2556.88826,60.7958286 2556.8736,62.2607995 2556.8816,63.7271034 C2556.8856,64.2549728 2556.96291,64.8281643 2557.32283,65.2400624 C2558.02532,65.9692153 2559.55829,65.7292747 2559.79423,64.6735359 C2559.87821,63.8724008 2559.8089,63.0632676 2559.83022,62.2594665 C2559.81023,61.4143423 2559.89687,60.563886 2559.8009,59.7227608 C2559.67693,59.1895594 2559.04641,59.1455703 2558.62918,58.9549507 C2558.59319,58.4284144 2558.76781,57.8725519 2559.23703,57.5832901 Z" id="path-1"></path>
    </defs>
    <g id="Page-1" stroke="none" stroke-width="1" fill="none" fill-rule="evenodd">
        <g id="Press-Social" transform="translate(-2473.7768, -17.5)" fill="#929292" fill-rule="nonzero">
            <g id="All-Tech-Is-Human">
                <use xlink:href="#path-1"></use>
                <use xlink:href="#path-1"></use>
            </g>
        </g>
    </g>
</svg>