<svg width="716" height="198" viewBox="0 0 716 198" fill="none" xmlns="http://www.w3.org/2000/svg">
<path fill-rule="evenodd" clip-rule="evenodd" d="M597.189 0.720462C587.393 -0.133268 577.234 0.898773 568.243 5.08638C561.057 8.38783 554.762 13.7588 550.699 20.5832C545.29 29.5636 543.928 40.6783 546.165 50.8528C547.743 58.0231 552.006 64.5071 557.891 68.8784C565.839 74.914 575.63 77.6481 585.129 80.1876C586.118 80.4684 587.115 80.7339 588.112 80.9997C591.355 81.8642 594.608 82.731 597.67 84.1321C599.513 85.0291 601.577 86.3204 601.96 88.5142C602.301 91.0754 600.458 93.3124 598.437 94.6254C594.266 97.3325 588.83 97.1758 584.324 95.4251C578.24 93.0855 573.485 88.217 570.07 82.7867C559.922 90.816 549.775 98.8454 539.627 106.88C545.047 112.964 551.147 118.578 558.344 122.485C566.903 127.213 576.667 129.391 586.377 129.828C597.081 130.406 608.163 128.867 617.673 123.69C626.438 119.011 633.5 111.116 636.823 101.72C640.086 92.4749 640.34 81.9329 636.585 72.7904C634.035 66.6738 629.301 61.6649 623.763 58.1257C615.844 53.0387 606.686 50.4561 597.714 47.9259L597.67 47.9134C596.924 47.6952 596.174 47.4832 595.425 47.2712C592.109 46.3331 588.785 45.3927 585.669 43.8987C583.74 42.9207 581.6 41.5536 581.157 39.268C580.72 36.7663 582.324 34.351 584.41 33.1082C588.009 30.9306 592.596 31.0441 596.454 32.476C602.052 34.5617 606.483 39.0357 609.406 44.1581C618.873 36.8203 628.329 29.4771 637.785 22.1286C633.959 17.4168 629.49 13.2022 624.411 9.85754C616.339 4.4866 606.812 1.52016 597.189 0.720462ZM66.5253 2.51978C78.3911 2.51438 90.2569 2.51438 102.123 2.51978C107.634 41.9697 113.14 81.4196 118.646 120.87C118.687 121.156 118.729 121.443 118.771 121.729L118.771 121.729L118.772 121.73L118.772 121.73L118.772 121.73L118.772 121.731C118.991 123.222 119.211 124.716 119.257 126.23C120.681 117.361 122.25 108.516 123.819 99.6709L123.82 99.6682L123.82 99.6669L123.82 99.6655C124.781 94.2477 125.742 88.8302 126.67 83.408C128.444 73.2938 130.215 63.1796 131.986 53.0654C134.937 36.2169 137.887 19.3683 140.849 2.51978C148.797 2.51618 156.744 2.51738 164.691 2.51858H164.692H164.693H164.693H164.694H164.694C168.669 2.51918 172.643 2.51978 176.619 2.51978C171.296 32.8326 165.969 63.1455 160.641 93.4583C168.975 93.4664 177.309 93.4654 185.643 93.4644C188.418 93.464 191.194 93.4637 193.969 93.4637C193.267 97.4988 192.566 101.535 191.865 105.571C190.563 113.062 189.261 120.555 187.955 128.045H83.7134C83.2757 124.682 82.8528 121.319 82.4297 117.955L82.4293 117.952L82.4289 117.949L82.4286 117.946L82.4282 117.943L82.4278 117.939C82.2247 116.325 82.0216 114.71 81.8168 113.094C75.7543 113.083 69.693 113.086 63.6318 113.089C57.5706 113.091 51.5094 113.094 45.4468 113.083C43.9818 115.942 42.5364 118.809 41.0912 121.677C40.0204 123.801 38.9498 125.925 37.8713 128.045H0.544922C22.5312 86.2016 44.5229 44.358 66.5253 2.51978ZM67.8449 67.2687L67.8405 67.2774C65.2687 72.3251 62.6969 77.3728 60.1223 82.4192C62.2389 82.4192 64.3548 82.4198 66.4705 82.4204H66.4711H66.4717H66.4723H66.4729H66.4735C70.7033 82.4216 74.9323 82.4228 79.1638 82.4192L78.8222 79.5448C77.7365 70.4086 76.6503 61.2688 75.5597 52.1334C72.9878 57.1747 70.4186 62.2174 67.8493 67.2601L67.8449 67.2687ZM213.086 2.52518C225.011 2.50897 236.936 2.51438 248.862 2.52518C246.204 17.676 243.541 32.8269 240.878 47.9777L240.877 47.9833L240.876 47.989L240.875 47.9946C238.212 63.151 235.548 78.3073 232.889 93.4637C237.333 93.4659 241.776 93.4646 246.22 93.4633C252.885 93.4613 259.551 93.4594 266.217 93.4691C264.711 102.084 263.213 110.7 261.716 119.315L261.715 119.319L261.714 119.323L261.699 119.412C261.199 122.29 260.698 125.168 260.198 128.045H191.089C194.756 107.136 198.419 86.2248 202.082 65.314C205.749 44.3839 209.415 23.4539 213.086 2.52518ZM324.147 2.51802C313.28 2.51581 302.412 2.5136 291.543 2.52518V128.051C303.522 128.045 315.496 128.045 327.475 128.045C327.477 122.174 327.477 116.302 327.476 110.431V110.408C327.475 102.568 327.474 94.7279 327.48 86.8878C334.283 100.607 341.081 114.326 347.878 128.051C358.446 128.046 369.014 128.047 379.581 128.049C393.672 128.05 407.763 128.052 421.856 128.04L421.859 128.028L421.865 128.009C423.402 123.032 424.939 118.055 426.497 113.083C431.905 113.088 437.311 113.088 442.717 113.087C449.207 113.086 455.696 113.085 462.186 113.094C462.859 115.256 463.529 117.419 464.199 119.582L464.201 119.588C465.074 122.408 465.947 125.227 466.828 128.045C490.743 128.051 514.664 128.051 538.579 128.045C538.579 114.1 538.579 100.154 538.58 86.2086V86.208V86.2074V86.2068V86.2062V85.1607C538.581 57.6152 538.582 30.069 538.579 2.52518C529.852 2.5136 521.129 2.51581 512.406 2.51802H512.405H512.405H512.404C508.916 2.5189 505.427 2.51978 501.939 2.51978C501.939 14.2475 501.937 25.9748 501.935 37.7019V37.7025V37.7031V37.7036V37.7042C501.931 67.0288 501.926 96.3523 501.95 125.679C493.594 100.157 485.175 74.6599 476.755 49.1636L476.754 49.1596L476.749 49.1439L476.73 49.0863C471.605 33.5676 466.48 18.0491 461.37 2.52518C452.941 2.51708 444.515 2.51809 436.088 2.5191C433.278 2.51944 430.469 2.51978 427.659 2.51978C414.058 43.5367 400.469 84.559 386.896 125.587C382.805 118.291 378.69 111.01 374.574 103.729L374.572 103.726L374.569 103.719L374.565 103.713L374.564 103.711C371.181 97.7261 367.798 91.7413 364.429 85.7477C373.36 80.809 380.077 72.2501 383.032 62.5079C386.485 51.231 386.258 38.6088 381.363 27.7859C377.894 20.0537 371.923 13.5048 364.58 9.27398C356.329 4.45959 346.668 2.51438 337.185 2.51978C332.84 2.51978 328.495 2.5189 324.15 2.51802H324.149H324.148H324.147ZM327.474 41.4299V41.4294L327.475 40.5405V40.54C327.475 38.7632 327.475 36.9865 327.475 35.2101C328.667 35.2338 329.859 35.2221 331.051 35.2104C333.118 35.1901 335.185 35.1699 337.244 35.3344C341.448 35.7774 345.603 38.1981 347.397 42.1372C349.283 46.3248 348.91 51.6093 346.111 55.316C343.755 58.3797 339.865 59.9467 336.072 60.0709C334.338 60.1102 332.605 60.1039 330.872 60.0976C329.741 60.0935 328.611 60.0894 327.48 60.098C327.472 53.8768 327.473 47.6526 327.474 41.4299ZM441.798 60.751L441.79 60.7771C439.497 67.991 437.205 75.2037 434.921 82.4192C438.056 82.4219 441.192 82.4219 444.327 82.4219C447.465 82.4219 450.603 82.4219 453.741 82.4246C452.528 78.4447 451.318 74.4639 450.109 70.4833L450.105 70.4698L450.101 70.4596L450.097 70.4445C448.244 64.3483 446.392 58.2524 444.528 52.1604C443.621 55.0156 442.714 57.8704 441.807 60.725L441.798 60.751ZM641.578 128.045C641.578 116.08 641.577 104.115 641.576 92.1508V92.1502C641.574 62.2735 641.572 32.398 641.583 2.51978C648.667 2.51978 655.752 2.5189 662.837 2.51802H662.837H662.839C680.551 2.51581 698.265 2.51361 715.977 2.52518V35.5505C709.537 35.5532 703.097 35.5532 696.656 35.5532C690.218 35.5532 683.779 35.5532 677.343 35.5559C677.343 36.6301 677.342 37.7042 677.342 38.7784V38.842C677.341 42.0318 677.34 45.2223 677.348 48.4159C681.36 48.4159 685.373 48.4153 689.387 48.4147C697.415 48.4135 705.445 48.4123 713.475 48.4159C713.477 53.9219 713.477 59.4266 713.477 64.9306C713.477 70.4346 713.477 75.9379 713.48 81.4412C704.448 81.4493 695.416 81.4483 686.384 81.4473C683.372 81.447 680.36 81.4466 677.348 81.4466C677.332 86.0233 677.337 90.6053 677.348 95.1874H715.971C715.979 103.339 715.978 111.491 715.977 119.645V119.809L715.977 124.373L715.977 128.051C701.804 128.044 687.634 128.045 673.463 128.046C662.835 128.047 652.207 128.047 641.578 128.045ZM239.379 162.561C159.946 162.561 80.5128 162.562 1.07985 162.562C1.03457 171.343 1.03947 180.128 1.04437 188.911C1.0459 191.655 1.04743 194.399 1.04743 197.143C120.202 197.141 239.357 197.142 358.512 197.143C477.667 197.145 596.822 197.146 715.977 197.143V162.562C557.111 162.558 398.245 162.559 239.379 162.561Z" fill="#929292"/>
<path fill-rule="evenodd" clip-rule="evenodd" d="M597.189 0.720462C587.393 -0.133268 577.234 0.898773 568.243 5.08638C561.057 8.38783 554.762 13.7588 550.699 20.5832C545.29 29.5636 543.928 40.6783 546.165 50.8528C547.743 58.0231 552.006 64.5071 557.891 68.8784C565.839 74.914 575.63 77.6481 585.129 80.1876C586.118 80.4684 587.115 80.7339 588.112 80.9997C591.355 81.8642 594.608 82.731 597.67 84.1321C599.513 85.0291 601.577 86.3204 601.96 88.5142C602.301 91.0754 600.458 93.3124 598.437 94.6254C594.266 97.3325 588.83 97.1758 584.324 95.4251C578.24 93.0855 573.485 88.217 570.07 82.7867C559.922 90.816 549.775 98.8454 539.627 106.88C545.047 112.964 551.147 118.578 558.344 122.485C566.903 127.213 576.667 129.391 586.377 129.828C597.081 130.406 608.163 128.867 617.673 123.69C626.438 119.011 633.5 111.116 636.823 101.72C640.086 92.4749 640.34 81.9329 636.585 72.7904C634.035 66.6738 629.301 61.6649 623.763 58.1257C615.844 53.0387 606.686 50.4561 597.714 47.9259L597.67 47.9134C596.924 47.6952 596.174 47.4832 595.425 47.2712C592.109 46.3331 588.785 45.3927 585.669 43.8987C583.74 42.9207 581.6 41.5536 581.157 39.268C580.72 36.7663 582.324 34.351 584.41 33.1082C588.009 30.9306 592.596 31.0441 596.454 32.476C602.052 34.5617 606.483 39.0357 609.406 44.1581C618.873 36.8203 628.329 29.4771 637.785 22.1286C633.959 17.4168 629.49 13.2022 624.411 9.85754C616.339 4.4866 606.812 1.52016 597.189 0.720462ZM66.5253 2.51978C78.3911 2.51438 90.2569 2.51438 102.123 2.51978C107.634 41.9697 113.14 81.4196 118.646 120.87C118.687 121.156 118.729 121.443 118.771 121.729L118.771 121.729L118.772 121.73L118.772 121.73L118.772 121.73L118.772 121.731C118.991 123.222 119.211 124.716 119.257 126.23C120.681 117.361 122.25 108.516 123.819 99.6709L123.82 99.6682L123.82 99.6669L123.82 99.6655C124.781 94.2477 125.742 88.8302 126.67 83.408C128.444 73.2938 130.215 63.1796 131.986 53.0654C134.937 36.2169 137.887 19.3683 140.849 2.51978C148.797 2.51618 156.744 2.51738 164.691 2.51858H164.692H164.693H164.693H164.694H164.694C168.669 2.51918 172.643 2.51978 176.619 2.51978C171.296 32.8326 165.969 63.1455 160.641 93.4583C168.975 93.4664 177.309 93.4654 185.643 93.4644C188.418 93.464 191.194 93.4637 193.969 93.4637C193.267 97.4988 192.566 101.535 191.865 105.571C190.563 113.062 189.261 120.555 187.955 128.045H83.7134C83.2757 124.682 82.8528 121.319 82.4297 117.955L82.4293 117.952L82.4289 117.949L82.4286 117.946L82.4282 117.943L82.4278 117.939C82.2247 116.325 82.0216 114.71 81.8168 113.094C75.7543 113.083 69.693 113.086 63.6318 113.089C57.5706 113.091 51.5094 113.094 45.4468 113.083C43.9818 115.942 42.5364 118.809 41.0912 121.677C40.0204 123.801 38.9498 125.925 37.8713 128.045H0.544922C22.5312 86.2016 44.5229 44.358 66.5253 2.51978ZM67.8449 67.2687L67.8405 67.2774C65.2687 72.3251 62.6969 77.3728 60.1223 82.4192C62.2389 82.4192 64.3548 82.4198 66.4705 82.4204H66.4711H66.4717H66.4723H66.4729H66.4735C70.7033 82.4216 74.9323 82.4228 79.1638 82.4192L78.8222 79.5448C77.7365 70.4086 76.6503 61.2688 75.5597 52.1334C72.9878 57.1747 70.4186 62.2174 67.8493 67.2601L67.8449 67.2687ZM213.086 2.52518C225.011 2.50897 236.936 2.51438 248.862 2.52518C246.204 17.676 243.541 32.8269 240.878 47.9777L240.877 47.9833L240.876 47.989L240.875 47.9946C238.212 63.151 235.548 78.3073 232.889 93.4637C237.333 93.4659 241.776 93.4646 246.22 93.4633C252.885 93.4613 259.551 93.4594 266.217 93.4691C264.711 102.084 263.213 110.7 261.716 119.315L261.715 119.319L261.714 119.323L261.699 119.412C261.199 122.29 260.698 125.168 260.198 128.045H191.089C194.756 107.136 198.419 86.2248 202.082 65.314C205.749 44.3839 209.415 23.4539 213.086 2.52518ZM324.147 2.51802C313.28 2.51581 302.412 2.5136 291.543 2.52518V128.051C303.522 128.045 315.496 128.045 327.475 128.045C327.477 122.174 327.477 116.302 327.476 110.431V110.408C327.475 102.568 327.474 94.7279 327.48 86.8878C334.283 100.607 341.081 114.326 347.878 128.051C358.446 128.046 369.014 128.047 379.581 128.049C393.672 128.05 407.763 128.052 421.856 128.04L421.859 128.028L421.865 128.009C423.402 123.032 424.939 118.055 426.497 113.083C431.905 113.088 437.311 113.088 442.717 113.087C449.207 113.086 455.696 113.085 462.186 113.094C462.859 115.256 463.529 117.419 464.199 119.582L464.201 119.588C465.074 122.408 465.947 125.227 466.828 128.045C490.743 128.051 514.664 128.051 538.579 128.045C538.579 114.1 538.579 100.154 538.58 86.2086V86.208V86.2074V86.2068V86.2062V85.1607C538.581 57.6152 538.582 30.069 538.579 2.52518C529.852 2.5136 521.129 2.51581 512.406 2.51802H512.405H512.405H512.404C508.916 2.5189 505.427 2.51978 501.939 2.51978C501.939 14.2475 501.937 25.9748 501.935 37.7019V37.7025V37.7031V37.7036V37.7042C501.931 67.0288 501.926 96.3523 501.95 125.679C493.594 100.157 485.175 74.6599 476.755 49.1636L476.754 49.1596L476.749 49.1439L476.73 49.0863C471.605 33.5676 466.48 18.0491 461.37 2.52518C452.941 2.51708 444.515 2.51809 436.088 2.5191C433.278 2.51944 430.469 2.51978 427.659 2.51978C414.058 43.5367 400.469 84.559 386.896 125.587C382.805 118.291 378.69 111.01 374.574 103.729L374.572 103.726L374.569 103.719L374.565 103.713L374.564 103.711C371.181 97.7261 367.798 91.7413 364.429 85.7477C373.36 80.809 380.077 72.2501 383.032 62.5079C386.485 51.231 386.258 38.6088 381.363 27.7859C377.894 20.0537 371.923 13.5048 364.58 9.27398C356.329 4.45959 346.668 2.51438 337.185 2.51978C332.84 2.51978 328.495 2.5189 324.15 2.51802H324.149H324.148H324.147ZM327.474 41.4299V41.4294L327.475 40.5405V40.54C327.475 38.7632 327.475 36.9865 327.475 35.2101C328.667 35.2338 329.859 35.2221 331.051 35.2104C333.118 35.1901 335.185 35.1699 337.244 35.3344C341.448 35.7774 345.603 38.1981 347.397 42.1372C349.283 46.3248 348.91 51.6093 346.111 55.316C343.755 58.3797 339.865 59.9467 336.072 60.0709C334.338 60.1102 332.605 60.1039 330.872 60.0976C329.741 60.0935 328.611 60.0894 327.48 60.098C327.472 53.8768 327.473 47.6526 327.474 41.4299ZM441.798 60.751L441.79 60.7771C439.497 67.991 437.205 75.2037 434.921 82.4192C438.056 82.4219 441.192 82.4219 444.327 82.4219C447.465 82.4219 450.603 82.4219 453.741 82.4246C452.528 78.4447 451.318 74.4639 450.109 70.4833L450.105 70.4698L450.101 70.4596L450.097 70.4445C448.244 64.3483 446.392 58.2524 444.528 52.1604C443.621 55.0156 442.714 57.8704 441.807 60.725L441.798 60.751ZM641.578 128.045C641.578 116.08 641.577 104.115 641.576 92.1508V92.1502C641.574 62.2735 641.572 32.398 641.583 2.51978C648.667 2.51978 655.752 2.5189 662.837 2.51802H662.837H662.839C680.551 2.51581 698.265 2.51361 715.977 2.52518V35.5505C709.537 35.5532 703.097 35.5532 696.656 35.5532C690.218 35.5532 683.779 35.5532 677.343 35.5559C677.343 36.6301 677.342 37.7042 677.342 38.7784V38.842C677.341 42.0318 677.34 45.2223 677.348 48.4159C681.36 48.4159 685.373 48.4153 689.387 48.4147C697.415 48.4135 705.445 48.4123 713.475 48.4159C713.477 53.9219 713.477 59.4266 713.477 64.9306C713.477 70.4346 713.477 75.9379 713.48 81.4412C704.448 81.4493 695.416 81.4483 686.384 81.4473C683.372 81.447 680.36 81.4466 677.348 81.4466C677.332 86.0233 677.337 90.6053 677.348 95.1874H715.971C715.979 103.339 715.978 111.491 715.977 119.645V119.809L715.977 124.373L715.977 128.051C701.804 128.044 687.634 128.045 673.463 128.046C662.835 128.047 652.207 128.047 641.578 128.045ZM239.379 162.561C159.946 162.561 80.5128 162.562 1.07985 162.562C1.03457 171.343 1.03947 180.128 1.04437 188.911C1.0459 191.655 1.04743 194.399 1.04743 197.143C120.202 197.141 239.357 197.142 358.512 197.143C477.667 197.145 596.822 197.146 715.977 197.143V162.562C557.111 162.558 398.245 162.559 239.379 162.561Z" fill="#929292"/>
</svg>
