<svg width="870" height="187" viewBox="0 0 870 187" fill="none" xmlns="http://www.w3.org/2000/svg">
<path fill-rule="evenodd" clip-rule="evenodd" d="M438.692 100.55C433.575 102.532 427.775 103.528 421.292 103.528C406.456 103.528 399.033 96.105 399.033 81.269V35.183H384.611V25.1506L399.503 23.2696L401.854 0.696777H414.552V22.9561H438.065V35.183H414.552V80.4853C414.552 84.3482 415.414 87.0689 417.138 88.6364C418.863 90.2039 421.818 90.9882 425.995 90.9882C430.171 90.9882 434.516 90.4616 438.692 89.4201V100.55ZM362.923 59.1686C369.093 61.5763 373.527 64.4204 376.247 67.7119C378.968 71.004 380.323 75.2585 380.323 80.4876C380.323 87.9108 377.558 93.8119 372.015 98.2008C366.473 102.59 359.105 104.784 349.913 104.784C339.567 104.784 330.576 102.803 322.95 98.8281V87.855C332.77 91.0912 341.862 92.7146 350.226 92.7146C355.343 92.7146 359.239 91.7179 361.904 89.7361C364.569 87.7543 365.901 84.8765 365.901 81.1148C365.901 78.6065 365.096 76.5688 363.472 75.0013C361.848 73.4338 358.903 71.8657 354.615 70.2982L341.291 65.2821C329.691 60.9939 323.891 53.6823 323.891 43.3365C323.891 36.54 326.533 31.0536 331.807 26.8772C337.081 22.7008 344.012 20.607 352.578 20.607C361.143 20.607 368.622 22.2753 375.934 25.6231V36.596C367.783 33.9871 360.259 32.6771 353.361 32.6771C343.329 32.6771 338.312 36.0697 338.312 42.8662C338.312 45.5871 339.153 47.7257 340.821 49.2932C342.489 50.8608 345.781 52.5851 350.697 54.4661L362.923 59.1686ZM511.404 102.433H498.55L497.296 94.2821C493.534 97.5177 489.38 100.026 484.834 101.807C480.288 103.586 475.765 104.471 471.275 104.471C463.851 104.471 457.928 102.355 453.483 98.1223C449.038 93.8899 446.821 88.2244 446.821 81.1148C446.821 73.4897 449.542 67.3983 454.972 62.8523C460.403 58.3066 467.725 56.0337 476.918 56.0337C482.975 56.0337 489.559 56.9182 496.669 58.6985V48.3527C496.669 42.7095 495.393 38.7346 492.828 36.4392C490.265 34.1439 485.909 32.9906 479.74 32.9906C470.861 32.9906 461.656 34.6142 452.151 37.85V26.8772C455.913 24.8953 460.515 23.3502 465.945 22.2529C471.376 21.1556 476.862 20.607 482.405 20.607C492.336 20.607 499.648 22.6671 504.35 26.7988C509.053 30.9304 511.404 37.223 511.404 45.6878V102.433ZM496.669 68.7307C491.239 67.3762 485.696 66.6931 480.053 66.6931C468.241 66.6931 462.34 71.2391 462.34 80.3311C462.34 84.3057 463.437 87.3621 465.632 89.501C467.826 91.6393 470.961 92.7146 475.037 92.7146C482.147 92.7146 489.358 90.0497 496.669 84.72V68.7307ZM544.748 102.431H529.23V22.9557H542.24L543.964 34.7123C546.887 31.5772 549.608 29.1475 552.116 27.4232C554.624 25.6989 557.188 24.4225 559.797 23.5827C562.405 22.7429 565.227 22.3286 568.262 22.3286C570.244 22.3286 572.393 22.4854 574.689 22.7989V36.9069C571.341 36.4926 568.519 36.2799 566.224 36.2799C557.86 36.2799 550.705 38.788 544.748 43.8041V102.431ZM616.709 103.528C623.197 103.528 628.992 102.532 634.112 100.55V89.4201C629.934 90.4616 625.588 90.9882 621.416 90.9882C617.238 90.9882 614.283 90.2039 612.555 88.6364C610.832 87.0689 609.971 84.3482 609.971 80.4853V35.183H633.484V22.9561H609.971V0.696777H597.275L594.924 23.2696L580.03 25.1506V35.183H594.453V81.269C594.453 96.105 601.878 103.528 616.709 103.528ZM711.859 102.429H699.006L697.283 93.9638C687.561 101.175 677.588 104.78 667.341 104.78C659.917 104.78 654.232 102.686 650.258 98.5098C646.278 94.3333 644.3 88.4217 644.3 80.7965V22.9537H659.818V75.7804C659.818 81.4232 660.918 85.5776 663.111 88.2425C665.305 90.9073 668.808 92.2398 673.614 92.2398C681.137 92.2398 688.719 89.7314 696.341 84.7153V22.9537H711.859V102.429ZM745.362 134.725H729.844V22.9583H742.854L744.262 31.1095C752.204 24.1116 761.037 20.607 770.754 20.607C780.476 20.607 788.884 24.2907 794.737 31.6582C800.597 39.0257 803.518 49.0357 803.518 61.677C803.518 74.3182 800.44 84.8206 794.272 92.5575C788.099 100.295 779.906 104.158 769.66 104.158C760.251 104.158 752.158 101.079 745.362 94.9093V134.725ZM745.362 84.0927C752.158 89.1088 759.053 91.6172 766.052 91.6172C780.476 91.6172 787.685 81.8986 787.685 62.4607C787.685 52.5291 785.94 45.1616 782.431 40.3582C778.929 35.5547 773.576 33.1474 766.366 33.1474C759.157 33.1474 751.942 35.5547 745.362 40.3582V84.0927ZM852.079 59.1686C858.246 61.5763 862.68 64.4204 865.403 67.7119C868.126 71.004 869.476 75.2585 869.476 80.4876C869.476 87.9108 866.712 93.8119 861.173 98.2008C855.628 102.59 848.262 104.784 839.069 104.784C828.723 104.784 819.734 102.803 812.106 98.8281V87.855C821.927 91.0912 831.016 92.7146 839.383 92.7146C844.497 92.7146 848.396 91.7179 851.06 89.7361C853.725 87.7543 855.058 84.8765 855.058 81.1148C855.058 78.6065 854.249 76.5688 852.626 75.0013C851.002 73.4338 848.058 71.8657 843.77 70.2982L830.446 65.2821C818.849 60.9939 813.048 53.6823 813.048 43.3365C813.048 36.54 815.69 31.0536 820.961 26.8772C826.239 22.7008 833.169 20.607 841.733 20.607C850.298 20.607 857.781 22.2753 865.089 25.6231V36.596C856.937 33.9871 849.414 32.6771 842.519 32.6771C832.482 32.6771 827.466 36.0697 827.466 42.8662C827.466 45.5871 828.31 47.7257 829.974 49.2932C831.644 50.8608 834.937 52.5851 839.854 54.4661L852.079 59.1686ZM81.3455 77.3182C81.3455 80.8902 81.7039 83.7337 82.4318 85.8615C83.1597 87.9888 84.1895 90.2731 85.533 92.725C85.981 93.5088 86.2051 94.2367 86.2051 94.8971C86.2051 95.9048 85.5895 96.8568 84.3577 97.7412L78.3338 101.761C77.4377 102.321 76.5981 102.601 75.8254 102.601C74.8177 102.601 73.8774 102.153 72.9814 101.257C71.6379 99.9132 70.4957 98.4353 69.5444 96.823C68.5925 95.2107 67.6185 93.3406 66.6107 91.2134C59.131 100.037 49.7594 104.437 38.4842 104.437C30.4448 104.437 24.085 102.153 19.3936 97.573C14.7021 92.9939 12.362 86.8577 12.362 79.1546C12.362 71.0145 15.262 64.453 21.0731 59.4816C26.8731 54.5214 34.6884 52.0358 44.5081 52.0358C47.7439 52.0358 51.1254 52.2821 54.6412 52.7859C58.157 53.2898 61.8069 53.984 65.614 54.8797V47.8481C65.614 40.5926 64.1023 35.4869 61.0907 32.5309C58.0786 29.575 52.8833 28.097 45.5158 28.097C42.1679 28.097 38.7305 28.5112 35.2147 29.351C31.6989 30.1907 28.2615 31.2769 24.9136 32.6205C23.3461 33.2923 22.2376 33.7066 21.5657 33.8745C20.8939 34.0425 20.3901 34.1208 20.0654 34.1208C18.7218 34.1208 18.0611 33.1131 18.0611 31.1089V26.4174C18.0611 24.8499 18.2851 23.7414 18.7329 23.0696C19.1809 22.3978 20.0766 21.726 21.409 21.0654C24.7568 19.3858 28.7766 17.9415 33.468 16.7098C38.1595 15.4781 43.1197 14.8623 48.371 14.8623C59.7582 14.8623 68.0996 17.46 73.4073 22.6441C78.7033 27.8394 81.3565 35.6772 81.3565 46.1686V77.3072L81.3455 77.3182ZM242.272 104.762C237.247 104.761 232.344 104.202 227.542 103.093C222.739 101.974 219.055 100.697 216.491 99.2418C214.924 98.3457 213.95 97.4613 213.557 96.5652C213.166 95.6698 212.976 94.7854 212.976 93.8893V89.0303C212.976 87.0258 213.703 86.0181 215.148 86.0181C215.707 86.0181 216.29 86.1304 216.905 86.3538C217.522 86.5778 218.327 86.9141 219.335 87.3616C222.571 88.8173 226.087 89.9368 229.882 90.7095C233.678 91.4933 237.474 91.8854 241.27 91.8854C247.294 91.8854 251.951 90.8218 255.243 88.7056C258.535 86.5889 260.181 83.5772 260.181 79.6695C260.181 76.9936 259.319 74.754 257.584 72.9736C255.848 71.1937 252.646 69.5139 247.954 67.9464L234.059 63.5907C227.027 61.3628 221.922 58.1268 218.742 53.8833C215.562 49.6397 213.972 45.0042 213.972 39.988C213.972 35.9683 214.834 32.4301 216.57 29.351C218.294 26.2831 220.589 23.6518 223.433 21.4796C226.277 19.3075 229.603 17.6615 233.398 16.5418C237.194 15.4333 241.214 14.8623 245.457 14.8623C247.574 14.8623 249.723 15.0079 251.907 15.2766C254.079 15.5565 256.151 15.926 258.099 16.3627C260.047 16.8106 261.872 17.3144 263.54 17.8743C265.22 18.4341 266.552 18.994 267.56 19.5538C268.904 20.3376 269.844 21.1213 270.404 21.8939C270.964 22.6777 271.244 23.7302 271.244 25.0738V29.5973C271.244 31.6016 270.516 32.6093 269.072 32.6093C268.288 32.6093 267.067 32.2174 265.387 31.4336C259.912 28.9815 253.777 27.7499 246.969 27.7499C241.494 27.7499 237.261 28.6456 234.249 30.4259C231.238 32.2174 229.726 35.0614 229.726 38.969C229.726 41.6451 230.666 43.9069 232.57 45.7543C234.462 47.5906 237.978 49.3597 243.117 51.0281L256.677 55.3836C263.596 57.623 268.534 60.6907 271.49 64.5874C274.446 68.4951 275.924 72.9625 275.924 77.9786C275.924 82.1104 275.084 85.8278 273.416 89.1083C271.737 92.4004 269.418 95.2218 266.463 97.562C263.507 99.9022 259.957 101.694 255.826 102.925C251.696 104.157 247.174 104.761 242.272 104.762ZM115.697 101.335C114.914 100.72 114.242 99.4658 113.693 97.562L91.2549 23.5623C90.6952 21.67 90.4147 20.3823 90.4147 19.7105C90.4147 18.1542 91.1991 17.3704 92.7549 17.3704H102.127C103.907 17.3704 105.161 17.6839 105.9 18.2885C106.628 18.9044 107.266 20.1584 107.826 22.0507L123.905 85.335L138.808 22.0507C139.256 20.1584 139.871 18.8932 140.644 18.2885C141.428 17.6727 142.704 17.3704 144.496 17.3704H152.199C153.979 17.3704 155.267 17.6839 156.051 18.2885C156.835 18.9044 157.439 20.1584 157.887 22.0507L172.958 86.1746L189.529 22.0507C190.089 20.1584 190.727 18.8932 191.455 18.2885C192.183 17.6727 193.437 17.3704 195.229 17.3704H204.097C205.652 17.3704 206.437 18.1542 206.437 19.7105C206.437 20.1584 206.38 20.6623 206.269 21.2221C206.156 21.782 205.933 22.5657 205.597 23.5623L182.487 97.562C181.927 99.4658 181.255 100.72 180.482 101.335C179.698 101.951 178.478 102.253 176.798 102.253H168.591C166.8 102.253 165.523 101.918 164.74 101.246C163.956 100.574 163.34 99.2976 162.903 97.3938L148 35.778L133.265 97.3938C132.818 99.2976 132.201 100.574 131.429 101.246C130.645 101.918 129.369 102.253 127.577 102.253H119.37C117.702 102.253 116.481 101.951 115.697 101.335ZM52.4018 90.116C48.942 91.2919 45.6501 91.8738 42.5262 91.8738L42.5038 91.8854C38.1483 91.8854 34.8004 90.7322 32.4603 88.4479C30.1202 86.1635 28.9445 82.7824 28.9445 78.3149C28.9445 73.5112 30.512 69.8275 33.6359 67.2633C36.7599 64.6991 41.5073 63.4114 47.8671 63.4114C50.7671 63.4114 53.7566 63.6023 56.8246 63.9939C59.8927 64.386 62.8263 64.912 65.614 65.5841V69.6035C65.614 72.8392 65.312 75.6053 64.6958 77.889C64.0913 80.1844 62.9939 82.2227 61.4375 84.0025C58.8738 86.9141 55.8617 88.9407 52.4018 90.116ZM260.372 151.286C228.875 174.531 183.203 186.892 143.88 186.892C88.7693 186.892 39.1338 166.525 1.57968 132.61C-1.36508 129.945 1.25497 126.306 4.80437 128.378C45.3256 151.959 95.4314 166.156 147.195 166.156C182.106 166.156 220.489 158.912 255.792 143.93C261.122 141.669 265.578 147.435 260.372 151.286ZM236.854 135.062C247.086 133.844 269.463 131.18 273.472 136.314L273.483 136.303C277.514 141.464 269.004 162.727 265.197 172.222C264.044 175.1 266.519 176.253 269.116 174.08C286.012 159.95 290.379 130.324 286.919 126.046C283.482 121.803 253.945 118.152 235.906 130.816C233.141 132.764 233.611 135.451 236.69 135.082L236.854 135.062Z" fill="#929292"/>
<path fill-rule="evenodd" clip-rule="evenodd" d="M438.692 100.55C433.575 102.532 427.775 103.528 421.292 103.528C406.456 103.528 399.033 96.105 399.033 81.269V35.183H384.611V25.1506L399.503 23.2696L401.854 0.696777H414.552V22.9561H438.065V35.183H414.552V80.4853C414.552 84.3482 415.414 87.0689 417.138 88.6364C418.863 90.2039 421.818 90.9882 425.995 90.9882C430.171 90.9882 434.516 90.4616 438.692 89.4201V100.55ZM362.923 59.1686C369.093 61.5763 373.527 64.4204 376.247 67.7119C378.968 71.004 380.323 75.2585 380.323 80.4876C380.323 87.9108 377.558 93.8119 372.015 98.2008C366.473 102.59 359.105 104.784 349.913 104.784C339.567 104.784 330.576 102.803 322.95 98.8281V87.855C332.77 91.0912 341.862 92.7146 350.226 92.7146C355.343 92.7146 359.239 91.7179 361.904 89.7361C364.569 87.7543 365.901 84.8765 365.901 81.1148C365.901 78.6065 365.096 76.5688 363.472 75.0013C361.848 73.4338 358.903 71.8657 354.615 70.2982L341.291 65.2821C329.691 60.9939 323.891 53.6823 323.891 43.3365C323.891 36.54 326.533 31.0536 331.807 26.8772C337.081 22.7008 344.012 20.607 352.578 20.607C361.143 20.607 368.622 22.2753 375.934 25.6231V36.596C367.783 33.9871 360.259 32.6771 353.361 32.6771C343.329 32.6771 338.312 36.0697 338.312 42.8662C338.312 45.5871 339.153 47.7257 340.821 49.2932C342.489 50.8608 345.781 52.5851 350.697 54.4661L362.923 59.1686ZM511.404 102.433H498.55L497.296 94.2821C493.534 97.5177 489.38 100.026 484.834 101.807C480.288 103.586 475.765 104.471 471.275 104.471C463.851 104.471 457.928 102.355 453.483 98.1223C449.038 93.8899 446.821 88.2244 446.821 81.1148C446.821 73.4897 449.542 67.3983 454.972 62.8523C460.403 58.3066 467.725 56.0337 476.918 56.0337C482.975 56.0337 489.559 56.9182 496.669 58.6985V48.3527C496.669 42.7095 495.393 38.7346 492.828 36.4392C490.265 34.1439 485.909 32.9906 479.74 32.9906C470.861 32.9906 461.656 34.6142 452.151 37.85V26.8772C455.913 24.8953 460.515 23.3502 465.945 22.2529C471.376 21.1556 476.862 20.607 482.405 20.607C492.336 20.607 499.648 22.6671 504.35 26.7988C509.053 30.9304 511.404 37.223 511.404 45.6878V102.433ZM496.669 68.7307C491.239 67.3762 485.696 66.6931 480.053 66.6931C468.241 66.6931 462.34 71.2391 462.34 80.3311C462.34 84.3057 463.437 87.3621 465.632 89.501C467.826 91.6393 470.961 92.7146 475.037 92.7146C482.147 92.7146 489.358 90.0497 496.669 84.72V68.7307ZM544.748 102.431H529.23V22.9557H542.24L543.964 34.7123C546.887 31.5772 549.608 29.1475 552.116 27.4232C554.624 25.6989 557.188 24.4225 559.797 23.5827C562.405 22.7429 565.227 22.3286 568.262 22.3286C570.244 22.3286 572.393 22.4854 574.689 22.7989V36.9069C571.341 36.4926 568.519 36.2799 566.224 36.2799C557.86 36.2799 550.705 38.788 544.748 43.8041V102.431ZM616.709 103.528C623.197 103.528 628.992 102.532 634.112 100.55V89.4201C629.934 90.4616 625.588 90.9882 621.416 90.9882C617.238 90.9882 614.283 90.2039 612.555 88.6364C610.832 87.0689 609.971 84.3482 609.971 80.4853V35.183H633.484V22.9561H609.971V0.696777H597.275L594.924 23.2696L580.03 25.1506V35.183H594.453V81.269C594.453 96.105 601.878 103.528 616.709 103.528ZM711.859 102.429H699.006L697.283 93.9638C687.561 101.175 677.588 104.78 667.341 104.78C659.917 104.78 654.232 102.686 650.258 98.5098C646.278 94.3333 644.3 88.4217 644.3 80.7965V22.9537H659.818V75.7804C659.818 81.4232 660.918 85.5776 663.111 88.2425C665.305 90.9073 668.808 92.2398 673.614 92.2398C681.137 92.2398 688.719 89.7314 696.341 84.7153V22.9537H711.859V102.429ZM745.362 134.725H729.844V22.9583H742.854L744.262 31.1095C752.204 24.1116 761.037 20.607 770.754 20.607C780.476 20.607 788.884 24.2907 794.737 31.6582C800.597 39.0257 803.518 49.0357 803.518 61.677C803.518 74.3182 800.44 84.8206 794.272 92.5575C788.099 100.295 779.906 104.158 769.66 104.158C760.251 104.158 752.158 101.079 745.362 94.9093V134.725ZM745.362 84.0927C752.158 89.1088 759.053 91.6172 766.052 91.6172C780.476 91.6172 787.685 81.8986 787.685 62.4607C787.685 52.5291 785.94 45.1616 782.431 40.3582C778.929 35.5547 773.576 33.1474 766.366 33.1474C759.157 33.1474 751.942 35.5547 745.362 40.3582V84.0927ZM852.079 59.1686C858.246 61.5763 862.68 64.4204 865.403 67.7119C868.126 71.004 869.476 75.2585 869.476 80.4876C869.476 87.9108 866.712 93.8119 861.173 98.2008C855.628 102.59 848.262 104.784 839.069 104.784C828.723 104.784 819.734 102.803 812.106 98.8281V87.855C821.927 91.0912 831.016 92.7146 839.383 92.7146C844.497 92.7146 848.396 91.7179 851.06 89.7361C853.725 87.7543 855.058 84.8765 855.058 81.1148C855.058 78.6065 854.249 76.5688 852.626 75.0013C851.002 73.4338 848.058 71.8657 843.77 70.2982L830.446 65.2821C818.849 60.9939 813.048 53.6823 813.048 43.3365C813.048 36.54 815.69 31.0536 820.961 26.8772C826.239 22.7008 833.169 20.607 841.733 20.607C850.298 20.607 857.781 22.2753 865.089 25.6231V36.596C856.937 33.9871 849.414 32.6771 842.519 32.6771C832.482 32.6771 827.466 36.0697 827.466 42.8662C827.466 45.5871 828.31 47.7257 829.974 49.2932C831.644 50.8608 834.937 52.5851 839.854 54.4661L852.079 59.1686ZM81.3455 77.3182C81.3455 80.8902 81.7039 83.7337 82.4318 85.8615C83.1597 87.9888 84.1895 90.2731 85.533 92.725C85.981 93.5088 86.2051 94.2367 86.2051 94.8971C86.2051 95.9048 85.5895 96.8568 84.3577 97.7412L78.3338 101.761C77.4377 102.321 76.5981 102.601 75.8254 102.601C74.8177 102.601 73.8774 102.153 72.9814 101.257C71.6379 99.9132 70.4957 98.4353 69.5444 96.823C68.5925 95.2107 67.6185 93.3406 66.6107 91.2134C59.131 100.037 49.7594 104.437 38.4842 104.437C30.4448 104.437 24.085 102.153 19.3936 97.573C14.7021 92.9939 12.362 86.8577 12.362 79.1546C12.362 71.0145 15.262 64.453 21.0731 59.4816C26.8731 54.5214 34.6884 52.0358 44.5081 52.0358C47.7439 52.0358 51.1254 52.2821 54.6412 52.7859C58.157 53.2898 61.8069 53.984 65.614 54.8797V47.8481C65.614 40.5926 64.1023 35.4869 61.0907 32.5309C58.0786 29.575 52.8833 28.097 45.5158 28.097C42.1679 28.097 38.7305 28.5112 35.2147 29.351C31.6989 30.1907 28.2615 31.2769 24.9136 32.6205C23.3461 33.2923 22.2376 33.7066 21.5657 33.8745C20.8939 34.0425 20.3901 34.1208 20.0654 34.1208C18.7218 34.1208 18.0611 33.1131 18.0611 31.1089V26.4174C18.0611 24.8499 18.2851 23.7414 18.7329 23.0696C19.1809 22.3978 20.0766 21.726 21.409 21.0654C24.7568 19.3858 28.7766 17.9415 33.468 16.7098C38.1595 15.4781 43.1197 14.8623 48.371 14.8623C59.7582 14.8623 68.0996 17.46 73.4073 22.6441C78.7033 27.8394 81.3565 35.6772 81.3565 46.1686V77.3072L81.3455 77.3182ZM242.272 104.762C237.247 104.761 232.344 104.202 227.542 103.093C222.739 101.974 219.055 100.697 216.491 99.2418C214.924 98.3457 213.95 97.4613 213.557 96.5652C213.166 95.6698 212.976 94.7854 212.976 93.8893V89.0303C212.976 87.0258 213.703 86.0181 215.148 86.0181C215.707 86.0181 216.29 86.1304 216.905 86.3538C217.522 86.5778 218.327 86.9141 219.335 87.3616C222.571 88.8173 226.087 89.9368 229.882 90.7095C233.678 91.4933 237.474 91.8854 241.27 91.8854C247.294 91.8854 251.951 90.8218 255.243 88.7056C258.535 86.5889 260.181 83.5772 260.181 79.6695C260.181 76.9936 259.319 74.754 257.584 72.9736C255.848 71.1937 252.646 69.5139 247.954 67.9464L234.059 63.5907C227.027 61.3628 221.922 58.1268 218.742 53.8833C215.562 49.6397 213.972 45.0042 213.972 39.988C213.972 35.9683 214.834 32.4301 216.57 29.351C218.294 26.2831 220.589 23.6518 223.433 21.4796C226.277 19.3075 229.603 17.6615 233.398 16.5418C237.194 15.4333 241.214 14.8623 245.457 14.8623C247.574 14.8623 249.723 15.0079 251.907 15.2766C254.079 15.5565 256.151 15.926 258.099 16.3627C260.047 16.8106 261.872 17.3144 263.54 17.8743C265.22 18.4341 266.552 18.994 267.56 19.5538C268.904 20.3376 269.844 21.1213 270.404 21.8939C270.964 22.6777 271.244 23.7302 271.244 25.0738V29.5973C271.244 31.6016 270.516 32.6093 269.072 32.6093C268.288 32.6093 267.067 32.2174 265.387 31.4336C259.912 28.9815 253.777 27.7499 246.969 27.7499C241.494 27.7499 237.261 28.6456 234.249 30.4259C231.238 32.2174 229.726 35.0614 229.726 38.969C229.726 41.6451 230.666 43.9069 232.57 45.7543C234.462 47.5906 237.978 49.3597 243.117 51.0281L256.677 55.3836C263.596 57.623 268.534 60.6907 271.49 64.5874C274.446 68.4951 275.924 72.9625 275.924 77.9786C275.924 82.1104 275.084 85.8278 273.416 89.1083C271.737 92.4004 269.418 95.2218 266.463 97.562C263.507 99.9022 259.957 101.694 255.826 102.925C251.696 104.157 247.174 104.761 242.272 104.762ZM115.697 101.335C114.914 100.72 114.242 99.4658 113.693 97.562L91.2549 23.5623C90.6952 21.67 90.4147 20.3823 90.4147 19.7105C90.4147 18.1542 91.1991 17.3704 92.7549 17.3704H102.127C103.907 17.3704 105.161 17.6839 105.9 18.2885C106.628 18.9044 107.266 20.1584 107.826 22.0507L123.905 85.335L138.808 22.0507C139.256 20.1584 139.871 18.8932 140.644 18.2885C141.428 17.6727 142.704 17.3704 144.496 17.3704H152.199C153.979 17.3704 155.267 17.6839 156.051 18.2885C156.835 18.9044 157.439 20.1584 157.887 22.0507L172.958 86.1746L189.529 22.0507C190.089 20.1584 190.727 18.8932 191.455 18.2885C192.183 17.6727 193.437 17.3704 195.229 17.3704H204.097C205.652 17.3704 206.437 18.1542 206.437 19.7105C206.437 20.1584 206.38 20.6623 206.269 21.2221C206.156 21.782 205.933 22.5657 205.597 23.5623L182.487 97.562C181.927 99.4658 181.255 100.72 180.482 101.335C179.698 101.951 178.478 102.253 176.798 102.253H168.591C166.8 102.253 165.523 101.918 164.74 101.246C163.956 100.574 163.34 99.2976 162.903 97.3938L148 35.778L133.265 97.3938C132.818 99.2976 132.201 100.574 131.429 101.246C130.645 101.918 129.369 102.253 127.577 102.253H119.37C117.702 102.253 116.481 101.951 115.697 101.335ZM52.4018 90.116C48.942 91.2919 45.6501 91.8738 42.5262 91.8738L42.5038 91.8854C38.1483 91.8854 34.8004 90.7322 32.4603 88.4479C30.1202 86.1635 28.9445 82.7824 28.9445 78.3149C28.9445 73.5112 30.512 69.8275 33.6359 67.2633C36.7599 64.6991 41.5073 63.4114 47.8671 63.4114C50.7671 63.4114 53.7566 63.6023 56.8246 63.9939C59.8927 64.386 62.8263 64.912 65.614 65.5841V69.6035C65.614 72.8392 65.312 75.6053 64.6958 77.889C64.0913 80.1844 62.9939 82.2227 61.4375 84.0025C58.8738 86.9141 55.8617 88.9407 52.4018 90.116ZM260.372 151.286C228.875 174.531 183.203 186.892 143.88 186.892C88.7693 186.892 39.1338 166.525 1.57968 132.61C-1.36508 129.945 1.25497 126.306 4.80437 128.378C45.3256 151.959 95.4314 166.156 147.195 166.156C182.106 166.156 220.489 158.912 255.792 143.93C261.122 141.669 265.578 147.435 260.372 151.286ZM236.854 135.062C247.086 133.844 269.463 131.18 273.472 136.314L273.483 136.303C277.514 141.464 269.004 162.727 265.197 172.222C264.044 175.1 266.519 176.253 269.116 174.08C286.012 159.95 290.379 130.324 286.919 126.046C283.482 121.803 253.945 118.152 235.906 130.816C233.141 132.764 233.611 135.451 236.69 135.082L236.854 135.062Z" fill="#929292"/>
</svg>
