<svg width="969" height="241" viewBox="0 0 969 241" fill="none" xmlns="http://www.w3.org/2000/svg">
<path d="M497.674 3.45605H463.23L426.187 53.4971V3.45605H395.643V111.337H426.187V61.2957L463.23 111.337H497.512L456.407 57.3964L497.674 3.45605Z" fill="#929292"/>
<path d="M103.357 238.389H133.577V179.087L180.531 238.389H207.176V130.346H176.957V187.535L131.79 130.346H103.357V238.389Z" fill="#929292"/>
<path d="M247.468 238.389H278.012V156.666H310.994V130.346H214.486V156.666H247.468V238.389Z" fill="#929292"/>
<path fill-rule="evenodd" clip-rule="evenodd" d="M98.1579 30.751C98.1579 43.2613 91.0092 50.5725 81.261 54.7967C94.5836 59.021 103.032 66.4946 103.032 81.117V81.4419C103.032 99.9636 87.5973 111.174 61.4395 111.174H0.837891V87.1284L7.01178 86.3161V28.1515L0.837891 27.3391V3.29346H61.1146C74.9246 3.29346 84.5104 6.70535 91.0092 13.0417C95.5584 17.266 98.1579 22.9524 98.1579 30.4261V30.751ZM36.5815 27.3391H54.1283C63.2267 27.3391 67.9384 30.751 67.9384 36.6V36.9249C67.9384 43.2613 62.7393 46.3482 53.4785 46.3482H36.5815V27.3391ZM72.65 77.3802C72.65 83.7165 67.2885 87.2909 58.0276 87.2909H36.744V67.4695H57.7027C67.9384 67.4695 72.65 71.3688 72.65 77.2177V77.3802Z" fill="#929292"/>
<path d="M92.7964 212.881H37.0689V195.821H82.0733V172.263H37.0689V155.854H87.5973L96.2083 130.346L16.5976 130.508V130.346H0.837891V154.554L7.01178 155.366V213.531L0.837891 214.343V238.389H16.5976H92.7964V212.881Z" fill="#929292"/>
<path d="M110.344 111.337H174.195L183.131 85.1789H140.726V3.45605H110.344V111.337Z" fill="#929292"/>
<path d="M349.989 113.449C374.359 113.449 388.819 111.987 388.819 111.987L380.208 86.1536C380.208 86.1536 362.499 86.1536 351.126 86.1536C339.753 86.1536 324.968 73.4809 324.968 57.2338V56.9089C324.968 41.1492 335.854 28.314 351.126 28.314C366.398 28.314 380.371 28.314 380.371 28.314L388.982 2.96857C388.982 2.96857 374.034 0.856445 351.451 0.856445C318.144 0.856445 293.611 25.552 293.611 57.0714V57.3963C293.611 89.5655 318.794 113.286 350.314 113.286" fill="#929292"/>
<path fill-rule="evenodd" clip-rule="evenodd" d="M451.369 238.389H420.987H420.824V130.346H472.815C489.549 130.346 501.247 134.57 508.558 142.044C515.057 148.217 518.307 156.504 518.307 167.227V167.552C518.307 183.961 509.371 195.009 495.723 200.696L521.881 238.389H486.787L464.691 205.732H451.369V238.389ZM451.369 156.179V182.174H471.353C481.751 182.174 487.762 177.137 487.762 169.339V169.014C487.762 160.565 481.588 156.179 471.353 156.179H451.369Z" fill="#929292"/>
<path fill-rule="evenodd" clip-rule="evenodd" d="M558.763 238.389H528.381V130.346H575.497C603.28 130.346 621.152 144.481 621.152 168.364V168.689C621.152 194.034 601.168 207.519 573.873 207.519H558.763V238.389ZM558.763 155.529V183.961H573.223C583.946 183.961 590.607 178.437 590.607 169.989V169.664C590.607 160.403 584.108 155.529 573.06 155.529H558.763Z" fill="#929292"/>
<path fill-rule="evenodd" clip-rule="evenodd" d="M660.144 238.389H629.762H629.6V130.346H681.59C698.325 130.346 710.023 134.57 717.334 142.044C723.833 148.217 727.082 156.504 727.082 167.227V167.552C727.082 183.961 718.146 195.009 704.499 200.696L730.656 238.389H695.563L673.467 205.732H660.144V238.389ZM660.144 156.179V182.174H680.291C690.526 182.174 696.538 177.137 696.538 169.339V169.014C696.538 160.565 690.364 156.179 680.128 156.179H660.144Z" fill="#929292"/>
<rect x="736.994" y="130.346" width="30.5445" height="108.043" fill="#929292"/>
<path d="M410.101 212.881H354.536V195.821H399.54V172.263H354.536V155.854H405.064L413.513 130.346L333.902 130.508V130.346H318.143V154.554L324.316 155.366V213.531L318.143 214.343V238.389H333.902H410.101V212.881Z" fill="#929292"/>
<path d="M965.589 212.881H909.862V195.821H954.866V172.263H909.862V155.854H960.39L969.001 130.346L889.391 130.508V130.346H873.631V154.554L879.805 155.366V213.531L873.631 214.343V238.389H889.391H965.589V212.881Z" fill="#929292"/>
<path d="M823.429 240.013C850.074 240.013 867.783 226.853 867.783 204.92V204.595C867.783 184.448 852.023 176.325 826.84 170.963C811.568 167.551 807.831 165.439 807.831 160.403V160.078C807.831 156.178 811.406 153.091 818.879 153.091C826.353 153.091 857.06 154.229 857.06 154.229L865.184 130.183C865.184 130.183 838.376 128.233 819.692 128.233C801.008 128.233 777.124 142.693 777.124 162.84V163.165C777.124 185.423 795.159 191.76 818.554 197.121C833.502 200.533 837.076 202.97 837.076 207.519V207.844C837.076 212.393 832.689 215.318 824.566 215.318C811.893 215.318 783.461 214.343 783.461 214.343L775.662 238.389C775.662 238.389 803.932 240.176 823.429 240.176" fill="#929292"/>
<path fill-rule="evenodd" clip-rule="evenodd" d="M218.224 3.45605H264.365L300.759 111.499H270.214L264.203 92.1651H218.386L212.375 111.499H181.83L218.224 3.45605ZM239.345 25.3896L226.022 67.957H226.185H256.892L243.569 25.3896H239.345Z" fill="#929292"/>
</svg>
