<svg width="549" height="250" viewBox="0 0 549 250" fill="none" xmlns="http://www.w3.org/2000/svg">
<path fill-rule="evenodd" clip-rule="evenodd" d="M142.336 121.6C154.6 124.382 164.682 130.5 172.584 139.955H0.583008V0.217285H105.98C129.772 0.217285 148.395 6.01433 161.847 17.6084C175.3 29.2025 182.026 44.9374 182.026 64.8129C182.026 79.483 178.413 91.6686 171.186 101.37C163.96 111.071 154.343 117.814 142.336 121.6ZM128.048 184.057H187.33C186.806 203.716 179.979 219.395 166.85 231.093C153.175 243.279 134.108 249.372 109.649 249.372H0.583008V184.057H57.6176V200.393H99.643C109.204 200.393 116.598 198.086 121.823 193.472C124.678 190.951 126.752 187.813 128.048 184.057ZM317.476 184.057H260.442V249.372H317.476V184.057ZM260.442 139.955H317.476V48.8415H383.121V0.234485L194.404 0.217285V48.8415H260.442V139.955ZM405.096 249.372V184.057H462.131V200.748H548.516V249.372H405.096ZM405.096 139.955H541.623V99.2403H462.131V48.8415H548.516V0.217285H405.096V139.955ZM57.6176 101.015H94.9735C104.313 101.015 111.484 98.8262 116.487 94.4488C121.49 90.0715 123.991 83.6237 123.991 75.1056C123.991 66.5875 121.49 60.0807 116.487 55.585C111.484 51.0893 104.313 48.8415 94.9735 48.8415H57.6176V101.015ZM202.184 159.92C202.339 160.207 202.46 160.521 202.548 160.863H204.616C204.55 160.223 204.379 159.656 204.103 159.159C203.827 158.663 203.466 158.241 203.02 157.894C202.573 157.547 202.057 157.282 201.473 157.1C200.889 156.918 200.266 156.827 199.604 156.827C198.722 156.827 197.93 156.992 197.23 157.323C196.53 157.654 195.937 158.101 195.452 158.663C194.967 159.225 194.595 159.882 194.335 160.632C194.076 161.381 193.947 162.175 193.947 163.013C193.947 163.863 194.076 164.662 194.335 165.412C194.595 166.162 194.967 166.818 195.452 167.38C195.937 167.943 196.53 168.387 197.23 168.712C197.93 169.037 198.722 169.2 199.604 169.2C200.321 169.2 200.977 169.084 201.572 168.853C202.168 168.621 202.686 168.293 203.127 167.868C203.568 167.444 203.918 166.939 204.178 166.355C204.437 165.77 204.588 165.125 204.632 164.419H202.614C202.57 164.85 202.477 165.252 202.333 165.627C202.19 166.002 201.991 166.33 201.738 166.611C201.484 166.892 201.181 167.113 200.828 167.273C200.475 167.433 200.067 167.513 199.604 167.513C198.975 167.513 198.432 167.386 197.975 167.132C197.517 166.879 197.145 166.54 196.858 166.115C196.571 165.69 196.359 165.208 196.221 164.668C196.083 164.127 196.014 163.576 196.014 163.013C196.014 162.451 196.083 161.9 196.221 161.359C196.359 160.819 196.571 160.337 196.858 159.912C197.145 159.487 197.517 159.148 197.975 158.895C198.432 158.641 198.975 158.514 199.604 158.514C200.034 158.514 200.412 158.572 200.737 158.688C201.062 158.804 201.346 158.966 201.589 159.176C201.831 159.385 202.03 159.634 202.184 159.92ZM15.2294 157.108H24.7903V158.895H21.0354V168.919H18.9678V158.895H15.2294V157.108ZM41.7246 157.108H43.7923V161.806H49.1682V157.108H51.2359V168.919H49.1682V163.592H43.7923V168.919H41.7246V157.108ZM77.8303 157.108H69.328V168.919H77.9461V167.132H71.3957V163.675H77.3506V161.988H71.3957V158.895H77.8303V157.108ZM115.569 157.108H121.309C122.368 157.108 123.217 157.351 123.857 157.836C124.496 158.321 124.816 159.055 124.816 160.036C124.816 160.632 124.67 161.142 124.378 161.566C124.086 161.991 123.669 162.319 123.129 162.55V162.583C123.857 162.738 124.408 163.082 124.783 163.617C125.158 164.152 125.345 164.822 125.345 165.627C125.345 166.09 125.263 166.523 125.097 166.926C124.932 167.328 124.673 167.675 124.32 167.968C123.967 168.26 123.515 168.491 122.963 168.662C122.412 168.833 121.756 168.919 120.995 168.919H115.569V157.108ZM117.637 162.054H121.012C121.508 162.054 121.921 161.913 122.252 161.632C122.583 161.351 122.748 160.946 122.748 160.416C122.748 159.821 122.6 159.402 122.302 159.159C122.004 158.917 121.574 158.795 121.012 158.795H117.637V162.054ZM121.293 167.232H117.637V163.543H121.293C121.921 163.543 122.409 163.7 122.757 164.014C123.104 164.329 123.278 164.778 123.278 165.362C123.278 165.958 123.104 166.418 122.757 166.744C122.409 167.069 121.921 167.232 121.293 167.232ZM144.893 157.108H142.826V168.919H150.898V167.132H144.893V157.108ZM173.291 157.108H171.091L166.558 168.919H168.692L169.8 165.792H174.515L175.623 168.919H177.84L173.291 157.108ZM173.969 164.221H170.363L172.149 159.143H172.199L173.969 164.221ZM222.129 157.108H224.197V162.484L229.457 157.108H232.004L227.29 161.822L232.335 168.919H229.755L225.884 163.278L224.197 164.949V168.919H222.129V157.108ZM277.716 157.108H268.155V158.895H271.894V168.919H273.962V158.895H277.716V157.108ZM294.7 157.108H303.203V158.895H296.768V161.988H302.723V163.675H296.768V167.132H303.318V168.919H294.7V157.108ZM328.341 159.92C328.496 160.207 328.617 160.521 328.705 160.863H330.773C330.707 160.223 330.536 159.656 330.26 159.159C329.984 158.663 329.623 158.241 329.177 157.894C328.73 157.547 328.215 157.282 327.63 157.1C327.046 156.918 326.423 156.827 325.761 156.827C324.879 156.827 324.087 156.992 323.387 157.323C322.687 157.654 322.094 158.101 321.609 158.663C321.124 159.225 320.752 159.882 320.492 160.632C320.233 161.381 320.104 162.175 320.104 163.013C320.104 163.863 320.233 164.662 320.492 165.412C320.752 166.162 321.124 166.818 321.609 167.38C322.094 167.943 322.687 168.387 323.387 168.712C324.087 169.037 324.879 169.2 325.761 169.2C326.478 169.2 327.134 169.084 327.729 168.853C328.325 168.621 328.843 168.293 329.284 167.868C329.725 167.444 330.075 166.939 330.335 166.355C330.594 165.77 330.745 165.125 330.789 164.419H328.771C328.727 164.85 328.634 165.252 328.49 165.627C328.347 166.002 328.148 166.33 327.895 166.611C327.641 166.892 327.338 167.113 326.985 167.273C326.632 167.433 326.224 167.513 325.761 167.513C325.132 167.513 324.589 167.386 324.132 167.132C323.674 166.879 323.302 166.54 323.015 166.115C322.728 165.69 322.516 165.208 322.378 164.668C322.24 164.127 322.171 163.576 322.171 163.013C322.171 162.451 322.24 161.9 322.378 161.359C322.516 160.819 322.728 160.337 323.015 159.912C323.302 159.487 323.674 159.148 324.132 158.895C324.589 158.641 325.132 158.514 325.761 158.514C326.191 158.514 326.569 158.572 326.894 158.688C327.219 158.804 327.503 158.966 327.746 159.176C327.988 159.385 328.187 159.634 328.341 159.92ZM348.236 157.108H350.304V161.806H355.68V157.108H357.748V168.919H355.68V163.592H350.304V168.919H348.236V157.108ZM404.552 157.108H396.049V168.919H404.667V167.132H398.117V163.675H404.072V161.988H398.117V158.895H404.552V157.108ZM422.081 157.108H430.236V158.895H424.149V161.988H429.492V163.675H424.149V168.919H422.081V157.108ZM455.656 157.108H447.501V168.919H449.569V163.675H454.912V161.988H449.569V158.895H455.656V157.108ZM472.921 157.108H481.424V158.895H474.989V161.988H480.944V163.675H474.989V167.132H481.539V168.919H472.921V157.108ZM506.562 159.92C506.717 160.207 506.838 160.521 506.926 160.863H508.994C508.928 160.223 508.757 159.656 508.481 159.159C508.205 158.663 507.844 158.241 507.398 157.894C506.951 157.547 506.436 157.282 505.851 157.1C505.267 156.918 504.644 156.827 503.982 156.827C503.1 156.827 502.308 156.992 501.608 157.323C500.908 157.654 500.315 158.101 499.83 158.663C499.345 159.225 498.973 159.882 498.714 160.632C498.454 161.381 498.325 162.175 498.325 163.013C498.325 163.863 498.454 164.662 498.714 165.412C498.973 166.162 499.345 166.818 499.83 167.38C500.315 167.943 500.908 168.387 501.608 168.712C502.308 169.037 503.1 169.2 503.982 169.2C504.699 169.2 505.355 169.084 505.95 168.853C506.546 168.621 507.064 168.293 507.505 167.868C507.946 167.444 508.296 166.939 508.556 166.355C508.815 165.77 508.966 165.125 509.01 164.419H506.992C506.948 164.85 506.855 165.252 506.711 165.627C506.568 166.002 506.369 166.33 506.116 166.611C505.862 166.892 505.559 167.113 505.206 167.273C504.853 167.433 504.445 167.513 503.982 167.513C503.353 167.513 502.81 167.386 502.353 167.132C501.895 166.879 501.523 166.54 501.236 166.115C500.949 165.69 500.737 165.208 500.599 164.668C500.461 164.127 500.392 163.576 500.392 163.013C500.392 162.451 500.461 161.9 500.599 161.359C500.737 160.819 500.949 160.337 501.236 159.912C501.523 159.487 501.895 159.148 502.353 158.895C502.81 158.641 503.353 158.514 503.982 158.514C504.412 158.514 504.79 158.572 505.115 158.688C505.44 158.804 505.724 158.966 505.967 159.176C506.21 159.385 506.408 159.634 506.562 159.92ZM525.382 157.108H534.943V158.895H531.188V168.919H529.121V158.895H525.382V157.108Z" fill="#929292"/>
<path fill-rule="evenodd" clip-rule="evenodd" d="M142.336 121.6C154.6 124.382 164.682 130.5 172.584 139.955H0.583008V0.217285H105.98C129.772 0.217285 148.395 6.01433 161.847 17.6084C175.3 29.2025 182.026 44.9374 182.026 64.8129C182.026 79.483 178.413 91.6686 171.186 101.37C163.96 111.071 154.343 117.814 142.336 121.6ZM128.048 184.057H187.33C186.806 203.716 179.979 219.395 166.85 231.093C153.175 243.279 134.108 249.372 109.649 249.372H0.583008V184.057H57.6176V200.393H99.643C109.204 200.393 116.598 198.086 121.823 193.472C124.678 190.951 126.752 187.813 128.048 184.057ZM317.476 184.057H260.442V249.372H317.476V184.057ZM260.442 139.955H317.476V48.8415H383.121V0.234485L194.404 0.217285V48.8415H260.442V139.955ZM405.096 249.372V184.057H462.131V200.748H548.516V249.372H405.096ZM405.096 139.955H541.623V99.2403H462.131V48.8415H548.516V0.217285H405.096V139.955ZM57.6176 101.015H94.9735C104.313 101.015 111.484 98.8262 116.487 94.4488C121.49 90.0715 123.991 83.6237 123.991 75.1056C123.991 66.5875 121.49 60.0807 116.487 55.585C111.484 51.0893 104.313 48.8415 94.9735 48.8415H57.6176V101.015ZM202.184 159.92C202.339 160.207 202.46 160.521 202.548 160.863H204.616C204.55 160.223 204.379 159.656 204.103 159.159C203.827 158.663 203.466 158.241 203.02 157.894C202.573 157.547 202.057 157.282 201.473 157.1C200.889 156.918 200.266 156.827 199.604 156.827C198.722 156.827 197.93 156.992 197.23 157.323C196.53 157.654 195.937 158.101 195.452 158.663C194.967 159.225 194.595 159.882 194.335 160.632C194.076 161.381 193.947 162.175 193.947 163.013C193.947 163.863 194.076 164.662 194.335 165.412C194.595 166.162 194.967 166.818 195.452 167.38C195.937 167.943 196.53 168.387 197.23 168.712C197.93 169.037 198.722 169.2 199.604 169.2C200.321 169.2 200.977 169.084 201.572 168.853C202.168 168.621 202.686 168.293 203.127 167.868C203.568 167.444 203.918 166.939 204.178 166.355C204.437 165.77 204.588 165.125 204.632 164.419H202.614C202.57 164.85 202.477 165.252 202.333 165.627C202.19 166.002 201.991 166.33 201.738 166.611C201.484 166.892 201.181 167.113 200.828 167.273C200.475 167.433 200.067 167.513 199.604 167.513C198.975 167.513 198.432 167.386 197.975 167.132C197.517 166.879 197.145 166.54 196.858 166.115C196.571 165.69 196.359 165.208 196.221 164.668C196.083 164.127 196.014 163.576 196.014 163.013C196.014 162.451 196.083 161.9 196.221 161.359C196.359 160.819 196.571 160.337 196.858 159.912C197.145 159.487 197.517 159.148 197.975 158.895C198.432 158.641 198.975 158.514 199.604 158.514C200.034 158.514 200.412 158.572 200.737 158.688C201.062 158.804 201.346 158.966 201.589 159.176C201.831 159.385 202.03 159.634 202.184 159.92ZM15.2294 157.108H24.7903V158.895H21.0354V168.919H18.9678V158.895H15.2294V157.108ZM41.7246 157.108H43.7923V161.806H49.1682V157.108H51.2359V168.919H49.1682V163.592H43.7923V168.919H41.7246V157.108ZM77.8303 157.108H69.328V168.919H77.9461V167.132H71.3957V163.675H77.3506V161.988H71.3957V158.895H77.8303V157.108ZM115.569 157.108H121.309C122.368 157.108 123.217 157.351 123.857 157.836C124.496 158.321 124.816 159.055 124.816 160.036C124.816 160.632 124.67 161.142 124.378 161.566C124.086 161.991 123.669 162.319 123.129 162.55V162.583C123.857 162.738 124.408 163.082 124.783 163.617C125.158 164.152 125.345 164.822 125.345 165.627C125.345 166.09 125.263 166.523 125.097 166.926C124.932 167.328 124.673 167.675 124.32 167.968C123.967 168.26 123.515 168.491 122.963 168.662C122.412 168.833 121.756 168.919 120.995 168.919H115.569V157.108ZM117.637 162.054H121.012C121.508 162.054 121.921 161.913 122.252 161.632C122.583 161.351 122.748 160.946 122.748 160.416C122.748 159.821 122.6 159.402 122.302 159.159C122.004 158.917 121.574 158.795 121.012 158.795H117.637V162.054ZM121.293 167.232H117.637V163.543H121.293C121.921 163.543 122.409 163.7 122.757 164.014C123.104 164.329 123.278 164.778 123.278 165.362C123.278 165.958 123.104 166.418 122.757 166.744C122.409 167.069 121.921 167.232 121.293 167.232ZM144.893 157.108H142.826V168.919H150.898V167.132H144.893V157.108ZM173.291 157.108H171.091L166.558 168.919H168.692L169.8 165.792H174.515L175.623 168.919H177.84L173.291 157.108ZM173.969 164.221H170.363L172.149 159.143H172.199L173.969 164.221ZM222.129 157.108H224.197V162.484L229.457 157.108H232.004L227.29 161.822L232.335 168.919H229.755L225.884 163.278L224.197 164.949V168.919H222.129V157.108ZM277.716 157.108H268.155V158.895H271.894V168.919H273.962V158.895H277.716V157.108ZM294.7 157.108H303.203V158.895H296.768V161.988H302.723V163.675H296.768V167.132H303.318V168.919H294.7V157.108ZM328.341 159.92C328.496 160.207 328.617 160.521 328.705 160.863H330.773C330.707 160.223 330.536 159.656 330.26 159.159C329.984 158.663 329.623 158.241 329.177 157.894C328.73 157.547 328.215 157.282 327.63 157.1C327.046 156.918 326.423 156.827 325.761 156.827C324.879 156.827 324.087 156.992 323.387 157.323C322.687 157.654 322.094 158.101 321.609 158.663C321.124 159.225 320.752 159.882 320.492 160.632C320.233 161.381 320.104 162.175 320.104 163.013C320.104 163.863 320.233 164.662 320.492 165.412C320.752 166.162 321.124 166.818 321.609 167.38C322.094 167.943 322.687 168.387 323.387 168.712C324.087 169.037 324.879 169.2 325.761 169.2C326.478 169.2 327.134 169.084 327.729 168.853C328.325 168.621 328.843 168.293 329.284 167.868C329.725 167.444 330.075 166.939 330.335 166.355C330.594 165.77 330.745 165.125 330.789 164.419H328.771C328.727 164.85 328.634 165.252 328.49 165.627C328.347 166.002 328.148 166.33 327.895 166.611C327.641 166.892 327.338 167.113 326.985 167.273C326.632 167.433 326.224 167.513 325.761 167.513C325.132 167.513 324.589 167.386 324.132 167.132C323.674 166.879 323.302 166.54 323.015 166.115C322.728 165.69 322.516 165.208 322.378 164.668C322.24 164.127 322.171 163.576 322.171 163.013C322.171 162.451 322.24 161.9 322.378 161.359C322.516 160.819 322.728 160.337 323.015 159.912C323.302 159.487 323.674 159.148 324.132 158.895C324.589 158.641 325.132 158.514 325.761 158.514C326.191 158.514 326.569 158.572 326.894 158.688C327.219 158.804 327.503 158.966 327.746 159.176C327.988 159.385 328.187 159.634 328.341 159.92ZM348.236 157.108H350.304V161.806H355.68V157.108H357.748V168.919H355.68V163.592H350.304V168.919H348.236V157.108ZM404.552 157.108H396.049V168.919H404.667V167.132H398.117V163.675H404.072V161.988H398.117V158.895H404.552V157.108ZM422.081 157.108H430.236V158.895H424.149V161.988H429.492V163.675H424.149V168.919H422.081V157.108ZM455.656 157.108H447.501V168.919H449.569V163.675H454.912V161.988H449.569V158.895H455.656V157.108ZM472.921 157.108H481.424V158.895H474.989V161.988H480.944V163.675H474.989V167.132H481.539V168.919H472.921V157.108ZM506.562 159.92C506.717 160.207 506.838 160.521 506.926 160.863H508.994C508.928 160.223 508.757 159.656 508.481 159.159C508.205 158.663 507.844 158.241 507.398 157.894C506.951 157.547 506.436 157.282 505.851 157.1C505.267 156.918 504.644 156.827 503.982 156.827C503.1 156.827 502.308 156.992 501.608 157.323C500.908 157.654 500.315 158.101 499.83 158.663C499.345 159.225 498.973 159.882 498.714 160.632C498.454 161.381 498.325 162.175 498.325 163.013C498.325 163.863 498.454 164.662 498.714 165.412C498.973 166.162 499.345 166.818 499.83 167.38C500.315 167.943 500.908 168.387 501.608 168.712C502.308 169.037 503.1 169.2 503.982 169.2C504.699 169.2 505.355 169.084 505.95 168.853C506.546 168.621 507.064 168.293 507.505 167.868C507.946 167.444 508.296 166.939 508.556 166.355C508.815 165.77 508.966 165.125 509.01 164.419H506.992C506.948 164.85 506.855 165.252 506.711 165.627C506.568 166.002 506.369 166.33 506.116 166.611C505.862 166.892 505.559 167.113 505.206 167.273C504.853 167.433 504.445 167.513 503.982 167.513C503.353 167.513 502.81 167.386 502.353 167.132C501.895 166.879 501.523 166.54 501.236 166.115C500.949 165.69 500.737 165.208 500.599 164.668C500.461 164.127 500.392 163.576 500.392 163.013C500.392 162.451 500.461 161.9 500.599 161.359C500.737 160.819 500.949 160.337 501.236 159.912C501.523 159.487 501.895 159.148 502.353 158.895C502.81 158.641 503.353 158.514 503.982 158.514C504.412 158.514 504.79 158.572 505.115 158.688C505.44 158.804 505.724 158.966 505.967 159.176C506.21 159.385 506.408 159.634 506.562 159.92ZM525.382 157.108H534.943V158.895H531.188V168.919H529.121V158.895H525.382V157.108Z" fill="#929292"/>
</svg>
