<svg width="1734" height="254" viewBox="0 0 1734 254" fill="none" xmlns="http://www.w3.org/2000/svg">
<path fill-rule="evenodd" clip-rule="evenodd" d="M21.6103 2.82406C26.2414 0.956641 31.3208 0.657855 36.3255 0.807248H154.271C162.04 0.807248 169.734 3.72041 175.56 8.87448C182.208 14.7755 186.466 23.4403 186.466 32.4039V160.135C186.615 165.14 185.719 170.144 183.627 174.626C178.697 185.681 167.194 193.45 155.018 193.674H63.9632V253.207C53.9919 243.908 44.0579 234.59 34.1239 225.272L34.1219 225.27C24.1873 215.952 14.2526 206.634 4.28066 197.334C3.97324 197.026 3.6314 196.722 3.28268 196.411C1.85202 195.137 0.305603 193.759 0.545834 191.657V32.4039C0.545834 19.4814 9.43472 7.23115 21.6103 2.82406ZM12.9455 33.1509V181.199H154.271C164.729 181.349 174.066 172.086 174.066 161.629V33.1509C174.215 22.6186 164.804 13.1322 154.271 13.2069H32.5907C22.0584 13.2069 12.7961 22.6186 12.9455 33.1509ZM19.3012 193.605L19.2947 193.599H51.1154V223.478C40.5107 213.47 29.9059 203.538 19.3012 193.605ZM32.5907 32.2545H136.419C141.349 32.4039 146.727 33.5243 150.312 37.1845C153.898 40.8446 155.018 46.1481 155.018 51.078V80.9566C155.018 84.9156 153.599 88.7998 150.835 91.713C147.698 95.0743 143.291 96.867 139.033 98.2863C147.25 99.8549 154.421 106.727 154.944 115.317C155.043 121.441 155.01 127.598 154.977 133.744V133.745V133.745V133.745V133.745V133.745V133.745V133.745V133.745V133.746V133.746V133.746V133.746V133.746V133.746V133.746V133.747V133.747V133.747V133.747V133.747V133.747V133.747V133.748V133.748V133.748V133.748V133.748V133.748V133.748V133.749V133.749V133.749V133.749V133.749V133.749V133.749V133.749V133.75V133.75V133.75V133.75V133.75V133.75V133.75V133.751V133.751V133.751V133.751V133.751V133.751V133.751V133.752V133.752V133.752V133.752V133.752V133.752V133.752V133.753V133.753V133.753V133.753V133.753V133.753V133.753V133.753V133.754V133.754V133.756C154.96 136.827 154.944 139.895 154.944 142.955C154.944 148.258 153.226 153.786 149.267 157.371C145.382 160.882 140.004 162.227 134.925 162.152H32.5907V32.2545ZM84.3554 86.3348V65.5692H84.4301H103.552C103.488 68.539 103.507 71.4951 103.525 74.4492V74.4496V74.4499V74.4503V74.4506V74.451V74.4513V74.4517V74.452V74.4523V74.4527V74.453V74.4534V74.4537V74.4541V74.4544V74.4547V74.4551V74.4554V74.4558V74.4561V74.4565V74.4568V74.4571V74.4575V74.4578V74.4582V74.4585V74.4589V74.4592V74.4595V74.4599V74.4602V74.4606V74.4609V74.4613V74.4616V74.462V74.4623V74.4626V74.463V74.4633V74.4637V74.464V74.4644V74.4647V74.465V74.4654V74.4657V74.4661V74.4664V74.4668V74.4671V74.4674V74.4678V74.4681V74.4685V74.4688V74.4692V74.4695V74.4698V74.4702V74.4705V74.4709V74.4712V74.4716V74.4719V74.4723V74.4726C103.549 78.4209 103.574 82.3656 103.403 86.3348H84.3554ZM84.3554 108.968V129.285H103.478V108.968H84.3554ZM674.906 45.4011C668.482 45.924 661.685 47.9408 657.502 53.0948L657.577 53.1695C652.497 59.5187 651.228 67.9595 651.003 75.8026V105.756C650.929 112.628 650.929 119.575 653.095 126.148C654.813 131.452 658.025 136.606 663.03 139.22C670.051 142.88 678.342 143.104 686.036 142.208C692.311 141.386 698.735 138.473 702.096 132.871C706.67 125.634 706.627 116.899 706.585 108.606C706.582 107.826 706.578 107.049 706.578 106.279H686.111C686.038 108.151 686.076 110.032 686.114 111.913C686.192 115.808 686.271 119.705 685.364 123.534C684.318 129.211 674.682 129.136 673.188 123.758C672.084 120.639 672.11 117.237 672.135 113.897C672.139 113.398 672.143 112.899 672.143 112.404V71.2461C672.217 68.0341 672.367 64.4487 674.383 61.7596C677.371 58.8465 684.169 59.22 685.289 63.8511C686.257 67.6209 686.183 71.4948 686.109 75.3545C686.074 77.1543 686.04 78.951 686.111 80.7326H706.578C706.565 79.5878 706.568 78.4384 706.57 77.2872V77.2863V77.2853V77.2843V77.2834V77.2824V77.2815V77.2805V77.2795V77.2786V77.2776V77.2766V77.2757V77.2747V77.2738V77.2728V77.2718V77.2709V77.2699V77.269V77.268V77.267V77.2661V77.2651V77.2642V77.2632V77.2622V77.2613V77.2603V77.2593V77.2584V77.2574V77.2565V77.2555V77.2545V77.2536V77.2526V77.2517V77.2507V77.2497V77.2488V77.2478V77.2468V77.2459V77.2449V77.244V77.243V77.242V77.2411V77.2401V77.2392V77.2382V77.2372V77.2363V77.2353V77.2344V77.2334V77.2324C706.584 71.7176 706.598 66.1633 704.934 60.8633C703.366 55.6345 700.004 50.6299 694.925 48.2396C688.725 45.177 681.629 44.9529 674.906 45.4011ZM1107.47 46.5962C1113.97 44.8035 1121.07 44.5794 1127.57 46.5962C1131.6 47.7914 1135.04 50.6299 1136.9 54.3647C1139.89 59.7428 1141.09 65.9426 1141.31 72.0678C1135.34 72.8147 1129.29 73.5617 1123.31 74.234C1123.25 73.4433 1123.21 72.6462 1123.16 71.848C1123 68.8004 1122.83 65.7369 1121.59 62.9548C1119.95 59.5187 1114.27 59.8175 1112.7 63.1789C1110.09 68.1835 1111.88 74.6074 1115.69 78.5664C1118.49 81.6511 1121.66 84.3973 1124.83 87.1432C1129.95 91.5783 1135.07 96.0127 1138.62 101.872C1142.28 107.623 1143.55 114.645 1142.95 121.367C1142.36 128.389 1138.32 135.112 1132.27 138.772C1125.85 142.88 1117.71 143.179 1110.39 141.76C1104.86 140.714 1099.48 137.801 1096.34 133.02C1092.39 126.97 1091.41 119.575 1091.12 112.479C1094.1 112.03 1097.07 111.582 1100.04 111.134C1103.01 110.686 1105.98 110.238 1108.97 109.79C1108.98 109.996 1108.99 110.203 1109 110.411C1109.01 110.643 1109.02 110.876 1109.03 111.109C1109.21 115.198 1109.4 119.453 1111.36 123.16C1112.93 126.223 1117.11 127.642 1120.1 125.924C1122.71 124.057 1122.64 120.471 1122.41 117.633C1122.11 113.001 1119.43 108.893 1116.29 105.681C1113.84 103.187 1111.15 100.897 1108.46 98.6045C1103.17 94.0996 1097.87 89.5854 1094.4 83.4963C1090.74 76.8483 1090.52 68.7064 1092.31 61.4609C1094.18 54.29 1100.23 48.613 1107.32 46.6709L1107.47 46.5962ZM1711.69 45.4011C1704.52 44.8035 1696.83 45.6252 1690.78 49.8082L1690.7 49.7335C1686 52.8707 1682.86 58.0995 1681.89 63.7017C1680.62 70.7979 1681.29 78.5664 1685.33 84.6915C1688.73 90.1069 1693.54 94.1945 1698.36 98.283L1698.36 98.2837C1701.77 101.188 1705.19 104.093 1708.11 107.474C1711.92 111.806 1713.79 118.23 1711.84 123.832C1710.13 127.717 1704.22 127.044 1702.06 123.907C1699.6 120.352 1699.38 115.902 1699.18 111.67C1699.16 111.364 1699.15 111.059 1699.13 110.756C1699.11 110.406 1699.09 110.059 1699.07 109.715C1696.1 110.161 1693.15 110.606 1690.19 111.052L1690.17 111.056L1690.14 111.059L1690.12 111.063C1687.16 111.51 1684.2 111.957 1681.22 112.404C1681.59 119.649 1682.56 127.343 1686.82 133.394C1690.11 138.1 1695.56 140.863 1701.09 141.834C1708.26 143.029 1716.18 142.731 1722.45 138.697C1728.28 135.112 1732.16 128.762 1732.98 121.965C1733.8 114.57 1732.24 106.652 1727.83 100.527C1724.38 95.2172 1719.62 91.1131 1714.85 87.0035C1711.57 84.1758 1708.28 81.3456 1705.42 78.1182C1701.83 74.234 1700.27 67.9594 1702.81 63.1042C1704.37 59.7428 1710.13 59.5934 1711.69 63.1042C1712.83 65.9657 1713.01 69.0176 1713.19 72.0319L1713.19 72.0467C1713.23 72.8043 1713.28 73.5595 1713.34 74.3087C1719.31 73.6364 1725.36 72.8894 1731.34 72.1425C1731.04 65.1957 1729.55 58.0248 1725.51 52.1985C1722.38 47.7914 1716.85 45.8493 1711.69 45.4011ZM256.307 62.0584V46.5215H305.756V62.0584H291.638V141.162H270.649V62.0584H256.382H256.307ZM335.261 46.5215H314.346V141.162H335.261V99.7802H349.827V141.162H370.891V46.5215H349.827V84.9156H335.261V46.5215ZM385.308 46.4468H427.81V60.7139H406.223V84.1686H422.656V98.6597H406.223V126.97H428.034V141.087H385.308V46.4468ZM491.153 46.4468H467.399V141.013H497.129C504.075 140.938 511.396 139.593 516.848 134.962C522.003 130.63 524.318 123.907 524.841 117.409C525.439 110.462 524.916 102.768 520.583 96.9417C517.745 93.0575 513.039 90.966 508.333 90.219C513.487 89.248 518.417 86.036 520.434 81.106C522.675 75.5038 522.525 69.2293 521.405 63.403C520.135 56.9044 515.429 51.078 509.08 48.8371C503.328 46.8203 497.203 46.4468 491.153 46.4468ZM488.314 60.4898V84.318C488.817 84.318 489.324 84.3236 489.833 84.3293C493.031 84.3648 496.32 84.4014 499.22 83.0482C502.432 81.4795 503.478 77.5953 503.702 74.3087C504.001 70.4991 503.702 65.9426 500.639 63.2536C497.667 60.5459 493.586 60.5241 489.79 60.5037C489.292 60.5011 488.799 60.4985 488.314 60.4898ZM488.314 126.447V98.2116C489.046 98.2239 489.795 98.2158 490.553 98.2075C494.366 98.166 498.396 98.1221 501.386 100.677C504.598 103.59 504.822 108.296 504.972 112.329C504.897 116.587 504.449 121.442 501.013 124.355C497.91 126.635 494.003 126.553 490.291 126.475H490.291H490.29H490.29C489.623 126.461 488.963 126.447 488.314 126.447ZM536.12 46.4468H557.035V126.97H578.772V141.087H536.12V46.4468ZM625.009 46.4468H601.181C595.28 77.9688 589.304 109.565 583.328 141.087H603.048C603.607 137.773 604.147 134.44 604.687 131.107L604.692 131.078L604.696 131.049C605.236 127.716 605.776 124.383 606.335 121.069H620.228C620.751 124.391 621.274 127.733 621.797 131.074L621.797 131.078C622.32 134.421 622.843 137.763 623.366 141.087H642.637C636.811 109.565 630.91 77.9688 625.009 46.4468ZM608.202 108.669H618.286C617.573 103.579 616.885 98.4765 616.195 93.3663L616.194 93.3551L616.192 93.3393C615.224 86.1591 614.254 78.964 613.207 71.769C612.274 79.0984 611.262 86.4015 610.249 93.7096L610.246 93.7344C609.557 98.707 608.867 103.682 608.202 108.669ZM738.921 46.4468H718.006V141.013H738.921V104.71C738.747 103.082 739.613 101.726 740.464 100.394C740.706 100.015 740.947 99.638 741.162 99.2573C743.418 106.172 745.673 113.069 747.929 119.965L747.93 119.969L747.997 120.173C750.275 127.139 752.554 134.104 754.832 141.087H776.12C773.057 132.459 769.995 123.813 766.932 115.166C763.87 106.521 760.807 97.875 757.745 89.248C760.658 82.1144 763.59 74.9809 766.522 67.8474L766.522 67.8456L766.525 67.8384L766.528 67.8312L766.529 67.8295L766.532 67.8223L766.533 67.8205L766.536 67.8133L766.541 67.8008L766.546 67.7882L766.551 67.7757L766.554 67.7685L766.557 67.7614L766.558 67.7596L766.558 67.7578L766.559 67.756L766.56 67.7542L766.561 67.7524L766.561 67.7507L766.562 67.7489L766.563 67.7471L766.563 67.7453L766.564 67.7435L766.565 67.7417L766.566 67.7399L766.566 67.7382L766.567 67.7364L766.568 67.7346L766.569 67.7328L766.569 67.731L766.57 67.7292L766.571 67.7274L766.572 67.7257L766.572 67.7239L766.573 67.7221L766.574 67.7203L766.574 67.7185L766.575 67.7167L766.576 67.715L766.577 67.7132L766.577 67.7114L766.578 67.7096L766.579 67.7078L766.58 67.706L766.58 67.7042L766.581 67.7025L766.582 67.7007L766.583 67.6989L766.583 67.6971L766.584 67.6953L766.585 67.6935L766.585 67.6917L766.586 67.69L766.587 67.6882L766.588 67.6864C769.497 60.6065 772.407 53.5267 775.299 46.4468H754.832C752.183 52.8644 749.534 59.3005 746.884 65.7367L746.878 65.7525C744.226 72.1962 741.574 78.6399 738.921 85.065V46.4468ZM810.257 46.4468H828.034C828.568 51.6976 829.089 56.9483 829.611 62.199C830.914 75.3236 832.217 88.4483 833.711 101.573C835.065 90.1345 836.565 78.6961 838.065 67.2577C838.965 60.3955 839.864 53.5332 840.733 46.6709H854.626C855.615 53.7674 856.581 60.8639 857.547 67.956C859.061 79.0786 860.574 90.1903 862.171 101.274C863.239 90.3684 864.387 79.4892 865.535 68.6049C866.314 61.2245 867.093 53.8418 867.848 46.4468H885.327C881.592 77.9688 877.782 109.565 873.973 141.087H855.747C854.562 132.925 853.419 124.762 852.276 116.599C850.751 105.714 849.227 94.8295 847.605 83.9445C846.331 93.7865 845.018 103.629 843.705 113.46L843.703 113.48L843.7 113.498C842.475 122.681 841.25 131.856 840.06 141.013H821.61C819.706 125.253 817.801 109.474 815.896 93.6948C813.992 77.9144 812.087 62.1339 810.182 46.3721L810.257 46.4468ZM932.609 46.4468H908.856C904.937 66.8642 901.081 87.3129 897.226 107.752L897.219 107.791C895.125 118.895 893.031 129.996 890.929 141.087H910.649C911.206 137.783 911.744 134.46 912.282 131.138L912.283 131.136L912.283 131.135L912.283 131.134L912.283 131.133L912.283 131.132L912.284 131.131L912.284 131.13L912.284 131.128L912.284 131.127L912.284 131.126L912.284 131.125L912.285 131.124L912.285 131.123L912.285 131.122L912.285 131.12L912.285 131.119L912.286 131.118L912.286 131.117L912.286 131.116L912.286 131.115L912.286 131.114L912.286 131.112L912.287 131.111L912.287 131.11L912.287 131.109L912.287 131.108L912.287 131.107L912.288 131.106L912.288 131.104L912.288 131.103L912.288 131.102L912.288 131.101L912.289 131.1L912.289 131.099L912.289 131.098L912.289 131.096L912.289 131.095L912.289 131.094L912.29 131.093L912.29 131.092L912.29 131.091L912.29 131.089L912.29 131.088L912.291 131.087L912.291 131.086L912.291 131.085L912.291 131.084L912.291 131.083L912.291 131.081L912.292 131.08L912.292 131.079L912.292 131.078L912.292 131.077L912.293 131.075L912.293 131.073L912.293 131.071L912.294 131.068L912.294 131.065L912.295 131.063C912.835 127.725 913.376 124.388 913.935 121.069H927.829C928.352 124.393 928.875 127.735 929.397 131.078L929.399 131.086C929.921 134.426 930.444 137.766 930.966 141.087H950.238C944.411 109.565 938.51 77.9688 932.609 46.4468ZM915.877 108.669H925.887C925.533 106.035 925.184 103.397 924.833 100.758C923.555 91.1219 922.273 81.4598 920.807 71.8437C919.892 78.9954 918.899 86.1472 917.905 93.3138C917.196 98.4229 916.487 103.54 915.803 108.669H915.877ZM980.863 46.4468H959.948V141.087H1002.6V126.97H980.863V46.4468ZM1011.64 46.4468H1032.55V126.97H1054.29V141.087H1011.64V46.4468ZM1197.11 46.4468H1147.66V61.9837H1161.85V141.087H1182.92V61.9837H1197.11V46.4468ZM1205.4 46.4468H1233.71C1241.26 46.7456 1249.25 47.7914 1255.45 52.3479C1260.6 56.1574 1262.47 62.8054 1262.77 68.9305C1262.99 74.9062 1262.69 81.106 1260.3 86.6336C1258.59 90.6672 1255 93.3563 1251.27 95.2984C1255.6 110.536 1259.93 125.775 1264.19 141.087H1242.6C1239.67 129.303 1236.79 117.466 1233.92 105.664L1233.9 105.594C1233.34 103.281 1232.78 100.969 1232.22 98.6597H1226.24V141.087H1205.33V46.4468H1205.4ZM1226.32 86.7083V60.5645C1227.5 60.629 1228.71 60.6007 1229.93 60.5721C1232.96 60.5015 1236.02 60.4298 1238.79 61.7596C1242.9 64.0005 1243.5 69.304 1243.5 73.487C1243.42 77.5953 1242.9 82.5253 1239.24 84.9903C1236.23 86.7823 1232.73 86.7401 1229.3 86.6987C1228.29 86.6866 1227.3 86.6745 1226.32 86.7083ZM1275.47 46.4468H1317.89V60.7139C1315.47 60.7139 1313.06 60.6972 1310.65 60.6806C1305.86 60.6474 1301.08 60.6144 1296.31 60.7139V84.0939H1312.81C1312.81 85.7117 1312.8 87.3212 1312.78 88.9251L1312.78 88.9436C1312.75 92.1472 1312.72 95.3288 1312.81 98.5103H1296.23V126.746H1318.12V140.938C1308.65 140.888 1299.17 140.905 1289.72 140.921H1289.72H1289.72H1289.71H1289.71H1289.71H1289.7H1289.7H1289.7H1289.7H1289.69H1289.69H1289.69H1289.68H1289.68H1289.68H1289.67H1289.67H1289.67H1289.67H1289.66H1289.66H1289.66H1289.65H1289.65H1289.65H1289.65H1289.64H1289.64H1289.64H1289.63H1289.63H1289.63H1289.62H1289.62H1289.62H1289.62H1289.61H1289.61H1289.61H1289.6H1289.6H1289.6H1289.6H1289.59H1289.59L1289.57 140.921C1284.84 140.93 1280.11 140.938 1275.39 140.938C1275.39 132.052 1275.38 123.161 1275.37 114.266V114.259V114.251V114.243V114.235V114.227V114.219V114.211V114.204V114.196V114.188V114.18V114.172V114.164V114.156V114.148V114.141V114.133V114.125V114.117V114.109V114.101V114.093V114.085V114.078V114.07V114.062V114.054V114.046V114.038V114.03V114.022V114.015V114.007V113.999V113.991V113.983V113.975V113.967V113.959V113.952V113.944V113.936V113.928V113.92V113.912C1275.34 91.3721 1275.31 68.8157 1275.47 46.2975V46.4468ZM1370.18 46.4468H1327.68V141.013H1370.41V126.895H1348.59V98.585H1365.03V84.0939H1348.59V60.7139H1370.18V46.4468ZM1374.22 46.4468H1423.59V61.9837H1409.47V141.087H1388.48V61.9837H1374.22V46.4468ZM1505.53 46.4468H1456.08V61.9837H1470.35V141.087H1491.34V61.9837H1505.53V46.4468ZM1513.9 46.4468H1534.81V141.087H1513.9V46.4468ZM1550.27 46.4468H1550.2L1550.28 46.3721L1550.27 46.4468ZM1550.27 46.4468H1572.61C1574.81 57.6735 1576.92 68.9283 1579.04 80.194L1579.04 80.2045L1579.05 80.2157L1579.05 80.2278L1579.05 80.2388L1579.05 80.2506C1580.38 87.3303 1581.71 94.4143 1583.07 101.498C1584.93 92.3108 1586.8 83.142 1588.67 73.9732C1590.54 64.804 1592.4 55.6348 1594.27 46.4468H1615.86C1616.12 62.0494 1616.4 77.6704 1616.68 93.2915V93.2968V93.302V93.3072V93.3125V93.3177V93.323V93.3282V93.3334V93.3387V93.3439V93.3492V93.3544V93.3596V93.3649V93.3701V93.3754V93.3806V93.3859V93.3911V93.3963V93.4016V93.4068V93.4121V93.4173V93.4225V93.4278V93.433V93.4383V93.4435V93.4488V93.454V93.4592V93.4645V93.4697V93.475V93.4802V93.4854V93.4907V93.4959L1616.68 93.8065C1616.96 109.573 1617.24 125.34 1617.5 141.087H1602.71C1602.38 130.592 1602.1 120.116 1601.82 109.64C1601.54 99.1639 1601.26 88.6877 1600.92 78.1929C1599.13 88.6878 1597.3 99.1641 1595.47 109.64V109.641C1593.64 120.117 1591.81 130.593 1590.01 141.087H1576.87L1575.41 133.178L1575.05 131.235C1571.77 113.435 1568.48 95.5899 1565.14 77.7447C1564.63 98.3749 1564.19 119.077 1563.75 139.71L1563.75 139.819L1563.72 141.013H1548.63C1548.89 125.252 1549.17 109.472 1549.45 93.6924L1549.46 93.0754V93.0652L1549.47 93.0547C1549.74 77.5126 1550.02 61.9707 1550.27 46.4468ZM1631.17 46.4468H1673.67V60.7139H1652.09V84.1686H1668.52V98.6597H1652.09V126.97H1673.9V141.087H1631.17V46.4468ZM854.934 166.804C852.065 167.988 849.177 169.18 846.858 171.19L846.708 171.265C847.175 171.42 847.648 171.549 848.118 171.678C849.228 171.98 850.32 172.278 851.265 172.908C851.585 174.19 851.576 175.526 851.567 176.823V176.827C851.565 177.04 851.564 177.253 851.564 177.465C851.534 181.947 851.552 186.418 851.57 190.886C851.597 197.587 851.623 204.282 851.489 211.003C851.429 212.994 849.567 213.572 847.947 214.074C847.561 214.194 847.189 214.31 846.858 214.439V216.008C848.405 216.008 849.952 216.025 851.498 216.041L851.503 216.041C855.631 216.086 859.76 216.13 863.889 215.859C863.639 214.539 862.486 214.088 861.35 213.643C860.107 213.157 858.884 212.678 858.884 211.078C858.868 210.043 858.842 209.004 858.816 207.963C858.719 204.124 858.622 200.257 859.033 196.438C860.751 192.628 865.831 190.088 869.864 191.881C872.231 193.064 872.328 196.078 872.402 198.385L872.404 198.454C872.374 200.093 872.392 201.744 872.41 203.398V203.4V203.403V203.406V203.408V203.411V203.414V203.417V203.419V203.422V203.425V203.427V203.43V203.433V203.435V203.438V203.441V203.444V203.446V203.449V203.452V203.454V203.457V203.46V203.462V203.465V203.468V203.471V203.473V203.476V203.479V203.481V203.484V203.487V203.489V203.492V203.495V203.498C872.437 206.03 872.464 208.567 872.329 211.078C872.27 212.973 870.474 213.507 868.876 213.981C868.458 214.105 868.054 214.225 867.698 214.365V216.008H884.206V214.29C883.795 214.114 883.332 213.978 882.862 213.841C881.541 213.455 880.165 213.053 879.724 211.676C879.343 209.072 879.421 206.414 879.499 203.76C879.604 200.17 879.709 196.586 878.679 193.151C877.035 187.997 870.835 186.578 866.13 187.773C863.543 188.34 861.649 190.24 859.818 192.077C859.481 192.415 859.146 192.751 858.809 193.076C858.777 189.074 858.786 185.086 858.796 181.099V181.098V181.097V181.096V181.094V181.093V181.092V181.091V181.089V181.088V181.087V181.085V181.084V181.083V181.082V181.08V181.079V181.078V181.076V181.075V181.074V181.073V181.071V181.07V181.069V181.067V181.066V181.065V181.064V181.062V181.061V181.06V181.058V181.057V181.056V181.055V181.053V181.052V181.051C858.808 175.753 858.82 170.458 858.735 165.14C857.507 165.742 856.222 166.272 854.934 166.804ZM1214.14 170.593C1216.94 169.024 1219.87 167.707 1222.8 166.391L1222.81 166.386C1223.78 165.949 1224.75 165.512 1225.72 165.065C1225.79 171.991 1225.78 178.916 1225.77 185.849V185.869C1225.76 194.183 1225.75 202.507 1225.87 210.854C1225.87 212.905 1227.96 213.526 1229.68 214.039L1229.69 214.04C1229.81 214.076 1229.93 214.112 1230.05 214.148C1230.2 214.195 1230.36 214.242 1230.5 214.29V215.933C1228.95 215.933 1227.41 215.95 1225.86 215.967L1225.85 215.967C1221.73 216.011 1217.6 216.056 1213.47 215.784C1213.72 214.498 1214.86 214.049 1215.98 213.604C1217.22 213.118 1218.43 212.637 1218.47 211.078C1218.62 198.828 1218.55 186.578 1218.47 174.402C1218.51 173.043 1217.33 172.752 1216.18 172.47C1215.05 172.193 1213.96 171.924 1214.07 170.667L1214.14 170.593ZM1362.24 166.6C1359.24 167.852 1356.22 169.11 1353.67 171.115V171.19C1354.14 171.391 1354.72 171.522 1355.31 171.656C1356.94 172.022 1358.69 172.416 1358.53 174.327C1358.53 178.015 1358.52 181.711 1358.51 185.41V185.419V185.427V185.435V185.443V185.452V185.46V185.468V185.477V185.485V185.493V185.501V185.51V185.518V185.526V185.535V185.543C1358.5 193.037 1358.48 200.543 1358.53 208.016C1358.51 208.374 1358.51 208.742 1358.51 209.116C1358.52 210.145 1358.52 211.212 1358.08 212.199C1357.39 213.16 1356.23 213.51 1355.11 213.851C1354.67 213.986 1354.23 214.12 1353.82 214.29V215.933H1370.41C1370.33 215.485 1370.33 214.663 1370.33 214.215C1369.98 214.077 1369.58 213.957 1369.18 213.835C1367.61 213.362 1365.89 212.842 1365.77 211.003C1365.63 206.297 1365.48 201.517 1365.77 196.736C1367.19 192.329 1373.1 189.565 1377.2 191.956C1379.23 193.563 1379.21 196.165 1379.2 198.592C1379.19 199.211 1379.19 199.819 1379.22 200.396C1379.16 201.834 1379.2 203.283 1379.23 204.738V204.74V204.742V204.743V204.745V204.747V204.749V204.751V204.753V204.755V204.757V204.759V204.761V204.762V204.765V204.767V204.769V204.771V204.773V204.775V204.777V204.779V204.781V204.784V204.786V204.788V204.79V204.793V204.795V204.797V204.8V204.802V204.805V204.807V204.809V204.812C1379.29 207.039 1379.34 209.283 1379.07 211.526C1378.62 212.93 1377.2 213.321 1375.89 213.682C1375.46 213.801 1375.03 213.917 1374.66 214.066C1374.59 214.514 1374.59 215.41 1374.59 215.859C1376.43 215.859 1378.27 215.867 1380.12 215.875C1383.8 215.892 1387.49 215.908 1391.17 215.859V214.215C1390.76 214.039 1390.3 213.904 1389.83 213.767C1388.51 213.381 1387.13 212.979 1386.69 211.601C1386.32 209.036 1386.41 206.406 1386.5 203.777C1386.62 200.051 1386.75 196.324 1385.57 192.777C1383.7 187.698 1377.35 186.578 1372.72 187.847C1370.31 188.529 1368.56 190.289 1366.84 192.021C1366.48 192.377 1366.13 192.732 1365.77 193.076C1365.7 188.408 1365.7 183.758 1365.7 179.108C1365.7 174.458 1365.7 169.808 1365.63 165.14C1364.52 165.652 1363.38 166.126 1362.24 166.6ZM535.448 175C535.672 170.518 543.814 170.443 543.963 175C543.767 178.72 543.155 182.441 542.545 186.141L542.544 186.144L542.544 186.148L542.543 186.152L542.543 186.156L542.542 186.159C542.223 188.098 541.904 190.031 541.648 191.956H537.763C537.494 189.676 537.127 187.408 536.761 185.143C536.216 181.767 535.671 178.397 535.448 175ZM777.166 175.821C777.539 172.684 774.178 170.443 771.414 171.489V171.564C767.754 172.46 767.605 178.66 771.265 179.706C773.879 180.751 777.315 178.884 777.166 175.821ZM1095.07 183.739C1098.36 177.091 1105.31 172.535 1112.55 171.489C1118.23 170.593 1123.91 171.713 1129.29 173.431C1130.53 173.823 1131.77 173.815 1133.06 173.807L1133.36 173.805C1133.45 173.805 1133.53 173.804 1133.62 173.804V184.86C1131.81 184.608 1131.01 183.104 1130.23 181.623L1130.23 181.622C1129.85 180.904 1129.47 180.192 1128.99 179.631C1125.1 174.029 1117.18 173.282 1111.13 175.224C1106.05 176.867 1103.22 182.021 1102.47 187.026C1101.35 194.047 1101.95 201.741 1106.13 207.717C1110.01 213.319 1118.01 215.112 1124.21 212.721C1128.31 211.153 1131.53 207.791 1133.62 203.982H1136.01C1135.01 206.472 1133.88 208.895 1132.75 211.319C1132.19 212.531 1131.63 213.742 1131.08 214.962C1128.33 214.73 1125.67 215.302 1123.02 215.875C1120.56 216.406 1118.09 216.938 1115.54 216.83C1109.19 216.606 1102.77 214.215 1098.36 209.584C1091.79 202.936 1090.82 192.105 1095 183.963L1095.07 183.739ZM1152.14 175.747C1152.59 172.684 1149.15 170.443 1146.39 171.489C1142.66 172.46 1142.51 178.585 1146.24 179.631C1148.93 180.677 1152.37 178.809 1152.14 175.747ZM1200.92 171.638C1203.76 170.368 1207.42 172.535 1207.04 175.821C1207.27 179.033 1203.53 180.826 1200.84 179.631C1197.56 178.361 1197.63 172.908 1200.84 171.713L1200.92 171.638ZM1309.01 175.821C1309.38 172.46 1305.49 170.294 1302.66 171.713H1302.73C1299.44 173.132 1299.67 178.734 1303.18 179.706C1305.79 180.677 1309.15 178.809 1309.01 175.821ZM1418.36 175.074C1418.51 171.638 1423.44 170.518 1425.76 172.759C1427.11 173.709 1426.93 175.462 1426.77 176.951L1426.77 176.961L1426.76 177.104L1426.74 177.263L1426.73 177.39C1426.39 180.168 1425.96 182.923 1425.53 185.681L1425.53 185.683L1425.52 185.685L1425.52 185.688L1425.52 185.69L1425.52 185.693L1425.52 185.695L1425.52 185.698L1425.52 185.7L1425.52 185.702L1425.52 185.705L1425.52 185.707L1425.52 185.71L1425.52 185.712L1425.52 185.715L1425.52 185.717L1425.52 185.719L1425.52 185.722L1425.52 185.724L1425.52 185.727L1425.52 185.729L1425.52 185.732L1425.52 185.734L1425.52 185.736L1425.52 185.739L1425.52 185.741L1425.52 185.744L1425.52 185.746L1425.52 185.749L1425.51 185.751C1425.18 187.863 1424.85 189.977 1424.56 192.105H1420.68C1420.41 189.882 1420.05 187.682 1419.68 185.482L1419.68 185.48C1419.11 182.063 1418.54 178.648 1418.36 175.149V175.074ZM556.064 174.402C555.018 170.742 549.043 170.742 547.698 174.253V174.327C547.698 177.99 548.315 181.625 548.931 185.249C549.32 187.537 549.708 189.821 549.939 192.105H553.823C554.072 190.138 554.404 188.179 554.736 186.221C555.4 182.303 556.064 178.386 556.064 174.402ZM1249.85 172.535C1251.49 172.484 1253.13 172.427 1254.76 172.369C1260.42 172.169 1266.05 171.971 1271.73 172.086C1275.99 172.086 1280.32 173.879 1283.09 177.315C1286.3 181.05 1286.82 187.026 1283.91 191.059C1282.73 192.701 1280.97 193.765 1279.24 194.81C1279 194.954 1278.76 195.098 1278.53 195.242C1279.84 197.268 1281.12 199.316 1282.4 201.365C1284.47 204.679 1286.55 207.996 1288.76 211.227C1290.26 213.543 1292.72 214.962 1295.11 216.232C1290.7 217.427 1285.55 216.232 1281.89 213.618C1278.76 210.584 1276.57 206.859 1274.37 203.129C1273.1 200.981 1271.83 198.831 1270.39 196.811C1269.43 196.773 1268.48 196.714 1267.55 196.657C1266.67 196.602 1265.8 196.548 1264.93 196.512C1264.93 197.837 1264.92 199.161 1264.9 200.485C1264.86 204.016 1264.81 207.547 1265.08 211.078C1265.38 213.067 1267.21 213.34 1268.96 213.603C1270.7 213.863 1272.37 214.112 1272.4 216.008H1250.07V214.29C1250.25 214.262 1250.44 214.234 1250.64 214.205C1253.02 213.854 1256.33 213.369 1256.12 210.331C1256.27 199.874 1256.19 189.416 1256.12 178.959C1256.34 175.597 1252.68 174.253 1249.92 174.327V172.684L1249.85 172.535ZM1264.84 180.762C1264.85 178.563 1264.86 176.366 1264.86 174.178H1264.79C1265.15 174.166 1265.52 174.147 1265.89 174.128C1267.87 174.024 1269.91 173.918 1271.73 174.925C1275.09 176.568 1276.81 180.378 1276.81 183.963C1276.81 187.1 1276.21 190.686 1273.52 192.628C1271.06 194.495 1267.77 194.271 1264.86 193.973C1264.81 189.588 1264.83 185.169 1264.84 180.762ZM1430.54 175.074C1430.69 170.817 1437.93 170.443 1438.9 174.402C1438.9 178.386 1438.24 182.303 1437.57 186.221C1437.24 188.179 1436.91 190.138 1436.66 192.105H1432.78C1432.52 189.885 1432.15 187.677 1431.78 185.471L1431.78 185.465L1431.78 185.46L1431.78 185.455L1431.78 185.45L1431.78 185.445L1431.78 185.44C1431.21 182.015 1430.64 178.596 1430.46 175.149L1430.54 175.074ZM587.735 172.46H578.847V172.535C578.473 174.991 577.641 177.295 576.815 179.582C576.485 180.494 576.157 181.404 575.859 182.32C572.796 191.134 569.734 199.948 566.746 208.762C566.073 210.63 565.252 212.871 563.16 213.543C562.828 213.742 562.41 213.863 561.989 213.984C560.99 214.273 559.971 214.567 560.023 215.933C563.904 215.983 567.751 215.967 571.609 215.95H571.612C573.546 215.942 575.482 215.933 577.427 215.933V214.365C577.002 214.3 576.555 214.251 576.099 214.202C573.912 213.963 571.531 213.703 570.481 211.601C571.676 207.194 573.17 202.712 575.037 198.529C579.22 197.931 583.777 197.857 587.96 198.529C588.922 200.546 589.659 202.646 590.396 204.745L590.397 204.748C590.861 206.069 591.325 207.39 591.844 208.688C591.913 208.91 592 209.142 592.09 209.38C592.483 210.424 592.92 211.585 592.068 212.497C590.807 213.758 588.982 213.893 587.214 214.022C586.574 214.07 585.941 214.116 585.345 214.215V215.859H607.381C607.455 215.485 607.455 214.813 607.455 214.439L607.443 214.436C604.905 213.689 601.852 212.791 601.106 209.958C598.865 203.721 596.643 197.465 594.421 191.209L594.42 191.205C592.198 184.951 589.976 178.696 587.735 172.46ZM580.863 181.424L580.824 181.521L580.789 181.498L580.863 181.424ZM580.824 181.521C581.634 182.04 582.435 182.707 582.656 183.664C584.001 187.325 585.345 191.059 586.69 194.794C584.349 194.844 582.009 194.827 579.668 194.811C578.498 194.803 577.328 194.794 576.158 194.794C576.29 194.397 576.422 194 576.553 193.603L576.849 192.708L576.862 192.669C578.099 188.93 579.332 185.2 580.824 181.521ZM949.416 172.46H935.299L935.224 172.535V174.178C935.617 174.26 936.029 174.324 936.446 174.389C937.931 174.62 939.494 174.863 940.602 175.971C940.926 178.884 940.877 181.797 940.829 184.71C940.799 186.503 940.769 188.296 940.826 190.088C940.773 192.57 940.815 195.061 940.857 197.551V197.552C940.932 202.033 941.007 206.512 940.527 210.929C940.229 213.618 937.465 214.29 935.224 214.29V215.933H952.553C952.628 215.485 952.703 214.663 952.703 214.29C952.517 214.252 952.324 214.216 952.123 214.18C951.934 214.146 951.738 214.113 951.539 214.079C949.071 213.66 946.012 213.14 945.756 210.256C945.607 200.845 945.607 191.508 945.756 182.096C951.432 188.193 957.014 194.408 962.594 200.621L962.595 200.622L962.596 200.623L962.596 200.623L962.597 200.624L962.598 200.625L962.599 200.626L962.599 200.626L962.6 200.627L962.601 200.628C966.932 205.451 971.262 210.272 975.635 215.037C976.979 216.83 981.237 216.904 981.013 213.991C981.077 208.783 981.059 203.562 981.04 198.339V198.337V198.336V198.335V198.333V198.332V198.331V198.329V198.328V198.327V198.325V198.324V198.323V198.321V198.32V198.319V198.317V198.316V198.315V198.313V198.312V198.311V198.309C981.016 191.33 980.992 184.348 981.162 177.39C981.529 175.851 982.974 175.408 984.351 174.987C985.781 174.549 987.138 174.133 987.138 172.535H969.584V174.253L969.71 174.256L969.8 174.258L969.964 174.262L970.217 174.267C972.632 174.314 975.74 174.375 976.083 177.39C976.754 182.707 976.656 188.086 976.559 193.447V193.45V193.452V193.454V193.457V193.459V193.462V193.464V193.467V193.469V193.471V193.474V193.476V193.479V193.481V193.483V193.486V193.488V193.49V193.493V193.495V193.497V193.5C976.505 196.481 976.451 199.457 976.531 202.413C971.285 196.694 966.089 190.926 960.899 185.165L960.897 185.163L960.895 185.161C957.071 180.916 953.25 176.674 949.416 172.46ZM831.165 185.87L831.165 185.87C832.657 184.235 834.149 182.599 836.55 182.395L836.483 182.701L836.41 183.039L836.403 183.074C836.077 184.58 835.744 186.121 835.355 187.549C838.417 187.549 841.554 187.549 844.617 187.623C844.729 188.37 844.822 189.117 844.916 189.864C845.009 190.611 845.102 191.358 845.214 192.105H835.429V207.194C835.429 208.912 835.877 211.227 837.82 211.601C839.469 211.824 840.826 211.009 842.192 210.189C843.115 209.635 844.041 209.078 845.065 208.837C844.542 212.124 841.853 214.514 839.089 215.933C834.757 218.1 828.856 214.813 828.408 210.032C828.273 206.447 828.3 202.861 828.327 199.276C828.345 196.886 828.363 194.495 828.333 192.105C827.279 192.105 826.225 192.039 825.108 191.969L824.897 191.956C825.427 190.631 826.558 189.795 827.677 188.968C828.136 188.629 828.593 188.291 829.005 187.922V187.997C829.785 187.383 830.475 186.626 831.165 185.87ZM1404.99 182.395C1403.2 182.693 1401.55 183.59 1400.43 185.009H1400.51C1399.02 186.823 1397.26 188.232 1395.48 189.654C1394.84 190.164 1394.19 190.676 1393.56 191.209C1393.56 192.244 1394.51 192.206 1395.45 192.167C1395.93 192.147 1396.42 192.128 1396.77 192.255C1396.77 194.172 1396.76 196.089 1396.74 198.006C1396.71 201.841 1396.67 205.675 1396.77 209.509C1396.77 212.199 1398.64 214.813 1401.11 215.933C1406.19 218.548 1412.53 214.066 1413.43 208.837C1412.48 209.096 1411.6 209.622 1410.71 210.149C1409.3 210.988 1407.88 211.83 1406.19 211.601C1404.32 211.078 1403.87 208.837 1403.87 207.194C1403.82 203.863 1403.84 200.532 1403.85 197.179L1403.85 197.123C1403.86 195.457 1403.87 193.785 1403.87 192.105H1413.66C1413.54 191.362 1413.45 190.62 1413.36 189.877L1413.36 189.862C1413.26 189.116 1413.17 188.37 1413.06 187.623C1410 187.549 1406.86 187.549 1403.8 187.549C1404.24 185.831 1404.69 184.113 1404.99 182.395ZM622.096 187.25C625.681 186.652 629.566 186.503 633.076 187.773C634.944 188.37 636.587 190.91 635.018 192.628C633.375 193.748 630.835 193.674 629.416 192.18C629.187 191.985 628.957 191.777 628.723 191.565C627.428 190.394 626.022 189.123 624.187 189.565C620.901 189.79 618.959 193.001 618.361 195.915C617.614 199.799 617.539 203.982 619.033 207.717C620.453 211.302 624.71 213.095 628.296 211.974C629.69 211.526 630.752 210.547 631.815 209.568C632.346 209.078 632.877 208.588 633.45 208.165C634.346 207.791 635.989 208.165 635.84 209.509C632.479 214.738 625.756 218.1 619.631 216.232C613.058 213.991 609.248 206.447 610.518 199.724C611.041 193.599 615.821 188.146 622.021 187.325L622.096 187.25ZM661.312 187.175C655.336 186.204 648.09 187.026 644.057 192.03L643.982 192.105C639.799 197.707 639.425 206.372 643.982 211.9C646.596 215.261 651.003 217.353 655.336 216.531C660.042 216.008 663.777 212.871 666.54 209.211C666.346 209.087 666.156 208.938 665.964 208.788C665.345 208.304 664.707 207.805 663.851 208.09C663.226 208.549 662.648 209.077 662.064 209.61L662.064 209.61C661.601 210.032 661.135 210.458 660.639 210.854C657.427 213.468 652.124 212.348 649.958 208.912C648.24 206.148 648.09 202.787 648.165 199.649C648.314 196.811 648.837 193.674 650.854 191.433C652.497 189.491 655.784 188.744 657.801 190.536C658.225 190.84 658.627 191.214 659.033 191.591L659.033 191.591C660.128 192.608 661.246 193.647 662.88 193.375C664.15 193.375 665.793 192.927 665.943 191.433C666.316 188.818 663.478 187.549 661.312 187.175ZM678.118 188.594C682.376 186.279 688.277 185.905 692.161 189.192C694.925 191.582 696.867 195.242 696.494 198.977C692.823 199.063 689.152 199.05 685.481 199.038C682.728 199.029 679.975 199.02 677.222 199.052C677.222 199.316 677.22 199.582 677.218 199.848V199.85C677.203 201.986 677.189 204.156 678.118 206.148C679.463 209.659 682.974 212.423 686.858 212.273C689.759 212.273 692.213 210.548 694.516 208.93C694.703 208.798 694.889 208.668 695.074 208.538C695.261 208.725 695.523 209.024 695.784 209.323C696.045 209.621 696.307 209.92 696.494 210.107C692.684 213.991 687.381 217.427 681.629 216.531C676.102 215.859 671.545 211.153 670.798 205.7C669.902 199.276 672.217 191.806 678.118 188.594ZM689.473 196.588H689.473H689.472H689.471H689.471H689.47H689.47H689.469H689.469H689.468H689.468H689.467H689.466H689.466H689.465H689.465C685.609 196.663 681.826 196.735 677.969 196.587C677.969 192.852 681.48 189.192 685.289 190.163C688.277 190.686 689.547 193.823 689.547 196.587L689.473 196.588ZM702.992 191.134C705.98 187.474 711.209 185.98 715.691 187.399C715.892 187.477 716.119 187.541 716.353 187.608C717.245 187.862 718.23 188.142 718.23 189.267C718.41 190.94 718.398 192.613 718.386 194.286C718.383 194.704 718.38 195.123 718.38 195.541C716.609 196.062 715.964 194.658 715.33 193.279C715.055 192.68 714.783 192.087 714.421 191.657C713.076 188.968 708.221 189.043 707.773 192.329C706.933 194.784 709.167 196.234 711.042 197.45C711.335 197.64 711.619 197.825 711.881 198.006C715.765 200.247 720.172 203.16 720.695 208.015C721.368 211.974 718.006 215.186 714.495 216.232C711.657 217.353 708.52 216.68 705.681 215.933C705.233 216.157 704.785 216.363 704.337 216.568C703.889 216.774 703.44 216.979 702.992 217.203C702.957 216.965 702.922 216.726 702.885 216.487L702.841 216.192L702.841 216.192C702.426 213.452 702.004 210.659 702.469 207.866C704.115 208.336 704.897 209.711 705.679 211.084C706.388 212.329 707.096 213.572 708.445 214.141C709.864 214.738 711.732 215.037 713.076 214.141C714.645 212.348 714.57 209.285 712.777 207.717C711.578 206.549 710.166 205.661 708.76 204.778C706.837 203.57 704.927 202.369 703.59 200.471C701.722 197.931 700.901 193.973 703.142 191.358L702.992 191.134ZM741.461 188.594C736.382 185.308 728.763 187.026 725.625 192.18H725.7C724.355 194.944 725.252 198.305 727.119 200.621C728.395 202.36 730.211 203.48 732.029 204.6C733.723 205.645 735.419 206.69 736.68 208.24C738.324 210.406 737.353 215.112 733.991 214.589C731.302 214.663 729.584 212.423 728.538 210.256C728.016 209.211 726.746 207.194 725.551 208.613C725.419 211.104 725.748 213.536 726.083 216.013L726.083 216.014C726.13 216.36 726.177 216.706 726.223 217.054C726.797 216.833 727.346 216.586 727.883 216.343L727.884 216.343C728.255 216.176 728.621 216.011 728.987 215.859C733.319 217.278 738.548 217.054 741.909 213.692C744.897 211.078 744.449 206.372 742.133 203.459C740.603 201.344 738.423 199.988 736.228 198.624C734.78 197.723 733.326 196.819 732.049 195.691C730.406 194.421 730.705 191.806 732.049 190.462C733.917 188.968 736.904 189.864 737.876 191.956C738.204 192.371 738.455 192.896 738.706 193.42C739.313 194.687 739.92 195.955 741.61 195.691C741.624 195.282 741.641 194.869 741.659 194.453L741.659 194.451C741.743 192.508 741.83 190.501 741.461 188.594ZM764.916 192.404C767.452 190.989 770.084 189.766 772.707 188.547L772.712 188.545L772.712 188.544C774.105 187.897 775.495 187.251 776.867 186.578C777.16 191.137 777.125 195.696 777.09 200.256C777.062 203.838 777.034 207.421 777.166 211.003C777.289 212.907 779.179 213.448 780.802 213.912L780.803 213.912C781.153 214.012 781.492 214.109 781.797 214.215V215.859H765.214V214.141C765.513 214.037 765.842 213.942 766.181 213.844C767.791 213.378 769.648 212.841 769.771 210.929C769.958 206.749 769.885 202.517 769.812 198.321C769.806 197.994 769.801 197.668 769.795 197.342C769.787 196.841 769.778 196.34 769.771 195.84C769.874 193.982 768.266 193.515 766.695 193.058C765.992 192.854 765.297 192.652 764.766 192.329L764.916 192.404ZM801.592 188.221C796.363 185.532 789.267 187.026 786.055 192.105V192.03C784.411 195.168 785.905 199.052 788.221 201.442C789.432 202.653 790.892 203.557 792.358 204.465C793.787 205.35 795.221 206.238 796.438 207.418C798.23 208.987 798.305 212.049 796.736 213.842C793.973 215.485 790.387 213.618 789.341 210.779C789.307 210.715 789.271 210.645 789.232 210.572L789.23 210.569C788.595 209.36 787.387 207.061 785.98 208.538C785.791 210.932 786.133 213.326 786.469 215.675C786.532 216.111 786.594 216.546 786.652 216.979C787.101 216.792 787.549 216.587 787.997 216.382L787.998 216.381C788.446 216.176 788.894 215.971 789.341 215.784C793.674 217.278 798.977 217.054 802.339 213.618C805.252 211.078 804.804 206.372 802.563 203.534C801.061 201.349 798.837 199.968 796.603 198.581C795.17 197.691 793.733 196.799 792.479 195.691C790.761 194.421 791.06 191.732 792.479 190.387C794.346 188.893 797.334 189.79 798.305 191.956C798.631 192.368 798.881 192.901 799.13 193.432C799.739 194.728 800.344 196.018 802.04 195.541C802.018 194.836 802.048 194.112 802.078 193.382C802.15 191.635 802.224 189.854 801.592 188.221ZM894.215 189.043C898.548 186.428 904.673 185.756 908.856 189.043C911.694 191.433 913.637 195.168 913.338 198.977C909.055 199.077 904.773 199.044 900.49 199.01C898.349 198.994 896.207 198.977 894.066 198.977C893.767 202.264 894.141 205.7 896.158 208.389C897.95 210.929 901.162 212.497 904.299 212.124C906.819 211.925 908.985 210.431 911.059 209.001C911.322 208.82 911.583 208.64 911.844 208.464C911.93 208.533 912.036 208.621 912.153 208.721C912.245 208.8 912.344 208.885 912.445 208.972L912.591 209.099L912.762 209.247C912.854 209.327 912.945 209.405 913.03 209.477C913.146 209.576 913.252 209.665 913.338 209.734C910.499 213.17 906.466 215.635 902.059 216.456C895.859 217.427 889.51 213.17 887.941 207.119C886.298 200.621 888.389 192.703 894.215 188.893V189.043ZM897.724 196.671C897.309 196.669 896.894 196.667 896.477 196.665C895.924 196.663 895.369 196.662 894.813 196.662C894.514 192.777 898.548 188.968 902.432 190.312C905.121 191.059 906.167 194.047 906.316 196.587C903.463 196.699 900.609 196.685 897.724 196.671ZM997.82 188.594C1002.08 186.279 1007.98 185.905 1011.86 189.192C1014.63 191.582 1016.57 195.168 1016.27 198.903C1012.6 199.073 1008.93 199.049 1005.26 199.024C1002.5 199.006 999.751 198.988 996.998 199.052C996.923 201.592 996.849 204.281 998.044 206.671C999.463 210.032 1002.9 212.423 1006.63 212.273C1009.6 212.273 1012.1 210.469 1014.39 208.82L1014.58 208.68L1014.78 208.538C1014.96 208.725 1015.22 209.024 1015.49 209.323C1015.75 209.621 1016.01 209.92 1016.19 210.107C1012.68 213.692 1008.05 216.755 1002.9 216.68C997.222 216.68 991.993 212.348 990.723 206.82C989.304 200.172 991.62 192.105 997.82 188.669V188.594ZM1009.1 196.588H1009.1H1009.1H1009.1H1009.1H1009.1H1009.1H1009.1H1009.1C1005.24 196.663 1001.45 196.735 997.595 196.587V196.512C997.67 192.852 1001.11 189.192 1004.99 190.163C1007.9 190.686 1009.17 193.898 1009.17 196.587L1009.1 196.588ZM1140.04 192.628C1142.26 190.926 1144.85 189.793 1147.43 188.659C1148.92 188.002 1150.42 187.345 1151.84 186.578C1152.14 191.137 1152.1 195.697 1152.07 200.256C1152.04 203.838 1152.01 207.421 1152.14 211.003C1152.26 212.834 1154.01 213.358 1155.59 213.829C1156.01 213.953 1156.41 214.075 1156.77 214.215V215.859H1140.12C1140.12 215.41 1140.12 214.589 1140.19 214.141C1140.49 214.037 1140.82 213.942 1141.16 213.844C1142.77 213.378 1144.62 212.841 1144.75 210.929C1144.91 207.354 1144.88 203.78 1144.85 200.205C1144.83 198.775 1144.82 197.345 1144.82 195.915C1145.04 193.923 1143.22 193.488 1141.56 193.093C1140.97 192.955 1140.41 192.822 1139.97 192.628H1140.04ZM1206.9 186.652C1202.79 188.445 1198.75 190.238 1194.87 192.404H1194.79C1195.3 192.726 1195.99 192.928 1196.7 193.134C1198.28 193.595 1199.93 194.078 1199.72 195.989C1199.72 197.63 1199.74 199.279 1199.76 200.93V200.94C1199.79 204.249 1199.82 207.568 1199.72 210.854C1199.72 212.839 1197.84 213.419 1196.2 213.921C1195.81 214.042 1195.43 214.159 1195.09 214.29V215.859C1196.62 215.859 1198.14 215.875 1199.68 215.892L1199.68 215.892C1203.78 215.936 1207.92 215.981 1212.05 215.709C1211.84 214.394 1210.69 213.941 1209.55 213.49C1208.3 212.993 1207.04 212.498 1207.04 210.854C1206.93 206.82 1206.95 202.787 1206.97 198.753C1206.99 194.72 1207.01 190.686 1206.9 186.652ZM1296.83 192.703C1299.02 190.944 1301.63 189.82 1304.24 188.697C1305.73 188.055 1307.22 187.413 1308.63 186.652C1308.88 191.093 1308.85 195.512 1308.83 199.932C1308.81 203.617 1308.79 207.302 1308.93 211.003C1308.99 212.877 1310.81 213.43 1312.45 213.929C1312.84 214.047 1313.22 214.162 1313.56 214.29V215.933C1309.88 215.983 1306.23 215.967 1302.57 215.95C1300.74 215.942 1298.9 215.933 1297.05 215.933V214.215C1297.36 214.109 1297.7 214.012 1298.05 213.912C1299.67 213.448 1301.56 212.907 1301.69 211.003C1301.85 207.428 1301.81 203.814 1301.78 200.217V200.211V200.204C1301.77 198.77 1301.76 197.339 1301.76 195.915C1301.92 193.976 1300.22 193.552 1298.64 193.158C1298.03 193.005 1297.44 192.857 1296.98 192.628L1296.83 192.703ZM1342.47 189.864C1337.39 185.905 1330 185.98 1324.54 189.043C1320.21 191.358 1317.45 196.811 1319.24 201.666C1320.28 204.804 1323.27 206.596 1326.11 208.016C1325.45 208.314 1324.78 208.589 1324.1 208.863C1322.42 209.549 1320.73 210.235 1319.24 211.302C1317.82 212.348 1317.97 214.514 1319.09 215.709C1320.54 217.649 1322.83 218.304 1325.01 218.925C1325.18 218.973 1325.35 219.022 1325.51 219.071C1324.47 220.154 1323.27 221.069 1322.08 221.984C1320.88 222.899 1319.69 223.814 1318.64 224.897C1316.77 226.764 1317 229.976 1318.79 231.844C1321.63 234.832 1326.11 235.579 1330.07 235.579C1336.64 235.504 1343.74 234.085 1348.52 229.304C1350.84 227.063 1352.48 223.776 1351.58 220.49C1351.06 217.651 1348.45 215.859 1345.76 215.336C1342.54 214.675 1339.27 214.612 1336.02 214.549C1333.75 214.505 1331.49 214.461 1329.25 214.215C1327.83 214.066 1326.48 213.767 1325.36 213.02C1324.4 211.153 1326.25 210.16 1327.79 209.336C1328.16 209.139 1328.51 208.951 1328.8 208.762C1334.03 209.584 1340 208.464 1343.74 204.43C1346.35 201.592 1347.03 197.259 1345.16 193.823C1347.7 193.898 1350.16 193.898 1352.7 193.674L1352.61 193.093L1352.61 193.087L1352.61 193.084C1352.41 191.917 1352.21 190.704 1351.96 189.491C1348.82 189.491 1345.61 189.64 1342.47 189.864ZM1330.37 188.968C1327.16 189.939 1326.04 193.674 1326.04 196.662C1326.04 200.023 1326.78 203.832 1329.55 206.073C1331.94 208.016 1335.82 207.269 1337.32 204.654C1339.41 201.069 1339.26 196.438 1337.76 192.628C1336.64 189.715 1333.36 187.847 1330.37 188.968ZM1328.8 231.545C1326.41 230.35 1324.09 227.959 1324.32 225.121H1324.39C1324.63 223.129 1326.15 221.826 1327.62 220.563C1328.03 220.217 1328.43 219.873 1328.8 219.519C1330.67 219.621 1332.55 219.645 1334.44 219.67C1336.7 219.7 1338.96 219.729 1341.2 219.892C1342.84 219.967 1344.64 220.789 1345.23 222.432C1346.05 224.673 1345.08 227.213 1343.52 228.931C1339.86 232.815 1333.58 234.234 1328.8 231.545ZM1019.11 188.445C1020.26 187.484 1021.69 187.512 1023.11 187.54C1023.34 187.544 1023.58 187.549 1023.81 187.549C1028.22 187.549 1032.63 187.549 1037.04 187.623C1036.76 188.941 1035.66 189.153 1034.54 189.369C1033.81 189.509 1033.08 189.65 1032.55 190.088C1032.05 191.427 1032.55 192.683 1033.05 193.949L1033.05 193.95C1033.22 194.378 1033.39 194.808 1033.52 195.242C1034.22 196.969 1034.84 198.737 1035.47 200.509L1035.47 200.516C1036.52 203.492 1037.57 206.477 1038.98 209.285C1040.26 206.425 1041.34 203.497 1042.42 200.575L1042.42 200.573C1043.28 198.23 1044.14 195.892 1045.1 193.599C1044.19 191.316 1042.14 190.229 1040.09 189.145C1039.9 189.042 1039.7 188.94 1039.51 188.836C1039.41 188.781 1039.3 188.725 1039.2 188.669L1039.5 187.698C1043.52 187.489 1047.51 187.536 1051.51 187.583C1053.23 187.603 1054.95 187.623 1056.68 187.623C1056.6 188.959 1055.51 189.158 1054.4 189.362C1053.39 189.546 1052.37 189.733 1052.05 190.761C1051.99 191.76 1052.31 192.677 1052.63 193.604C1052.74 193.923 1052.85 194.244 1052.95 194.57C1053.55 196.164 1054.14 197.77 1054.73 199.373C1055.65 201.902 1056.57 204.427 1057.58 206.895C1058.85 204.778 1059.67 202.482 1060.5 200.177C1060.99 198.823 1061.48 197.465 1062.06 196.139C1062.17 195.765 1062.32 195.383 1062.48 194.994C1062.95 193.828 1063.44 192.61 1062.88 191.433C1062.44 190.443 1061.43 190.139 1060.46 189.845C1059.3 189.495 1058.18 189.158 1058.1 187.698C1062.73 187.549 1067.29 187.549 1071.92 187.698C1071.62 188.865 1070.63 189.273 1069.64 189.687C1068.65 190.095 1067.66 190.508 1067.29 191.657C1065.27 196.183 1063.5 200.822 1061.74 205.462C1060.3 209.246 1058.86 213.031 1057.28 216.755C1056.08 216.755 1054.89 216.755 1053.69 216.83C1052.25 213.268 1050.93 209.658 1049.61 206.041C1048.6 203.286 1047.59 200.527 1046.52 197.782C1044.13 204.131 1041.67 210.48 1039.2 216.755H1033.9C1032.93 214.14 1031.97 211.517 1031.02 208.893C1029.11 203.649 1027.2 198.404 1025.16 193.226C1024.4 191.196 1022.52 190.246 1020.71 189.329C1020.18 189.065 1019.67 188.804 1019.18 188.52L1019.11 188.445ZM1169.77 187.449C1165.79 187.399 1161.83 187.35 1157.89 187.698L1157.82 187.623C1158.46 188.457 1159.42 188.906 1160.38 189.353C1161.65 189.947 1162.91 190.539 1163.42 192.03C1165.5 197.073 1167.36 202.174 1169.21 207.278C1170.35 210.415 1171.49 213.553 1172.68 216.68H1178.21C1179.88 212.841 1181.36 208.925 1182.83 205.015C1184.6 200.33 1186.37 195.654 1188.45 191.134C1188.79 189.992 1189.79 189.626 1190.78 189.265C1191.73 188.917 1192.67 188.574 1193 187.549H1183.52C1183.29 187.549 1183.07 187.544 1182.84 187.54C1181.47 187.512 1180.05 187.484 1178.96 188.445C1179.51 188.722 1180.15 188.898 1180.78 189.074C1182.03 189.421 1183.3 189.772 1184.04 190.91C1184.44 192.467 1183.87 193.979 1183.31 195.446C1183.14 195.88 1182.98 196.31 1182.84 196.736C1182.3 198.093 1181.79 199.457 1181.28 200.816C1180.19 203.724 1179.11 206.611 1177.69 209.36C1177.24 208.163 1176.79 206.968 1176.34 205.775C1174.46 200.789 1172.59 195.823 1170.97 190.761C1170.85 189.21 1172.06 189.088 1173.3 188.963C1174.44 188.848 1175.6 188.731 1175.75 187.474C1173.75 187.499 1171.76 187.474 1169.77 187.449Z" fill="#929292"/>
<path fill-rule="evenodd" clip-rule="evenodd" d="M21.6103 2.82406C26.2414 0.956641 31.3208 0.657855 36.3255 0.807248H154.271C162.04 0.807248 169.734 3.72041 175.56 8.87448C182.208 14.7755 186.466 23.4403 186.466 32.4039V160.135C186.615 165.14 185.719 170.144 183.627 174.626C178.697 185.681 167.194 193.45 155.018 193.674H63.9632V253.207C53.9919 243.908 44.0579 234.59 34.1239 225.272L34.1219 225.27C24.1873 215.952 14.2526 206.634 4.28066 197.334C3.97324 197.026 3.6314 196.722 3.28268 196.411C1.85202 195.137 0.305603 193.759 0.545834 191.657V32.4039C0.545834 19.4814 9.43472 7.23115 21.6103 2.82406ZM12.9455 33.1509V181.199H154.271C164.729 181.349 174.066 172.086 174.066 161.629V33.1509C174.215 22.6186 164.804 13.1322 154.271 13.2069H32.5907C22.0584 13.2069 12.7961 22.6186 12.9455 33.1509ZM19.3012 193.605L19.2947 193.599H51.1154V223.478C40.5107 213.47 29.9059 203.538 19.3012 193.605ZM32.5907 32.2545H136.419C141.349 32.4039 146.727 33.5243 150.312 37.1845C153.898 40.8446 155.018 46.1481 155.018 51.078V80.9566C155.018 84.9156 153.599 88.7998 150.835 91.713C147.698 95.0743 143.291 96.867 139.033 98.2863C147.25 99.8549 154.421 106.727 154.944 115.317C155.043 121.441 155.01 127.598 154.977 133.744V133.745V133.745V133.745V133.745V133.745V133.745V133.745V133.745V133.746V133.746V133.746V133.746V133.746V133.746V133.746V133.747V133.747V133.747V133.747V133.747V133.747V133.747V133.748V133.748V133.748V133.748V133.748V133.748V133.748V133.749V133.749V133.749V133.749V133.749V133.749V133.749V133.749V133.75V133.75V133.75V133.75V133.75V133.75V133.75V133.751V133.751V133.751V133.751V133.751V133.751V133.751V133.752V133.752V133.752V133.752V133.752V133.752V133.752V133.753V133.753V133.753V133.753V133.753V133.753V133.753V133.753V133.754V133.754V133.756C154.96 136.827 154.944 139.895 154.944 142.955C154.944 148.258 153.226 153.786 149.267 157.371C145.382 160.882 140.004 162.227 134.925 162.152H32.5907V32.2545ZM84.3554 86.3348V65.5692H84.4301H103.552C103.488 68.539 103.507 71.4951 103.525 74.4492V74.4496V74.4499V74.4503V74.4506V74.451V74.4513V74.4517V74.452V74.4523V74.4527V74.453V74.4534V74.4537V74.4541V74.4544V74.4547V74.4551V74.4554V74.4558V74.4561V74.4565V74.4568V74.4571V74.4575V74.4578V74.4582V74.4585V74.4589V74.4592V74.4595V74.4599V74.4602V74.4606V74.4609V74.4613V74.4616V74.462V74.4623V74.4626V74.463V74.4633V74.4637V74.464V74.4644V74.4647V74.465V74.4654V74.4657V74.4661V74.4664V74.4668V74.4671V74.4674V74.4678V74.4681V74.4685V74.4688V74.4692V74.4695V74.4698V74.4702V74.4705V74.4709V74.4712V74.4716V74.4719V74.4723V74.4726C103.549 78.4209 103.574 82.3656 103.403 86.3348H84.3554ZM84.3554 108.968V129.285H103.478V108.968H84.3554ZM674.906 45.4011C668.482 45.924 661.685 47.9408 657.502 53.0948L657.577 53.1695C652.497 59.5187 651.228 67.9595 651.003 75.8026V105.756C650.929 112.628 650.929 119.575 653.095 126.148C654.813 131.452 658.025 136.606 663.03 139.22C670.051 142.88 678.342 143.104 686.036 142.208C692.311 141.386 698.735 138.473 702.096 132.871C706.67 125.634 706.627 116.899 706.585 108.606C706.582 107.826 706.578 107.049 706.578 106.279H686.111C686.038 108.151 686.076 110.032 686.114 111.913C686.192 115.808 686.271 119.705 685.364 123.534C684.318 129.211 674.682 129.136 673.188 123.758C672.084 120.639 672.11 117.237 672.135 113.897C672.139 113.398 672.143 112.899 672.143 112.404V71.2461C672.217 68.0341 672.367 64.4487 674.383 61.7596C677.371 58.8465 684.169 59.22 685.289 63.8511C686.257 67.6209 686.183 71.4948 686.109 75.3545C686.074 77.1543 686.04 78.951 686.111 80.7326H706.578C706.565 79.5878 706.568 78.4384 706.57 77.2872V77.2863V77.2853V77.2843V77.2834V77.2824V77.2815V77.2805V77.2795V77.2786V77.2776V77.2766V77.2757V77.2747V77.2738V77.2728V77.2718V77.2709V77.2699V77.269V77.268V77.267V77.2661V77.2651V77.2642V77.2632V77.2622V77.2613V77.2603V77.2593V77.2584V77.2574V77.2565V77.2555V77.2545V77.2536V77.2526V77.2517V77.2507V77.2497V77.2488V77.2478V77.2468V77.2459V77.2449V77.244V77.243V77.242V77.2411V77.2401V77.2392V77.2382V77.2372V77.2363V77.2353V77.2344V77.2334V77.2324C706.584 71.7176 706.598 66.1633 704.934 60.8633C703.366 55.6345 700.004 50.6299 694.925 48.2396C688.725 45.177 681.629 44.9529 674.906 45.4011ZM1107.47 46.5962C1113.97 44.8035 1121.07 44.5794 1127.57 46.5962C1131.6 47.7914 1135.04 50.6299 1136.9 54.3647C1139.89 59.7428 1141.09 65.9426 1141.31 72.0678C1135.34 72.8147 1129.29 73.5617 1123.31 74.234C1123.25 73.4433 1123.21 72.6462 1123.16 71.848C1123 68.8004 1122.83 65.7369 1121.59 62.9548C1119.95 59.5187 1114.27 59.8175 1112.7 63.1789C1110.09 68.1835 1111.88 74.6074 1115.69 78.5664C1118.49 81.6511 1121.66 84.3973 1124.83 87.1432C1129.95 91.5783 1135.07 96.0127 1138.62 101.872C1142.28 107.623 1143.55 114.645 1142.95 121.367C1142.36 128.389 1138.32 135.112 1132.27 138.772C1125.85 142.88 1117.71 143.179 1110.39 141.76C1104.86 140.714 1099.48 137.801 1096.34 133.02C1092.39 126.97 1091.41 119.575 1091.12 112.479C1094.1 112.03 1097.07 111.582 1100.04 111.134C1103.01 110.686 1105.98 110.238 1108.97 109.79C1108.98 109.996 1108.99 110.203 1109 110.411C1109.01 110.643 1109.02 110.876 1109.03 111.109C1109.21 115.198 1109.4 119.453 1111.36 123.16C1112.93 126.223 1117.11 127.642 1120.1 125.924C1122.71 124.057 1122.64 120.471 1122.41 117.633C1122.11 113.001 1119.43 108.893 1116.29 105.681C1113.84 103.187 1111.15 100.897 1108.46 98.6045C1103.17 94.0996 1097.87 89.5854 1094.4 83.4963C1090.74 76.8483 1090.52 68.7064 1092.31 61.4609C1094.18 54.29 1100.23 48.613 1107.32 46.6709L1107.47 46.5962ZM1711.69 45.4011C1704.52 44.8035 1696.83 45.6252 1690.78 49.8082L1690.7 49.7335C1686 52.8707 1682.86 58.0995 1681.89 63.7017C1680.62 70.7979 1681.29 78.5664 1685.33 84.6915C1688.73 90.1069 1693.54 94.1945 1698.36 98.283L1698.36 98.2837C1701.77 101.188 1705.19 104.093 1708.11 107.474C1711.92 111.806 1713.79 118.23 1711.84 123.832C1710.13 127.717 1704.22 127.044 1702.06 123.907C1699.6 120.352 1699.38 115.902 1699.18 111.67C1699.16 111.364 1699.15 111.059 1699.13 110.756C1699.11 110.406 1699.09 110.059 1699.07 109.715C1696.1 110.161 1693.15 110.606 1690.19 111.052L1690.17 111.056L1690.14 111.059L1690.12 111.063C1687.16 111.51 1684.2 111.957 1681.22 112.404C1681.59 119.649 1682.56 127.343 1686.82 133.394C1690.11 138.1 1695.56 140.863 1701.09 141.834C1708.26 143.029 1716.18 142.731 1722.45 138.697C1728.28 135.112 1732.16 128.762 1732.98 121.965C1733.8 114.57 1732.24 106.652 1727.83 100.527C1724.38 95.2172 1719.62 91.1131 1714.85 87.0035C1711.57 84.1758 1708.28 81.3456 1705.42 78.1182C1701.83 74.234 1700.27 67.9594 1702.81 63.1042C1704.37 59.7428 1710.13 59.5934 1711.69 63.1042C1712.83 65.9657 1713.01 69.0176 1713.19 72.0319L1713.19 72.0467C1713.23 72.8043 1713.28 73.5595 1713.34 74.3087C1719.31 73.6364 1725.36 72.8894 1731.34 72.1425C1731.04 65.1957 1729.55 58.0248 1725.51 52.1985C1722.38 47.7914 1716.85 45.8493 1711.69 45.4011ZM256.307 62.0584V46.5215H305.756V62.0584H291.638V141.162H270.649V62.0584H256.382H256.307ZM335.261 46.5215H314.346V141.162H335.261V99.7802H349.827V141.162H370.891V46.5215H349.827V84.9156H335.261V46.5215ZM385.308 46.4468H427.81V60.7139H406.223V84.1686H422.656V98.6597H406.223V126.97H428.034V141.087H385.308V46.4468ZM491.153 46.4468H467.399V141.013H497.129C504.075 140.938 511.396 139.593 516.848 134.962C522.003 130.63 524.318 123.907 524.841 117.409C525.439 110.462 524.916 102.768 520.583 96.9417C517.745 93.0575 513.039 90.966 508.333 90.219C513.487 89.248 518.417 86.036 520.434 81.106C522.675 75.5038 522.525 69.2293 521.405 63.403C520.135 56.9044 515.429 51.078 509.08 48.8371C503.328 46.8203 497.203 46.4468 491.153 46.4468ZM488.314 60.4898V84.318C488.817 84.318 489.324 84.3236 489.833 84.3293C493.031 84.3648 496.32 84.4014 499.22 83.0482C502.432 81.4795 503.478 77.5953 503.702 74.3087C504.001 70.4991 503.702 65.9426 500.639 63.2536C497.667 60.5459 493.586 60.5241 489.79 60.5037C489.292 60.5011 488.799 60.4985 488.314 60.4898ZM488.314 126.447V98.2116C489.046 98.2239 489.795 98.2158 490.553 98.2075C494.366 98.166 498.396 98.1221 501.386 100.677C504.598 103.59 504.822 108.296 504.972 112.329C504.897 116.587 504.449 121.442 501.013 124.355C497.91 126.635 494.003 126.553 490.291 126.475H490.291H490.29H490.29C489.623 126.461 488.963 126.447 488.314 126.447ZM536.12 46.4468H557.035V126.97H578.772V141.087H536.12V46.4468ZM625.009 46.4468H601.181C595.28 77.9688 589.304 109.565 583.328 141.087H603.048C603.607 137.773 604.147 134.44 604.687 131.107L604.692 131.078L604.696 131.049C605.236 127.716 605.776 124.383 606.335 121.069H620.228C620.751 124.391 621.274 127.733 621.797 131.074L621.797 131.078C622.32 134.421 622.843 137.763 623.366 141.087H642.637C636.811 109.565 630.91 77.9688 625.009 46.4468ZM608.202 108.669H618.286C617.573 103.579 616.885 98.4765 616.195 93.3663L616.194 93.3551L616.192 93.3393C615.224 86.1591 614.254 78.964 613.207 71.769C612.274 79.0984 611.262 86.4015 610.249 93.7096L610.246 93.7344C609.557 98.707 608.867 103.682 608.202 108.669ZM738.921 46.4468H718.006V141.013H738.921V104.71C738.747 103.082 739.613 101.726 740.464 100.394C740.706 100.015 740.947 99.638 741.162 99.2573C743.418 106.172 745.673 113.069 747.929 119.965L747.93 119.969L747.997 120.173C750.275 127.139 752.554 134.104 754.832 141.087H776.12C773.057 132.459 769.995 123.813 766.932 115.166C763.87 106.521 760.807 97.875 757.745 89.248C760.658 82.1144 763.59 74.9809 766.522 67.8474L766.522 67.8456L766.525 67.8384L766.528 67.8312L766.529 67.8295L766.532 67.8223L766.533 67.8205L766.536 67.8133L766.541 67.8008L766.546 67.7882L766.551 67.7757L766.554 67.7685L766.557 67.7614L766.558 67.7596L766.558 67.7578L766.559 67.756L766.56 67.7542L766.561 67.7524L766.561 67.7507L766.562 67.7489L766.563 67.7471L766.563 67.7453L766.564 67.7435L766.565 67.7417L766.566 67.7399L766.566 67.7382L766.567 67.7364L766.568 67.7346L766.569 67.7328L766.569 67.731L766.57 67.7292L766.571 67.7274L766.572 67.7257L766.572 67.7239L766.573 67.7221L766.574 67.7203L766.574 67.7185L766.575 67.7167L766.576 67.715L766.577 67.7132L766.577 67.7114L766.578 67.7096L766.579 67.7078L766.58 67.706L766.58 67.7042L766.581 67.7025L766.582 67.7007L766.583 67.6989L766.583 67.6971L766.584 67.6953L766.585 67.6935L766.585 67.6917L766.586 67.69L766.587 67.6882L766.588 67.6864C769.497 60.6065 772.407 53.5267 775.299 46.4468H754.832C752.183 52.8644 749.534 59.3005 746.884 65.7367L746.878 65.7525C744.226 72.1962 741.574 78.6399 738.921 85.065V46.4468ZM810.257 46.4468H828.034C828.568 51.6976 829.089 56.9483 829.611 62.199C830.914 75.3236 832.217 88.4483 833.711 101.573C835.065 90.1345 836.565 78.6961 838.065 67.2577C838.965 60.3955 839.864 53.5332 840.733 46.6709H854.626C855.615 53.7674 856.581 60.8639 857.547 67.956C859.061 79.0786 860.574 90.1903 862.171 101.274C863.239 90.3684 864.387 79.4892 865.535 68.6049C866.314 61.2245 867.093 53.8418 867.848 46.4468H885.327C881.592 77.9688 877.782 109.565 873.973 141.087H855.747C854.562 132.925 853.419 124.762 852.276 116.599C850.751 105.714 849.227 94.8295 847.605 83.9445C846.331 93.7865 845.018 103.629 843.705 113.46L843.703 113.48L843.7 113.498C842.475 122.681 841.25 131.856 840.06 141.013H821.61C819.706 125.253 817.801 109.474 815.896 93.6948C813.992 77.9144 812.087 62.1339 810.182 46.3721L810.257 46.4468ZM932.609 46.4468H908.856C904.937 66.8642 901.081 87.3129 897.226 107.752L897.219 107.791C895.125 118.895 893.031 129.996 890.929 141.087H910.649C911.206 137.783 911.744 134.46 912.282 131.138L912.283 131.136L912.283 131.135L912.283 131.134L912.283 131.133L912.283 131.132L912.284 131.131L912.284 131.13L912.284 131.128L912.284 131.127L912.284 131.126L912.284 131.125L912.285 131.124L912.285 131.123L912.285 131.122L912.285 131.12L912.285 131.119L912.286 131.118L912.286 131.117L912.286 131.116L912.286 131.115L912.286 131.114L912.286 131.112L912.287 131.111L912.287 131.11L912.287 131.109L912.287 131.108L912.287 131.107L912.288 131.106L912.288 131.104L912.288 131.103L912.288 131.102L912.288 131.101L912.289 131.1L912.289 131.099L912.289 131.098L912.289 131.096L912.289 131.095L912.289 131.094L912.29 131.093L912.29 131.092L912.29 131.091L912.29 131.089L912.29 131.088L912.291 131.087L912.291 131.086L912.291 131.085L912.291 131.084L912.291 131.083L912.291 131.081L912.292 131.08L912.292 131.079L912.292 131.078L912.292 131.077L912.293 131.075L912.293 131.073L912.293 131.071L912.294 131.068L912.294 131.065L912.295 131.063C912.835 127.725 913.376 124.388 913.935 121.069H927.829C928.352 124.393 928.875 127.735 929.397 131.078L929.399 131.086C929.921 134.426 930.444 137.766 930.966 141.087H950.238C944.411 109.565 938.51 77.9688 932.609 46.4468ZM915.877 108.669H925.887C925.533 106.035 925.184 103.397 924.833 100.758C923.555 91.1219 922.273 81.4598 920.807 71.8437C919.892 78.9954 918.899 86.1472 917.905 93.3138C917.196 98.4229 916.487 103.54 915.803 108.669H915.877ZM980.863 46.4468H959.948V141.087H1002.6V126.97H980.863V46.4468ZM1011.64 46.4468H1032.55V126.97H1054.29V141.087H1011.64V46.4468ZM1197.11 46.4468H1147.66V61.9837H1161.85V141.087H1182.92V61.9837H1197.11V46.4468ZM1205.4 46.4468H1233.71C1241.26 46.7456 1249.25 47.7914 1255.45 52.3479C1260.6 56.1574 1262.47 62.8054 1262.77 68.9305C1262.99 74.9062 1262.69 81.106 1260.3 86.6336C1258.59 90.6672 1255 93.3563 1251.27 95.2984C1255.6 110.536 1259.93 125.775 1264.19 141.087H1242.6C1239.67 129.303 1236.79 117.466 1233.92 105.664L1233.9 105.594C1233.34 103.281 1232.78 100.969 1232.22 98.6597H1226.24V141.087H1205.33V46.4468H1205.4ZM1226.32 86.7083V60.5645C1227.5 60.629 1228.71 60.6007 1229.93 60.5721C1232.96 60.5015 1236.02 60.4298 1238.79 61.7596C1242.9 64.0005 1243.5 69.304 1243.5 73.487C1243.42 77.5953 1242.9 82.5253 1239.24 84.9903C1236.23 86.7823 1232.73 86.7401 1229.3 86.6987C1228.29 86.6866 1227.3 86.6745 1226.32 86.7083ZM1275.47 46.4468H1317.89V60.7139C1315.47 60.7139 1313.06 60.6972 1310.65 60.6806C1305.86 60.6474 1301.08 60.6144 1296.31 60.7139V84.0939H1312.81C1312.81 85.7117 1312.8 87.3212 1312.78 88.9251L1312.78 88.9436C1312.75 92.1472 1312.72 95.3288 1312.81 98.5103H1296.23V126.746H1318.12V140.938C1308.65 140.888 1299.17 140.905 1289.72 140.921H1289.72H1289.72H1289.71H1289.71H1289.71H1289.7H1289.7H1289.7H1289.7H1289.69H1289.69H1289.69H1289.68H1289.68H1289.68H1289.67H1289.67H1289.67H1289.67H1289.66H1289.66H1289.66H1289.65H1289.65H1289.65H1289.65H1289.64H1289.64H1289.64H1289.63H1289.63H1289.63H1289.62H1289.62H1289.62H1289.62H1289.61H1289.61H1289.61H1289.6H1289.6H1289.6H1289.6H1289.59H1289.59L1289.57 140.921C1284.84 140.93 1280.11 140.938 1275.39 140.938C1275.39 132.052 1275.38 123.161 1275.37 114.266V114.259V114.251V114.243V114.235V114.227V114.219V114.211V114.204V114.196V114.188V114.18V114.172V114.164V114.156V114.148V114.141V114.133V114.125V114.117V114.109V114.101V114.093V114.085V114.078V114.07V114.062V114.054V114.046V114.038V114.03V114.022V114.015V114.007V113.999V113.991V113.983V113.975V113.967V113.959V113.952V113.944V113.936V113.928V113.92V113.912C1275.34 91.3721 1275.31 68.8157 1275.47 46.2975V46.4468ZM1370.18 46.4468H1327.68V141.013H1370.41V126.895H1348.59V98.585H1365.03V84.0939H1348.59V60.7139H1370.18V46.4468ZM1374.22 46.4468H1423.59V61.9837H1409.47V141.087H1388.48V61.9837H1374.22V46.4468ZM1505.53 46.4468H1456.08V61.9837H1470.35V141.087H1491.34V61.9837H1505.53V46.4468ZM1513.9 46.4468H1534.81V141.087H1513.9V46.4468ZM1550.27 46.4468H1550.2L1550.28 46.3721L1550.27 46.4468ZM1550.27 46.4468H1572.61C1574.81 57.6735 1576.92 68.9283 1579.04 80.194L1579.04 80.2045L1579.05 80.2157L1579.05 80.2278L1579.05 80.2388L1579.05 80.2506C1580.38 87.3303 1581.71 94.4143 1583.07 101.498C1584.93 92.3108 1586.8 83.142 1588.67 73.9732C1590.54 64.804 1592.4 55.6348 1594.27 46.4468H1615.86C1616.12 62.0494 1616.4 77.6704 1616.68 93.2915V93.2968V93.302V93.3072V93.3125V93.3177V93.323V93.3282V93.3334V93.3387V93.3439V93.3492V93.3544V93.3596V93.3649V93.3701V93.3754V93.3806V93.3859V93.3911V93.3963V93.4016V93.4068V93.4121V93.4173V93.4225V93.4278V93.433V93.4383V93.4435V93.4488V93.454V93.4592V93.4645V93.4697V93.475V93.4802V93.4854V93.4907V93.4959L1616.68 93.8065C1616.96 109.573 1617.24 125.34 1617.5 141.087H1602.71C1602.38 130.592 1602.1 120.116 1601.82 109.64C1601.54 99.1639 1601.26 88.6877 1600.92 78.1929C1599.13 88.6878 1597.3 99.1641 1595.47 109.64V109.641C1593.64 120.117 1591.81 130.593 1590.01 141.087H1576.87L1575.41 133.178L1575.05 131.235C1571.77 113.435 1568.48 95.5899 1565.14 77.7447C1564.63 98.3749 1564.19 119.077 1563.75 139.71L1563.75 139.819L1563.72 141.013H1548.63C1548.89 125.252 1549.17 109.472 1549.45 93.6924L1549.46 93.0754V93.0652L1549.47 93.0547C1549.74 77.5126 1550.02 61.9707 1550.27 46.4468ZM1631.17 46.4468H1673.67V60.7139H1652.09V84.1686H1668.52V98.6597H1652.09V126.97H1673.9V141.087H1631.17V46.4468ZM854.934 166.804C852.065 167.988 849.177 169.18 846.858 171.19L846.708 171.265C847.175 171.42 847.648 171.549 848.118 171.678C849.228 171.98 850.32 172.278 851.265 172.908C851.585 174.19 851.576 175.526 851.567 176.823V176.827C851.565 177.04 851.564 177.253 851.564 177.465C851.534 181.947 851.552 186.418 851.57 190.886C851.597 197.587 851.623 204.282 851.489 211.003C851.429 212.994 849.567 213.572 847.947 214.074C847.561 214.194 847.189 214.31 846.858 214.439V216.008C848.405 216.008 849.952 216.025 851.498 216.041L851.503 216.041C855.631 216.086 859.76 216.13 863.889 215.859C863.639 214.539 862.486 214.088 861.35 213.643C860.107 213.157 858.884 212.678 858.884 211.078C858.868 210.043 858.842 209.004 858.816 207.963C858.719 204.124 858.622 200.257 859.033 196.438C860.751 192.628 865.831 190.088 869.864 191.881C872.231 193.064 872.328 196.078 872.402 198.385L872.404 198.454C872.374 200.093 872.392 201.744 872.41 203.398V203.4V203.403V203.406V203.408V203.411V203.414V203.417V203.419V203.422V203.425V203.427V203.43V203.433V203.435V203.438V203.441V203.444V203.446V203.449V203.452V203.454V203.457V203.46V203.462V203.465V203.468V203.471V203.473V203.476V203.479V203.481V203.484V203.487V203.489V203.492V203.495V203.498C872.437 206.03 872.464 208.567 872.329 211.078C872.27 212.973 870.474 213.507 868.876 213.981C868.458 214.105 868.054 214.225 867.698 214.365V216.008H884.206V214.29C883.795 214.114 883.332 213.978 882.862 213.841C881.541 213.455 880.165 213.053 879.724 211.676C879.343 209.072 879.421 206.414 879.499 203.76C879.604 200.17 879.709 196.586 878.679 193.151C877.035 187.997 870.835 186.578 866.13 187.773C863.543 188.34 861.649 190.24 859.818 192.077C859.481 192.415 859.146 192.751 858.809 193.076C858.777 189.074 858.786 185.086 858.796 181.099V181.098V181.097V181.096V181.094V181.093V181.092V181.091V181.089V181.088V181.087V181.085V181.084V181.083V181.082V181.08V181.079V181.078V181.076V181.075V181.074V181.073V181.071V181.07V181.069V181.067V181.066V181.065V181.064V181.062V181.061V181.06V181.058V181.057V181.056V181.055V181.053V181.052V181.051C858.808 175.753 858.82 170.458 858.735 165.14C857.507 165.742 856.222 166.272 854.934 166.804ZM1214.14 170.593C1216.94 169.024 1219.87 167.707 1222.8 166.391L1222.81 166.386C1223.78 165.949 1224.75 165.512 1225.72 165.065C1225.79 171.991 1225.78 178.916 1225.77 185.849V185.869C1225.76 194.183 1225.75 202.507 1225.87 210.854C1225.87 212.905 1227.96 213.526 1229.68 214.039L1229.69 214.04C1229.81 214.076 1229.93 214.112 1230.05 214.148C1230.2 214.195 1230.36 214.242 1230.5 214.29V215.933C1228.95 215.933 1227.41 215.95 1225.86 215.967L1225.85 215.967C1221.73 216.011 1217.6 216.056 1213.47 215.784C1213.72 214.498 1214.86 214.049 1215.98 213.604C1217.22 213.118 1218.43 212.637 1218.47 211.078C1218.62 198.828 1218.55 186.578 1218.47 174.402C1218.51 173.043 1217.33 172.752 1216.18 172.47C1215.05 172.193 1213.96 171.924 1214.07 170.667L1214.14 170.593ZM1362.24 166.6C1359.24 167.852 1356.22 169.11 1353.67 171.115V171.19C1354.14 171.391 1354.72 171.522 1355.31 171.656C1356.94 172.022 1358.69 172.416 1358.53 174.327C1358.53 178.015 1358.52 181.711 1358.51 185.41V185.419V185.427V185.435V185.443V185.452V185.46V185.468V185.477V185.485V185.493V185.501V185.51V185.518V185.526V185.535V185.543C1358.5 193.037 1358.48 200.543 1358.53 208.016C1358.51 208.374 1358.51 208.742 1358.51 209.116C1358.52 210.145 1358.52 211.212 1358.08 212.199C1357.39 213.16 1356.23 213.51 1355.11 213.851C1354.67 213.986 1354.23 214.12 1353.82 214.29V215.933H1370.41C1370.33 215.485 1370.33 214.663 1370.33 214.215C1369.98 214.077 1369.58 213.957 1369.18 213.835C1367.61 213.362 1365.89 212.842 1365.77 211.003C1365.63 206.297 1365.48 201.517 1365.77 196.736C1367.19 192.329 1373.1 189.565 1377.2 191.956C1379.23 193.563 1379.21 196.165 1379.2 198.592C1379.19 199.211 1379.19 199.819 1379.22 200.396C1379.16 201.834 1379.2 203.283 1379.23 204.738V204.74V204.742V204.743V204.745V204.747V204.749V204.751V204.753V204.755V204.757V204.759V204.761V204.762V204.765V204.767V204.769V204.771V204.773V204.775V204.777V204.779V204.781V204.784V204.786V204.788V204.79V204.793V204.795V204.797V204.8V204.802V204.805V204.807V204.809V204.812C1379.29 207.039 1379.34 209.283 1379.07 211.526C1378.62 212.93 1377.2 213.321 1375.89 213.682C1375.46 213.801 1375.03 213.917 1374.66 214.066C1374.59 214.514 1374.59 215.41 1374.59 215.859C1376.43 215.859 1378.27 215.867 1380.12 215.875C1383.8 215.892 1387.49 215.908 1391.17 215.859V214.215C1390.76 214.039 1390.3 213.904 1389.83 213.767C1388.51 213.381 1387.13 212.979 1386.69 211.601C1386.32 209.036 1386.41 206.406 1386.5 203.777C1386.62 200.051 1386.75 196.324 1385.57 192.777C1383.7 187.698 1377.35 186.578 1372.72 187.847C1370.31 188.529 1368.56 190.289 1366.84 192.021C1366.48 192.377 1366.13 192.732 1365.77 193.076C1365.7 188.408 1365.7 183.758 1365.7 179.108C1365.7 174.458 1365.7 169.808 1365.63 165.14C1364.52 165.652 1363.38 166.126 1362.24 166.6ZM535.448 175C535.672 170.518 543.814 170.443 543.963 175C543.767 178.72 543.155 182.441 542.545 186.141L542.544 186.144L542.544 186.148L542.543 186.152L542.543 186.156L542.542 186.159C542.223 188.098 541.904 190.031 541.648 191.956H537.763C537.494 189.676 537.127 187.408 536.761 185.143C536.216 181.767 535.671 178.397 535.448 175ZM777.166 175.821C777.539 172.684 774.178 170.443 771.414 171.489V171.564C767.754 172.46 767.605 178.66 771.265 179.706C773.879 180.751 777.315 178.884 777.166 175.821ZM1095.07 183.739C1098.36 177.091 1105.31 172.535 1112.55 171.489C1118.23 170.593 1123.91 171.713 1129.29 173.431C1130.53 173.823 1131.77 173.815 1133.06 173.807L1133.36 173.805C1133.45 173.805 1133.53 173.804 1133.62 173.804V184.86C1131.81 184.608 1131.01 183.104 1130.23 181.623L1130.23 181.622C1129.85 180.904 1129.47 180.192 1128.99 179.631C1125.1 174.029 1117.18 173.282 1111.13 175.224C1106.05 176.867 1103.22 182.021 1102.47 187.026C1101.35 194.047 1101.95 201.741 1106.13 207.717C1110.01 213.319 1118.01 215.112 1124.21 212.721C1128.31 211.153 1131.53 207.791 1133.62 203.982H1136.01C1135.01 206.472 1133.88 208.895 1132.75 211.319C1132.19 212.531 1131.63 213.742 1131.08 214.962C1128.33 214.73 1125.67 215.302 1123.02 215.875C1120.56 216.406 1118.09 216.938 1115.54 216.83C1109.19 216.606 1102.77 214.215 1098.36 209.584C1091.79 202.936 1090.82 192.105 1095 183.963L1095.07 183.739ZM1152.14 175.747C1152.59 172.684 1149.15 170.443 1146.39 171.489C1142.66 172.46 1142.51 178.585 1146.24 179.631C1148.93 180.677 1152.37 178.809 1152.14 175.747ZM1200.92 171.638C1203.76 170.368 1207.42 172.535 1207.04 175.821C1207.27 179.033 1203.53 180.826 1200.84 179.631C1197.56 178.361 1197.63 172.908 1200.84 171.713L1200.92 171.638ZM1309.01 175.821C1309.38 172.46 1305.49 170.294 1302.66 171.713H1302.73C1299.44 173.132 1299.67 178.734 1303.18 179.706C1305.79 180.677 1309.15 178.809 1309.01 175.821ZM1418.36 175.074C1418.51 171.638 1423.44 170.518 1425.76 172.759C1427.11 173.709 1426.93 175.462 1426.77 176.951L1426.77 176.961L1426.76 177.104L1426.74 177.263L1426.73 177.39C1426.39 180.168 1425.96 182.923 1425.53 185.681L1425.53 185.683L1425.52 185.685L1425.52 185.688L1425.52 185.69L1425.52 185.693L1425.52 185.695L1425.52 185.698L1425.52 185.7L1425.52 185.702L1425.52 185.705L1425.52 185.707L1425.52 185.71L1425.52 185.712L1425.52 185.715L1425.52 185.717L1425.52 185.719L1425.52 185.722L1425.52 185.724L1425.52 185.727L1425.52 185.729L1425.52 185.732L1425.52 185.734L1425.52 185.736L1425.52 185.739L1425.52 185.741L1425.52 185.744L1425.52 185.746L1425.52 185.749L1425.51 185.751C1425.18 187.863 1424.85 189.977 1424.56 192.105H1420.68C1420.41 189.882 1420.05 187.682 1419.68 185.482L1419.68 185.48C1419.11 182.063 1418.54 178.648 1418.36 175.149V175.074ZM556.064 174.402C555.018 170.742 549.043 170.742 547.698 174.253V174.327C547.698 177.99 548.315 181.625 548.931 185.249C549.32 187.537 549.708 189.821 549.939 192.105H553.823C554.072 190.138 554.404 188.179 554.736 186.221C555.4 182.303 556.064 178.386 556.064 174.402ZM1249.85 172.535C1251.49 172.484 1253.13 172.427 1254.76 172.369C1260.42 172.169 1266.05 171.971 1271.73 172.086C1275.99 172.086 1280.32 173.879 1283.09 177.315C1286.3 181.05 1286.82 187.026 1283.91 191.059C1282.73 192.701 1280.97 193.765 1279.24 194.81C1279 194.954 1278.76 195.098 1278.53 195.242C1279.84 197.268 1281.12 199.316 1282.4 201.365C1284.47 204.679 1286.55 207.996 1288.76 211.227C1290.26 213.543 1292.72 214.962 1295.11 216.232C1290.7 217.427 1285.55 216.232 1281.89 213.618C1278.76 210.584 1276.57 206.859 1274.37 203.129C1273.1 200.981 1271.83 198.831 1270.39 196.811C1269.43 196.773 1268.48 196.714 1267.55 196.657C1266.67 196.602 1265.8 196.548 1264.93 196.512C1264.93 197.837 1264.92 199.161 1264.9 200.485C1264.86 204.016 1264.81 207.547 1265.08 211.078C1265.38 213.067 1267.21 213.34 1268.96 213.603C1270.7 213.863 1272.37 214.112 1272.4 216.008H1250.07V214.29C1250.25 214.262 1250.44 214.234 1250.64 214.205C1253.02 213.854 1256.33 213.369 1256.12 210.331C1256.27 199.874 1256.19 189.416 1256.12 178.959C1256.34 175.597 1252.68 174.253 1249.92 174.327V172.684L1249.85 172.535ZM1264.84 180.762C1264.85 178.563 1264.86 176.366 1264.86 174.178H1264.79C1265.15 174.166 1265.52 174.147 1265.89 174.128C1267.87 174.024 1269.91 173.918 1271.73 174.925C1275.09 176.568 1276.81 180.378 1276.81 183.963C1276.81 187.1 1276.21 190.686 1273.52 192.628C1271.06 194.495 1267.77 194.271 1264.86 193.973C1264.81 189.588 1264.83 185.169 1264.84 180.762ZM1430.54 175.074C1430.69 170.817 1437.93 170.443 1438.9 174.402C1438.9 178.386 1438.24 182.303 1437.57 186.221C1437.24 188.179 1436.91 190.138 1436.66 192.105H1432.78C1432.52 189.885 1432.15 187.677 1431.78 185.471L1431.78 185.465L1431.78 185.46L1431.78 185.455L1431.78 185.45L1431.78 185.445L1431.78 185.44C1431.21 182.015 1430.64 178.596 1430.46 175.149L1430.54 175.074ZM587.735 172.46H578.847V172.535C578.473 174.991 577.641 177.295 576.815 179.582C576.485 180.494 576.157 181.404 575.859 182.32C572.796 191.134 569.734 199.948 566.746 208.762C566.073 210.63 565.252 212.871 563.16 213.543C562.828 213.742 562.41 213.863 561.989 213.984C560.99 214.273 559.971 214.567 560.023 215.933C563.904 215.983 567.751 215.967 571.609 215.95H571.612C573.546 215.942 575.482 215.933 577.427 215.933V214.365C577.002 214.3 576.555 214.251 576.099 214.202C573.912 213.963 571.531 213.703 570.481 211.601C571.676 207.194 573.17 202.712 575.037 198.529C579.22 197.931 583.777 197.857 587.96 198.529C588.922 200.546 589.659 202.646 590.396 204.745L590.397 204.748C590.861 206.069 591.325 207.39 591.844 208.688C591.913 208.91 592 209.142 592.09 209.38C592.483 210.424 592.92 211.585 592.068 212.497C590.807 213.758 588.982 213.893 587.214 214.022C586.574 214.07 585.941 214.116 585.345 214.215V215.859H607.381C607.455 215.485 607.455 214.813 607.455 214.439L607.443 214.436C604.905 213.689 601.852 212.791 601.106 209.958C598.865 203.721 596.643 197.465 594.421 191.209L594.42 191.205C592.198 184.951 589.976 178.696 587.735 172.46ZM580.863 181.424L580.824 181.521L580.789 181.498L580.863 181.424ZM580.824 181.521C581.634 182.04 582.435 182.707 582.656 183.664C584.001 187.325 585.345 191.059 586.69 194.794C584.349 194.844 582.009 194.827 579.668 194.811C578.498 194.803 577.328 194.794 576.158 194.794C576.29 194.397 576.422 194 576.553 193.603L576.849 192.708L576.862 192.669C578.099 188.93 579.332 185.2 580.824 181.521ZM949.416 172.46H935.299L935.224 172.535V174.178C935.617 174.26 936.029 174.324 936.446 174.389C937.931 174.62 939.494 174.863 940.602 175.971C940.926 178.884 940.877 181.797 940.829 184.71C940.799 186.503 940.769 188.296 940.826 190.088C940.773 192.57 940.815 195.061 940.857 197.551V197.552C940.932 202.033 941.007 206.512 940.527 210.929C940.229 213.618 937.465 214.29 935.224 214.29V215.933H952.553C952.628 215.485 952.703 214.663 952.703 214.29C952.517 214.252 952.324 214.216 952.123 214.18C951.934 214.146 951.738 214.113 951.539 214.079C949.071 213.66 946.012 213.14 945.756 210.256C945.607 200.845 945.607 191.508 945.756 182.096C951.432 188.193 957.014 194.408 962.594 200.621L962.595 200.622L962.596 200.623L962.596 200.623L962.597 200.624L962.598 200.625L962.599 200.626L962.599 200.626L962.6 200.627L962.601 200.628C966.932 205.451 971.262 210.272 975.635 215.037C976.979 216.83 981.237 216.904 981.013 213.991C981.077 208.783 981.059 203.562 981.04 198.339V198.337V198.336V198.335V198.333V198.332V198.331V198.329V198.328V198.327V198.325V198.324V198.323V198.321V198.32V198.319V198.317V198.316V198.315V198.313V198.312V198.311V198.309C981.016 191.33 980.992 184.348 981.162 177.39C981.529 175.851 982.974 175.408 984.351 174.987C985.781 174.549 987.138 174.133 987.138 172.535H969.584V174.253L969.71 174.256L969.8 174.258L969.964 174.262L970.217 174.267C972.632 174.314 975.74 174.375 976.083 177.39C976.754 182.707 976.656 188.086 976.559 193.447V193.45V193.452V193.454V193.457V193.459V193.462V193.464V193.467V193.469V193.471V193.474V193.476V193.479V193.481V193.483V193.486V193.488V193.49V193.493V193.495V193.497V193.5C976.505 196.481 976.451 199.457 976.531 202.413C971.285 196.694 966.089 190.926 960.899 185.165L960.897 185.163L960.895 185.161C957.071 180.916 953.25 176.674 949.416 172.46ZM831.165 185.87L831.165 185.87C832.657 184.235 834.149 182.599 836.55 182.395L836.483 182.701L836.41 183.039L836.403 183.074C836.077 184.58 835.744 186.121 835.355 187.549C838.417 187.549 841.554 187.549 844.617 187.623C844.729 188.37 844.822 189.117 844.916 189.864C845.009 190.611 845.102 191.358 845.214 192.105H835.429V207.194C835.429 208.912 835.877 211.227 837.82 211.601C839.469 211.824 840.826 211.009 842.192 210.189C843.115 209.635 844.041 209.078 845.065 208.837C844.542 212.124 841.853 214.514 839.089 215.933C834.757 218.1 828.856 214.813 828.408 210.032C828.273 206.447 828.3 202.861 828.327 199.276C828.345 196.886 828.363 194.495 828.333 192.105C827.279 192.105 826.225 192.039 825.108 191.969L824.897 191.956C825.427 190.631 826.558 189.795 827.677 188.968C828.136 188.629 828.593 188.291 829.005 187.922V187.997C829.785 187.383 830.475 186.626 831.165 185.87ZM1404.99 182.395C1403.2 182.693 1401.55 183.59 1400.43 185.009H1400.51C1399.02 186.823 1397.26 188.232 1395.48 189.654C1394.84 190.164 1394.19 190.676 1393.56 191.209C1393.56 192.244 1394.51 192.206 1395.45 192.167C1395.93 192.147 1396.42 192.128 1396.77 192.255C1396.77 194.172 1396.76 196.089 1396.74 198.006C1396.71 201.841 1396.67 205.675 1396.77 209.509C1396.77 212.199 1398.64 214.813 1401.11 215.933C1406.19 218.548 1412.53 214.066 1413.43 208.837C1412.48 209.096 1411.6 209.622 1410.71 210.149C1409.3 210.988 1407.88 211.83 1406.19 211.601C1404.32 211.078 1403.87 208.837 1403.87 207.194C1403.82 203.863 1403.84 200.532 1403.85 197.179L1403.85 197.123C1403.86 195.457 1403.87 193.785 1403.87 192.105H1413.66C1413.54 191.362 1413.45 190.62 1413.36 189.877L1413.36 189.862C1413.26 189.116 1413.17 188.37 1413.06 187.623C1410 187.549 1406.86 187.549 1403.8 187.549C1404.24 185.831 1404.69 184.113 1404.99 182.395ZM622.096 187.25C625.681 186.652 629.566 186.503 633.076 187.773C634.944 188.37 636.587 190.91 635.018 192.628C633.375 193.748 630.835 193.674 629.416 192.18C629.187 191.985 628.957 191.777 628.723 191.565C627.428 190.394 626.022 189.123 624.187 189.565C620.901 189.79 618.959 193.001 618.361 195.915C617.614 199.799 617.539 203.982 619.033 207.717C620.453 211.302 624.71 213.095 628.296 211.974C629.69 211.526 630.752 210.547 631.815 209.568C632.346 209.078 632.877 208.588 633.45 208.165C634.346 207.791 635.989 208.165 635.84 209.509C632.479 214.738 625.756 218.1 619.631 216.232C613.058 213.991 609.248 206.447 610.518 199.724C611.041 193.599 615.821 188.146 622.021 187.325L622.096 187.25ZM661.312 187.175C655.336 186.204 648.09 187.026 644.057 192.03L643.982 192.105C639.799 197.707 639.425 206.372 643.982 211.9C646.596 215.261 651.003 217.353 655.336 216.531C660.042 216.008 663.777 212.871 666.54 209.211C666.346 209.087 666.156 208.938 665.964 208.788C665.345 208.304 664.707 207.805 663.851 208.09C663.226 208.549 662.648 209.077 662.064 209.61L662.064 209.61C661.601 210.032 661.135 210.458 660.639 210.854C657.427 213.468 652.124 212.348 649.958 208.912C648.24 206.148 648.09 202.787 648.165 199.649C648.314 196.811 648.837 193.674 650.854 191.433C652.497 189.491 655.784 188.744 657.801 190.536C658.225 190.84 658.627 191.214 659.033 191.591L659.033 191.591C660.128 192.608 661.246 193.647 662.88 193.375C664.15 193.375 665.793 192.927 665.943 191.433C666.316 188.818 663.478 187.549 661.312 187.175ZM678.118 188.594C682.376 186.279 688.277 185.905 692.161 189.192C694.925 191.582 696.867 195.242 696.494 198.977C692.823 199.063 689.152 199.05 685.481 199.038C682.728 199.029 679.975 199.02 677.222 199.052C677.222 199.316 677.22 199.582 677.218 199.848V199.85C677.203 201.986 677.189 204.156 678.118 206.148C679.463 209.659 682.974 212.423 686.858 212.273C689.759 212.273 692.213 210.548 694.516 208.93C694.703 208.798 694.889 208.668 695.074 208.538C695.261 208.725 695.523 209.024 695.784 209.323C696.045 209.621 696.307 209.92 696.494 210.107C692.684 213.991 687.381 217.427 681.629 216.531C676.102 215.859 671.545 211.153 670.798 205.7C669.902 199.276 672.217 191.806 678.118 188.594ZM689.473 196.588H689.473H689.472H689.471H689.471H689.47H689.47H689.469H689.469H689.468H689.468H689.467H689.466H689.466H689.465H689.465C685.609 196.663 681.826 196.735 677.969 196.587C677.969 192.852 681.48 189.192 685.289 190.163C688.277 190.686 689.547 193.823 689.547 196.587L689.473 196.588ZM702.992 191.134C705.98 187.474 711.209 185.98 715.691 187.399C715.892 187.477 716.119 187.541 716.353 187.608C717.245 187.862 718.23 188.142 718.23 189.267C718.41 190.94 718.398 192.613 718.386 194.286C718.383 194.704 718.38 195.123 718.38 195.541C716.609 196.062 715.964 194.658 715.33 193.279C715.055 192.68 714.783 192.087 714.421 191.657C713.076 188.968 708.221 189.043 707.773 192.329C706.933 194.784 709.167 196.234 711.042 197.45C711.335 197.64 711.619 197.825 711.881 198.006C715.765 200.247 720.172 203.16 720.695 208.015C721.368 211.974 718.006 215.186 714.495 216.232C711.657 217.353 708.52 216.68 705.681 215.933C705.233 216.157 704.785 216.363 704.337 216.568C703.889 216.774 703.44 216.979 702.992 217.203C702.957 216.965 702.922 216.726 702.885 216.487L702.841 216.192L702.841 216.192C702.426 213.452 702.004 210.659 702.469 207.866C704.115 208.336 704.897 209.711 705.679 211.084C706.388 212.329 707.096 213.572 708.445 214.141C709.864 214.738 711.732 215.037 713.076 214.141C714.645 212.348 714.57 209.285 712.777 207.717C711.578 206.549 710.166 205.661 708.76 204.778C706.837 203.57 704.927 202.369 703.59 200.471C701.722 197.931 700.901 193.973 703.142 191.358L702.992 191.134ZM741.461 188.594C736.382 185.308 728.763 187.026 725.625 192.18H725.7C724.355 194.944 725.252 198.305 727.119 200.621C728.395 202.36 730.211 203.48 732.029 204.6C733.723 205.645 735.419 206.69 736.68 208.24C738.324 210.406 737.353 215.112 733.991 214.589C731.302 214.663 729.584 212.423 728.538 210.256C728.016 209.211 726.746 207.194 725.551 208.613C725.419 211.104 725.748 213.536 726.083 216.013L726.083 216.014C726.13 216.36 726.177 216.706 726.223 217.054C726.797 216.833 727.346 216.586 727.883 216.343L727.884 216.343C728.255 216.176 728.621 216.011 728.987 215.859C733.319 217.278 738.548 217.054 741.909 213.692C744.897 211.078 744.449 206.372 742.133 203.459C740.603 201.344 738.423 199.988 736.228 198.624C734.78 197.723 733.326 196.819 732.049 195.691C730.406 194.421 730.705 191.806 732.049 190.462C733.917 188.968 736.904 189.864 737.876 191.956C738.204 192.371 738.455 192.896 738.706 193.42C739.313 194.687 739.92 195.955 741.61 195.691C741.624 195.282 741.641 194.869 741.659 194.453L741.659 194.451C741.743 192.508 741.83 190.501 741.461 188.594ZM764.916 192.404C767.452 190.989 770.084 189.766 772.707 188.547L772.712 188.545L772.712 188.544C774.105 187.897 775.495 187.251 776.867 186.578C777.16 191.137 777.125 195.696 777.09 200.256C777.062 203.838 777.034 207.421 777.166 211.003C777.289 212.907 779.179 213.448 780.802 213.912L780.803 213.912C781.153 214.012 781.492 214.109 781.797 214.215V215.859H765.214V214.141C765.513 214.037 765.842 213.942 766.181 213.844C767.791 213.378 769.648 212.841 769.771 210.929C769.958 206.749 769.885 202.517 769.812 198.321C769.806 197.994 769.801 197.668 769.795 197.342C769.787 196.841 769.778 196.34 769.771 195.84C769.874 193.982 768.266 193.515 766.695 193.058C765.992 192.854 765.297 192.652 764.766 192.329L764.916 192.404ZM801.592 188.221C796.363 185.532 789.267 187.026 786.055 192.105V192.03C784.411 195.168 785.905 199.052 788.221 201.442C789.432 202.653 790.892 203.557 792.358 204.465C793.787 205.35 795.221 206.238 796.438 207.418C798.23 208.987 798.305 212.049 796.736 213.842C793.973 215.485 790.387 213.618 789.341 210.779C789.307 210.715 789.271 210.645 789.232 210.572L789.23 210.569C788.595 209.36 787.387 207.061 785.98 208.538C785.791 210.932 786.133 213.326 786.469 215.675C786.532 216.111 786.594 216.546 786.652 216.979C787.101 216.792 787.549 216.587 787.997 216.382L787.998 216.381C788.446 216.176 788.894 215.971 789.341 215.784C793.674 217.278 798.977 217.054 802.339 213.618C805.252 211.078 804.804 206.372 802.563 203.534C801.061 201.349 798.837 199.968 796.603 198.581C795.17 197.691 793.733 196.799 792.479 195.691C790.761 194.421 791.06 191.732 792.479 190.387C794.346 188.893 797.334 189.79 798.305 191.956C798.631 192.368 798.881 192.901 799.13 193.432C799.739 194.728 800.344 196.018 802.04 195.541C802.018 194.836 802.048 194.112 802.078 193.382C802.15 191.635 802.224 189.854 801.592 188.221ZM894.215 189.043C898.548 186.428 904.673 185.756 908.856 189.043C911.694 191.433 913.637 195.168 913.338 198.977C909.055 199.077 904.773 199.044 900.49 199.01C898.349 198.994 896.207 198.977 894.066 198.977C893.767 202.264 894.141 205.7 896.158 208.389C897.95 210.929 901.162 212.497 904.299 212.124C906.819 211.925 908.985 210.431 911.059 209.001C911.322 208.82 911.583 208.64 911.844 208.464C911.93 208.533 912.036 208.621 912.153 208.721C912.245 208.8 912.344 208.885 912.445 208.972L912.591 209.099L912.762 209.247C912.854 209.327 912.945 209.405 913.03 209.477C913.146 209.576 913.252 209.665 913.338 209.734C910.499 213.17 906.466 215.635 902.059 216.456C895.859 217.427 889.51 213.17 887.941 207.119C886.298 200.621 888.389 192.703 894.215 188.893V189.043ZM897.724 196.671C897.309 196.669 896.894 196.667 896.477 196.665C895.924 196.663 895.369 196.662 894.813 196.662C894.514 192.777 898.548 188.968 902.432 190.312C905.121 191.059 906.167 194.047 906.316 196.587C903.463 196.699 900.609 196.685 897.724 196.671ZM997.82 188.594C1002.08 186.279 1007.98 185.905 1011.86 189.192C1014.63 191.582 1016.57 195.168 1016.27 198.903C1012.6 199.073 1008.93 199.049 1005.26 199.024C1002.5 199.006 999.751 198.988 996.998 199.052C996.923 201.592 996.849 204.281 998.044 206.671C999.463 210.032 1002.9 212.423 1006.63 212.273C1009.6 212.273 1012.1 210.469 1014.39 208.82L1014.58 208.68L1014.78 208.538C1014.96 208.725 1015.22 209.024 1015.49 209.323C1015.75 209.621 1016.01 209.92 1016.19 210.107C1012.68 213.692 1008.05 216.755 1002.9 216.68C997.222 216.68 991.993 212.348 990.723 206.82C989.304 200.172 991.62 192.105 997.82 188.669V188.594ZM1009.1 196.588H1009.1H1009.1H1009.1H1009.1H1009.1H1009.1H1009.1H1009.1C1005.24 196.663 1001.45 196.735 997.595 196.587V196.512C997.67 192.852 1001.11 189.192 1004.99 190.163C1007.9 190.686 1009.17 193.898 1009.17 196.587L1009.1 196.588ZM1140.04 192.628C1142.26 190.926 1144.85 189.793 1147.43 188.659C1148.92 188.002 1150.42 187.345 1151.84 186.578C1152.14 191.137 1152.1 195.697 1152.07 200.256C1152.04 203.838 1152.01 207.421 1152.14 211.003C1152.26 212.834 1154.01 213.358 1155.59 213.829C1156.01 213.953 1156.41 214.075 1156.77 214.215V215.859H1140.12C1140.12 215.41 1140.12 214.589 1140.19 214.141C1140.49 214.037 1140.82 213.942 1141.16 213.844C1142.77 213.378 1144.62 212.841 1144.75 210.929C1144.91 207.354 1144.88 203.78 1144.85 200.205C1144.83 198.775 1144.82 197.345 1144.82 195.915C1145.04 193.923 1143.22 193.488 1141.56 193.093C1140.97 192.955 1140.41 192.822 1139.97 192.628H1140.04ZM1206.9 186.652C1202.79 188.445 1198.75 190.238 1194.87 192.404H1194.79C1195.3 192.726 1195.99 192.928 1196.7 193.134C1198.28 193.595 1199.93 194.078 1199.72 195.989C1199.72 197.63 1199.74 199.279 1199.76 200.93V200.94C1199.79 204.249 1199.82 207.568 1199.72 210.854C1199.72 212.839 1197.84 213.419 1196.2 213.921C1195.81 214.042 1195.43 214.159 1195.09 214.29V215.859C1196.62 215.859 1198.14 215.875 1199.68 215.892L1199.68 215.892C1203.78 215.936 1207.92 215.981 1212.05 215.709C1211.84 214.394 1210.69 213.941 1209.55 213.49C1208.3 212.993 1207.04 212.498 1207.04 210.854C1206.93 206.82 1206.95 202.787 1206.97 198.753C1206.99 194.72 1207.01 190.686 1206.9 186.652ZM1296.83 192.703C1299.02 190.944 1301.63 189.82 1304.24 188.697C1305.73 188.055 1307.22 187.413 1308.63 186.652C1308.88 191.093 1308.85 195.512 1308.83 199.932C1308.81 203.617 1308.79 207.302 1308.93 211.003C1308.99 212.877 1310.81 213.43 1312.45 213.929C1312.84 214.047 1313.22 214.162 1313.56 214.29V215.933C1309.88 215.983 1306.23 215.967 1302.57 215.95C1300.74 215.942 1298.9 215.933 1297.05 215.933V214.215C1297.36 214.109 1297.7 214.012 1298.05 213.912C1299.67 213.448 1301.56 212.907 1301.69 211.003C1301.85 207.428 1301.81 203.814 1301.78 200.217V200.211V200.204C1301.77 198.77 1301.76 197.339 1301.76 195.915C1301.92 193.976 1300.22 193.552 1298.64 193.158C1298.03 193.005 1297.44 192.857 1296.98 192.628L1296.83 192.703ZM1342.47 189.864C1337.39 185.905 1330 185.98 1324.54 189.043C1320.21 191.358 1317.45 196.811 1319.24 201.666C1320.28 204.804 1323.27 206.596 1326.11 208.016C1325.45 208.314 1324.78 208.589 1324.1 208.863C1322.42 209.549 1320.73 210.235 1319.24 211.302C1317.82 212.348 1317.97 214.514 1319.09 215.709C1320.54 217.649 1322.83 218.304 1325.01 218.925C1325.18 218.973 1325.35 219.022 1325.51 219.071C1324.47 220.154 1323.27 221.069 1322.08 221.984C1320.88 222.899 1319.69 223.814 1318.64 224.897C1316.77 226.764 1317 229.976 1318.79 231.844C1321.63 234.832 1326.11 235.579 1330.07 235.579C1336.64 235.504 1343.74 234.085 1348.52 229.304C1350.84 227.063 1352.48 223.776 1351.58 220.49C1351.06 217.651 1348.45 215.859 1345.76 215.336C1342.54 214.675 1339.27 214.612 1336.02 214.549C1333.75 214.505 1331.49 214.461 1329.25 214.215C1327.83 214.066 1326.48 213.767 1325.36 213.02C1324.4 211.153 1326.25 210.16 1327.79 209.336C1328.16 209.139 1328.51 208.951 1328.8 208.762C1334.03 209.584 1340 208.464 1343.74 204.43C1346.35 201.592 1347.03 197.259 1345.16 193.823C1347.7 193.898 1350.16 193.898 1352.7 193.674L1352.61 193.093L1352.61 193.087L1352.61 193.084C1352.41 191.917 1352.21 190.704 1351.96 189.491C1348.82 189.491 1345.61 189.64 1342.47 189.864ZM1330.37 188.968C1327.16 189.939 1326.04 193.674 1326.04 196.662C1326.04 200.023 1326.78 203.832 1329.55 206.073C1331.94 208.016 1335.82 207.269 1337.32 204.654C1339.41 201.069 1339.26 196.438 1337.76 192.628C1336.64 189.715 1333.36 187.847 1330.37 188.968ZM1328.8 231.545C1326.41 230.35 1324.09 227.959 1324.32 225.121H1324.39C1324.63 223.129 1326.15 221.826 1327.62 220.563C1328.03 220.217 1328.43 219.873 1328.8 219.519C1330.67 219.621 1332.55 219.645 1334.44 219.67C1336.7 219.7 1338.96 219.729 1341.2 219.892C1342.84 219.967 1344.64 220.789 1345.23 222.432C1346.05 224.673 1345.08 227.213 1343.52 228.931C1339.86 232.815 1333.58 234.234 1328.8 231.545ZM1019.11 188.445C1020.26 187.484 1021.69 187.512 1023.11 187.54C1023.34 187.544 1023.58 187.549 1023.81 187.549C1028.22 187.549 1032.63 187.549 1037.04 187.623C1036.76 188.941 1035.66 189.153 1034.54 189.369C1033.81 189.509 1033.08 189.65 1032.55 190.088C1032.05 191.427 1032.55 192.683 1033.05 193.949L1033.05 193.95C1033.22 194.378 1033.39 194.808 1033.52 195.242C1034.22 196.969 1034.84 198.737 1035.47 200.509L1035.47 200.516C1036.52 203.492 1037.57 206.477 1038.98 209.285C1040.26 206.425 1041.34 203.497 1042.42 200.575L1042.42 200.573C1043.28 198.23 1044.14 195.892 1045.1 193.599C1044.19 191.316 1042.14 190.229 1040.09 189.145C1039.9 189.042 1039.7 188.94 1039.51 188.836C1039.41 188.781 1039.3 188.725 1039.2 188.669L1039.5 187.698C1043.52 187.489 1047.51 187.536 1051.51 187.583C1053.23 187.603 1054.95 187.623 1056.68 187.623C1056.6 188.959 1055.51 189.158 1054.4 189.362C1053.39 189.546 1052.37 189.733 1052.05 190.761C1051.99 191.76 1052.31 192.677 1052.63 193.604C1052.74 193.923 1052.85 194.244 1052.95 194.57C1053.55 196.164 1054.14 197.77 1054.73 199.373C1055.65 201.902 1056.57 204.427 1057.58 206.895C1058.85 204.778 1059.67 202.482 1060.5 200.177C1060.99 198.823 1061.48 197.465 1062.06 196.139C1062.17 195.765 1062.32 195.383 1062.48 194.994C1062.95 193.828 1063.44 192.61 1062.88 191.433C1062.44 190.443 1061.43 190.139 1060.46 189.845C1059.3 189.495 1058.18 189.158 1058.1 187.698C1062.73 187.549 1067.29 187.549 1071.92 187.698C1071.62 188.865 1070.63 189.273 1069.64 189.687C1068.65 190.095 1067.66 190.508 1067.29 191.657C1065.27 196.183 1063.5 200.822 1061.74 205.462C1060.3 209.246 1058.86 213.031 1057.28 216.755C1056.08 216.755 1054.89 216.755 1053.69 216.83C1052.25 213.268 1050.93 209.658 1049.61 206.041C1048.6 203.286 1047.59 200.527 1046.52 197.782C1044.13 204.131 1041.67 210.48 1039.2 216.755H1033.9C1032.93 214.14 1031.97 211.517 1031.02 208.893C1029.11 203.649 1027.2 198.404 1025.16 193.226C1024.4 191.196 1022.52 190.246 1020.71 189.329C1020.18 189.065 1019.67 188.804 1019.18 188.52L1019.11 188.445ZM1169.77 187.449C1165.79 187.399 1161.83 187.35 1157.89 187.698L1157.82 187.623C1158.46 188.457 1159.42 188.906 1160.38 189.353C1161.65 189.947 1162.91 190.539 1163.42 192.03C1165.5 197.073 1167.36 202.174 1169.21 207.278C1170.35 210.415 1171.49 213.553 1172.68 216.68H1178.21C1179.88 212.841 1181.36 208.925 1182.83 205.015C1184.6 200.33 1186.37 195.654 1188.45 191.134C1188.79 189.992 1189.79 189.626 1190.78 189.265C1191.73 188.917 1192.67 188.574 1193 187.549H1183.52C1183.29 187.549 1183.07 187.544 1182.84 187.54C1181.47 187.512 1180.05 187.484 1178.96 188.445C1179.51 188.722 1180.15 188.898 1180.78 189.074C1182.03 189.421 1183.3 189.772 1184.04 190.91C1184.44 192.467 1183.87 193.979 1183.31 195.446C1183.14 195.88 1182.98 196.31 1182.84 196.736C1182.3 198.093 1181.79 199.457 1181.28 200.816C1180.19 203.724 1179.11 206.611 1177.69 209.36C1177.24 208.163 1176.79 206.968 1176.34 205.775C1174.46 200.789 1172.59 195.823 1170.97 190.761C1170.85 189.21 1172.06 189.088 1173.3 188.963C1174.44 188.848 1175.6 188.731 1175.75 187.474C1173.75 187.499 1171.76 187.474 1169.77 187.449Z" fill="#929292"/>
</svg>
