<?xml version="1.0" encoding="UTF-8"?>
<svg width="200px" height="61px" viewBox="0 0 200 61" version="1.1" xmlns="http://www.w3.org/2000/svg" xmlns:xlink="http://www.w3.org/1999/xlink">
    <title>CBS</title>
    <defs>
        <path d="M968.402715,17.7768276 C951.791164,17.7768276 938.537743,31.3436739 938.537743,47.9104499 C938.537743,64.4772259 951.746389,78.2231724 968.402715,78.2231724 C985.059041,78.2231724 998.178136,64.6563261 998.178136,47.9104499 C998.178136,31.3884489 985.148591,17.7768276 968.402715,17.7768276 Z M968.402715,30.5824977 C981.969561,30.5824977 991.909627,39.2240862 996.118483,47.9104499 C991.909627,56.7759138 981.969561,65.4175023 968.402715,65.4175023 C954.835868,65.4175023 944.851028,56.7311387 940.686946,47.9104499 C944.895803,39.1793112 954.746318,30.5824977 968.402715,30.5824977 L968.402715,30.5824977 Z M968.402715,31.9257498 C959.537251,31.9257498 952.328464,39.089761 952.328464,47.9104499 C952.328464,56.7311387 959.537251,63.9847001 968.402715,63.9847001 C977.268179,63.9847001 984.387415,56.8654639 984.387415,47.9104499 C984.387415,38.9554358 977.268179,31.9257498 968.402715,31.9257498 Z M1026.69986,21.3588332 C1011.07336,21.3588332 1000.19301,33.2242268 1000.19301,47.6417994 L1000.19301,47.8208997 C1000.19301,62.4175726 1011.29723,73.9695408 1026.29688,73.9695408 C1041.29653,73.9695408 1041.92338,70.4770853 1047.11729,64.8354264 L1039.99805,57.6714152 C1036.01307,61.2981959 1032.43107,63.6264995 1026.65508,63.6264995 C1017.92394,63.6264995 1011.87931,56.3281631 1011.87931,47.5970244 L1011.87931,47.4626992 C1011.87931,38.7315604 1018.05827,31.6123243 1026.65508,31.6123243 C1035.25189,31.6123243 1035.74442,33.7615276 1039.63985,37.3435333 L1046.75909,29.1049203 C1042.01293,24.448313 1036.28172,21.269283 1026.69986,21.269283 L1026.69986,21.3588332 Z M1051.37092,22.2543346 L1051.37092,73.0740394 L1075.54946,73.0740394 C1087.01188,73.0740394 1094.57886,68.4174321 1094.57886,59.1489925 L1094.57886,58.9698922 C1094.57886,52.1640815 1090.95208,48.7611762 1085.08655,46.4776476 C1088.71333,44.4627694 1091.75803,41.2389644 1091.75803,35.5077554 L1091.75803,35.3734302 C1091.75803,31.8809747 1090.59388,29.0601453 1088.26558,26.6870665 C1085.3552,23.821462 1080.78814,22.2095595 1075.01216,22.2095595 L1051.41569,22.2095595 L1051.37092,22.2543346 Z M1062.25126,32.0152999 L1073.3107,32.0152999 C1078.05686,32.0152999 1080.65382,33.8958529 1080.65382,37.2539831 L1080.65382,37.4330834 C1080.65382,41.1941893 1077.51956,42.8060918 1072.54953,42.8060918 L1062.25126,42.8060918 C1062.25126,42.8060918 1062.25126,32.060075 1062.25126,32.060075 L1062.25126,32.060075 L1062.25126,32.0152999 Z M1062.25126,52.0745314 L1075.23603,52.0745314 C1080.92247,52.0745314 1083.51942,54.1789597 1083.51942,57.6266401 L1083.51942,57.8057404 C1083.51942,61.5668463 1080.51949,63.268299 1075.59423,63.268299 L1062.29604,63.268299 C1062.29604,63.268299 1062.29604,52.0745314 1062.29604,52.0745314 L1062.29604,52.0745314 L1062.25126,52.0745314 Z M1116.51865,21.4931584 C1106.17561,21.4931584 1098.74294,27.5825679 1098.74294,36.8510075 L1098.74294,36.9853327 C1098.74294,47.0597235 1105.36965,49.925328 1115.57837,52.5222821 C1124.08563,54.7162605 1125.83186,56.1490628 1125.83186,58.9698922 L1125.83186,59.1489925 C1125.83186,62.1041471 1123.05581,63.939925 1118.48875,63.939925 C1113.92169,63.939925 1107.87706,61.5668463 1103.31,57.8057404 L1096.68329,65.7309278 C1102.7727,71.1934864 1110.56356,73.8352156 1118.26487,73.8352156 L1118.26487,73.8352156 C1129.23477,73.8352156 1136.93608,68.1487816 1136.93608,58.0743908 L1136.93608,57.9400656 C1136.93608,49.0298266 1131.11532,45.3582709 1120.77228,42.6717666 C1111.99637,40.4330131 1109.80239,39.3136364 1109.80239,36.0002812 L1109.80239,35.865956 C1109.80239,33.4033271 1112.04114,31.3884489 1116.33955,31.3884489 C1120.63795,31.3884489 1125.07069,33.2690019 1129.54819,36.4032568 L1135.32418,27.9407685 C1130.17504,23.821462 1123.86176,21.4931584 1116.4291,21.4931584 L1116.51865,21.4931584 Z" id="path-1"></path>
    </defs>
    <g id="Page-1" stroke="none" stroke-width="1" fill="none" fill-rule="evenodd">
        <g id="Press-Social" transform="translate(-937.7768, -17.5)" fill="#929292" fill-rule="nonzero">
            <g id="CBS">
                <use xlink:href="#path-1"></use>
                <use xlink:href="#path-1"></use>
            </g>
        </g>
    </g>
</svg>