<?xml version="1.0" encoding="UTF-8"?>
<svg width="190px" height="51px" viewBox="0 0 190 51" version="1.1" xmlns="http://www.w3.org/2000/svg" xmlns:xlink="http://www.w3.org/1999/xlink">
    <title>Forbes</title>
    <defs>
        <path d="M95.588415,37.645765 C95.588415,38.0693473 92.3409504,46.8233824 92.1056268,46.8704471 C92.0114974,46.8704471 91.3996563,46.6821883 90.6936857,46.3056706 C89.2346799,45.6467648 87.8698034,45.2702471 86.504927,45.2702471 C85.1400506,45.2702471 82.9750742,45.8820883 82.2691036,46.6821883 C82.0808448,46.9332 81.9396507,48.737347 81.8455212,52.0946293 C81.7513918,57.0364233 81.9867154,63.1077702 82.2220389,65.5551348 C82.5044271,67.6730465 83.0221389,68.70847 84.1987565,69.1320524 C84.6223388,69.3203112 87.0226387,69.6497641 87.775674,69.6497641 C88.5287093,69.6497641 87.775674,70.1204111 87.775674,70.7322523 L87.775674,71.8147405 C87.775674,71.8147405 77.6567625,71.8147405 77.6567625,71.8147405 C72.1031274,71.8147405 67.5378511,71.7206111 67.3966569,71.6735464 C67.2554628,71.579417 67.2083981,71.2499641 67.2554628,70.5910582 L67.2554628,69.6497641 C67.2554628,69.6497641 67.7261099,69.50857 67.7261099,69.50857 C67.9614334,69.50857 68.5262098,69.3673759 68.9497922,69.2732465 C70.2676039,68.9908582 71.0206392,68.2848877 71.4442215,66.9200112 C71.8207392,65.837523 71.9619333,62.1194114 71.9619333,54.7773175 C71.9619333,47.4352235 71.8207392,43.6700472 70.8794451,42.4934296 C70.408798,41.8345237 70.0322804,41.6462649 68.8556628,41.4109414 C68.2438216,41.316812 67.6319805,41.2226825 67.4437216,41.1756178 C67.1613334,41.1756178 67.1142687,41.0344237 67.1142687,40.3755179 C67.1142687,39.716612 67.2083981,39.6224826 67.4437216,39.5283532 C67.867304,39.3871591 81.3748742,36.6574062 81.7984565,36.6574062 L82.1749742,36.6574062 L82.1749742,38.6811885 C82.0808448,39.8107414 82.0337801,41.4109414 81.9867154,42.258106 L81.9867154,43.858306 C81.9867154,43.858306 82.4573624,43.0111413 82.4573624,43.0111413 C84.0104977,40.187259 85.704827,38.445865 88.1051269,37.3633768 C89.4229387,36.7515356 90.2701034,36.5632768 91.8703033,36.5632768 C93.4705033,36.5632768 95.588415,37.1751179 95.5413503,37.645765 L95.588415,37.645765 Z M66.9730746,59.2013997 C65.5611335,65.7433936 61.5135689,70.3557347 55.4892867,72.0971287 C54.8774455,72.2383229 53.842022,72.4265817 53.2772456,72.5677758 C52.0535633,72.7089699 48.3354516,72.7089699 47.158834,72.5677758 C43.81724,72.0971287 40.946293,70.7322523 38.7342519,68.5202112 C36.8987284,66.7317524 35.7221108,64.7079701 34.8278814,61.9311526 C33.4159402,57.6953291 33.4159402,52.141694 34.8278814,47.9529353 C36.1927578,43.858306 39.1578342,40.3284532 42.8288812,38.4929297 C47.9118692,35.9514356 55.0657043,36.0926297 59.7721748,38.8694473 C64.0079982,41.3638767 66.5494923,45.7879589 67.3025275,51.8122411 C67.4907863,53.6477645 67.3025275,57.554135 66.9730746,59.2013997 L66.9730746,59.2013997 Z M56.8070984,55.2008998 C56.8070984,47.8588059 55.6775455,43.1052707 53.2301809,40.6579061 C52.1947574,39.6224826 51.5358515,39.2930297 50.1709751,39.2930297 C47.2529634,39.2930297 45.4174399,42.3051707 44.7114693,48.3294529 C44.3820164,51.0592058 44.3349517,57.6011997 44.7114693,60.0014997 C45.7468928,67.437723 48.3825163,71.0146405 52.1476927,69.8850876 C53.1360515,69.6026994 54.3126691,68.4731465 54.9715749,67.2494642 C56.242322,64.7550348 56.8541631,61.0369232 56.8541631,55.1538351 L56.8070984,55.2008998 Z M18.1199113,28.5152123 L18.1199113,27.7151123 L22.4027994,27.7151123 C27.2975286,27.7151123 28.1446933,27.8563064 29.8860874,28.7034711 C32.3805167,29.9271534 34.2631049,32.3745181 35.9103696,36.7044709 C36.3496402,37.8654003 37.0399225,38.2889826 37.9812166,37.9752179 L38.9695754,37.645765 L38.8283813,31.3390946 C38.8283813,27.8563064 38.6871872,24.7500359 38.6871872,24.5147124 L38.545993,23.949936 L19.7671759,23.949936 C9.41294091,23.949936 0.753035273,23.949936 0.470647046,23.949936 L0,24.0911301 L0,25.220683 C0,25.220683 0.0941294091,26.3502359 0.0941294091,26.3502359 L1.50607055,26.49143 C3.34159402,26.6796888 4.47114693,27.29153 5.1300528,28.1857594 C6.58905864,30.3507358 6.87144687,33.3158122 6.87144687,47.2940294 C6.87144687,61.2722467 6.54199393,65.837523 5.1300528,67.6730465 C4.37701752,68.6614053 3.76517637,68.9437935 2.11791171,69.2732465 C-0.0941294091,69.6968288 0.0470647046,69.6497641 0.0470647046,70.7322523 C0.0470647046,71.8147405 0.0470647046,71.7206111 0.188258818,71.7676758 C0.423582341,71.9088699 24.4736464,71.9088699 24.7560346,71.7676758 C25.0854875,71.6264817 25.0854875,69.8850876 24.7560346,69.7438935 C24.6148405,69.7438935 23.8147405,69.5556347 22.9675758,69.3673759 C22.1204111,69.2261818 21.1791171,68.9908582 20.8967288,68.8967288 C19.2965289,68.237823 18.4493642,66.3081701 18.1199113,62.8724466 C17.8845877,60.425082 17.6963289,55.8598057 17.6963289,52.5182116 L17.6963289,49.4590058 L19.1553348,49.4590058 C22.30867,49.6002 23.8618052,49.7413941 24.5677758,50.070847 C25.9797169,50.6826882 27.1563345,52.4240822 27.721111,54.8714469 L28.0505639,56.1421939 L29.1801168,56.1421939 C29.1801168,56.1421939 30.3096697,56.2363233 30.3096697,56.2363233 L30.3096697,39.8578061 L29.1801168,39.8578061 C29.1801168,39.8578061 28.0505639,39.9519355 28.0505639,39.9519355 L27.721111,41.2226825 C27.1092698,43.7171119 26.0738463,45.2702471 24.5207111,46.0232824 C23.9088699,46.3527353 23.4382229,46.3998 22.0262817,46.4939295 C21.0379229,46.4939295 19.6730465,46.6351236 19.0141406,46.6351236 L17.7433936,46.6351236 L17.7433936,42.587559 C17.7433936,38.5399944 17.9316524,29.8800887 18.1199113,28.5152123 L18.1199113,28.5152123 Z M188.823595,56.6128409 C187.694042,54.3066704 185.57613,52.7535352 181.152048,50.9180117 C177.57513,49.4590058 175.692542,48.3294529 174.657119,47.1528353 C173.715825,46.1644765 173.480501,45.3643765 173.57463,43.9053707 C173.715825,42.5404943 173.998213,41.7403943 174.845377,40.8461649 C175.927866,39.6695473 177.481001,39.245965 179.26946,39.6695473 C182.187471,40.2813885 184.07006,42.3051707 185.717324,46.6821883 C186.282101,48.2353235 186.37623,48.2823882 187.411654,47.8588059 L188.070559,47.6234824 L188.070559,45.8350236 C188.070559,44.8466648 188.070559,42.8228825 187.929365,41.2697472 L187.788171,38.4929297 L187.270459,38.3046709 C184.587771,37.1751179 179.410654,36.4691474 176.116124,36.7515356 C172.303883,37.1280532 169.480001,38.3046709 167.362089,40.5637767 C165.197113,42.7758178 164.208754,45.3643765 164.444078,48.470647 C164.585272,51.0592058 165.291242,52.8476646 166.891442,54.4949292 C168.303384,55.9539351 169.527066,56.7069703 173.103983,58.0718468 C178.751748,60.2838879 180.304883,61.6487643 180.210754,64.3314525 C180.210754,66.637623 178.987071,68.3319524 176.77503,69.1320524 C175.97493,69.3673759 173.951148,69.3673759 172.86866,69.1320524 C170.044778,68.3790171 167.879801,65.9316524 166.044278,61.4605055 L165.573631,60.2838879 L165.008854,60.2838879 C164.679401,60.2838879 164.255819,60.425082 164.06756,60.5192114 L163.691042,60.7074702 L163.691042,62.7312525 C163.691042,63.8137407 163.785172,66.1199113 163.832237,67.8142406 L163.973431,70.9675758 L164.585272,71.2028994 C165.856019,71.7676758 169.762389,72.6148405 172.209754,72.850164 C172.539207,72.850164 174.186472,72.850164 175.880801,72.850164 C178.845877,72.850164 179.128266,72.850164 180.587271,72.379517 C185.058418,71.2028994 187.882301,68.7555347 189.200112,64.9903583 C189.623695,63.8137407 189.670759,63.5313525 189.717824,61.7428937 C189.717824,59.3896585 189.482501,58.1659762 188.729465,56.7069703 L188.823595,56.6128409 Z M161.76139,50.4002999 C161.902584,51.2474646 161.902584,52.2358234 161.902584,52.612341 L161.902584,53.2712469 C161.902584,53.2712469 151.783672,53.2712469 151.783672,53.2712469 L141.664761,53.2712469 C141.664761,53.2712469 141.664761,54.4949292 141.664761,54.4949292 C141.805955,57.2246821 142.417796,59.7191114 143.45322,61.7899584 C143.923867,62.7783172 144.300384,63.2489643 145.288743,64.2373231 C147.500784,66.4493642 149.665761,67.2965289 153.101484,67.2965289 C156.537207,67.2965289 157.384372,66.8258818 159.219896,65.6021995 C159.737607,65.2256819 160.302384,64.9903583 160.396513,64.9903583 C160.678901,64.9903583 161.337807,65.837523 161.337807,66.2140407 C161.337807,66.8258818 159.36109,68.8025994 157.478501,70.0733464 C155.878302,71.1558346 153.430937,72.0971287 151.26596,72.4736464 C149.75989,72.7089699 146.371231,72.7089699 144.912225,72.4736464 C138.181973,71.2499641 133.334308,66.4493642 131.734108,59.3896585 C131.545849,58.4954291 131.404655,57.4600056 131.35759,55.483288 C131.263461,52.3299528 131.498785,50.4473646 132.345949,48.0470647 C133.85202,43.4347237 136.628837,40.1401943 140.629337,38.2105415 C144.818096,36.1396944 150.607055,35.9985003 154.372231,37.8810885 C158.56099,39.9990002 161.055419,44.2348236 161.66726,50.3061705 L161.76139,50.4002999 Z M151.595413,50.1649764 L151.454219,48.470647 C151.171831,42.5404943 149.75989,39.2930297 147.35959,39.2930297 C144.95929,39.2930297 142.747249,42.5404943 141.900084,48.0470647 C141.805955,48.7059706 141.711825,49.5060705 141.711825,49.8355235 L141.711825,50.4002999 L144.300384,50.4002999 C145.712325,50.3061705 147.924366,50.2591058 149.242178,50.2591058 L151.595413,50.1179117 L151.595413,50.1649764 Z M128.298385,48.9412941 C128.674902,50.5885588 128.769032,54.6361233 128.533708,56.6128409 C128.345449,58.3071703 127.733608,60.6604055 127.121767,62.1194114 C124.862661,67.8142406 120.062061,71.4852876 113.614197,72.4736464 C112.155191,72.6619052 107.54285,72.7089699 105.519068,72.4736464 C104.201256,72.3324523 100.059562,71.6264817 98.6005561,71.2970288 L97.6121973,71.1087699 L97.7533914,65.7904583 C97.9887149,52.9888587 97.9887149,45.9762177 97.8945855,39.1518355 C97.8004561,32.4686475 97.7533914,31.8097416 97.4710032,30.8213828 C97.0944855,29.5977005 96.6709032,28.7505358 96.059062,28.3269535 C95.8708032,28.1857594 95.258962,27.9033711 94.6941856,27.8092417 C92.9998562,27.4797888 93.0939856,27.5268535 93.0469209,26.7267535 C93.0469209,26.3031712 93.0469209,26.020783 93.188115,25.9266536 C93.3293092,25.7854594 107.260462,23.149836 107.684044,23.149836 C108.107626,23.149836 107.825238,24.8912301 107.825238,31.0567064 C107.825238,35.3866592 107.731109,38.9635767 107.825238,38.9635767 C107.919368,38.9635767 108.390015,38.6811885 108.954791,38.445865 C110.696185,37.645765 112.296385,37.3633768 114.696685,37.2221827 C116.202756,37.2221827 116.955791,37.2221827 117.755891,37.3633768 C122.980073,38.445865 126.933508,42.7287531 128.157191,48.9883588 L128.298385,48.9412941 Z M117.94415,50.1649764 C117.191114,45.7879589 115.590914,42.9170119 113.237679,41.7403943 C110.884444,40.5637767 112.155191,41.2226825 110.978573,41.2226825 C109.801956,41.2226825 109.425438,41.316812 108.813597,41.4580061 L107.872303,41.6933296 L107.872303,46.6821883 C107.778173,53.0359234 108.013497,69.0379229 108.154691,69.50857 C108.295885,69.7909582 108.390015,69.8850876 108.907726,70.0262817 C110.225538,70.1674759 110.413797,70.1674759 111.166832,70.0262817 C112.155191,69.8380229 112.908226,69.4144406 113.755391,68.6614053 C115.826238,66.8258818 117.379373,62.9665761 117.991214,58.2130409 C118.273603,56.2363233 118.179473,51.8593058 117.991214,50.2120411 L117.94415,50.1649764 Z" id="path-1"></path>
    </defs>
    <g id="Page-1" stroke="none" stroke-width="1" fill="none" fill-rule="evenodd">
        <g id="Press-Social" transform="translate(0.2232, -22.5)" fill="#929292" fill-rule="nonzero">
            <g id="Forbes">
                <use xlink:href="#path-1"></use>
                <use xlink:href="#path-1"></use>
            </g>
        </g>
    </g>
</svg>