<?xml version="1.0" encoding="UTF-8"?>
<svg width="134px" height="55px" viewBox="0 0 134 55" version="1.1" xmlns="http://www.w3.org/2000/svg" xmlns:xlink="http://www.w3.org/1999/xlink">
    <title>FOX</title>
    <defs>
        <path d="M1474.62966,48.0223875 L1459.58524,21.2916706 L1477.94301,21.2916706 L1484.6145,34.6794166 L1491.28599,21.2916706 L1509.64376,21.2916706 L1492.94266,48.0223875 L1509.64376,74.7531045 L1492.94266,74.7531045 L1484.56972,61.3653585 L1477.89824,74.7531045 L1459.54046,74.7531045 L1474.58488,48.0223875 L1474.62966,48.0223875 Z M1409.97446,48.3805881 C1409.97446,33.2018393 1422.86968,21.2916706 1438.76483,21.2916706 C1454.65998,21.2916706 1467.5552,33.2018393 1467.5552,48.3805881 C1467.5552,63.5593369 1454.65998,74.3949039 1438.76483,74.3949039 C1422.86968,74.3949039 1409.97446,62.4847352 1409.97446,48.3805881 L1409.97446,48.3805881 Z M1434.5112,58.8579545 C1434.5112,61.1862582 1436.39175,63.0220361 1438.67528,63.0220361 C1440.95881,63.0220361 1442.70503,61.2758083 1442.83936,59.126605 L1442.83936,58.8579545 C1442.83936,58.8579545 1442.83936,37.1420455 1442.83936,37.1420455 C1442.83936,34.8585169 1440.95881,32.9779639 1438.67528,32.9779639 C1436.39175,32.9779639 1434.64552,34.7241917 1434.5112,36.873395 L1434.5112,37.1420455 C1434.5112,37.1420455 1434.5112,58.8579545 1434.5112,58.8579545 Z M1391.07938,56.3505506 L1407.78048,56.3505506 L1407.78048,41.306127 L1391.07938,41.306127 L1391.07938,36.2913191 L1411.13861,36.2913191 L1410.28788,21.2468955 L1376.03495,21.2468955 L1376.03495,73.0516518 L1391.07938,73.0516518 L1391.07938,56.3505506 L1391.07938,56.3505506 Z" id="path-1"></path>
    </defs>
    <g id="Page-1" stroke="none" stroke-width="1" fill="none" fill-rule="evenodd">
        <g id="Press-Social" transform="translate(-1375.7768, -20.5)" fill="#929292" fill-rule="nonzero">
            <g id="FOX">
                <use xlink:href="#path-1"></use>
                <use xlink:href="#path-1"></use>
            </g>
        </g>
    </g>
</svg>