<?xml version="1.0" encoding="UTF-8"?>
<svg width="128px" height="63px" viewBox="0 0 128 63" version="1.1" xmlns="http://www.w3.org/2000/svg" xmlns:xlink="http://www.w3.org/1999/xlink">
    <title>FOX Business</title>
    <defs>
        <path d="M1855.45961,60.4150928 L1857.08678,62.9932057 L1748.74264,62.9932057 L1748.74264,60.4150928 L1855.45961,60.4150928 Z M1853.00829,22.9479277 L1867.52602,62.9720736 L1860.5947,62.9720736 L1844.04829,36.4935864 L1853.00829,22.9479277 Z M1868.89961,17.3690605 L1874.94338,62.9720736 L1869.47017,62.9720736 L1856.05131,17.3690605 L1868.89961,17.3690605 Z M1797.93811,17.242268 C1810.27924,17.242268 1820.27471,26.3924556 1820.29584,37.6981145 C1820.29584,49.0037735 1810.27924,58.153961 1797.93811,58.153961 C1785.59697,58.153961 1775.6015,49.0037735 1775.6015,37.6981145 C1775.6015,26.3924556 1785.59697,17.242268 1797.93811,17.242268 Z M1775.79169,17.5803812 L1775.96075,28.5267949 L1760.89358,28.5267949 L1760.89358,33.9154735 L1773.78415,33.9154735 L1773.78415,45.2845286 L1760.74566,45.2845286 L1760.74566,57.9215082 L1748.7849,57.9215082 L1748.7849,17.5803812 L1775.79169,17.5803812 Z M1828.60074,17.3690605 L1833.86263,25.9698141 L1838.46942,17.3690605 L1853.07168,17.3690605 L1840.54036,36.7683033 L1854.08602,57.9215082 L1839.50489,57.9215082 L1833.54565,48.9826414 L1827.6498,57.9215082 L1813.36452,57.9215082 L1826.55093,36.6203788 L1814.23093,17.3690605 L1828.60074,17.3690605 Z M1798.08603,25.652833 C1794.46634,25.652833 1794.28493,28.0561184 1794.28128,28.4833692 L1794.28163,28.5312792 L1794.28205,28.5437015 L1794.28231,47.2535518 C1794.28453,47.3499774 1794.37312,49.2784904 1797.91697,49.2784904 C1801.48578,49.2784904 1801.79226,47.7681582 1801.80484,45.8680164 L1801.8056,28.5437015 C1801.8062,28.5353141 1801.80749,28.5146314 1801.80814,28.4833692 L1801.80818,28.4072469 C1801.79776,27.8273703 1801.52915,25.652833 1798.08603,25.652833 Z M1783.92754,74.5735815 C1783.92754,75.7147135 1783.5683,76.6867888 1782.84981,77.5109397 C1782.13131,78.3350905 1781.22264,78.7365999 1780.10264,78.7365999 L1771.1849,78.7365999 C1770.04377,78.7365999 1769.13509,78.3350905 1768.4166,77.5109397 C1767.69811,76.6656568 1767.36,75.6935814 1767.36,74.5735815 L1767.36,65.2332054 L1770.50867,65.2332054 L1770.50867,74.5735815 C1770.50867,75.2498079 1770.72,75.587921 1771.1849,75.587921 L1780.0815,75.587921 C1780.52528,75.587921 1780.7366,75.2498079 1780.7366,74.5735815 L1780.7366,65.2332054 L1783.90641,65.2332054 L1783.90641,74.5735815 M1802.05886,74.5947136 C1802.05886,75.7147135 1801.72075,76.6867888 1801.04452,77.4898076 C1800.3049,78.3350905 1799.37509,78.7365999 1798.25509,78.7365999 L1786.61131,78.7365999 L1786.61131,75.587921 L1798.25509,75.587921 C1798.69886,75.587921 1798.91018,75.2498079 1798.91018,74.5947136 C1798.91018,73.9184873 1798.69886,73.5803741 1798.25509,73.5803741 L1789.78113,73.5803741 C1788.66113,73.5803741 1787.73131,73.1577327 1787.01282,72.3335818 C1786.31547,71.5305631 1785.95622,70.5796198 1785.95622,69.4384879 C1785.95622,68.2973559 1786.31547,67.3252806 1787.03396,66.5011297 C1787.75245,65.6769789 1788.66113,65.2543374 1789.78113,65.2543374 L1801.4249,65.2543374 L1801.4249,68.4241484 L1789.78113,68.4241484 C1789.33735,68.4241484 1789.12603,68.7622615 1789.12603,69.4384879 C1789.12603,70.1147142 1789.33735,70.4528273 1789.78113,70.4528273 L1798.25509,70.4528273 C1799.37509,70.4528273 1800.3049,70.8754688 1801.04452,71.6996196 C1801.69961,72.4815063 1802.05886,73.4535817 1802.05886,74.5947136 M1803.70716,65.2332054 L1806.85584,65.2332054 L1806.85584,78.757732 L1803.70716,78.757732 Z M1823.25433,78.757732 L1820.10565,78.757732 L1812.01207,69.6498086 L1812.01207,78.757732 L1808.86339,78.757732 L1808.86339,65.2332054 L1812.01207,65.2332054 L1820.10565,74.2777325 L1820.10565,65.2332054 L1823.25433,65.2332054 L1823.25433,78.757732 M1839.67395,68.4030163 L1828.43169,68.4030163 L1828.43169,70.4316953 L1838.93433,70.4316953 L1838.93433,73.5803741 L1828.43169,73.5803741 L1828.43169,75.587921 L1839.63168,75.587921 L1839.63168,78.757732 L1825.26188,78.757732 L1825.26188,65.2332054 L1839.67395,65.2332054 L1839.67395,68.4030163 M1857.763,74.5947136 C1857.763,75.7147135 1857.42489,76.6867888 1856.74866,77.4898076 C1856.00904,78.3350905 1855.10036,78.7365999 1853.95923,78.7365999 L1842.33659,78.7365999 L1842.33659,75.587921 L1853.95923,75.587921 C1854.403,75.587921 1854.61432,75.2498079 1854.61432,74.5947136 C1854.61432,73.9184873 1854.403,73.5803741 1853.95923,73.5803741 L1845.5064,73.5803741 C1844.3864,73.5803741 1843.45659,73.1577327 1842.71697,72.3335818 C1842.01961,71.5305631 1841.66036,70.5796198 1841.66036,69.4384879 C1841.66036,68.2973559 1842.01961,67.3252806 1842.7381,66.5011297 C1843.45659,65.6769789 1844.36527,65.2543374 1845.48527,65.2543374 L1857.10791,65.2543374 L1857.10791,68.4241484 L1845.48527,68.4241484 C1845.0415,68.4241484 1844.83017,68.7622615 1844.83017,69.4384879 C1844.83017,70.1147142 1845.0415,70.4528273 1845.48527,70.4528273 L1853.95923,70.4528273 C1855.07923,70.4528273 1856.00904,70.8754688 1856.74866,71.6996196 C1857.42489,72.4815063 1857.763,73.4535817 1857.763,74.5947136 M1875.53508,74.5947136 C1875.53508,75.7147135 1875.19696,76.6867888 1874.52074,77.4898076 C1873.78111,78.3350905 1872.8513,78.7365999 1871.75244,78.7365999 L1860.08753,78.7365999 L1860.08753,75.587921 L1871.7313,75.587921 C1872.17508,75.587921 1872.3864,75.2498079 1872.3864,74.5947136 C1872.3864,73.9184873 1872.17508,73.5803741 1871.7313,73.5803741 L1863.25734,73.5803741 C1862.13734,73.5803741 1861.22866,73.1577327 1860.46791,72.3335818 C1859.77055,71.5305631 1859.43244,70.5796198 1859.43244,69.4384879 C1859.43244,68.2973559 1859.79168,67.3252806 1860.51017,66.5011297 C1861.22866,65.6769789 1862.13734,65.2543374 1863.25734,65.2543374 L1874.90111,65.2543374 L1874.90111,68.4241484 L1863.25734,68.4241484 C1862.81357,68.4241484 1862.60225,68.7622615 1862.60225,69.4384879 C1862.60225,70.1147142 1862.81357,70.4528273 1863.25734,70.4528273 L1871.7313,70.4528273 C1872.83017,70.4528273 1873.75998,70.8754688 1874.4996,71.6996196 C1875.19696,72.4815063 1875.53508,73.4535817 1875.53508,74.5947136 M1764.04226,71.9109404 C1765.14113,72.5871667 1765.69056,73.6437703 1765.69056,75.0384871 C1765.69056,76.0528266 1765.37358,76.8981096 1764.71849,77.595468 C1764.02113,78.3773546 1763.09132,78.757732 1761.88679,78.757732 L1748.80604,78.757732 L1748.80604,65.2332054 L1761.65434,65.2332054 C1762.83773,65.2332054 1763.78868,65.6347148 1764.48603,66.3954694 C1765.12,67.0928278 1765.43698,67.9592428 1765.43698,68.9735823 C1765.43698,70.2203745 1764.97207,71.213582 1764.04226,71.9109404 M1761.65434,70.4528273 C1762.09811,70.4528273 1762.33056,70.1147142 1762.33056,69.4173558 C1762.33056,68.7411295 1762.11924,68.4030163 1761.65434,68.4030163 L1751.97585,68.4030163 L1751.97585,70.4528273 L1761.65434,70.4528273 Z M1761.88679,75.587921 C1762.35169,75.587921 1762.58415,75.2498079 1762.58415,74.5947136 C1762.58415,73.9184873 1762.35169,73.5803741 1761.88679,73.5803741 L1751.95471,73.5803741 L1751.95471,75.6090531 L1761.88679,75.6090531 L1761.88679,75.587921 Z" id="path-1"></path>
    </defs>
    <g id="Page-1" stroke="none" stroke-width="1" fill="none" fill-rule="evenodd">
        <g id="Press-Social" transform="translate(-1747.7768, -16.5)" fill="#929292" fill-rule="nonzero">
            <g id="FOX-Business">
                <use xlink:href="#path-1"></use>
                <use xlink:href="#path-1"></use>
            </g>
        </g>
    </g>
</svg>