<svg width="1214" height="249" viewBox="0 0 1214 249" fill="none" xmlns="http://www.w3.org/2000/svg">
<path d="M16.7998 0.664062C77.7172 0.664062 138.625 0.664062 199.542 0.664062C199.542 28.8883 199.542 57.1126 199.542 85.3462C193.041 85.3462 186.531 85.3368 180.03 85.3462C180.03 63.623 180.03 41.9091 180.03 20.1952C132.134 20.1952 84.2275 20.1952 36.331 20.1952C36.331 52.5308 36.331 84.8758 36.331 117.211C29.8206 117.211 23.3102 117.211 16.7998 117.211C16.7998 78.3654 16.7998 39.5195 16.7998 0.664062Z" fill="#929292"/>
<path d="M169.841 97.9439C182.09 96.909 194.499 97.163 206.626 99.308C211.537 100.192 217.248 101.105 220.174 105.668C224.615 111.491 222.319 120.871 215.686 123.976C210.832 126.808 205.328 124.277 200.257 123.609C178.807 120.58 156.829 123.609 136.301 130.167C125.924 133.337 116.186 138.173 106.139 142.181C78.2436 153.141 47.5356 158.268 17.7308 153.649C12.6222 152.689 6.61047 152.134 3.2706 147.6C-0.69961 142.773 -0.106901 135.078 4.51247 130.882C7.26904 128.341 11.1922 126.949 14.9366 127.664C34.8065 132.208 55.636 130.581 75.3271 125.886C86.1652 123.214 96.7211 119.441 106.882 114.813C126.761 105.818 148.08 99.8443 169.841 97.9439Z" fill="#929292"/>
<path d="M180.011 134.729C186.512 134.729 193.023 134.729 199.524 134.729C199.524 172.795 199.542 210.86 199.533 248.925C138.625 248.925 77.7077 248.925 16.7998 248.925C16.7998 221.839 16.7998 194.753 16.7998 167.658C23.3008 167.658 29.8018 167.658 36.3122 167.658C36.3122 188.243 36.3122 208.818 36.3122 229.403C84.2087 229.403 132.115 229.403 180.011 229.403C180.011 197.848 180.011 166.294 180.011 134.729Z" fill="#929292"/>
<path d="M279.55 73.4829C286.665 73.4829 293.772 73.4829 300.887 73.4829C300.86 85.3331 300.933 97.1923 300.842 109.042C308.691 101.411 320.432 99.0481 330.988 100.895C338.556 102.036 345.654 106.417 349.827 112.881C353.756 119.001 354.761 126.469 354.761 133.603C354.761 147.399 354.761 161.196 354.761 174.983C347.645 174.992 340.539 174.983 333.432 174.992C333.432 163.332 333.414 151.672 333.441 140.021C333.478 134.264 333.541 127.773 329.521 123.165C324.76 117.815 316.431 117.887 310.257 120.458C304.246 123.273 301.096 129.909 300.969 136.319C300.761 149.21 300.942 162.101 300.878 174.992C293.772 174.983 286.665 174.992 279.55 174.983C279.55 141.153 279.55 107.313 279.55 73.4829Z" fill="#929292"/>
<path fill-rule="evenodd" clip-rule="evenodd" d="M649.142 73.4829H627.804C627.811 78.1051 627.809 82.7286 627.806 87.3529C627.802 94.6206 627.798 101.89 627.831 109.16C624.292 105.467 619.847 102.597 614.841 101.402C601.678 98.2243 586.46 102.072 577.615 112.664C569.929 121.653 567.829 134.255 569.613 145.697C570.916 154.623 575.606 163.088 582.784 168.619C591.113 175.173 602.384 177.174 612.695 175.463C618.905 174.531 624.609 171.272 628.764 166.591C628.737 169.389 628.737 172.186 628.737 174.992C635.535 174.983 642.343 174.983 649.142 174.992V73.4829ZM591.068 132.987C592.181 126.415 597.124 120.612 603.561 118.738C609.499 116.982 616.434 117.887 621.259 121.961C625.396 125.229 627.723 130.371 628.076 135.576C628.719 142.176 627.098 149.599 621.775 153.999C614.605 160.463 602.348 159.91 595.775 152.84C590.787 147.653 589.846 139.813 591.068 132.987Z" fill="#929292"/>
<path d="M763.704 85.1343C770.81 85.1343 777.926 85.1343 785.032 85.1343C785.032 91.1363 785.032 97.1293 785.032 103.131C791.143 103.131 797.254 103.131 803.364 103.131C803.355 108.563 803.355 113.995 803.364 119.426C797.254 119.426 791.143 119.426 785.032 119.426C785.05 129.294 785.014 139.171 785.041 149.047C784.951 152.397 785.974 156.217 789.16 157.892C793.524 160.209 798.829 159.014 802.903 156.597C804.722 161.631 806.696 166.601 808.57 171.616C801.88 175.726 793.687 176.577 786.028 175.753C779.573 175.074 773.037 172.367 768.927 167.189C765.062 162.382 763.758 156.063 763.722 150.025C763.677 139.822 763.722 129.629 763.704 119.426C759.92 119.426 756.136 119.426 752.352 119.426C752.352 113.995 752.352 108.563 752.352 103.131C756.136 103.131 759.92 103.131 763.704 103.131C763.704 97.1293 763.704 91.1363 763.704 85.1343Z" fill="#929292"/>
<path fill-rule="evenodd" clip-rule="evenodd" d="M445.073 110.744C429.511 95.8162 401.438 97.0021 387.352 113.424C374.913 127.664 375.384 151.708 389.28 164.817C400.035 175.074 416.104 177.799 430.344 175.164C438.129 173.87 445.426 170.013 450.767 164.183C448.595 161.812 446.408 159.46 444.221 157.108C442.626 155.391 441.031 153.675 439.442 151.953C431.928 159.24 420.087 160.933 410.545 157.022C405.077 154.841 401.248 149.825 399.745 144.24C410.733 144.202 421.721 144.206 432.709 144.21C440.315 144.212 447.922 144.215 455.529 144.204C457.022 132.272 453.899 119.29 445.073 110.744ZM399.464 131.711C400.524 126.94 402.796 122.115 407.114 119.507C414.411 114.809 425.165 115.497 431.168 122.024C433.775 124.649 435.024 128.225 435.929 131.738C433.613 131.741 431.297 131.746 428.981 131.751C419.142 131.771 409.306 131.791 399.464 131.711Z" fill="#929292"/>
<path fill-rule="evenodd" clip-rule="evenodd" d="M517.024 100.795C503.581 99.1929 489.341 101.773 477.898 109.187C478.923 111.171 479.949 113.153 480.975 115.133C482.505 118.087 484.034 121.039 485.556 123.998C490.554 120.386 496.51 118.186 502.63 117.525C508.623 116.936 515.512 117.217 520.093 121.653C522.908 124.215 523.443 128.171 523.841 131.747C520.545 131.891 517.174 131.833 513.784 131.775C503.749 131.602 493.55 131.427 484.651 136.482C474.023 142.438 472.204 158.326 480.025 167.252C486.199 174.494 496.402 176.486 505.5 176.024C513.113 175.753 520.989 172.611 525.19 165.958C525.108 168.963 525.117 171.978 525.126 174.992C527.344 174.992 529.562 174.991 531.78 174.99C536.216 174.988 540.652 174.986 545.088 174.992V139.134C545.224 130.615 545.169 121.49 540.507 114.021C535.682 105.783 526.059 102.036 517.024 100.795ZM498.058 158.29C494.419 154.515 495.687 147.128 500.946 145.543C505.87 143.914 511.046 144.061 516.21 144.207C518.737 144.278 521.261 144.349 523.75 144.213C523.745 144.946 523.756 145.682 523.767 146.418C523.793 148.21 523.82 150.007 523.615 151.79C522.076 157.348 516.472 160.761 511.004 161.467C506.559 162.101 501.326 161.739 498.058 158.29Z" fill="#929292"/>
<path d="M679.006 109.857C685.623 103.077 695.436 100.814 704.598 100.406C715.226 100.044 726.207 101.628 735.685 106.689C733.332 111.768 730.933 116.819 728.57 121.898C720.694 117.697 711.596 115.769 702.706 116.765C700.198 117.091 697.672 117.833 695.645 119.381C693.707 120.82 693.056 123.754 694.432 125.79C695.853 127.972 698.632 128.425 700.968 129.086C708.626 130.751 716.502 131.575 724.007 133.947C729.041 135.531 733.748 138.827 736.228 143.579C739.623 150.948 738.437 160.399 732.779 166.347C727.492 171.933 719.807 174.458 712.365 175.481C698.469 177.247 683.758 175.156 671.51 168.131C673.891 163.043 676.281 157.955 678.616 152.849C687.769 158.254 698.723 160.662 709.296 159.612C712.736 159.195 717.525 157.81 717.706 153.619C718.041 150.568 715.036 148.848 712.501 148.214C702.099 145.335 690.331 146.232 681.07 139.94C671.175 133.513 670.985 117.851 679.006 109.857Z" fill="#929292"/>
<path d="M850.739 111.061C856.66 103.33 866.636 100.198 876.078 100.243C876.105 106.816 876.078 113.397 876.087 119.969C869.877 119.598 862.798 119.58 857.882 123.989C853.455 127.655 851.853 133.585 851.78 139.125C851.708 151.084 851.78 163.034 851.753 174.983C844.638 174.992 837.531 174.983 830.425 174.992C830.416 150.468 830.416 125.953 830.425 101.429C837.205 101.429 843.995 101.429 850.785 101.429C850.785 104.643 850.794 107.848 850.739 111.061Z" fill="#929292"/>
<path fill-rule="evenodd" clip-rule="evenodd" d="M960.713 111.07C945.214 95.762 916.752 96.9388 902.594 113.515C890.273 127.728 890.716 151.618 904.504 164.717C915.195 175.019 931.246 177.699 945.459 175.21C953.326 173.924 960.713 170.068 966.09 164.165C964.707 162.669 963.321 161.178 961.935 159.687C959.546 157.119 957.158 154.551 954.792 151.962C947.206 159.24 935.311 160.951 925.742 156.968C920.346 154.741 916.562 149.78 915.078 144.231C927.031 144.202 938.981 144.206 950.932 144.211C957.571 144.213 964.211 144.216 970.852 144.213C972.319 132.417 969.304 119.634 960.713 111.07ZM914.833 131.729C915.838 126.533 918.572 121.445 923.406 118.919C930.413 115.044 940.072 115.696 945.912 121.427C948.845 124.124 950.32 127.945 951.244 131.738C939.104 131.774 926.973 131.774 914.833 131.729Z" fill="#929292"/>
<path fill-rule="evenodd" clip-rule="evenodd" d="M1031.52 100.614C1018.33 99.4014 1004.42 101.864 993.221 109.188C994.541 111.762 995.874 114.331 997.207 116.901C998.433 119.267 999.661 121.634 1000.88 124.007C1005.56 120.603 1011.09 118.449 1016.82 117.67C1022.92 116.919 1029.91 116.937 1034.87 121.137C1038.06 123.69 1038.78 127.918 1039.15 131.747C1035.84 131.893 1032.46 131.835 1029.06 131.776C1018.99 131.602 1008.75 131.424 999.848 136.554C988.957 142.764 987.5 159.367 996.091 168.094C1003.44 175.626 1014.97 177.038 1024.92 175.509C1031.18 174.63 1037.05 171.299 1040.5 165.922C1040.42 168.945 1040.43 171.969 1040.44 174.993C1047.09 174.984 1053.75 174.984 1060.4 174.993C1060.4 169.581 1060.4 164.171 1060.41 158.762C1060.41 150.108 1060.42 141.457 1060.39 132.806C1060.37 125.211 1058.8 117.208 1053.84 111.215C1048.42 104.598 1039.83 101.465 1031.52 100.614ZM1017.63 160.943C1013.35 159.802 1010.35 155.239 1011.52 150.867C1012.21 146.648 1016.78 144.874 1020.53 144.466C1024.44 144.116 1028.37 144.159 1032.3 144.203C1034.56 144.228 1036.82 144.253 1039.07 144.204C1039.02 145.153 1039.05 146.134 1039.09 147.12C1039.18 149.705 1039.27 152.326 1037.75 154.515C1033.68 161.069 1024.68 162.998 1017.63 160.943Z" fill="#929292"/>
<path d="M1109.84 109.785C1122.03 96.5227 1146.93 96.8577 1157.19 112.293C1166.36 100.85 1183.24 97.5185 1196.66 102.57C1204.83 105.666 1210.9 113.171 1212.63 121.699C1214.54 130.371 1213.55 139.315 1213.79 148.124C1213.79 157.077 1213.79 166.03 1213.79 174.993C1206.69 174.993 1199.57 174.984 1192.46 174.993C1192.46 163.631 1192.46 152.279 1192.47 140.918C1192.45 135.26 1192.8 129.05 1189.49 124.134C1184.91 117.29 1174.33 117.344 1168.28 122.07C1163.77 125.718 1162.35 131.802 1162.29 137.36C1162.2 149.898 1162.28 162.445 1162.26 174.993C1155.14 174.993 1148.03 174.984 1140.93 174.993C1140.89 161.83 1140.98 148.658 1140.88 135.504C1140.82 129.964 1139.56 123.364 1134.23 120.495C1127.91 117.236 1118.93 118.53 1114.59 124.46C1111.39 128.597 1110.87 134.065 1110.84 139.125C1110.84 151.075 1110.85 163.034 1110.84 174.993C1103.74 174.984 1096.62 174.993 1089.52 174.993C1089.52 150.469 1089.52 125.953 1089.52 101.429C1096.31 101.429 1103.09 101.429 1109.88 101.429C1109.88 104.218 1109.88 106.997 1109.84 109.785Z" fill="#929292"/>
</svg>
