<svg width="217" height="302" viewBox="0 0 217 302" fill="none" xmlns="http://www.w3.org/2000/svg">
<path fill-rule="evenodd" clip-rule="evenodd" d="M158.802 0.203837C166.549 -0.324655 174.404 0.0863939 181.972 1.89985C188.843 3.52677 195.447 6.42139 201.129 10.6355C205.578 13.9066 209.323 18.1587 211.834 23.0879C215.112 29.3469 216.431 36.4591 216.597 43.4711C216.65 46.684 216.627 49.8969 216.603 53.1099C216.587 55.3028 216.571 57.4956 216.58 59.6885C216.579 61.8119 216.58 63.935 216.581 66.0581V66.0582V66.0584V66.0585C216.584 73.1361 216.586 80.2125 216.528 87.291C216.559 87.7815 216.162 88.2063 215.658 88.1062C206.711 88.1149 197.767 88.114 188.822 88.113H188.822H188.822H188.822C183.711 88.1124 178.6 88.1118 173.489 88.1131C172.566 88.1925 171.589 87.5569 171.437 86.6174C171.343 85.9683 171.355 85.3122 171.367 84.6578C171.372 84.3963 171.377 84.1351 171.375 83.8748C171.372 77.5948 171.372 71.3149 171.373 65.0353C171.373 57.4954 171.374 49.9559 171.368 42.4175C171.378 39.0773 168.18 36.2 164.867 36.4694C161.613 36.5385 158.857 39.5678 158.905 42.7871C158.89 64.8168 158.892 86.8465 158.895 108.875V108.876V108.876V108.876C158.896 122.424 158.897 135.971 158.895 149.518C158.903 151.608 158.898 153.698 158.894 155.788C158.886 159.216 158.879 162.644 158.926 166.071C158.943 169.573 162.415 172.575 165.886 172.053C168.839 171.787 171.368 169.114 171.364 166.129C171.377 158.691 171.375 151.253 171.372 143.816C171.37 136.844 171.368 129.873 171.378 122.9C171.271 121.757 172.304 120.696 173.458 120.842C176.972 120.842 180.487 120.841 184.001 120.841H184.001H184.001H184.002C194.552 120.84 205.102 120.84 215.651 120.845C216.065 120.772 216.576 121.087 216.528 121.553C216.587 132.489 216.587 143.422 216.576 154.358C216.579 155.474 216.592 156.593 216.605 157.712V157.712V157.713V157.713C216.666 163.031 216.727 168.37 215.737 173.615C214.362 181.684 210.59 189.456 204.532 195.041C198.456 200.647 190.843 204.443 182.857 206.468C176.76 208.008 170.449 208.626 164.169 208.537C153.703 208.526 143.061 206.582 133.766 201.618C129.299 199.179 124.995 196.254 121.697 192.33C117.938 187.984 115.489 182.603 114.301 177.007C113.445 173.207 113.217 169.3 113.213 165.418V50.7318C113.219 49.597 113.214 48.4588 113.208 47.3191C113.18 41.4546 113.152 35.5498 114.705 29.8581C116.453 22.967 120.332 16.594 125.869 12.1035C135.147 4.61484 147.026 0.98103 158.802 0.203837ZM2.47508 2.66668C1.32483 2.5596 0.212583 3.57858 0.392201 4.75992C0.392201 24.7637 0.391268 44.7678 0.390336 64.7721C0.38816 111.449 0.385983 158.127 0.395655 204.803C0.347297 205.915 1.45264 206.744 2.50962 206.63C16.3264 206.637 30.1432 206.644 43.9599 206.626C44.9893 206.72 46.0152 205.856 45.9807 204.803C45.9893 194.782 45.9876 184.761 45.9858 174.739C45.9841 164.718 45.9824 154.696 45.991 144.675C45.839 143.57 46.63 142.413 47.7976 142.399C50.3266 142.38 52.8556 142.383 55.3855 142.387C56.8742 142.389 58.3632 142.391 59.8527 142.389C64.2982 142.396 68.7231 141.608 72.9544 140.268C79.8732 138.016 86.5467 134.389 91.3273 128.793C95.6692 123.826 98.3704 117.598 99.7555 111.187C101.208 104.864 101.169 98.3878 101.129 91.9343V91.934V91.9337V91.9334V91.9331C101.119 90.2853 101.109 88.6391 101.123 86.9974V47.9615C101.075 41.1049 100.205 34.2346 98.1977 27.6681C98.1007 27.2334 97.9354 26.8219 97.7703 26.4112C97.559 25.8854 97.3483 25.361 97.2823 24.7908C96.8338 24.2186 96.5178 23.5677 96.2017 22.9164L96.2016 22.9163C95.8822 22.2585 95.5627 21.6003 95.1062 21.0223C91.3135 14.86 85.5381 10.0414 78.9578 7.09495C72.7748 4.23833 65.9908 2.52851 59.1549 2.66322C49.7077 2.66668 40.2614 2.66581 30.815 2.66495C21.3687 2.66409 11.9223 2.66322 2.47508 2.66668ZM46.2812 40.01C46.2224 39.174 46.6508 38.2311 47.5039 37.9858C48.4871 37.8045 49.491 37.8276 50.4946 37.8508C51.0777 37.8643 51.6608 37.8778 52.2396 37.8511C54.6645 37.7337 57.1964 38.9392 58.3743 41.1084C58.9695 42.1987 58.9556 43.4502 58.942 44.67V44.6702V44.6704V44.6705V44.6707C58.9387 44.9656 58.9354 45.2586 58.9408 45.547C58.9366 52.6831 58.938 59.8192 58.9394 66.9551V66.9619V66.962V66.9622V66.9623C58.9415 77.6644 58.9435 88.366 58.927 99.0663C58.9995 100.811 58.2499 102.597 56.7059 103.498C54.8092 104.606 52.6221 104.563 50.4733 104.522C49.781 104.509 49.0927 104.495 48.4193 104.52C47.3071 104.628 46.2052 103.716 46.2915 102.562C46.2849 92.6316 46.2862 82.7021 46.2875 72.773V72.7728V72.7726V72.7724V72.7722C46.2888 61.8511 46.2902 50.9306 46.2812 40.01ZM198.031 223.745C192.594 221.873 186.687 221.621 181.029 222.478C175.699 223.31 170.535 225.604 166.601 229.338C162.981 232.823 160.529 237.476 159.637 242.419C159.074 245.096 159.091 247.824 159.107 250.549V250.549V250.55C159.112 251.298 159.116 252.045 159.109 252.792C159.109 255.326 159.109 257.86 159.11 260.394V260.469C159.11 265.513 159.111 270.556 159.109 275.6C159.109 278.405 159.544 281.199 160.321 283.89C162.069 289.762 166.114 294.964 171.527 297.883C177.724 301.392 185.133 302.118 192.103 301.285C198.469 300.543 204.725 297.658 208.874 292.684C212.932 287.987 214.569 281.662 214.67 275.562C214.683 270.495 214.694 265.427 214.666 260.363C214.725 259.576 214 258.937 213.24 259.013C207.221 259.005 201.2 259.007 195.181 259.008H195.18H195.179C192.771 259.009 190.363 259.009 187.955 259.009C187.157 258.926 186.228 259.503 186.328 260.391C186.299 262.383 186.306 264.376 186.312 266.37V266.371V266.371L186.315 267.2C186.316 267.589 186.317 267.978 186.318 268.367C186.228 269.144 186.867 269.987 187.692 269.921C189.703 269.949 191.715 269.941 193.726 269.932H193.729C196.433 269.921 199.136 269.909 201.837 269.987C201.921 271.543 201.911 273.103 201.9 274.663C201.894 275.548 201.888 276.433 201.9 277.317C201.958 280.474 201.088 283.779 198.898 286.135C196.825 288.494 193.799 289.866 190.718 290.277C186.494 290.854 181.955 290.349 178.311 288C175.63 286.204 173.458 283.524 172.608 280.38C171.932 278.077 171.954 275.683 171.976 273.301C171.983 272.565 171.99 271.83 171.976 271.099V250.73L171.974 250.445C171.956 247.678 171.938 244.836 172.94 242.212C174.473 237.459 179.002 233.984 183.903 233.334C187.278 232.916 190.815 233.089 193.989 234.398C197.015 235.725 199.499 238.26 200.818 241.286C201.644 243.172 201.896 245.251 201.91 247.3C201.824 248.056 202.38 248.854 203.202 248.802C205.7 248.831 208.201 248.824 210.703 248.818C211.536 248.816 212.369 248.813 213.202 248.813C213.886 248.844 214.715 248.391 214.666 247.614C214.815 243.724 214.158 239.769 212.459 236.25C209.678 230.284 204.2 225.849 198.031 223.745ZM0.340388 224.82C0.288575 224.067 0.540731 222.944 1.48027 222.941C3.29306 222.898 5.10694 222.904 6.92129 222.911C8.33249 222.916 9.74398 222.921 11.1555 222.903C11.2347 222.904 11.3161 222.904 11.399 222.904C12.1219 222.904 12.9526 222.904 13.3523 223.607C16.0261 227.645 18.6925 231.689 21.3589 235.732L21.3609 235.735L21.3664 235.744C24.7394 240.859 28.1125 245.974 31.5007 251.078C31.701 251.597 32.3297 251.562 32.5024 251.058C35.8481 245.993 39.1904 240.927 42.5326 235.86L42.5337 235.859L42.5689 235.805C45.1255 231.93 47.6819 228.055 50.2397 224.181C50.2692 224.138 50.299 224.094 50.3292 224.05C50.6994 223.508 51.1359 222.87 51.8735 222.93C54.367 222.903 56.8641 222.908 59.361 222.913H59.3644H59.3645C60.3356 222.915 61.3067 222.916 62.2775 222.916C63.0616 222.882 63.7456 223.645 63.6419 224.429C63.6471 236.808 63.6463 249.186 63.6454 261.564V261.588C63.6445 273.974 63.6437 286.36 63.6488 298.746C63.6972 299.517 63.5245 300.608 62.5573 300.677C60.391 300.74 58.2233 300.731 56.055 300.721C54.7868 300.715 53.5184 300.71 52.25 300.719C51.5039 300.788 50.6991 300.207 50.7405 299.416C50.7326 289.818 50.7338 280.218 50.7349 270.618V270.606C50.7357 263.404 50.7366 256.201 50.7336 248.999C50.732 248.744 50.7359 248.489 50.7399 248.233C50.7526 247.404 50.7654 246.572 50.5885 245.759C50.0198 246.081 49.6852 246.637 49.3546 247.186C49.2274 247.398 49.1008 247.608 48.9616 247.804C46.6178 251.422 44.2643 255.033 41.9108 258.644L41.9099 258.646C40.039 261.516 38.1681 264.387 36.302 267.261C35.9462 267.849 35.3901 268.415 34.6405 268.36C32.9065 268.394 31.1691 268.394 29.4351 268.363C28.6993 268.405 28.1605 267.835 27.7874 267.282C25.2031 263.305 22.5854 259.351 19.9675 255.396C18.6315 253.377 17.2954 251.359 15.9637 249.338C15.6943 248.947 15.4406 248.546 15.1869 248.144C14.6795 247.341 14.1721 246.538 13.5389 245.825C13.3178 246.274 13.2211 246.75 13.2487 247.255C13.2598 258.36 13.2581 269.466 13.2563 280.573C13.2554 286.743 13.2544 292.914 13.2556 299.085C13.4076 299.917 12.7237 300.798 11.8498 300.715C8.49919 300.722 5.14863 300.722 1.79806 300.715C0.903422 300.809 0.240217 299.921 0.350751 299.081C0.344171 287.294 0.345425 275.507 0.346678 263.719C0.348056 250.752 0.349435 237.785 0.340388 224.82ZM105.13 223.455C105.426 222.923 106.092 222.915 106.645 222.909C106.706 222.908 106.765 222.907 106.823 222.906C109.257 222.917 111.692 222.915 114.127 222.913C116.188 222.912 118.248 222.91 120.308 222.916C121.02 222.861 121.538 223.514 121.714 224.143C125.858 237.057 130.023 249.965 134.188 262.873C137.722 273.826 141.256 284.778 144.777 295.734C144.916 296.237 145.092 296.731 145.269 297.225L145.269 297.225C145.619 298.207 145.969 299.188 146.024 300.239C145.367 300.76 144.549 300.743 143.753 300.725C143.532 300.72 143.312 300.715 143.099 300.722C140.097 300.715 137.095 300.719 134.094 300.726C133.417 300.746 132.529 300.615 132.325 299.848C131.682 298.013 131.126 296.148 130.571 294.283L130.57 294.283C129.866 291.918 129.161 289.554 128.28 287.254C122.136 287.245 115.993 287.246 109.851 287.247H109.793C106.272 287.248 102.751 287.249 99.2305 287.247C98.7642 287.227 98.1252 287.227 98.0595 287.828C97.484 289.63 96.9313 291.44 96.3788 293.25L96.3781 293.252C95.7171 295.417 95.0563 297.581 94.3566 299.731C94.1666 300.473 93.3929 300.798 92.6883 300.719C91.2876 300.711 89.8869 300.715 88.4866 300.719H88.4763C86.1954 300.726 83.9155 300.733 81.6383 300.688C80.8507 300.684 80.419 299.838 80.754 299.168C85.6174 283.959 90.5012 268.757 95.3849 253.554L95.3874 253.546L95.3946 253.524C98.2843 244.528 101.174 235.533 104.059 226.536C104.163 226.226 104.257 225.913 104.351 225.599C104.57 224.868 104.789 224.137 105.13 223.455ZM104.885 265.462L104.882 265.47C103.927 268.602 102.972 271.735 102.018 274.867C101.967 275.053 101.906 275.239 101.844 275.425C101.661 275.975 101.476 276.532 101.569 277.123C104.77 277.151 107.972 277.147 111.173 277.143L111.22 277.143C113.205 277.141 115.19 277.139 117.175 277.144C118.176 277.107 119.182 277.126 120.187 277.145C121.839 277.176 123.491 277.207 125.123 276.992C124.072 273.568 123.025 270.143 121.979 266.717L121.979 266.716L121.978 266.713C119.116 257.345 116.255 247.976 113.286 238.643C113.04 238.947 112.857 239.286 112.733 239.659C110.128 248.263 107.507 256.862 104.885 265.462Z" fill="#929292"/>
<path fill-rule="evenodd" clip-rule="evenodd" d="M158.802 0.203837C166.549 -0.324655 174.404 0.0863939 181.972 1.89985C188.843 3.52677 195.447 6.42139 201.129 10.6355C205.578 13.9066 209.323 18.1587 211.834 23.0879C215.112 29.3469 216.431 36.4591 216.597 43.4711C216.65 46.684 216.627 49.8969 216.603 53.1099C216.587 55.3028 216.571 57.4956 216.58 59.6885C216.579 61.8119 216.58 63.935 216.581 66.0581V66.0582V66.0584V66.0585C216.584 73.1361 216.586 80.2125 216.528 87.291C216.559 87.7815 216.162 88.2063 215.658 88.1062C206.711 88.1149 197.767 88.114 188.822 88.113H188.822H188.822H188.822C183.711 88.1124 178.6 88.1118 173.489 88.1131C172.566 88.1925 171.589 87.5569 171.437 86.6174C171.343 85.9683 171.355 85.3122 171.367 84.6578C171.372 84.3963 171.377 84.1351 171.375 83.8748C171.372 77.5948 171.372 71.3149 171.373 65.0353C171.373 57.4954 171.374 49.9559 171.368 42.4175C171.378 39.0773 168.18 36.2 164.867 36.4694C161.613 36.5385 158.857 39.5678 158.905 42.7871C158.89 64.8168 158.892 86.8465 158.895 108.875V108.876V108.876V108.876C158.896 122.424 158.897 135.971 158.895 149.518C158.903 151.608 158.898 153.698 158.894 155.788C158.886 159.216 158.879 162.644 158.926 166.071C158.943 169.573 162.415 172.575 165.886 172.053C168.839 171.787 171.368 169.114 171.364 166.129C171.377 158.691 171.375 151.253 171.372 143.816C171.37 136.844 171.368 129.873 171.378 122.9C171.271 121.757 172.304 120.696 173.458 120.842C176.972 120.842 180.487 120.841 184.001 120.841H184.001H184.001H184.002C194.552 120.84 205.102 120.84 215.651 120.845C216.065 120.772 216.576 121.087 216.528 121.553C216.587 132.489 216.587 143.422 216.576 154.358C216.579 155.474 216.592 156.593 216.605 157.712V157.712V157.713V157.713C216.666 163.031 216.727 168.37 215.737 173.615C214.362 181.684 210.59 189.456 204.532 195.041C198.456 200.647 190.843 204.443 182.857 206.468C176.76 208.008 170.449 208.626 164.169 208.537C153.703 208.526 143.061 206.582 133.766 201.618C129.299 199.179 124.995 196.254 121.697 192.33C117.938 187.984 115.489 182.603 114.301 177.007C113.445 173.207 113.217 169.3 113.213 165.418V50.7318C113.219 49.597 113.214 48.4588 113.208 47.3191C113.18 41.4546 113.152 35.5498 114.705 29.8581C116.453 22.967 120.332 16.594 125.869 12.1035C135.147 4.61484 147.026 0.98103 158.802 0.203837ZM2.47508 2.66668C1.32483 2.5596 0.212583 3.57858 0.392201 4.75992C0.392201 24.7637 0.391268 44.7678 0.390336 64.7721C0.38816 111.449 0.385983 158.127 0.395655 204.803C0.347297 205.915 1.45264 206.744 2.50962 206.63C16.3264 206.637 30.1432 206.644 43.9599 206.626C44.9893 206.72 46.0152 205.856 45.9807 204.803C45.9893 194.782 45.9876 184.761 45.9858 174.739C45.9841 164.718 45.9824 154.696 45.991 144.675C45.839 143.57 46.63 142.413 47.7976 142.399C50.3266 142.38 52.8556 142.383 55.3855 142.387C56.8742 142.389 58.3632 142.391 59.8527 142.389C64.2982 142.396 68.7231 141.608 72.9544 140.268C79.8732 138.016 86.5467 134.389 91.3273 128.793C95.6692 123.826 98.3704 117.598 99.7555 111.187C101.208 104.864 101.169 98.3878 101.129 91.9343V91.934V91.9337V91.9334V91.9331C101.119 90.2853 101.109 88.6391 101.123 86.9974V47.9615C101.075 41.1049 100.205 34.2346 98.1977 27.6681C98.1007 27.2334 97.9354 26.8219 97.7703 26.4112C97.559 25.8854 97.3483 25.361 97.2823 24.7908C96.8338 24.2186 96.5178 23.5677 96.2017 22.9164L96.2016 22.9163C95.8822 22.2585 95.5627 21.6003 95.1062 21.0223C91.3135 14.86 85.5381 10.0414 78.9578 7.09495C72.7748 4.23833 65.9908 2.52851 59.1549 2.66322C49.7077 2.66668 40.2614 2.66581 30.815 2.66495C21.3687 2.66409 11.9223 2.66322 2.47508 2.66668ZM46.2812 40.01C46.2224 39.174 46.6508 38.2311 47.5039 37.9858C48.4871 37.8045 49.491 37.8276 50.4946 37.8508C51.0777 37.8643 51.6608 37.8778 52.2396 37.8511C54.6645 37.7337 57.1964 38.9392 58.3743 41.1084C58.9695 42.1987 58.9556 43.4502 58.942 44.67V44.6702V44.6704V44.6705V44.6707C58.9387 44.9656 58.9354 45.2586 58.9408 45.547C58.9366 52.6831 58.938 59.8192 58.9394 66.9551V66.9619V66.962V66.9622V66.9623C58.9415 77.6644 58.9435 88.366 58.927 99.0663C58.9995 100.811 58.2499 102.597 56.7059 103.498C54.8092 104.606 52.6221 104.563 50.4733 104.522C49.781 104.509 49.0927 104.495 48.4193 104.52C47.3071 104.628 46.2052 103.716 46.2915 102.562C46.2849 92.6316 46.2862 82.7021 46.2875 72.773V72.7728V72.7726V72.7724V72.7722C46.2888 61.8511 46.2902 50.9306 46.2812 40.01ZM198.031 223.745C192.594 221.873 186.687 221.621 181.029 222.478C175.699 223.31 170.535 225.604 166.601 229.338C162.981 232.823 160.529 237.476 159.637 242.419C159.074 245.096 159.091 247.824 159.107 250.549V250.549V250.55C159.112 251.298 159.116 252.045 159.109 252.792C159.109 255.326 159.109 257.86 159.11 260.394V260.469C159.11 265.513 159.111 270.556 159.109 275.6C159.109 278.405 159.544 281.199 160.321 283.89C162.069 289.762 166.114 294.964 171.527 297.883C177.724 301.392 185.133 302.118 192.103 301.285C198.469 300.543 204.725 297.658 208.874 292.684C212.932 287.987 214.569 281.662 214.67 275.562C214.683 270.495 214.694 265.427 214.666 260.363C214.725 259.576 214 258.937 213.24 259.013C207.221 259.005 201.2 259.007 195.181 259.008H195.18H195.179C192.771 259.009 190.363 259.009 187.955 259.009C187.157 258.926 186.228 259.503 186.328 260.391C186.299 262.383 186.306 264.376 186.312 266.37V266.371V266.371L186.315 267.2C186.316 267.589 186.317 267.978 186.318 268.367C186.228 269.144 186.867 269.987 187.692 269.921C189.703 269.949 191.715 269.941 193.726 269.932H193.729C196.433 269.921 199.136 269.909 201.837 269.987C201.921 271.543 201.911 273.103 201.9 274.663C201.894 275.548 201.888 276.433 201.9 277.317C201.958 280.474 201.088 283.779 198.898 286.135C196.825 288.494 193.799 289.866 190.718 290.277C186.494 290.854 181.955 290.349 178.311 288C175.63 286.204 173.458 283.524 172.608 280.38C171.932 278.077 171.954 275.683 171.976 273.301C171.983 272.565 171.99 271.83 171.976 271.099V250.73L171.974 250.445C171.956 247.678 171.938 244.836 172.94 242.212C174.473 237.459 179.002 233.984 183.903 233.334C187.278 232.916 190.815 233.089 193.989 234.398C197.015 235.725 199.499 238.26 200.818 241.286C201.644 243.172 201.896 245.251 201.91 247.3C201.824 248.056 202.38 248.854 203.202 248.802C205.7 248.831 208.201 248.824 210.703 248.818C211.536 248.816 212.369 248.813 213.202 248.813C213.886 248.844 214.715 248.391 214.666 247.614C214.815 243.724 214.158 239.769 212.459 236.25C209.678 230.284 204.2 225.849 198.031 223.745ZM0.340388 224.82C0.288575 224.067 0.540731 222.944 1.48027 222.941C3.29306 222.898 5.10694 222.904 6.92129 222.911C8.33249 222.916 9.74398 222.921 11.1555 222.903C11.2347 222.904 11.3161 222.904 11.399 222.904C12.1219 222.904 12.9526 222.904 13.3523 223.607C16.0261 227.645 18.6925 231.689 21.3589 235.732L21.3609 235.735L21.3664 235.744C24.7394 240.859 28.1125 245.974 31.5007 251.078C31.701 251.597 32.3297 251.562 32.5024 251.058C35.8481 245.993 39.1904 240.927 42.5326 235.86L42.5337 235.859L42.5689 235.805C45.1255 231.93 47.6819 228.055 50.2397 224.181C50.2692 224.138 50.299 224.094 50.3292 224.05C50.6994 223.508 51.1359 222.87 51.8735 222.93C54.367 222.903 56.8641 222.908 59.361 222.913H59.3644H59.3645C60.3356 222.915 61.3067 222.916 62.2775 222.916C63.0616 222.882 63.7456 223.645 63.6419 224.429C63.6471 236.808 63.6463 249.186 63.6454 261.564V261.588C63.6445 273.974 63.6437 286.36 63.6488 298.746C63.6972 299.517 63.5245 300.608 62.5573 300.677C60.391 300.74 58.2233 300.731 56.055 300.721C54.7868 300.715 53.5184 300.71 52.25 300.719C51.5039 300.788 50.6991 300.207 50.7405 299.416C50.7326 289.818 50.7338 280.218 50.7349 270.618V270.606C50.7357 263.404 50.7366 256.201 50.7336 248.999C50.732 248.744 50.7359 248.489 50.7399 248.233C50.7526 247.404 50.7654 246.572 50.5885 245.759C50.0198 246.081 49.6852 246.637 49.3546 247.186C49.2274 247.398 49.1008 247.608 48.9616 247.804C46.6178 251.422 44.2643 255.033 41.9108 258.644L41.9099 258.646C40.039 261.516 38.1681 264.387 36.302 267.261C35.9462 267.849 35.3901 268.415 34.6405 268.36C32.9065 268.394 31.1691 268.394 29.4351 268.363C28.6993 268.405 28.1605 267.835 27.7874 267.282C25.2031 263.305 22.5854 259.351 19.9675 255.396C18.6315 253.377 17.2954 251.359 15.9637 249.338C15.6943 248.947 15.4406 248.546 15.1869 248.144C14.6795 247.341 14.1721 246.538 13.5389 245.825C13.3178 246.274 13.2211 246.75 13.2487 247.255C13.2598 258.36 13.2581 269.466 13.2563 280.573C13.2554 286.743 13.2544 292.914 13.2556 299.085C13.4076 299.917 12.7237 300.798 11.8498 300.715C8.49919 300.722 5.14863 300.722 1.79806 300.715C0.903422 300.809 0.240217 299.921 0.350751 299.081C0.344171 287.294 0.345425 275.507 0.346678 263.719C0.348056 250.752 0.349435 237.785 0.340388 224.82ZM105.13 223.455C105.426 222.923 106.092 222.915 106.645 222.909C106.706 222.908 106.765 222.907 106.823 222.906C109.257 222.917 111.692 222.915 114.127 222.913C116.188 222.912 118.248 222.91 120.308 222.916C121.02 222.861 121.538 223.514 121.714 224.143C125.858 237.057 130.023 249.965 134.188 262.873C137.722 273.826 141.256 284.778 144.777 295.734C144.916 296.237 145.092 296.731 145.269 297.225L145.269 297.225C145.619 298.207 145.969 299.188 146.024 300.239C145.367 300.76 144.549 300.743 143.753 300.725C143.532 300.72 143.312 300.715 143.099 300.722C140.097 300.715 137.095 300.719 134.094 300.726C133.417 300.746 132.529 300.615 132.325 299.848C131.682 298.013 131.126 296.148 130.571 294.283L130.57 294.283C129.866 291.918 129.161 289.554 128.28 287.254C122.136 287.245 115.993 287.246 109.851 287.247H109.793C106.272 287.248 102.751 287.249 99.2305 287.247C98.7642 287.227 98.1252 287.227 98.0595 287.828C97.484 289.63 96.9313 291.44 96.3788 293.25L96.3781 293.252C95.7171 295.417 95.0563 297.581 94.3566 299.731C94.1666 300.473 93.3929 300.798 92.6883 300.719C91.2876 300.711 89.8869 300.715 88.4866 300.719H88.4763C86.1954 300.726 83.9155 300.733 81.6383 300.688C80.8507 300.684 80.419 299.838 80.754 299.168C85.6174 283.959 90.5012 268.757 95.3849 253.554L95.3874 253.546L95.3946 253.524C98.2843 244.528 101.174 235.533 104.059 226.536C104.163 226.226 104.257 225.913 104.351 225.599C104.57 224.868 104.789 224.137 105.13 223.455ZM104.885 265.462L104.882 265.47C103.927 268.602 102.972 271.735 102.018 274.867C101.967 275.053 101.906 275.239 101.844 275.425C101.661 275.975 101.476 276.532 101.569 277.123C104.77 277.151 107.972 277.147 111.173 277.143L111.22 277.143C113.205 277.141 115.19 277.139 117.175 277.144C118.176 277.107 119.182 277.126 120.187 277.145C121.839 277.176 123.491 277.207 125.123 276.992C124.072 273.568 123.025 270.143 121.979 266.717L121.979 266.716L121.978 266.713C119.116 257.345 116.255 247.976 113.286 238.643C113.04 238.947 112.857 239.286 112.733 239.659C110.128 248.263 107.507 256.862 104.885 265.462Z" fill="#929292"/>
</svg>
