<?xml version="1.0" encoding="UTF-8"?>
<svg width="271px" height="49px" viewBox="0 0 271 49" version="1.1" xmlns="http://www.w3.org/2000/svg" xmlns:xlink="http://www.w3.org/1999/xlink">
    <title>Techstars</title>
    <defs>
        <path d="M433.54889,26.0889702 L442.766804,26.0889702 L442.766804,34.3210106 L449.372154,34.3210106 L449.372154,40.8770668 L442.766804,40.8770668 L442.766804,54.3835284 C442.766804,57.2425604 443.65409,57.7847906 446.75959,57.7847906 L449.372154,57.7847906 L449.372154,64.4394341 L443.506209,64.4394341 C436.062867,64.4394341 433.54889,62.9606244 433.54889,56.010219 L433.54889,40.8770668 L428.816699,40.8770668 L428.816699,34.3210106 L433.54889,34.3210106 L433.54889,26.0889702 L433.54889,26.0889702 Z M472.096529,54.9750522 C471.012068,56.7496238 468.843148,57.9819652 465.343298,57.9819652 C461.843449,57.9819652 458.688655,56.010219 458.392893,51.721671 L480.722919,51.721671 C481.363736,40.9756541 475.251323,33.4337248 465.244711,33.4337248 C455.238099,33.4337248 449.125685,39.5954318 449.125685,49.2076946 C449.125685,58.8199574 455.829623,65.1788389 465.63906,65.1788389 C475.448497,65.1788389 477.962474,62.1226323 480.673625,54.9750522 L472.145823,54.9750522 L472.096529,54.9750522 Z M465.244711,40.4827176 C468.793854,40.4827176 471.406418,42.3558765 471.554299,46.1514879 L458.540774,46.1514879 C459.03371,42.1587018 461.942036,40.4827176 465.244711,40.4827176 Z M497.482761,33.4337248 C488.363435,33.4337248 482.103141,39.6447254 482.103141,49.2076946 C482.103141,58.7706637 487.574737,65.1788389 497.482761,65.1788389 C507.390786,65.1788389 510.742755,62.3691005 512.813088,53.3976553 L504.186699,53.3976553 C503.496587,56.2566873 501.426254,58.0312589 498.024992,58.0312589 C494.623729,58.0312589 491.468935,55.862338 491.468935,49.3062819 C491.468935,42.7502257 494.722317,40.6305985 498.024992,40.6305985 C501.327667,40.6305985 502.954357,41.8629399 503.792349,45.4120831 L512.418739,45.4120831 C510.644167,36.2927569 503.743056,33.4830185 497.482761,33.4830185 L497.482761,33.4337248 Z M523.115462,23.8707557 L513.897549,23.8707557 L513.897549,64.4394341 L523.115462,64.4394341 L523.115462,49.0105199 C523.115462,43.3910432 524.791446,40.8277731 528.784233,40.8277731 C532.777019,40.8277731 533.368542,44.3276227 533.368542,48.6654643 L533.368542,64.4394341 L542.586456,64.4394341 L542.586456,46.3486625 C542.586456,38.2152094 540.171067,33.6308995 532.481257,33.6308995 C524.791446,33.6308995 524.495685,36.0462886 523.115462,38.2645031 L523.115462,23.821462 L523.115462,23.8707557 Z M572.409118,43.1445749 C571.22607,36.2434632 565.015069,33.5323122 558.113957,33.5323122 C551.212846,33.5323122 544.361028,36.8349871 544.361028,42.7995194 C544.361028,48.7640517 548.353814,51.0808535 554.170465,52.0174329 L559.543473,52.9047187 C563.043323,53.4962426 564.226371,54.3342347 564.226371,55.7144571 C564.226371,57.0946794 561.958863,58.3763145 558.606894,58.3763145 C555.254925,58.3763145 553.086005,57.4890287 552.297306,54.580703 L543.72021,54.580703 C544.804671,61.6789894 550.473441,65.0802516 558.508307,65.0802516 C566.543173,65.0802516 573.049935,61.6789894 573.049935,54.8764649 C573.049935,48.0739405 569.599379,47.433123 562.353212,46.1021943 L556.733735,45.1163212 C554.121171,44.6233846 553.036711,43.8346861 553.036711,42.4051701 C553.036711,40.9756541 554.663402,40.1869556 557.867489,40.1869556 C561.071577,40.1869556 563.14191,40.8277731 563.733434,43.0952813 L572.359824,43.0952813 L572.409118,43.1445749 Z M577.880713,34.3210106 L573.148522,34.3210106 L573.148522,40.8770668 L577.880713,40.8770668 L577.880713,56.010219 C577.880713,63.0099181 580.39469,64.4394341 587.838032,64.4394341 L593.703977,64.4394341 L593.703977,57.7847906 L591.091413,57.7847906 C587.985913,57.7847906 587.098627,57.2425604 587.098627,54.3835284 L587.098627,40.8770668 L593.703977,40.8770668 L593.703977,34.3210106 L587.098627,34.3210106 L587.098627,26.0889702 L577.880713,26.0889702 L577.880713,34.3210106 L577.880713,34.3210106 Z M614.752367,45.6092577 C603.069771,46.4965435 594.739143,48.9119326 594.739143,56.3059809 C594.739143,63.7000292 599.422041,65.1295452 605.140105,65.1295452 C610.858169,65.1295452 613.02709,63.9464975 615.245304,60.7424099 L615.343891,64.3901404 L624.413924,64.3901404 C623.970281,62.5662752 623.723813,58.9678383 623.723813,55.6651634 L623.723813,52.5103695 L623.8224,45.9543133 C623.970281,36.8349871 619.090209,33.2858439 610.414526,33.2858439 C601.738842,33.2858439 596.070072,38.3137967 595.626429,43.9825671 L604.252819,43.9825671 C604.647168,41.0742414 606.668208,39.5461381 609.625827,39.5461381 C612.583447,39.5461381 614.703074,40.7784795 614.703074,44.3769163 L614.703074,45.5599641 L614.752367,45.6092577 Z M614.998836,51.7709646 C614.998836,57.291854 612.189097,58.869251 608.492073,58.869251 C604.795049,58.869251 604.252819,57.587616 604.252819,55.6158698 C604.252819,52.3131948 608.590661,51.6230837 614.998836,51.0315598 L614.998836,51.7709646 L614.998836,51.7709646 Z M644.920085,34.123836 C644.673616,34.123836 644.427148,34.0745424 644.18068,34.0745424 L643.490569,34.0745424 C639.202021,34.2224233 636.688044,36.4406378 635.258528,39.989781 L635.258528,34.271717 L626.38567,34.271717 L626.38567,64.3901404 L635.603584,64.3901404 L635.603584,49.2569882 C635.603584,44.574091 637.871092,42.9474003 642.356815,42.9474003 C643.194807,42.9474003 644.032799,42.9474003 644.870791,43.0952813 L644.870791,34.0745424 L644.920085,34.123836 Z M674.003341,43.1445749 C672.820294,36.2434632 666.609293,33.5323122 659.757475,33.5323122 C652.905657,33.5323122 646.004545,36.8349871 646.004545,42.7995194 C646.004545,48.7640517 649.948037,51.0808535 655.764689,52.0174329 L661.137697,52.9047187 C664.637547,53.4962426 665.820594,54.3342347 665.820594,55.7144571 C665.820594,57.0946794 663.553086,58.3763145 660.201118,58.3763145 C656.849149,58.3763145 654.680228,57.4890287 653.89153,54.580703 L645.314434,54.580703 C646.398894,61.6789894 652.067665,65.0802516 660.10253,65.0802516 C668.137396,65.0802516 674.644159,61.6789894 674.644159,54.8764649 C674.644159,48.0739405 671.193603,47.433123 663.947436,46.1021943 L658.327959,45.1163212 C655.715395,44.6233846 654.630935,43.8346861 654.630935,42.4051701 C654.630935,40.9756541 656.257625,40.1869556 659.461713,40.1869556 C662.665801,40.1869556 664.736134,40.8277731 665.327658,43.0952813 L673.954048,43.0952813 L674.003341,43.1445749 Z M699.438867,72.178538 L699.438867,64.3901404 L674.545571,64.3901404 L674.545571,72.178538 L699.438867,72.178538 Z" id="path-1"></path>
    </defs>
    <g id="Page-1" stroke="none" stroke-width="1" fill="none" fill-rule="evenodd">
        <g id="Press-Social" transform="translate(-428.7768, -23.5)" fill="#929292" fill-rule="nonzero">
            <g id="Techstars">
                <use xlink:href="#path-1"></use>
                <use xlink:href="#path-1"></use>
            </g>
        </g>
    </g>
</svg>