<svg width="672" height="187" viewBox="0 0 672 187" fill="none" xmlns="http://www.w3.org/2000/svg">
<path fill-rule="evenodd" clip-rule="evenodd" d="M241.18 0.696777V148.675H277.619V92.6835C277.619 84.8112 282.192 76.9762 290.967 76.9762C299.587 76.9762 303.393 84.6942 303.393 92.6835V148.675H339.566V83.7959C339.566 60.1883 326.575 43.6674 304.401 43.6674C286.274 43.6674 277.619 55.7116 277.619 55.7116V0.696777H241.18ZM117.562 97.3744C117.562 70.5705 136.535 43.6547 166.546 43.6547C185.678 43.6547 194.343 55.3562 194.343 55.3562V46.0242H229.182V148.676H194.343V138.9C194.343 138.9 186.576 151.45 165.977 151.45C138.363 151.45 117.562 127.537 117.562 97.3744ZM194.95 97.4872C194.95 87.6003 187.805 76.643 173.957 76.643C160.948 76.643 152.913 86.1687 152.913 97.9403C152.913 109.548 162.903 118.581 173.957 118.581C187.295 118.581 194.95 108.134 194.95 97.4872ZM0.375977 46.0236H40.3199L63.5787 105.529L87.1394 46.0236H126.031L67.4687 186.892H28.3303L44.3609 149.564L0.375977 46.0236ZM346.859 97.8015C346.859 69.8011 367.324 43.6669 401.693 43.6669C429.877 43.6669 456.682 62.9734 456.682 98.3361C456.682 130.655 431.081 151.45 401.823 151.45C371.638 151.45 346.859 129.666 346.859 97.8015ZM422.562 97.8396C422.562 87.0567 414.162 76.9451 402.021 76.9451C388.898 76.9451 381.63 86.8565 381.63 97.739C381.63 109.036 390.372 118.38 402.021 118.38C414.734 118.38 422.562 107.037 422.562 97.8396ZM517.388 43.6669C483.019 43.6669 462.554 69.8011 462.554 97.8015C462.554 129.666 487.332 151.45 517.518 151.45C546.775 151.45 572.376 130.655 572.376 98.3361C572.376 62.9734 545.571 43.6669 517.388 43.6669ZM517.716 76.9451C529.856 76.9451 538.256 87.0567 538.256 97.8396C538.256 107.037 530.429 118.38 517.716 118.38C506.067 118.38 497.325 109.036 497.325 97.739C497.325 86.8565 504.593 76.9451 517.716 76.9451ZM625.326 126.658C625.326 140.021 614.493 150.855 601.129 150.855C587.766 150.855 576.932 140.021 576.932 126.658C576.932 113.294 587.766 102.461 601.129 102.461C614.493 102.461 625.326 113.294 625.326 126.658ZM589.716 93.5723H633.277L671.776 0.696777H628.378L589.716 93.5723Z" fill="#929292"/>
<path fill-rule="evenodd" clip-rule="evenodd" d="M241.18 0.696777V148.675H277.619V92.6835C277.619 84.8112 282.192 76.9762 290.967 76.9762C299.587 76.9762 303.393 84.6942 303.393 92.6835V148.675H339.566V83.7959C339.566 60.1883 326.575 43.6674 304.401 43.6674C286.274 43.6674 277.619 55.7116 277.619 55.7116V0.696777H241.18ZM117.562 97.3744C117.562 70.5705 136.535 43.6547 166.546 43.6547C185.678 43.6547 194.343 55.3562 194.343 55.3562V46.0242H229.182V148.676H194.343V138.9C194.343 138.9 186.576 151.45 165.977 151.45C138.363 151.45 117.562 127.537 117.562 97.3744ZM194.95 97.4872C194.95 87.6003 187.805 76.643 173.957 76.643C160.948 76.643 152.913 86.1687 152.913 97.9403C152.913 109.548 162.903 118.581 173.957 118.581C187.295 118.581 194.95 108.134 194.95 97.4872ZM0.375977 46.0236H40.3199L63.5787 105.529L87.1394 46.0236H126.031L67.4687 186.892H28.3303L44.3609 149.564L0.375977 46.0236ZM346.859 97.8015C346.859 69.8011 367.324 43.6669 401.693 43.6669C429.877 43.6669 456.682 62.9734 456.682 98.3361C456.682 130.655 431.081 151.45 401.823 151.45C371.638 151.45 346.859 129.666 346.859 97.8015ZM422.562 97.8396C422.562 87.0567 414.162 76.9451 402.021 76.9451C388.898 76.9451 381.63 86.8565 381.63 97.739C381.63 109.036 390.372 118.38 402.021 118.38C414.734 118.38 422.562 107.037 422.562 97.8396ZM517.388 43.6669C483.019 43.6669 462.554 69.8011 462.554 97.8015C462.554 129.666 487.332 151.45 517.518 151.45C546.775 151.45 572.376 130.655 572.376 98.3361C572.376 62.9734 545.571 43.6669 517.388 43.6669ZM517.716 76.9451C529.856 76.9451 538.256 87.0567 538.256 97.8396C538.256 107.037 530.429 118.38 517.716 118.38C506.067 118.38 497.325 109.036 497.325 97.739C497.325 86.8565 504.593 76.9451 517.716 76.9451ZM625.326 126.658C625.326 140.021 614.493 150.855 601.129 150.855C587.766 150.855 576.932 140.021 576.932 126.658C576.932 113.294 587.766 102.461 601.129 102.461C614.493 102.461 625.326 113.294 625.326 126.658ZM589.716 93.5723H633.277L671.776 0.696777H628.378L589.716 93.5723Z" fill="#929292"/>
</svg>
