<svg id="Apple_Logo" data-name="Apple Logo" xmlns="http://www.w3.org/2000/svg" width="24.298" height="29.5" viewBox="0 0 24.298 29.5">
  <path id="Path" d="M20.293,8.572a6.684,6.684,0,0,1,3.232-5.624A6.969,6.969,0,0,0,18.051.024c-2.3-.238-4.535,1.361-5.708,1.361-1.2,0-3-1.337-4.948-1.3a7.3,7.3,0,0,0-6.136,3.7c-2.651,4.535-.673,11.2,1.868,14.868,1.271,1.8,2.756,3.8,4.7,3.73,1.9-.078,2.613-1.2,4.909-1.2,2.274,0,2.942,1.2,4.925,1.153,2.041-.033,3.327-1.8,4.554-3.616a14.8,14.8,0,0,0,2.083-4.19A6.478,6.478,0,0,1,20.293,8.572Z" transform="translate(0 7.117)" fill="#fff"/>
  <path id="Path-2" data-name="Path" d="M4.451,4.729A6.547,6.547,0,0,0,5.98,0a6.825,6.825,0,0,0-4.4,2.249A6.226,6.226,0,0,0,.014,6.8,5.647,5.647,0,0,0,4.451,4.729Z" transform="translate(12.095)" fill="#fff"/>
</svg>
