<svg width="77" height="12" viewBox="0 0 77 12" fill="none" xmlns="http://www.w3.org/2000/svg">
<path d="M4.75835 9.39463C6.07138 9.39463 7.1093 8.95695 7.82209 8.51928C8.28478 8.24417 8.49736 7.85651 8.49736 7.29378V5.16792C8.49736 4.63021 8.07219 4.20503 7.53447 4.20503H5.33359C4.8709 4.20503 4.49575 4.58019 4.49575 5.04287C4.49575 5.50556 4.8709 5.86821 5.33359 5.86821H6.63411V7.11871C6.14641 7.46885 5.52116 7.64392 4.82088 7.64392C3.27025 7.64392 2.16981 6.46845 2.16981 4.8678V4.84279C2.16981 3.35469 3.28276 2.11669 4.68332 2.11669C5.50866 2.11669 6.07138 2.34178 6.5966 2.71693C6.73415 2.81697 6.90922 2.91701 7.18433 2.91701C7.70954 2.91701 8.13472 2.49184 8.13472 1.96663C8.13472 1.59148 7.92213 1.32887 7.73455 1.19132C6.94674 0.641094 6.07138 0.340973 4.74585 0.340973C2.09478 0.340973 0.156494 2.3793 0.156494 4.8678V4.89281C0.156494 7.48136 2.03225 9.39463 4.75835 9.39463Z" fill="white"/>
<path fill-rule="evenodd" clip-rule="evenodd" d="M15.9004 8.01907C15.9004 8.26917 15.7878 8.45675 15.6503 8.5818C15.0625 9.082 14.2997 9.39463 13.3243 9.39463C11.311 9.39463 9.82291 7.98156 9.82291 5.93073V5.90572C9.82291 3.99245 11.186 2.41681 13.1367 2.41681C15.3751 2.41681 16.363 4.25505 16.363 5.64311C16.363 6.19333 15.9754 6.55598 15.4752 6.55598H11.7112C11.8987 7.41883 12.499 7.86901 13.3493 7.86901C13.8745 7.86901 14.3122 7.70645 14.6999 7.41883C14.8374 7.31879 14.9625 7.26877 15.1626 7.26877C15.5877 7.26877 15.9004 7.5939 15.9004 8.01907ZM13.1367 3.94243C12.3489 3.94243 11.8362 4.50515 11.6862 5.368H14.5498C14.4373 4.51766 13.9371 3.94243 13.1367 3.94243Z" fill="white"/>
<path d="M20.077 9.35714C20.4897 9.35714 20.8148 9.30712 21.165 9.16956C21.4276 9.06952 21.6527 8.79441 21.6527 8.45677C21.6527 8.0191 21.29 7.66896 20.8648 7.66896C20.8273 7.66896 20.7023 7.68146 20.6398 7.68146C20.2146 7.68146 20.027 7.46887 20.027 7.0312V4.16754H20.8648C21.315 4.16754 21.6777 3.80489 21.6777 3.35471C21.6777 2.90453 21.315 2.54188 20.8648 2.54188H20.027V1.70405C20.027 1.17883 19.6018 0.753662 19.0766 0.753662C18.5514 0.753662 18.1262 1.17883 18.1262 1.70405V2.54188H18.0637C17.6135 2.54188 17.2509 2.90453 17.2509 3.35471C17.2509 3.80489 17.6135 4.16754 18.0637 4.16754H18.1262V7.34382C18.1262 8.89445 18.9141 9.35714 20.077 9.35714Z" fill="white"/>
<path d="M29.0182 9.35714C29.4308 9.35714 29.756 9.30712 30.1061 9.16956C30.3687 9.06952 30.5938 8.79441 30.5938 8.45677C30.5938 8.0191 30.2311 7.66896 29.806 7.66896C29.7685 7.66896 29.6434 7.68146 29.5809 7.68146C29.1557 7.68146 28.9681 7.46887 28.9681 7.0312V4.16754H29.806C30.2562 4.16754 30.6188 3.80489 30.6188 3.35471C30.6188 2.90453 30.2562 2.54188 29.806 2.54188H28.9681V1.70405C28.9681 1.17883 28.543 0.753662 28.0178 0.753662C27.4925 0.753662 27.0674 1.17883 27.0674 1.70405V2.54188H27.0048C26.5547 2.54188 26.192 2.90453 26.192 3.35471C26.192 3.80489 26.5547 4.16754 27.0048 4.16754H27.0674V7.34382C27.0674 8.89445 27.8552 9.35714 29.0182 9.35714Z" fill="white"/>
<path d="M31.9443 8.36923C31.9443 8.89444 32.3695 9.31961 32.8947 9.31961C33.4199 9.31961 33.8451 8.89444 33.8451 8.36923V5.50557C33.8451 4.60521 34.3078 4.14252 35.0331 4.14252C35.7584 4.14252 36.1835 4.60521 36.1835 5.50557V8.36923C36.1835 8.89444 36.6087 9.31961 37.1339 9.31961C37.6591 9.31961 38.0843 8.89444 38.0843 8.36923V4.90533C38.0843 3.36721 37.2465 2.41682 35.8084 2.41682C34.8455 2.41682 34.2828 2.92953 33.8451 3.49226V0.991247C33.8451 0.466035 33.4199 0.040863 32.8947 0.040863C32.3695 0.040863 31.9443 0.466035 31.9443 0.991247V8.36923Z" fill="white"/>
<path fill-rule="evenodd" clip-rule="evenodd" d="M45.4873 8.01907C45.4873 8.26917 45.3748 8.45675 45.2372 8.5818C44.6495 9.082 43.8867 9.39463 42.9113 9.39463C40.898 9.39463 39.4099 7.98156 39.4099 5.93073V5.90572C39.4099 3.99245 40.7729 2.41681 42.7237 2.41681C44.9621 2.41681 45.95 4.25505 45.95 5.64311C45.95 6.19333 45.5623 6.55598 45.0621 6.55598H41.2981C41.4857 7.41883 42.0859 7.86901 42.9363 7.86901C43.4615 7.86901 43.8992 7.70645 44.2868 7.41883C44.4244 7.31879 44.5494 7.26877 44.7495 7.26877C45.1747 7.26877 45.4873 7.5939 45.4873 8.01907ZM42.7237 3.94243C41.9359 3.94243 41.4232 4.50515 41.2731 5.368H44.1368C44.0242 4.51766 43.524 3.94243 42.7237 3.94243Z" fill="white"/>
<path fill-rule="evenodd" clip-rule="evenodd" d="M51.6398 9.31961C51.1396 9.31961 50.7519 8.91945 50.7519 8.41924C50.7519 8.28169 50.8019 8.14413 50.8645 8.00658L53.9157 1.11629C54.1283 0.641101 54.5159 0.353485 55.0412 0.353485H55.1537C55.6789 0.353485 56.0541 0.641101 56.2667 1.11629L59.3179 8.00658C59.3804 8.14413 59.4179 8.26918 59.4179 8.39423C59.4179 8.90694 59.0178 9.31961 58.5051 9.31961C58.0549 9.31961 57.7548 9.057 57.5797 8.65684L56.9919 7.28128H53.1404L52.5276 8.71936C52.3651 9.09452 52.0399 9.31961 51.6398 9.31961ZM55.0662 2.69193L53.8532 5.5806H56.2792L55.0662 2.69193Z" fill="white"/>
<path fill-rule="evenodd" clip-rule="evenodd" d="M61.6813 11.3204C61.1561 11.3204 60.731 10.8952 60.731 10.37V3.41721C60.731 2.892 61.1561 2.46683 61.6813 2.46683C62.2066 2.46683 62.6317 2.892 62.6317 3.41721V3.50475C63.0944 2.8795 63.7322 2.41681 64.7201 2.41681C66.2832 2.41681 67.7713 3.6423 67.7713 5.88071V5.90572C67.7713 8.14412 66.3082 9.36962 64.7201 9.36962C63.7072 9.36962 63.0819 8.90693 62.6317 8.36921V10.37C62.6317 10.8952 62.2066 11.3204 61.6813 11.3204ZM62.6067 5.90572C62.6067 7.01867 63.3445 7.75647 64.2324 7.75647C65.1202 7.75647 65.8705 7.03117 65.8705 5.90572V5.88071C65.8705 4.76776 65.1202 4.02996 64.2324 4.02996C63.3445 4.02996 62.6067 4.76776 62.6067 5.88071V5.90572Z" fill="white"/>
<path fill-rule="evenodd" clip-rule="evenodd" d="M70.1223 11.3204C69.597 11.3204 69.1719 10.8952 69.1719 10.37V3.41721C69.1719 2.892 69.597 2.46683 70.1223 2.46683C70.6475 2.46683 71.0726 2.892 71.0726 3.41721V3.50475C71.5353 2.8795 72.1731 2.41681 73.161 2.41681C74.7241 2.41681 76.2122 3.6423 76.2122 5.88071V5.90572C76.2122 8.14412 74.7491 9.36962 73.161 9.36962C72.1481 9.36962 71.5228 8.90693 71.0726 8.36921V10.37C71.0726 10.8952 70.6475 11.3204 70.1223 11.3204ZM71.0476 5.90572C71.0476 7.01867 71.7854 7.75647 72.6733 7.75647C73.5611 7.75647 74.3115 7.03117 74.3115 5.90572V5.88071C74.3115 4.76776 73.5611 4.02996 72.6733 4.02996C71.7854 4.02996 71.0476 4.76776 71.0476 5.88071V5.90572Z" fill="white"/>
</svg>
