<?xml version="1.0" encoding="UTF-8"?>
<svg width="106px" height="14px" viewBox="0 0 106 14" version="1.1" xmlns="http://www.w3.org/2000/svg" xmlns:xlink="http://www.w3.org/1999/xlink">
    <title>TM</title>
    <g id="Page-1" stroke="none" stroke-width="1" fill="none" fill-rule="evenodd">
        <g id="iPhone-14-Pro-Max-|-Potrait-" transform="translate(-157, -1672)" fill-rule="nonzero">
            <g id="Footer" transform="translate(-68.9, 1193.9)">
                <g id="TM" transform="translate(226.4997, 478.983)">
                    <g id="2024-Inpathy" transform="translate(16.1968, 0.5319)" fill="#828282">
                        <path d="M0,9.00265957 C0,9.48138298 0.372340426,9.77393617 0.877659574,9.77393617 L6.15691489,9.77393617 C6.55585106,9.77393617 6.875,9.45478723 6.875,9.05585106 C6.875,8.65691489 6.55585106,8.33776596 6.15691489,8.33776596 L2.38031915,8.33776596 L4.29521277,6.74202128 C5.94414894,5.39893617 6.71542553,4.60106383 6.71542553,3.13829787 L6.71542553,3.11170213 C6.71542553,1.44946809 5.46542553,0.332446809 3.64361702,0.332446809 C2.18085106,0.332446809 1.31648936,0.890957447 0.558510638,1.83510638 C0.438829787,1.98138298 0.372340426,2.16755319 0.372340426,2.34042553 C0.372340426,2.75265957 0.704787234,3.08510638 1.11702128,3.08510638 C1.38297872,3.08510638 1.56914894,2.96542553 1.68882979,2.83244681 C2.2606383,2.14095745 2.77925532,1.79521277 3.52393617,1.79521277 C4.375,1.79521277 5.02659574,2.32712766 5.02659574,3.24468085 C5.02659574,4.08244681 4.56117021,4.68085106 3.28457447,5.75797872 L0.425531915,8.19148936 C0.146276596,8.41755319 0,8.68351064 0,9.00265957 Z" id="Path"></path>
                        <path d="M12.3803191,9.93351064 C14.8271277,9.93351064 16.4494681,7.77925532 16.4494681,5.11968085 L16.4494681,5.09308511 C16.4494681,2.43351064 14.8404255,0.305851064 12.4069149,0.305851064 C9.96010638,0.305851064 8.33776596,2.46010638 8.33776596,5.11968085 L8.33776596,5.1462766 C8.33776596,7.80585106 9.93351064,9.93351064 12.3803191,9.93351064 Z M12.4069149,8.45744681 C10.9574468,8.45744681 10.0265957,6.95478723 10.0265957,5.11968085 L10.0265957,5.09308511 C10.0265957,3.24468085 10.9441489,1.78191489 12.3803191,1.78191489 C13.8164894,1.78191489 14.7606383,3.28457447 14.7606383,5.11968085 L14.7606383,5.1462766 C14.7606383,6.96808511 13.856383,8.45744681 12.4069149,8.45744681 Z" id="Shape"></path>
                        <path d="M17.7792553,9.00265957 C17.7792553,9.48138298 18.1515957,9.77393617 18.6569149,9.77393617 L23.9361702,9.77393617 C24.3351064,9.77393617 24.6542553,9.45478723 24.6542553,9.05585106 C24.6542553,8.65691489 24.3351064,8.33776596 23.9361702,8.33776596 L20.1595745,8.33776596 L22.0744681,6.74202128 C23.7234043,5.39893617 24.4946809,4.60106383 24.4946809,3.13829787 L24.4946809,3.11170213 C24.4946809,1.44946809 23.2446809,0.332446809 21.4228723,0.332446809 C19.9601064,0.332446809 19.0957447,0.890957447 18.337766,1.83510638 C18.2180851,1.98138298 18.1515957,2.16755319 18.1515957,2.34042553 C18.1515957,2.75265957 18.4840426,3.08510638 18.8962766,3.08510638 C19.162234,3.08510638 19.3484043,2.96542553 19.4680851,2.83244681 C20.0398936,2.14095745 20.5585106,1.79521277 21.3031915,1.79521277 C22.1542553,1.79521277 22.8058511,2.32712766 22.8058511,3.24468085 C22.8058511,4.08244681 22.3404255,4.68085106 21.0638298,5.75797872 L18.2047872,8.19148936 C17.9255319,8.41755319 17.7792553,8.68351064 17.7792553,9.00265957 Z" id="Path"></path>
                        <g id="5" transform="translate(26.1748, 0.4561)">
                            <path d="M3.3117,9.4696 C5.3067,9.4696 6.7165,8.2061 6.7165,6.3175 L6.7165,6.2909 C6.7165,4.3225 5.2934,3.3649 3.4713,3.3649 C2.8462,3.3649 2.4339,3.4713 1.995,3.6309 L2.1413,1.4497 L5.6392,1.4497 C6.0382,1.4497 6.3707,1.1305 6.3707,0.7315 C6.3707,0.3325 6.0382,0 5.6392,0 L1.4231,0 C1.0241,0 0.7049,0.3059 0.6783,0.7315 L0.4788,4.0831 C0.4655,4.389 0.5586,4.6284 0.798,4.8013 C1.1172,5.0274 1.3167,5.1205 1.5694,5.1205 C1.8221,5.1205 2.261,4.8013 3.1654,4.8013 C4.2959,4.8013 5.0939,5.3865 5.0939,6.3441 L5.0939,6.3707 C5.0939,7.3549 4.3358,7.98 3.2851,7.98 C2.5536,7.98 1.9019,7.714 1.2635,7.1953 C1.1305,7.0889 0.9842,7.0357 0.7847,7.0357 C0.3591,7.0357 0,7.3948 0,7.8204 C0,8.0864 0.133,8.2992 0.3325,8.4588 C1.0906,9.044 2.0482,9.4696 3.3117,9.4696 Z" id="Path"></path>
                        </g>
                        <path d="M39.7074468,9.02925532 C39.7074468,9.48138298 40.0664894,9.84042553 40.5319149,9.84042553 C40.9840426,9.84042553 41.3430851,9.48138298 41.3430851,9.02925532 L41.3430851,1.21010638 C41.3430851,0.757978723 40.9840426,0.39893617 40.5319149,0.39893617 C40.0664894,0.39893617 39.7074468,0.757978723 39.7074468,1.21010638 L39.7074468,9.02925532 Z" id="Path"></path>
                        <path d="M43.643617,9.04255319 C43.643617,9.49468085 44.0026596,9.84042553 44.4414894,9.84042553 C44.893617,9.84042553 45.2526596,9.49468085 45.2526596,9.04255319 L45.2526596,5.81117021 C45.2526596,4.72074468 45.9042553,4.06914894 46.8351064,4.06914894 C47.7925532,4.06914894 48.337766,4.69414894 48.337766,5.78457447 L48.337766,9.04255319 C48.337766,9.49468085 48.6968085,9.84042553 49.1489362,9.84042553 C49.6010638,9.84042553 49.9468085,9.49468085 49.9468085,9.04255319 L49.9468085,5.29255319 C49.9468085,3.67021277 49.0292553,2.60638298 47.4468085,2.60638298 C46.356383,2.60638298 45.7047872,3.17819149 45.2526596,3.82978723 L45.2526596,3.48404255 C45.2526596,3.03191489 44.893617,2.67287234 44.4414894,2.67287234 C43.9893617,2.67287234 43.643617,3.03191489 43.643617,3.48404255 L43.643617,9.04255319 Z" id="Path"></path>
                        <path d="M51.8882979,11.1702128 C51.8882979,11.6223404 52.2473404,11.9680851 52.6861702,11.9680851 C53.1382979,11.9680851 53.4973404,11.6223404 53.4973404,11.1702128 L53.4973404,8.68351064 C53.9893617,9.33510638 54.7207447,9.92021277 55.8909574,9.92021277 C57.5531915,9.92021277 59.1489362,8.6037234 59.1489362,6.27659574 L59.1489362,6.25 C59.1489362,3.90957447 57.5398936,2.60638298 55.8909574,2.60638298 C54.7473404,2.60638298 54.0159574,3.19148936 53.4973404,3.92287234 L53.4973404,3.48404255 C53.4973404,3.03191489 53.1382979,2.67287234 52.6861702,2.67287234 C52.2340426,2.67287234 51.8882979,3.03191489 51.8882979,3.48404255 L51.8882979,11.1702128 Z M55.5053191,8.52393617 C54.4148936,8.52393617 53.4574468,7.61968085 53.4574468,6.27659574 L53.4574468,6.25 C53.4574468,4.90691489 54.4148936,4.00265957 55.5053191,4.00265957 C56.5957447,4.00265957 57.5132979,4.89361702 57.5132979,6.25 L57.5132979,6.27659574 C57.5132979,7.65957447 56.6090426,8.52393617 55.5053191,8.52393617 Z" id="Shape"></path>
                        <path d="M62.8324468,9.92021277 C63.9095745,9.92021277 64.6409574,9.46808511 65.1196809,8.8962766 L65.1196809,9.16223404 C65.1196809,9.5212766 65.4388298,9.84042553 65.9042553,9.84042553 C66.3430851,9.84042553 66.6888298,9.50797872 66.6888298,9.06914894 L66.6888298,5.61170213 C66.6888298,4.69414894 66.4494681,3.94946809 65.9308511,3.44414894 C65.4388298,2.93882979 64.6542553,2.65957447 63.6037234,2.65957447 C62.6861702,2.65957447 62.0079787,2.81914894 61.3430851,3.07180851 C61.1037234,3.16489362 60.9042553,3.41755319 60.9042553,3.71010638 C60.9042553,4.08244681 61.2101064,4.375 61.5824468,4.375 C61.662234,4.375 61.7420213,4.36170213 61.8351064,4.33510638 C62.2739362,4.16223404 62.7792553,4.05585106 63.3909574,4.05585106 C64.5212766,4.05585106 65.1329787,4.58776596 65.1329787,5.58510638 L65.1329787,5.75797872 C64.587766,5.58510638 64.0292553,5.46542553 63.2446809,5.46542553 C61.5292553,5.46542553 60.3457447,6.21010638 60.3457447,7.72606383 L60.3457447,7.75265957 C60.3457447,9.16223404 61.5159574,9.92021277 62.8324468,9.92021277 Z M63.2845745,8.75 C62.5132979,8.75 61.9148936,8.3643617 61.9148936,7.68617021 L61.9148936,7.65957447 C61.9148936,6.92819149 62.5265957,6.4893617 63.5638298,6.4893617 C64.2021277,6.4893617 64.7473404,6.60904255 65.1595745,6.76861702 L65.1595745,7.24734043 C65.1595745,8.13829787 64.3484043,8.75 63.2845745,8.75 Z" id="Shape"></path>
                        <path d="M70.9707447,9.89361702 C71.3962766,9.89361702 71.7287234,9.82712766 72.0744681,9.70744681 C72.3005319,9.6143617 72.5,9.375 72.5,9.08244681 C72.5,8.71010638 72.1808511,8.41755319 71.8218085,8.41755319 C71.768617,8.41755319 71.6090426,8.45744681 71.4228723,8.45744681 C70.8776596,8.45744681 70.5585106,8.20478723 70.5585106,7.57978723 L70.5585106,4.1356383 L71.8218085,4.1356383 C72.2074468,4.1356383 72.5265957,3.82978723 72.5265957,3.44414894 C72.5265957,3.05851064 72.2074468,2.75265957 71.8218085,2.75265957 L70.5585106,2.75265957 L70.5585106,1.55585106 C70.5585106,1.11702128 70.1994681,0.757978723 69.7606383,0.757978723 C69.3085106,0.757978723 68.9494681,1.11702128 68.9494681,1.55585106 L68.9494681,2.75265957 L68.6835106,2.75265957 C68.2978723,2.75265957 67.9920213,3.05851064 67.9920213,3.44414894 C67.9920213,3.82978723 68.2978723,4.1356383 68.6835106,4.1356383 L68.9494681,4.1356383 L68.9494681,7.83244681 C68.9494681,9.375 69.787234,9.89361702 70.9707447,9.89361702 Z" id="Path"></path>
                        <path d="M74.0824468,9.04255319 C74.0824468,9.49468085 74.4414894,9.84042553 74.8803191,9.84042553 C75.3324468,9.84042553 75.6914894,9.49468085 75.6914894,9.04255319 L75.6914894,5.81117021 C75.6914894,4.72074468 76.3430851,4.06914894 77.2739362,4.06914894 C78.231383,4.06914894 78.7765957,4.69414894 78.7765957,5.78457447 L78.7765957,9.04255319 C78.7765957,9.49468085 79.1356383,9.84042553 79.587766,9.84042553 C80.0398936,9.84042553 80.3856383,9.49468085 80.3856383,9.04255319 L80.3856383,5.29255319 C80.3856383,3.67021277 79.4680851,2.60638298 77.8856383,2.60638298 C76.7952128,2.60638298 76.143617,3.17819149 75.6914894,3.82978723 L75.6914894,0.79787234 C75.6914894,0.359042553 75.3324468,0 74.8803191,0 C74.4281915,0 74.0824468,0.359042553 74.0824468,0.79787234 L74.0824468,9.04255319 Z" id="Path"></path>
                        <path d="M83.6037234,11.9414894 C84.7340426,11.9414894 85.3723404,11.4095745 85.9707447,9.97340426 L88.537234,3.81648936 C88.5638298,3.73670213 88.6037234,3.56382979 88.6037234,3.43085106 C88.6037234,3.00531915 88.2579787,2.67287234 87.8324468,2.67287234 C87.4202128,2.67287234 87.1941489,2.95212766 87.0611702,3.28457447 L85.3058511,7.95212766 L83.4175532,3.28457447 C83.2712766,2.91223404 83.0452128,2.67287234 82.6329787,2.67287234 C82.1808511,2.67287234 81.8351064,3.00531915 81.8351064,3.45744681 C81.8351064,3.56382979 81.875,3.72340426 81.9281915,3.84308511 L84.5345745,9.66755319 L84.481383,9.81382979 C84.2154255,10.3590426 83.962766,10.5585106 83.4840426,10.5585106 C83.2579787,10.5585106 83.1117021,10.518617 82.9255319,10.4654255 C82.8457447,10.4388298 82.7659574,10.412234 82.6329787,10.412234 C82.287234,10.412234 81.981383,10.6781915 81.981383,11.0771277 C81.981383,11.462766 82.2473404,11.662234 82.4867021,11.7420213 C82.8191489,11.875 83.1515957,11.9414894 83.6037234,11.9414894 Z" id="Path"></path>
                    </g>
                    <g id="®" fill="#878787">
                        <path d="M5.78457447,11.6356383 C9.00930851,11.6356383 11.5691489,8.97606383 11.5691489,5.81781915 L11.5691489,5.78457447 C11.5691489,2.62632979 9.04255319,0 5.78457447,0 C2.55984043,0 0,2.65957447 0,5.81781915 L0,5.85106383 C0,9.00930851 2.52659574,11.6356383 5.78457447,11.6356383 Z M5.78457447,11.0039894 C2.85904255,11.0039894 0.664893617,8.6768617 0.664893617,5.85106383 L0.664893617,5.81781915 C0.664893617,2.99202128 2.89228723,0.631648936 5.78457447,0.631648936 C8.71010638,0.631648936 10.9042553,2.9587766 10.9042553,5.78457447 L10.9042553,5.81781915 C10.9042553,8.64361702 8.6768617,11.0039894 5.78457447,11.0039894 Z M3.25797872,8.04521277 C3.25797872,8.5106383 3.65691489,8.90957447 4.12234043,8.90957447 C4.58776596,8.90957447 4.98670213,8.5106383 4.98670213,8.04521277 L4.98670213,6.9481383 L5.78457447,6.9481383 L7.08111702,8.57712766 C7.24734043,8.77659574 7.44680851,8.90957447 7.74601064,8.90957447 C8.21143617,8.90957447 8.61037234,8.54388298 8.61037234,8.07845745 C8.61037234,7.84574468 8.54388298,7.67952128 8.37765957,7.48005319 L7.61303191,6.58244681 C8.31117021,6.25 8.74335106,5.61835106 8.74335106,4.75398936 C8.74335106,3.32446809 7.71276596,2.65957447 6.18351064,2.65957447 L4.12234043,2.65957447 C3.65691489,2.65957447 3.25797872,3.05851064 3.25797872,3.52393617 L3.25797872,8.04521277 Z M4.98670213,5.58510638 L4.98670213,4.12234043 L6.0837766,4.12234043 C6.68218085,4.12234043 7.01462766,4.38829787 7.01462766,4.8537234 C7.01462766,5.28590426 6.68218085,5.58510638 6.0837766,5.58510638 L4.98670213,5.58510638 Z" id="Shape"></path>
                    </g>
                </g>
            </g>
        </g>
    </g>
</svg>