<svg width="390" height="380" viewBox="0 0 390 380" fill="none" xmlns="http://www.w3.org/2000/svg">
<g id="IG">
<path id="Shape" fill-rule="evenodd" clip-rule="evenodd" d="M116.047 5.22463C136.1 4.33008 142.511 4.10645 193.5 4.10645C244.489 4.10645 250.9 4.33008 271.027 5.15009C291.08 6.04464 304.722 9.25011 316.65 13.8719C328.95 18.7174 339.461 25.1284 349.897 35.5648C360.333 46.0012 366.819 56.4376 371.59 68.8122C376.212 80.8141 379.417 94.4559 380.312 114.434C381.206 134.487 381.43 140.823 381.43 191.887C381.43 242.951 381.206 249.288 380.312 269.34C379.417 289.393 376.212 303.035 371.59 314.962C366.744 327.262 360.333 337.773 349.897 348.21C339.461 358.646 329.024 365.132 316.65 369.903C304.648 374.524 291.006 377.73 271.027 378.625C250.975 379.519 244.638 379.743 193.574 379.743C142.511 379.743 136.174 379.519 116.121 378.625C96.0685 377.73 82.4266 374.524 70.4993 369.903C58.1992 365.057 47.6883 358.646 37.2519 348.21C26.8155 337.773 20.33 327.337 15.559 314.962C10.9372 302.961 7.73173 289.319 6.83718 269.34C5.94263 249.288 5.71899 242.877 5.71899 191.887C5.71899 140.898 5.94263 134.487 6.83718 114.509C7.73173 94.4559 10.9372 80.8141 15.559 68.8867C20.4045 56.5867 26.8155 46.0757 37.2519 35.6393C47.6883 25.2029 58.1247 18.7174 70.4993 13.9465C82.4266 9.32465 96.0685 6.11918 116.047 5.22463ZM269.387 39.0684C249.558 38.1739 243.669 37.9502 193.5 37.9502C143.331 37.9502 137.441 38.0993 117.612 39.0684C99.274 39.8884 89.3594 43.0194 82.7248 45.5539C73.9284 48.9085 67.6665 53.0085 61.1065 59.5685C54.5465 66.1285 50.521 72.3904 47.0919 81.1868C44.4828 87.8214 41.4264 97.736 40.6064 116.074C39.7119 135.903 39.4882 141.793 39.4882 191.962C39.4882 242.131 39.7119 248.02 40.6064 267.849C41.4264 286.188 44.5574 296.102 47.0919 302.737C50.4465 311.533 54.5465 317.795 61.1065 324.355C67.6665 330.915 73.9284 334.941 82.7248 338.37C89.3594 340.979 99.274 344.035 117.612 344.855C137.441 345.75 143.331 345.973 193.5 345.973C243.669 345.973 249.558 345.75 269.387 344.855C287.726 344.035 297.64 340.904 304.275 338.37C313.071 335.015 319.333 330.915 325.893 324.355C332.453 317.795 336.479 311.533 339.908 302.737C342.517 296.102 345.573 286.188 346.393 267.849C347.288 248.02 347.511 242.131 347.511 191.962C347.511 141.793 347.288 135.903 346.393 116.074C345.573 97.736 342.442 87.8214 339.908 81.1868C336.553 72.3904 332.453 66.1285 325.893 59.5685C319.333 53.0085 313.071 48.983 304.275 45.5539C297.64 42.9448 287.726 39.8884 269.387 39.0684Z" fill="#A8A6A6"/>
<path id="Shape_2" fill-rule="evenodd" clip-rule="evenodd" d="M97.0377 191.887C97.0377 138.587 140.274 95.4248 193.5 95.4248C246.726 95.4248 289.962 138.661 289.962 191.887C289.962 245.113 246.726 288.349 193.5 288.349C140.274 288.349 97.0377 245.187 97.0377 191.887ZM130.881 191.887C130.881 226.476 158.911 254.506 193.5 254.506C228.089 254.506 256.118 226.476 256.118 191.887C256.118 157.298 228.089 129.269 193.5 129.269C158.911 129.269 130.881 157.298 130.881 191.887Z" fill="#A8A6A6"/>
<circle id="Oval" cx="293.764" cy="91.6242" r="22.5128" fill="#A8A6A6"/>
</g>
</svg>
