<svg version="1.2" xmlns="http://www.w3.org/2000/svg" viewBox="0 0 390 380" width="390" height="380">
	<title>IG-svg</title>
	<style>
		.s0 { fill: #a8a6a6 } 
	</style>
	<filter id="f0">
		<feFlood flood-color="#ffb5a7" flood-opacity="1" />
		<feBlend mode="normal" in2="SourceGraphic"/>
		<feComposite in2="SourceAlpha" operator="in" />
	</filter>
	<g id="IG" filter="url(#f0)">
		<path id="Shape" fill-rule="evenodd" class="s0" d="m116 5.2c-19.9 0.9-33.6 4.1-45.5 8.7-12.4 4.8-22.8 11.3-33.2 21.7-10.5 10.5-16.9 21-21.7 33.3-4.7 11.9-7.9 25.6-8.8 45.6-0.9 20-1.1 26.4-1.1 77.4 0 51 0.2 57.4 1.1 77.4 0.9 20 4.1 33.7 8.8 45.7 4.7 12.3 11.2 22.8 21.7 33.2 10.4 10.4 20.9 16.9 33.2 21.7 11.9 4.6 25.6 7.8 45.6 8.7 20.1 0.9 26.4 1.1 77.5 1.1 51 0 57.4-0.2 77.4-1.1 20-0.9 33.6-4.1 45.6-8.7 12.4-4.8 22.9-11.3 33.3-21.7 10.4-10.4 16.8-20.9 21.7-33.2 4.6-12 7.8-25.6 8.7-45.7 0.9-20 1.1-26.3 1.1-77.4 0-51.1-0.2-57.4-1.1-77.5-0.9-19.9-4.1-33.6-8.7-45.6-4.8-12.4-11.3-22.8-21.7-33.2-10.4-10.5-21-16.9-33.3-21.7-11.9-4.6-25.5-7.9-45.6-8.7-20.1-0.9-26.5-1.1-77.5-1.1-51 0-57.4 0.2-77.5 1.1zm153.4 33.9c18.3 0.8 28.2 3.8 34.9 6.5 8.8 3.4 15 7.4 21.6 14 6.6 6.5 10.7 12.8 14 21.6 2.5 6.6 5.7 16.5 6.5 34.9 0.9 19.8 1.1 25.7 1.1 75.9 0 50.1-0.2 56-1.1 75.8-0.8 18.4-3.9 28.3-6.5 34.9-3.4 8.8-7.4 15.1-14 21.7-6.6 6.5-12.8 10.6-21.6 14-6.7 2.5-16.6 5.6-34.9 6.5-19.8 0.9-25.7 1.1-75.9 1.1-50.2 0-56.1-0.2-75.9-1.1-18.3-0.9-28.2-3.9-34.9-6.5-8.8-3.5-15-7.5-21.6-14-6.6-6.6-10.7-12.9-14-21.7-2.5-6.6-5.7-16.5-6.5-34.9-0.9-19.8-1.1-25.7-1.1-75.8 0-50.2 0.2-56.1 1.1-75.9 0.8-18.4 3.9-28.3 6.5-34.9 3.4-8.8 7.4-15.1 14-21.6 6.6-6.6 12.8-10.7 21.6-14 6.7-2.6 16.6-5.7 34.9-6.5 19.8-1 25.7-1.1 75.9-1.1 50.2 0 56.1 0.2 75.9 1.1z"/>
		<path id="Shape_2" fill-rule="evenodd" class="s0" d="m97 191.9c0 53.3 43.3 96.4 96.5 96.4 53.2 0 96.5-43.2 96.5-96.4 0-53.2-43.3-96.5-96.5-96.5-53.2 0-96.5 43.2-96.5 96.5zm33.9 0c0-34.6 28-62.6 62.6-62.6 34.6 0 62.6 28 62.6 62.6 0 34.6-28 62.6-62.6 62.6-34.6 0-62.6-28-62.6-62.6z"/>
		<path id="Oval" class="s0" d="m293.8 114.1c-12.5 0-22.5-10-22.5-22.5 0-12.4 10-22.5 22.5-22.5 12.4 0 22.5 10.1 22.5 22.5 0 12.5-10.1 22.5-22.5 22.5z"/>
	</g>
</svg>