<svg width="34" height="38" viewBox="0 0 34 38" fill="none" xmlns="http://www.w3.org/2000/svg">
<path id="TikTok" d="M29.4728 8.43795C29.2192 8.30688 28.9724 8.16321 28.7331 8.00747C28.0375 7.5476 27.3998 7.00574 26.8336 6.39355C25.4169 4.7726 24.8878 3.12816 24.6929 1.97683H24.7007C24.5379 1.02116 24.6052 0.402832 24.6154 0.402832H18.1629V25.3535C18.1629 25.6885 18.1629 26.0196 18.1488 26.3467C18.1488 26.3874 18.1449 26.425 18.1425 26.4688C18.1425 26.4868 18.1425 26.5056 18.1386 26.5244C18.1386 26.5291 18.1386 26.5338 18.1386 26.5385C18.0005 28.3564 16.9672 29.9865 15.382 30.8871C14.5684 31.35 13.6482 31.5927 12.7122 31.5915C9.70591 31.5915 7.26939 29.1401 7.26939 26.1127C7.26939 23.0852 9.70591 20.6338 12.7122 20.6338C13.2813 20.6333 13.8469 20.7229 14.388 20.8992L14.3958 14.3293C11.075 13.9003 7.72609 14.88 5.16004 17.0311C4.04788 17.9974 3.11289 19.1504 2.39714 20.4382C2.12476 20.9078 1.09708 22.7949 0.972636 25.8575C0.894367 27.5959 1.41642 29.3969 1.66532 30.1412V30.1569C1.82186 30.5952 2.42844 32.0909 3.41698 33.3518C4.2141 34.3633 5.15588 35.2518 6.21198 35.9887V35.973L6.22763 35.9887C9.35135 38.1114 12.8148 37.972 12.8148 37.972C13.4143 37.9478 15.4227 37.972 17.7035 36.8911C20.2331 35.6928 21.6733 33.9075 21.6733 33.9075C22.5933 32.8408 23.3249 31.6251 23.8366 30.3126C24.4205 28.7778 24.6154 26.9369 24.6154 26.2011V12.9643C24.6937 13.0112 25.7362 13.7008 25.7362 13.7008C25.7362 13.7008 27.2382 14.6635 29.5816 15.2904C31.2628 15.7365 33.5279 15.8305 33.5279 15.8305V9.42492C32.7343 9.51102 31.1227 9.26055 29.4728 8.43795Z" fill="#929292"/>
</svg>
