<svg version="1.2" xmlns="http://www.w3.org/2000/svg" viewBox="0 0 34 38" width="34" height="38">
	<title>TikTok (1)-svg</title>
	<style>
		.s0 { fill: #ffb5a7 } 
	</style>
	<path id="TikTok" class="s0" d="m29.5 8.4q-0.4-0.2-0.8-0.4-1-0.7-1.9-1.6c-1.4-1.6-1.9-3.3-2.1-4.4-0.2-1-0.1-1.6-0.1-1.6h-6.4v25q0 0.5-0.1 0.9 0 0.1 0 0.2 0 0 0 0 0 0 0 0c-0.1 1.9-1.1 3.5-2.7 4.4-0.8 0.5-1.8 0.7-2.7 0.7-3 0-5.4-2.5-5.4-5.5 0-3 2.4-5.5 5.4-5.5q0.9 0 1.7 0.3v-6.6c-3.3-0.4-6.7 0.6-9.2 2.7-1.2 1-2.1 2.2-2.8 3.4-0.3 0.5-1.3 2.4-1.4 5.5-0.1 1.7 0.4 3.5 0.7 4.2v0.1c0.1 0.4 0.7 1.9 1.7 3.2q1.2 1.5 2.8 2.6c3.2 2.1 6.6 2 6.6 2 0.6-0.1 2.6 0 4.9-1.1 2.5-1.2 4-3 4-3q1.4-1.6 2.1-3.6c0.6-1.5 0.8-3.4 0.8-4.1v-13.2c0.1 0 1.1 0.7 1.1 0.7 0 0 1.5 1 3.9 1.6 1.7 0.4 3.9 0.5 3.9 0.5v-6.4c-0.8 0.1-2.4-0.1-4-1z"/>
</svg>