<svg width="54" height="38" viewBox="0 0 54 38" fill="none" xmlns="http://www.w3.org/2000/svg">
<g id="YT logo">
<path id="Combined Shape" fill-rule="evenodd" clip-rule="evenodd" d="M47.2857 1.51136C49.5623 2.14039 51.3595 3.93764 51.9586 6.21415C53.0669 10.3478 53.0669 18.9746 53.0669 18.9746C53.0669 18.9746 53.0669 27.6014 51.9885 31.7351C51.3595 34.0415 49.5922 35.8388 47.3157 36.4379C43.182 37.5462 26.7073 37.5462 26.7073 37.5462C26.7073 37.5462 10.2325 37.5462 6.12877 36.4379C3.85225 35.8088 2.055 34.0116 1.45592 31.7351C0.347619 27.6014 0.347619 18.9746 0.347619 18.9746C0.347619 18.9746 0.347619 10.3478 1.42597 6.21415C2.055 3.90769 3.8223 2.11044 6.09881 1.51136C10.2325 0.403054 26.7073 0.403054 26.7073 0.403054C26.7073 0.403054 43.182 0.403054 47.2857 1.51136ZM35.0944 18.9746L21.3155 11.1266V26.8226L35.0944 18.9746Z" fill="#A8A6A6"/>
</g>
</svg>
