<svg width="302" height="303" viewBox="0 0 302 303" fill="none" xmlns="http://www.w3.org/2000/svg">
<path fill-rule="evenodd" clip-rule="evenodd" d="M0.493164 151.75C0.493164 68.2492 67.6001 0.945801 151.139 0.945801C234.671 0.945801 301.725 68.2492 301.725 151.75C301.725 235.251 234.671 302.554 151.139 302.554C67.6031 302.554 0.493164 235.251 0.493164 151.75ZM5.13514 151.753C5.13514 177.925 26.1596 199.034 52.363 199.034C68.4533 199.034 74.743 187.675 74.743 187.675V198.009H99.5909V151.752C99.5909 125.58 78.5664 104.471 52.363 104.471C26.1596 104.472 5.13514 125.582 5.13514 151.753ZM52.363 129.192C64.8558 129.192 74.8703 139.265 74.8703 151.754C74.8703 164.242 64.8558 174.315 52.363 174.315C39.8702 174.315 29.8557 164.242 29.8557 151.754C29.8557 139.265 39.8702 129.192 52.363 129.192ZM105.6 151.752V71.9107L130.442 71.9092V115.845C130.442 115.845 136.754 104.454 152.844 104.454C179.048 104.454 200.034 125.58 200.034 151.752C200.034 177.923 179.048 199.05 152.844 199.05C126.641 199.05 105.6 177.924 105.6 151.752ZM175.354 151.754C175.354 139.265 165.337 129.189 152.844 129.189C140.351 129.189 130.334 139.265 130.334 151.754C130.334 164.242 140.351 174.318 152.844 174.318C165.338 174.318 175.354 164.242 175.354 151.754ZM251.314 199.034C225.11 199.034 204.086 177.925 204.086 151.753C204.086 125.582 225.11 104.472 251.313 104.471C273.95 104.471 292.716 120.228 297.407 141.389H271.338C267.603 134.146 260.059 129.191 251.314 129.191C238.821 129.191 228.806 139.264 228.806 151.752C228.806 164.24 238.821 174.314 251.314 174.314C260.033 174.314 267.538 169.377 271.285 162.17H297.408C292.698 183.305 273.932 199.034 251.314 199.034Z" fill="#FFC5BA"/>
<path fill-rule="evenodd" clip-rule="evenodd" d="M0.493164 151.75C0.493164 68.2492 67.6001 0.945801 151.139 0.945801C234.671 0.945801 301.725 68.2492 301.725 151.75C301.725 235.251 234.671 302.554 151.139 302.554C67.6031 302.554 0.493164 235.251 0.493164 151.75ZM5.13514 151.753C5.13514 177.925 26.1596 199.034 52.363 199.034C68.4533 199.034 74.743 187.675 74.743 187.675V198.009H99.5909V151.752C99.5909 125.58 78.5664 104.471 52.363 104.471C26.1596 104.472 5.13514 125.582 5.13514 151.753ZM52.363 129.192C64.8558 129.192 74.8703 139.265 74.8703 151.754C74.8703 164.242 64.8558 174.315 52.363 174.315C39.8702 174.315 29.8557 164.242 29.8557 151.754C29.8557 139.265 39.8702 129.192 52.363 129.192ZM105.6 151.752V71.9107L130.442 71.9092V115.845C130.442 115.845 136.754 104.454 152.844 104.454C179.048 104.454 200.034 125.58 200.034 151.752C200.034 177.923 179.048 199.05 152.844 199.05C126.641 199.05 105.6 177.924 105.6 151.752ZM175.354 151.754C175.354 139.265 165.337 129.189 152.844 129.189C140.351 129.189 130.334 139.265 130.334 151.754C130.334 164.242 140.351 174.318 152.844 174.318C165.338 174.318 175.354 164.242 175.354 151.754ZM251.314 199.034C225.11 199.034 204.086 177.925 204.086 151.753C204.086 125.582 225.11 104.472 251.313 104.471C273.95 104.471 292.716 120.228 297.407 141.389H271.338C267.603 134.146 260.059 129.191 251.314 129.191C238.821 129.191 228.806 139.264 228.806 151.752C228.806 164.24 238.821 174.314 251.314 174.314C260.033 174.314 267.538 169.377 271.285 162.17H297.408C292.698 183.305 273.932 199.034 251.314 199.034Z" fill="#FFC5BA"/>
</svg>
