<svg width="450" height="267" viewBox="0 0 450 267" fill="none" xmlns="http://www.w3.org/2000/svg">
<path fill-rule="evenodd" clip-rule="evenodd" d="M381.258 0.917282C392.942 -0.439426 405.04 1.444 415.591 6.72719C431.887 14.628 444.113 30.2381 448.168 47.8594C450.897 59.9421 449.939 72.8547 445.358 84.3788C442.214 92.1998 437.426 99.3664 431.376 105.24C424.034 112.375 414.888 117.674 405.024 120.419C395.336 123.085 384.993 123.324 375.193 121.154C365.76 119.079 356.901 114.593 349.511 108.4C341.961 102.016 335.992 93.78 332.257 84.6182C328.298 75.0255 327.085 64.3953 328.251 54.1162C329.368 44.1883 333.087 34.5796 338.785 26.3915C348.537 12.4732 364.275 2.73687 381.226 0.88536L381.258 0.917282ZM383.7 23.3269C371.49 24.8592 360.365 32.9356 355.034 44.0127C349.878 54.4514 349.671 67.2045 354.491 77.8187C357.859 85.3205 363.653 91.7689 370.947 95.6315C380.364 100.611 391.92 101.314 401.912 97.6426C409.797 94.7376 416.596 89.0395 420.906 81.825C425.71 73.9241 427.45 64.2995 425.982 55.2016C424.449 45.5769 419.134 36.5907 411.361 30.701C403.572 24.7475 393.421 22.034 383.716 23.3429L383.7 23.3269ZM45.6243 2.13034H68.3213C71.5369 10.6356 74.7525 19.1416 77.9683 27.6481L77.9857 27.6941C89.7365 58.7776 101.489 89.8668 113.252 120.946H89.5657C88.1812 117.083 86.7875 113.229 85.3944 109.377L85.3937 109.375C84.1854 106.034 82.9776 102.694 81.7766 99.3505C65.2407 99.3026 48.7049 99.3026 32.169 99.3505C30.7842 103.214 29.3902 107.069 27.9969 110.922C26.7886 114.263 25.5808 117.603 24.3799 120.946H0.693359C6.25637 106.232 11.8238 91.5179 17.3915 76.8029L17.393 76.799L17.4035 76.7712L17.4108 76.752L17.412 76.7487L17.4123 76.7479L17.4132 76.7455C26.8227 51.8774 36.2329 27.007 45.6243 2.13034ZM57.0526 31.4033C52.8811 42.8896 48.6839 54.3588 44.4861 65.8296L44.4774 65.8534C42.944 70.0435 41.4106 74.2338 39.8783 78.4252H74.0993L72.5923 74.2565C67.428 59.9697 62.2602 45.6733 57.0526 31.4033ZM126.021 2.13034H126.037V120.93H149.197V72.9345H202.588V51.4347H149.181V23.9654H202.572V2.13034H126.037V2.11438L126.021 2.13034ZM221.757 2.13034H264.469C265.399 2.13691 266.33 2.13401 267.262 2.13111C270.856 2.11993 274.459 2.10872 278.02 2.6411C286.656 3.80627 295.115 7.33371 301.515 13.3352C307.389 18.8418 311.411 26.2797 312.848 34.1965C314.811 44.4596 313.008 55.5048 307.373 64.3633C303.846 69.9817 298.722 74.5307 292.817 77.5154C298.002 87.1639 303.202 96.7981 308.401 106.432L308.423 106.473C311.027 111.297 313.63 116.12 316.232 120.946H290.422C286.531 113.262 282.622 105.591 278.713 97.9198C276.273 93.13 273.832 88.3406 271.397 83.5488H244.773V120.946H221.757V2.13034ZM244.741 23.3429V62.4959H268.524C272.546 62.4959 276.632 61.7776 280.207 59.8782C283.878 57.9788 287.023 54.8823 288.587 51.0038C290.742 45.7206 290.949 39.5595 288.699 34.2604C287.214 30.717 284.485 27.7003 281.037 25.9765C276.696 23.7419 271.7 23.279 266.895 23.3429H244.757H244.741ZM8.22723 155.936C8.28294 151.488 12.3813 147.57 16.8142 147.617H100.276C104.729 147.538 108.847 151.496 108.879 155.965C108.655 160.291 104.665 164.137 100.292 163.994H69.7418C69.7418 171.787 69.7408 179.58 69.7398 187.373C69.7368 210.752 69.7338 234.131 69.7578 257.511C70.2207 262.283 65.8792 266.944 61.0749 266.657C56.9568 266.242 53.3975 262.475 53.4134 258.309C53.4074 252.034 53.4198 245.76 53.4323 239.485C53.4525 229.286 53.4727 219.084 53.4134 208.877C53.3943 199.894 53.4096 190.917 53.4249 181.94L53.4249 181.934C53.4352 175.95 53.4454 169.965 53.4454 163.978H16.2716C12.1067 163.786 8.43635 160.085 8.22723 155.936ZM8.22723 155.936L8.22708 155.949V155.933L8.22723 155.936ZM135.391 147.665C131.32 147.921 127.665 151.544 127.585 155.662L127.617 155.63V256.92C127.617 257.203 127.609 257.488 127.601 257.773C127.575 258.695 127.549 259.622 127.793 260.511C128.735 264.342 132.533 267.247 136.492 266.992H198.326C202.476 267.247 206.466 263.991 207.121 259.921C207.599 256.266 204.982 252.69 201.614 251.461C200.405 250.992 199.109 251.01 197.832 251.028C197.457 251.033 197.083 251.038 196.714 251.03C189.121 250.996 181.525 251.006 173.929 251.016H173.929H173.929C163.8 251.029 153.671 251.042 143.547 250.951V216.091H198.9C202.763 216.187 206.275 213.075 207.073 209.356C207.839 204.854 203.88 200.369 199.395 200.162H143.547C143.547 196.102 143.545 192.043 143.543 187.983C143.54 179.864 143.536 171.745 143.547 163.627C161.982 163.595 180.417 163.595 198.853 163.642C202.843 163.722 206.498 160.418 207.105 156.524C207.615 152.102 203.721 147.905 199.363 147.681C190.224 147.674 181.085 147.676 171.946 147.678C159.761 147.681 147.576 147.683 135.391 147.665ZM249.977 147.745C258.545 147.683 267.118 147.699 275.691 147.716H275.692C282.657 147.729 289.622 147.742 296.583 147.713C299.903 147.633 303.144 149.628 304.468 152.693C304.951 153.607 305.089 154.61 305.228 155.613C305.345 156.466 305.463 157.32 305.793 158.12C306.527 160.083 307.996 161.775 309.879 162.701C310.882 163.222 311.99 163.407 313.099 163.592C314.232 163.782 315.367 163.972 316.391 164.52C318.929 165.829 320.972 168.415 321.084 171.352C321.164 175.262 317.908 178.726 314.157 179.428C311.076 179.923 308.044 178.071 306.432 175.534C305.611 174.311 305.338 172.89 305.065 171.469L305.065 171.469C304.795 170.069 304.526 168.669 303.734 167.457C302.25 164.887 299.169 163.69 296.312 163.674C292.262 163.674 288.212 163.672 284.162 163.67C272.011 163.664 259.861 163.658 247.71 163.706C243.416 163.738 239.666 167.665 239.713 171.942C239.703 187.532 239.706 203.128 239.71 218.722V218.724C239.712 226.52 239.713 234.315 239.713 242.108C239.682 244.678 240.671 247.359 242.698 249.019C244.374 250.424 246.609 250.983 248.763 250.983H293.088C293.746 250.945 294.412 250.953 295.077 250.961C296.67 250.981 298.262 251 299.76 250.392C302.234 249.514 304.181 247.343 304.788 244.79C304.912 244.269 305.003 243.734 305.095 243.199C305.32 241.881 305.546 240.557 306.272 239.411C307.82 236.697 310.949 234.702 314.141 235.197C317.86 235.867 321.004 239.363 321.036 243.177C320.972 245.987 319.169 248.54 316.806 249.929C315.65 250.635 314.332 250.874 313.015 251.112C311.622 251.364 310.231 251.615 309.033 252.419C306.575 253.84 305.474 256.713 305.155 259.41C304.851 262.523 302.633 265.268 299.744 266.401C298.563 266.88 297.27 266.976 296.009 266.96C290.364 266.954 284.721 266.957 279.079 266.959H279.019H279.018C269.11 266.964 259.203 266.968 249.29 266.928C247.71 266.992 246.082 266.928 244.63 266.242C242.076 265.108 240.144 262.682 239.729 259.921C239.705 259.778 239.681 259.635 239.657 259.491C239.366 257.753 239.065 255.956 237.974 254.526C236.441 252.339 233.776 251.238 231.174 251.014C226.976 250.599 223.497 246.625 223.704 242.395V171.91C223.688 168.878 225.54 165.989 228.205 164.6C229.269 164.005 230.459 163.808 231.647 163.612C232.849 163.413 234.049 163.215 235.117 162.605C237.192 161.567 238.644 159.54 239.267 157.338C239.45 156.747 239.526 156.137 239.602 155.526L239.602 155.526L239.602 155.526C239.678 154.915 239.753 154.305 239.937 153.715C240.719 151.177 242.746 149.086 245.252 148.208C246.395 147.77 247.603 147.777 248.806 147.784H248.806C249.181 147.786 249.556 147.788 249.929 147.777L249.977 147.745ZM347.037 147.921C343.206 148.511 339.966 152.055 339.902 155.965H339.918V258.867C339.966 263.065 343.685 266.848 347.883 267.008C352.177 266.864 356.023 262.89 355.88 258.564C355.848 244.614 355.816 230.664 355.88 216.698C358.677 216.704 361.475 216.701 364.272 216.698C369.168 216.694 374.064 216.689 378.96 216.73C393.133 216.698 407.291 216.698 421.464 216.698C421.511 225.063 421.503 233.429 421.495 241.794C421.489 247.65 421.483 253.506 421.496 259.362C421.848 263.64 425.934 267.407 430.291 266.944C434.138 266.369 437.442 262.81 437.426 258.851V155.981C437.41 151.959 433.978 148.352 430.036 147.905C425.694 147.601 421.704 151.448 421.48 155.71V200.8H355.832C355.837 195.465 355.833 190.128 355.828 184.79C355.82 175.18 355.812 165.569 355.864 155.965C355.816 151.496 351.538 147.426 347.037 147.921Z" fill="#FFC5BA"/>
<path fill-rule="evenodd" clip-rule="evenodd" d="M381.258 0.917282C392.942 -0.439426 405.04 1.444 415.591 6.72719C431.887 14.628 444.113 30.2381 448.168 47.8594C450.897 59.9421 449.939 72.8547 445.358 84.3788C442.214 92.1998 437.426 99.3664 431.376 105.24C424.034 112.375 414.888 117.674 405.024 120.419C395.336 123.085 384.993 123.324 375.193 121.154C365.76 119.079 356.901 114.593 349.511 108.4C341.961 102.016 335.992 93.78 332.257 84.6182C328.298 75.0255 327.085 64.3953 328.251 54.1162C329.368 44.1883 333.087 34.5796 338.785 26.3915C348.537 12.4732 364.275 2.73687 381.226 0.88536L381.258 0.917282ZM383.7 23.3269C371.49 24.8592 360.365 32.9356 355.034 44.0127C349.878 54.4514 349.671 67.2045 354.491 77.8187C357.859 85.3205 363.653 91.7689 370.947 95.6315C380.364 100.611 391.92 101.314 401.912 97.6426C409.797 94.7376 416.596 89.0395 420.906 81.825C425.71 73.9241 427.45 64.2995 425.982 55.2016C424.449 45.5769 419.134 36.5907 411.361 30.701C403.572 24.7475 393.421 22.034 383.716 23.3429L383.7 23.3269ZM45.6243 2.13034H68.3213C71.5369 10.6356 74.7525 19.1416 77.9683 27.6481L77.9857 27.6941C89.7365 58.7776 101.489 89.8668 113.252 120.946H89.5657C88.1812 117.083 86.7875 113.229 85.3944 109.377L85.3937 109.375C84.1854 106.034 82.9776 102.694 81.7766 99.3505C65.2407 99.3026 48.7049 99.3026 32.169 99.3505C30.7842 103.214 29.3902 107.069 27.9969 110.922C26.7886 114.263 25.5808 117.603 24.3799 120.946H0.693359C6.25637 106.232 11.8238 91.5179 17.3915 76.8029L17.393 76.799L17.4035 76.7712L17.4108 76.752L17.412 76.7487L17.4123 76.7479L17.4132 76.7455C26.8227 51.8774 36.2329 27.007 45.6243 2.13034ZM57.0526 31.4033C52.8811 42.8896 48.6839 54.3588 44.4861 65.8296L44.4774 65.8534C42.944 70.0435 41.4106 74.2338 39.8783 78.4252H74.0993L72.5923 74.2565C67.428 59.9697 62.2602 45.6733 57.0526 31.4033ZM126.021 2.13034H126.037V120.93H149.197V72.9345H202.588V51.4347H149.181V23.9654H202.572V2.13034H126.037V2.11438L126.021 2.13034ZM221.757 2.13034H264.469C265.399 2.13691 266.33 2.13401 267.262 2.13111C270.856 2.11993 274.459 2.10872 278.02 2.6411C286.656 3.80627 295.115 7.33371 301.515 13.3352C307.389 18.8418 311.411 26.2797 312.848 34.1965C314.811 44.4596 313.008 55.5048 307.373 64.3633C303.846 69.9817 298.722 74.5307 292.817 77.5154C298.002 87.1639 303.202 96.7981 308.401 106.432L308.423 106.473C311.027 111.297 313.63 116.12 316.232 120.946H290.422C286.531 113.262 282.622 105.591 278.713 97.9198C276.273 93.13 273.832 88.3406 271.397 83.5488H244.773V120.946H221.757V2.13034ZM244.741 23.3429V62.4959H268.524C272.546 62.4959 276.632 61.7776 280.207 59.8782C283.878 57.9788 287.023 54.8823 288.587 51.0038C290.742 45.7206 290.949 39.5595 288.699 34.2604C287.214 30.717 284.485 27.7003 281.037 25.9765C276.696 23.7419 271.7 23.279 266.895 23.3429H244.757H244.741ZM8.22723 155.936C8.28294 151.488 12.3813 147.57 16.8142 147.617H100.276C104.729 147.538 108.847 151.496 108.879 155.965C108.655 160.291 104.665 164.137 100.292 163.994H69.7418C69.7418 171.787 69.7408 179.58 69.7398 187.373C69.7368 210.752 69.7338 234.131 69.7578 257.511C70.2207 262.283 65.8792 266.944 61.0749 266.657C56.9568 266.242 53.3975 262.475 53.4134 258.309C53.4074 252.034 53.4198 245.76 53.4323 239.485C53.4525 229.286 53.4727 219.084 53.4134 208.877C53.3943 199.894 53.4096 190.917 53.4249 181.94L53.4249 181.934C53.4352 175.95 53.4454 169.965 53.4454 163.978H16.2716C12.1067 163.786 8.43635 160.085 8.22723 155.936ZM8.22723 155.936L8.22708 155.949V155.933L8.22723 155.936ZM135.391 147.665C131.32 147.921 127.665 151.544 127.585 155.662L127.617 155.63V256.92C127.617 257.203 127.609 257.488 127.601 257.773C127.575 258.695 127.549 259.622 127.793 260.511C128.735 264.342 132.533 267.247 136.492 266.992H198.326C202.476 267.247 206.466 263.991 207.121 259.921C207.599 256.266 204.982 252.69 201.614 251.461C200.405 250.992 199.109 251.01 197.832 251.028C197.457 251.033 197.083 251.038 196.714 251.03C189.121 250.996 181.525 251.006 173.929 251.016H173.929H173.929C163.8 251.029 153.671 251.042 143.547 250.951V216.091H198.9C202.763 216.187 206.275 213.075 207.073 209.356C207.839 204.854 203.88 200.369 199.395 200.162H143.547C143.547 196.102 143.545 192.043 143.543 187.983C143.54 179.864 143.536 171.745 143.547 163.627C161.982 163.595 180.417 163.595 198.853 163.642C202.843 163.722 206.498 160.418 207.105 156.524C207.615 152.102 203.721 147.905 199.363 147.681C190.224 147.674 181.085 147.676 171.946 147.678C159.761 147.681 147.576 147.683 135.391 147.665ZM249.977 147.745C258.545 147.683 267.118 147.699 275.691 147.716H275.692C282.657 147.729 289.622 147.742 296.583 147.713C299.903 147.633 303.144 149.628 304.468 152.693C304.951 153.607 305.089 154.61 305.228 155.613C305.345 156.466 305.463 157.32 305.793 158.12C306.527 160.083 307.996 161.775 309.879 162.701C310.882 163.222 311.99 163.407 313.099 163.592C314.232 163.782 315.367 163.972 316.391 164.52C318.929 165.829 320.972 168.415 321.084 171.352C321.164 175.262 317.908 178.726 314.157 179.428C311.076 179.923 308.044 178.071 306.432 175.534C305.611 174.311 305.338 172.89 305.065 171.469L305.065 171.469C304.795 170.069 304.526 168.669 303.734 167.457C302.25 164.887 299.169 163.69 296.312 163.674C292.262 163.674 288.212 163.672 284.162 163.67C272.011 163.664 259.861 163.658 247.71 163.706C243.416 163.738 239.666 167.665 239.713 171.942C239.703 187.532 239.706 203.128 239.71 218.722V218.724C239.712 226.52 239.713 234.315 239.713 242.108C239.682 244.678 240.671 247.359 242.698 249.019C244.374 250.424 246.609 250.983 248.763 250.983H293.088C293.746 250.945 294.412 250.953 295.077 250.961C296.67 250.981 298.262 251 299.76 250.392C302.234 249.514 304.181 247.343 304.788 244.79C304.912 244.269 305.003 243.734 305.095 243.199C305.32 241.881 305.546 240.557 306.272 239.411C307.82 236.697 310.949 234.702 314.141 235.197C317.86 235.867 321.004 239.363 321.036 243.177C320.972 245.987 319.169 248.54 316.806 249.929C315.65 250.635 314.332 250.874 313.015 251.112C311.622 251.364 310.231 251.615 309.033 252.419C306.575 253.84 305.474 256.713 305.155 259.41C304.851 262.523 302.633 265.268 299.744 266.401C298.563 266.88 297.27 266.976 296.009 266.96C290.364 266.954 284.721 266.957 279.079 266.959H279.019H279.018C269.11 266.964 259.203 266.968 249.29 266.928C247.71 266.992 246.082 266.928 244.63 266.242C242.076 265.108 240.144 262.682 239.729 259.921C239.705 259.778 239.681 259.635 239.657 259.491C239.366 257.753 239.065 255.956 237.974 254.526C236.441 252.339 233.776 251.238 231.174 251.014C226.976 250.599 223.497 246.625 223.704 242.395V171.91C223.688 168.878 225.54 165.989 228.205 164.6C229.269 164.005 230.459 163.808 231.647 163.612C232.849 163.413 234.049 163.215 235.117 162.605C237.192 161.567 238.644 159.54 239.267 157.338C239.45 156.747 239.526 156.137 239.602 155.526L239.602 155.526L239.602 155.526C239.678 154.915 239.753 154.305 239.937 153.715C240.719 151.177 242.746 149.086 245.252 148.208C246.395 147.77 247.603 147.777 248.806 147.784H248.806C249.181 147.786 249.556 147.788 249.929 147.777L249.977 147.745ZM347.037 147.921C343.206 148.511 339.966 152.055 339.902 155.965H339.918V258.867C339.966 263.065 343.685 266.848 347.883 267.008C352.177 266.864 356.023 262.89 355.88 258.564C355.848 244.614 355.816 230.664 355.88 216.698C358.677 216.704 361.475 216.701 364.272 216.698C369.168 216.694 374.064 216.689 378.96 216.73C393.133 216.698 407.291 216.698 421.464 216.698C421.511 225.063 421.503 233.429 421.495 241.794C421.489 247.65 421.483 253.506 421.496 259.362C421.848 263.64 425.934 267.407 430.291 266.944C434.138 266.369 437.442 262.81 437.426 258.851V155.981C437.41 151.959 433.978 148.352 430.036 147.905C425.694 147.601 421.704 151.448 421.48 155.71V200.8H355.832C355.837 195.465 355.833 190.128 355.828 184.79C355.82 175.18 355.812 165.569 355.864 155.965C355.816 151.496 351.538 147.426 347.037 147.921Z" fill="#FFC5BA"/>
</svg>
