<?xml version="1.0" encoding="UTF-8"?>
<svg width="144px" height="61px" viewBox="0 0 144 61" version="1.1" xmlns="http://www.w3.org/2000/svg" xmlns:xlink="http://www.w3.org/1999/xlink">
    <title>All Tech Is Human</title>
    <defs>
        <path d="M2508.41591,8.08785218 C2510.98329,8.35045387 2513.66265,8.9263114 2515.72082,10.5779028 C2517.4804,12.0615357 2519.30396,13.4678544 2521.02621,14.9954765 C2523.08838,16.8576824 2525.05724,18.9225049 2526.26629,21.4578776 C2527.24205,23.4293898 2527.62996,25.6595047 2527.458,27.8482965 C2527.1674,31.1301512 2526.72218,34.4040079 2525.99435,37.6192124 C2525.48247,39.8133362 2524.84929,41.998129 2523.8442,44.0229614 C2523.18569,45.3373028 2522.35522,46.6049892 2521.18884,47.5234286 C2520.24373,48.2805746 2519.46125,49.2523342 2518.99736,50.3747232 C2518.16156,52.3955565 2518.26154,54.6616625 2518.63612,56.7758061 C2518.96937,58.7553164 2519.79184,60.7108326 2519.50258,62.750328 C2519.37594,63.7820727 2518.74143,64.7644963 2517.76166,65.1670634 C2516.24469,65.8135701 2514.56776,65.4296651 2512.98148,65.395007 C2511.47384,65.4363301 2509.96487,65.5722964 2508.45723,65.4749872 C2507.35083,65.389675 2506.16978,65.0550911 2505.43795,64.1673107 C2505.05005,63.7474146 2504.90741,63.1822211 2504.66081,62.6836778 C2504.16759,62.2891087 2503.60373,61.9745199 2503.18516,61.4906396 C2501.63487,59.8283842 2501.07633,57.5049591 2500.93104,55.2948392 C2500.88838,53.8218703 2500.84972,52.3235743 2501.17898,50.8772655 C2501.61621,48.805778 2501.99211,46.7222935 2502.3147,44.629478 C2502.48,43.4764299 2502.66929,42.3220489 2502.71594,41.1556708 C2501.65486,42.3207158 2500.61245,43.50309 2499.5487,44.6654691 C2499.34875,44.9027437 2499.04616,45.0627041 2498.7289,44.9813909 C2498.16103,44.9040767 2497.91043,44.0989426 2498.32766,43.7057065 C2499.8473,41.984799 2501.40426,40.2945505 2502.92789,38.5763089 C2503.11318,38.3550303 2503.39178,38.2603871 2503.65038,38.1550798 C2504.29156,38.4816657 2504.77945,39.0255311 2505.31398,39.4947484 C2506.58168,40.6264684 2507.83471,41.7755174 2509.11041,42.8992394 C2509.33702,43.113853 2509.62228,43.3511276 2509.60362,43.6963755 C2509.62761,44.1042746 2509.2557,44.4881796 2508.84514,44.4708505 C2508.52921,44.5055086 2508.2906,44.2709 2508.07066,44.0842795 C2506.84695,42.9512265 2505.58592,41.8608296 2504.36488,40.7251106 C2504.04096,44.2309099 2503.43044,47.7033841 2502.71727,51.1491982 C2502.55865,51.810368 2502.50266,52.4901998 2502.48666,53.1700316 C2502.41335,55.1282138 2502.51999,57.1623772 2503.35179,58.9699299 C2503.59973,59.5177944 2503.95831,60.0043407 2504.34888,60.4588949 C2504.26624,58.5793599 2504.64614,56.5891856 2505.87385,55.1082187 C2507.09622,53.6112558 2509.08641,52.94742 2510.97396,52.964749 C2512.01637,52.9834111 2513.08545,53.4512953 2513.67598,54.3350767 C2514.47845,55.4974558 2514.50244,57.0224118 2514.13986,58.3434183 C2513.55067,60.5402081 2511.9244,62.5517104 2509.71026,63.2408733 C2508.80914,63.5607941 2507.84538,63.4888119 2506.90827,63.4781479 C2507.43214,63.7140895 2507.99067,63.891379 2508.57053,63.91404 C2510.62204,64.0220133 2512.67888,63.7220875 2514.72772,63.9393671 C2515.55819,64.0300114 2516.44331,64.0473404 2517.22046,63.6967605 C2517.76166,63.4208287 2517.97761,62.7903181 2517.98561,62.2184596 C2518.0337,61.2566462 2517.84912,60.3245928 2517.62625,59.3975341 L2517.43037,58.6035578 C2517.29958,58.0742857 2517.17442,57.5443339 2517.09116,57.0090818 C2516.69392,54.7696358 2516.6086,52.4075536 2517.37509,50.2347578 C2517.76833,49.1270319 2518.38951,48.1019522 2519.19065,47.2394989 C2519.8265,46.546337 2520.64897,46.0451277 2521.22483,45.2919807 C2522.41788,43.7576937 2523.13637,41.9181488 2523.72023,40.0812699 C2524.9426,36.0649303 2525.51713,31.8832982 2525.90237,27.7123302 C2526.16231,25.0356591 2525.26653,22.3416589 2523.70557,20.1795272 C2521.37946,16.9176676 2518.05492,14.5995744 2515.03698,12.0362086 C2513.51735,10.6845431 2511.49117,10.1060195 2509.52364,9.79676271 C2506.46837,9.34754052 2503.35445,9.54615804 2500.32185,10.0540324 C2497.95175,10.4619315 2495.61365,11.0804451 2493.37952,11.9748905 C2491.42265,12.7600296 2489.52311,13.7731122 2487.99548,15.2487471 C2484.99353,18.1546948 2483.55788,22.381649 2483.4699,26.4979639 C2483.49922,27.7083311 2482.92336,28.8160571 2482.37283,29.8571328 C2480.83986,32.6057861 2478.84434,35.0545136 2477.05277,37.6325424 C2476.64754,38.2603871 2476.12366,38.9228899 2476.20764,39.71736 C2476.23963,40.1599171 2476.69152,40.3811957 2477.04477,40.5451551 C2477.95922,40.9743823 2479.03629,40.7877618 2479.93075,41.2703091 C2480.75322,41.7088672 2481.36507,42.4446852 2481.90361,43.1885011 C2482.57411,44.1495967 2482.68608,45.3546319 2482.73807,46.4916839 C2482.73689,47.6670968 2482.61827,48.8330305 2482.47431,49.9969748 L2482.25088,51.7423354 C2482.14118,52.6152059 2482.04313,53.4890638 2481.99558,54.3670688 C2481.98359,54.9922474 2481.93693,55.6947403 2482.34083,56.2199437 C2482.73941,56.6451718 2483.37125,56.6971589 2483.92046,56.7011579 C2486.23057,56.711822 2488.53135,55.8573667 2490.83879,56.353244 C2492.49973,56.6824959 2493.84341,57.850207 2494.84583,59.1605495 C2495.82293,60.4388998 2496.87734,61.8638806 2496.80403,63.5581281 C2496.72671,65.8682232 2495.00979,67.7664202 2493.11158,68.8914752 C2492.6317,69.198066 2491.88654,68.816827 2491.94653,68.2263065 C2491.90787,67.6331199 2492.58104,67.4385014 2492.95562,67.1279116 C2494.11934,66.2454632 2495.26173,64.9751109 2495.22707,63.4234947 C2495.26173,62.398415 2494.63655,61.5332957 2494.07668,60.7348266 C2493.41551,59.8163872 2492.66769,58.9166098 2491.68659,58.3287552 C2490.83479,57.8288789 2489.82037,57.7089086 2488.8486,57.7702268 C2487.24499,57.870202 2485.66537,58.235445 2484.05642,58.2767681 C2482.96069,58.2900981 2481.72898,58.0234974 2481.04515,57.091728 C2480.30932,56.0786453 2480.36664,54.7496408 2480.48795,53.5646006 C2480.66524,50.8959276 2481.36507,48.2432505 2481.10247,45.5585814 C2481.04781,44.4335264 2480.30132,43.508422 2479.47086,42.8205922 C2478.93898,42.4006961 2478.22182,42.4753443 2477.59531,42.3353789 C2476.62087,42.1340954 2475.59579,41.7355273 2475.00926,40.885071 C2474.57337,40.2745554 2474.54404,39.4694213 2474.724,38.7655954 C2474.9906,37.8071659 2475.59579,36.9993658 2476.15432,36.1942316 C2477.85525,33.7974913 2479.6988,31.4860632 2481.11713,28.9027023 C2481.52636,28.1175632 2481.9436,27.285769 2481.91027,26.3739946 C2482.04224,21.9604199 2483.55788,17.4228759 2486.76511,14.2876516 C2488.70197,12.3041423 2491.25336,11.0724471 2493.82741,10.1353456 C2498.48629,8.49308525 2503.47976,7.72660822 2508.41591,8.08785218 Z M2506.7603,56.5411975 C2505.83119,58.0354945 2505.75788,59.8937014 2506.04981,61.5839499 C2507.14554,61.9558579 2508.37858,62.0931572 2509.47965,61.6652631 C2510.88998,61.1400597 2511.93239,59.8937014 2512.45094,58.5087107 C2512.77086,57.6409254 2512.92949,56.6678329 2512.66022,55.7653895 C2512.47626,55.1255478 2511.90173,54.6136744 2511.23123,54.5550223 C2509.54763,54.4137239 2507.67875,55.0495666 2506.7603,56.5411975 Z M2511.39119,12.3587955 C2512.62689,13.4158673 2513.35339,14.9634844 2513.63199,16.5457596 C2515.02365,16.5697536 2516.43931,17.062965 2517.41774,18.0800466 C2518.62679,19.2690858 2519.10667,20.9913264 2519.22798,22.6402517 C2519.33862,23.4693799 2519.24797,24.3025071 2519.18399,25.1316353 C2520.26106,25.77281 2521.2155,26.7405706 2521.54875,27.9789309 C2521.95265,29.3745856 2521.3328,30.8768805 2520.37837,31.9006273 C2519.07335,33.2389628 2517.1858,33.7681652 2515.3849,34.0027738 C2511.0646,34.5186462 2506.7523,33.693517 2502.44934,33.4015892 C2499.48738,33.2936159 2496.62007,34.3093646 2493.66212,34.2973676 C2492.48773,34.3093646 2491.26669,34.1294092 2490.2456,33.5175605 C2488.83261,32.6497752 2487.84618,31.0941601 2487.74354,29.4305717 C2487.66356,28.2308685 2487.97148,26.9365221 2488.84994,26.0714028 C2488.72997,25.1369673 2488.31807,24.253186 2488.34073,23.2974225 C2488.26208,21.9284278 2488.82061,20.5301071 2489.85236,19.6196657 C2490.43756,19.0678023 2491.19737,18.7505474 2491.96386,18.5425989 C2492.19313,16.9949818 2492.88897,15.4406997 2494.18332,14.5022652 C2495.18042,13.7464522 2496.45611,13.5331716 2497.67182,13.4491924 C2498.78222,13.3545491 2499.91395,13.5171756 2500.94303,13.9477357 C2502.40535,12.4894298 2504.27423,11.3710399 2506.33374,11.04712 C2508.09732,10.7698553 2510.02485,11.1630913 2511.39119,12.3587955 Z M2505.76588,12.7666946 C2503.89033,13.3252231 2502.27338,14.5795794 2501.12299,16.1458585 C2500.98169,16.0058932 2500.84306,15.8645948 2500.69776,15.7286284 C2500.05258,15.0674587 2499.06082,14.9994755 2498.19169,14.9821464 C2497.00398,15.0421316 2495.67097,15.1501049 2494.77785,16.0352192 C2493.72343,17.0602989 2493.40884,18.610582 2493.48482,20.0315638 C2492.83965,20.0222328 2492.15981,20.0049037 2491.57728,20.3274906 C2490.32692,20.8926841 2489.68041,22.3869811 2489.93234,23.7039885 C2490.04298,24.62776 2490.54286,25.5035433 2490.38024,26.4526418 C2490.27759,27.0151693 2489.71106,27.3110961 2489.51778,27.8296345 C2488.99524,29.151974 2489.39781,30.7542442 2490.44555,31.7060087 C2491.16805,32.4564897 2492.24379,32.7070944 2493.25288,32.7230904 C2496.2175,32.8097357 2499.09015,31.817981 2502.05077,31.820647 C2506.26975,32.0432586 2510.47541,32.8857169 2514.71173,32.5084769 C2516.17937,32.3458504 2517.72967,32.0619207 2518.91605,31.1208202 C2519.75985,30.4329904 2520.40103,29.2372862 2519.96646,28.1522213 C2519.51457,27.0831525 2518.46682,26.4339798 2517.43507,26.0127507 C2517.81365,24.2771801 2517.84031,22.4203061 2517.26578,20.7233926 C2516.89654,19.6276637 2516.04741,18.6825642 2514.93167,18.3253193 C2514.03589,17.9947344 2513.07079,18.1533618 2512.16167,18.3279853 C2512.26965,16.4057942 2511.58848,14.2623245 2509.89555,13.1879237 C2508.67584,12.4214467 2507.12022,12.3814566 2505.76588,12.7666946 Z M2546.09619,24.6744151 C2546.05487,24.0252424 2546.69738,23.6706635 2547.24925,23.5680222 C2547.76779,23.484043 2548.31166,23.4747119 2548.82753,23.5866842 C2549.16479,23.6733295 2549.29009,24.0572345 2549.27276,24.3704903 C2549.27009,28.0602441 2549.27409,31.7513309 2549.27009,35.4424176 C2549.27809,35.6210401 2549.26609,35.8116596 2549.34074,35.9822841 C2549.59935,36.2622148 2550.02191,36.2355547 2550.3645,36.338196 C2550.47914,36.6021307 2550.54312,36.9540436 2550.30051,37.1686572 C2549.96326,37.4192619 2549.51404,37.3979338 2549.1168,37.4419229 C2548.33965,37.464584 2547.54118,37.5245691 2546.78269,37.3219526 C2546.43211,37.2313084 2546.16817,36.8673984 2546.27615,36.5048214 C2546.53208,36.1875666 2547.01064,36.2848759 2547.31723,36.0489342 C2547.49719,35.8996378 2547.43853,35.6383692 2547.46253,35.4357526 C2547.4572,32.2365441 2547.45986,29.0373357 2547.46119,25.8394602 C2547.46253,25.5022103 2547.45453,25.0836472 2547.11061,24.9036917 C2546.78802,24.7703914 2546.43211,24.7530623 2546.09619,24.6744151 Z M2551.97878,24.0412384 C2552.62395,23.4293898 2553.60372,23.4547169 2554.42752,23.5666892 C2554.80876,23.6213423 2554.98206,24.0212434 2554.94206,24.3691573 C2554.94073,28.0575781 2554.94473,31.7459988 2554.9394,35.4344196 C2554.94473,35.6650292 2554.94073,35.9382949 2555.12869,36.1089194 C2555.44194,36.2435528 2555.83118,36.2142267 2556.09912,36.4475023 C2556.21109,36.7674231 2556.12445,37.1913183 2555.76053,37.2966255 C2554.95006,37.5099061 2554.09427,37.461918 2553.2638,37.452587 C2552.8359,37.4005998 2552.3107,37.3992668 2552.02943,37.0180278 C2551.97611,36.8287413 2551.93879,36.6367888 2551.91612,36.4421703 C2552.24938,36.2995389 2552.60663,36.2302227 2552.94521,36.1009214 C2553.16649,35.956957 2553.14516,35.6650292 2553.15316,35.4344196 C2553.14783,32.2338781 2553.14783,29.0320037 2553.15316,25.8314622 C2553.15049,25.5062093 2553.12917,25.1009762 2552.81857,24.9143557 C2552.49465,24.7810554 2552.13874,24.7583943 2551.79882,24.6877451 C2551.83214,24.4677996 2551.78416,24.1985329 2551.97878,24.0412384 Z M2587.29429,23.7906338 C2587.94481,23.517368 2588.68063,23.4587159 2589.37779,23.5520261 C2589.72304,23.5946823 2590.08029,23.8492859 2590.0563,24.2345239 C2590.07229,26.0434097 2590.05497,27.8536285 2590.06163,29.6638473 C2590.80145,28.8360521 2591.85187,28.2921867 2592.9676,28.2428656 C2594.11132,28.1788814 2595.48833,28.3708339 2596.14684,29.4319047 C2596.97197,30.7929013 2596.75202,32.4511577 2596.77202,33.9681157 C2596.81068,34.6906036 2596.65205,35.4437506 2596.91732,36.1382455 C2597.2559,36.2315557 2597.69313,36.1835676 2597.93841,36.4808274 C2598.0797,36.8260753 2597.88242,37.2513034 2597.50651,37.3246186 C2596.71603,37.4952431 2595.89623,37.471249 2595.09242,37.4499209 C2594.66852,37.4032658 2594.16864,37.3979338 2593.87005,37.0433549 C2593.73941,36.8327403 2593.82873,36.5768036 2593.83272,36.34886 C2594.17797,36.2502178 2594.58454,36.2595488 2594.87514,36.0262732 C2595.08042,35.595713 2594.96579,35.0971697 2594.99644,34.6386165 C2594.95379,33.2656229 2595.14974,31.8313111 2594.6472,30.5196356 C2594.44191,29.923783 2593.85139,29.546543 2593.24087,29.4878909 C2592.43439,29.3972466 2591.51062,29.4439017 2590.88943,30.0317563 C2590.3229,30.5889518 2590.15494,31.416747 2590.08029,32.177892 C2590.0323,33.2629569 2590.06563,34.3520207 2590.05497,35.4384186 C2590.07629,35.6823583 2590.00831,36.0276062 2590.30291,36.1342465 C2590.57884,36.2355547 2590.8721,36.2768778 2591.16137,36.334197 C2591.25068,36.6207928 2591.24934,36.9140535 2591.14404,37.1979833 C2590.27758,37.5179041 2589.3378,37.46725 2588.43136,37.455253 C2588.02612,37.4152629 2587.58089,37.4072648 2587.24364,37.1513282 C2587.03702,36.9540436 2586.90505,36.4954904 2587.23698,36.354192 C2587.55823,36.2275567 2587.89948,36.1555745 2588.22207,36.0302722 C2588.30605,32.6351122 2588.22874,29.2359532 2588.26206,25.8394602 C2588.23407,25.5288704 2588.33405,25.1089743 2588.01945,24.9143557 C2587.65421,24.7437313 2587.25297,24.6810801 2586.87573,24.5464468 C2586.91439,24.253186 2586.99037,23.9186021 2587.29429,23.7906338 Z M2604.4875,24.5957679 C2605.26331,24.2998411 2606.50568,24.8637016 2606.26041,25.8301292 C2605.96581,26.9725132 2604.09426,26.9871762 2603.69036,25.9207734 C2603.52373,25.3395839 2603.97562,24.8010504 2604.4875,24.5957679 Z M2561.68711,28.2855217 C2562.27364,27.4963836 2562.30963,26.2740193 2563.2734,25.7941381 C2563.58532,26.6432613 2563.4187,27.5643668 2563.45469,28.4468151 C2564.22517,28.4534801 2564.99698,28.4401501 2565.7688,28.4641441 C2566.05806,28.4721422 2566.36732,28.6281036 2566.4633,28.9200314 C2566.58194,29.2719443 2566.23269,29.5945311 2565.90077,29.6145262 C2565.08763,29.6678463 2564.27049,29.6185252 2563.45735,29.6358543 C2563.44402,31.3460978 2563.44002,33.0563413 2563.45069,34.7679178 C2563.48668,35.3517734 2563.55333,36.0969224 2564.12519,36.4128442 C2564.89034,36.6327898 2565.59551,36.0382702 2566.36865,36.1635725 C2566.35266,36.3888501 2566.48329,36.6941079 2566.26335,36.8540684 C2565.72747,37.2792965 2565.03431,37.4392569 2564.37713,37.5618932 C2563.73995,37.6645345 2563.01479,37.6658675 2562.49225,37.2326414 C2561.80708,36.6767789 2561.6138,35.7423434 2561.5978,34.9038842 C2561.59513,33.1549836 2561.6018,31.4074159 2561.59513,29.6598483 C2561.24055,29.6518503 2560.88064,29.6878414 2560.53272,29.6105272 C2560.27278,29.4945559 2560.3341,29.1373109 2560.51539,28.9773505 C2560.84998,28.6600957 2561.3352,28.5787825 2561.68711,28.2855217 Z M2536.78776,28.9813495 C2537.96481,28.2975187 2539.3818,28.1922114 2540.71082,28.3228458 C2541.6186,28.4321521 2542.57837,28.8573802 2542.99027,29.7238325 C2543.60212,30.9581938 2543.37284,32.3805085 2543.41417,33.706847 C2543.44216,34.4240029 2543.2862,35.199811 2543.61412,35.8663128 C2544.06068,36.1569075 2544.60721,36.2448858 2545.08177,36.4874924 C2545.01245,37.1446631 2544.36994,37.456586 2543.77941,37.4952431 C2543.26354,37.5192371 2542.69834,37.6165464 2542.21845,37.3832708 C2541.7559,37.095342 2541.83055,36.4768284 2541.77589,36.0102771 C2541.13205,36.9900347 2540.00832,37.6205454 2538.8366,37.6592025 C2537.89949,37.6938606 2536.86641,37.5792223 2536.13858,36.9287166 C2534.99486,35.954291 2535.2228,33.8534774 2536.54782,33.1483186 C2538.09145,32.2698692 2539.939,32.4831498 2541.6026,32.0192646 C2541.58794,31.2541205 2541.6186,30.4209933 2541.20136,29.7451605 C2540.79346,29.162638 2540.00165,29.149308 2539.36447,29.2012951 C2538.80594,29.2239562 2538.25674,29.542544 2538.01546,30.0557504 C2537.80085,30.4729805 2537.82351,30.9541947 2537.80751,31.410082 C2537.12634,31.6086995 2536.21723,31.4594031 2535.87864,30.7675742 C2535.67869,30.0437533 2536.18257,29.3319294 2536.78776,28.9813495 M2539.21651,33.2816189 C2538.58333,33.4042552 2537.85284,33.6361978 2537.56624,34.2733735 C2537.28097,34.9905294 2537.35162,36.0196082 2538.09678,36.4315063 C2539.05521,36.9127205 2540.4882,36.7967492 2541.07606,35.7969966 C2541.57594,34.8972192 2541.58661,33.8294834 2541.6066,32.8270647 C2540.83479,33.0976644 2540.01632,33.1509846 2539.21651,33.2816189 Z M2568.87339,29.5998632 C2570.37702,28.0535791 2573.13103,27.7536533 2574.80396,29.1906311 C2575.62776,29.8717959 2576.10498,30.9528617 2576.045,32.0192646 C2575.95302,32.6444432 2575.1972,32.6977634 2574.69732,32.6857663 C2572.92708,32.6804343 2571.15684,32.6791013 2569.38793,32.6844333 C2569.41592,33.5828777 2569.69719,34.4879871 2570.30771,35.1638199 C2571.07019,36.0742613 2572.35122,36.4728294 2573.50294,36.2155597 C2574.19611,36.0875913 2574.77997,35.6703612 2575.39182,35.3477744 C2575.54778,35.4930718 2575.73707,35.6170411 2575.84238,35.8103266 C2575.87704,36.3008719 2575.46913,36.6581169 2575.09189,36.8953915 C2573.83353,37.6645345 2572.25791,37.8778151 2570.83158,37.5192371 C2569.53989,37.2019823 2568.41483,36.2488848 2567.92828,35.0078585 C2567.24978,33.2256328 2567.48972,30.9875198 2568.87339,29.5998632 M2569.49324,31.7353348 C2571.09818,31.7086747 2572.71113,31.807317 2574.31208,31.6646856 C2574.32941,30.6955921 2573.8242,29.5772021 2572.80711,29.3332625 C2571.27548,28.8920383 2569.55989,30.1517266 2569.49324,31.7353348 Z M2577.98053,30.0490853 C2578.94297,28.8507152 2580.50259,28.2068745 2582.02756,28.2695256 C2583.16462,28.2521966 2584.40032,28.5934455 2585.14548,29.5038869 C2585.54138,29.9944322 2585.66802,30.8822126 2585.07883,31.2781146 C2584.65626,31.6113655 2584.0964,31.5100572 2583.60185,31.4793981 C2583.52053,30.8195614 2583.45388,30.0744124 2582.95267,29.5825341 C2582.44479,29.1399769 2581.70364,29.1999621 2581.08912,29.3239314 C2580.04804,29.525215 2579.22957,30.4063303 2578.98696,31.419413 C2578.71236,32.572461 2578.82833,33.8708065 2579.53749,34.8532301 C2580.16934,35.8103266 2581.27707,36.4261742 2582.4288,36.4261742 C2583.33924,36.4408373 2584.16971,36.0329382 2584.98685,35.6863573 C2585.21746,35.591714 2585.63603,35.5343949 2585.70934,35.8556487 C2585.83198,36.328865 2585.35076,36.6127947 2585.03617,36.8580674 C2583.94443,37.6565365 2582.52477,37.7605108 2581.21975,37.6552035 C2579.82009,37.5498962 2578.42976,36.8647324 2577.64728,35.6743602 C2576.56221,33.9841118 2576.69817,31.5980354 2577.98053,30.0490853 Z M2603.96096,28.4788072 C2604.55548,28.3575039 2605.19,28.3375088 2605.78452,28.4748082 C2606.20175,28.6121075 2606.12977,29.0919888 2606.14177,29.4385697 C2606.12044,31.1248192 2606.18442,32.8124017 2606.1351,34.4986511 C2606.14044,35.0011935 2606.14177,35.5104008 2606.23108,36.0076111 C2606.51768,36.2342217 2606.90825,36.2222247 2607.23617,36.3648561 C2607.43079,36.6367888 2607.3948,37.1379981 2607.04022,37.2659665 C2606.50568,37.469916 2605.91516,37.4392569 2605.35262,37.463251 C2604.71544,37.45392 2604.03161,37.5085731 2603.44775,37.2166453 C2603.14915,37.0593509 2602.98653,36.4861594 2603.3691,36.342195 C2603.71435,36.1835676 2604.36086,36.2368877 2604.35553,35.7143504 C2604.38086,34.1147461 2604.35153,32.5138089 2604.36753,30.9128716 C2604.3542,30.5569597 2604.41018,30.1370636 2604.13692,29.8584658 C2603.83032,29.5745361 2603.32778,29.7478265 2603.01985,29.4692288 C2602.93854,28.9173653 2603.51707,28.6134405 2603.96096,28.4788072 Z M2609.53829,29.4945559 C2610.23812,28.6667607 2611.34852,28.2588616 2612.41626,28.2628606 C2613.54266,28.2202045 2614.70238,28.414823 2615.69414,28.9706855 C2616.29533,29.3252644 2616.82853,30.0464193 2616.58726,30.7715733 C2616.28333,31.432743 2615.42887,31.6206965 2614.79036,31.3714248 C2614.74903,30.8488875 2614.76636,30.2716969 2614.43178,29.8358048 C2614.14651,29.4492338 2613.66663,29.2692783 2613.20407,29.2279552 C2612.48958,29.155973 2611.70976,29.2839413 2611.15656,29.7704876 C2610.76466,30.1050715 2610.738,30.7782383 2611.1379,31.1168212 C2611.72443,31.6686846 2612.54423,31.8326441 2613.29605,32.0405926 C2614.27981,32.3018613 2615.29024,32.5911231 2616.12604,33.1949737 C2616.8472,33.7148451 2617.17912,34.7105987 2616.90185,35.5570559 C2616.70323,36.2728788 2616.10338,36.7900842 2615.48086,37.1433301 C2614.31714,37.7685088 2612.93347,37.7538458 2611.65911,37.5778893 C2610.76999,37.4019328 2609.77423,37.1553272 2609.22769,36.3648561 C2608.86511,35.8809758 2608.88911,35.0491816 2609.46497,34.7372588 C2609.94619,34.4173379 2610.69134,34.6252865 2610.90329,35.1731509 C2610.96594,35.5263969 2610.91529,35.8889738 2610.90462,36.2462188 C2611.90438,36.5581416 2612.98013,36.700773 2614.01721,36.4914914 C2614.49709,36.3915161 2615.00631,36.0969224 2615.10228,35.575718 C2615.27158,35.0238545 2614.85834,34.5159802 2614.41045,34.2533785 C2613.22007,33.5642157 2611.77908,33.5335566 2610.56737,32.8963809 C2609.96485,32.551133 2609.39965,32.0472576 2609.1837,31.3700918 C2609.03441,30.7342492 2609.09439,30.0050962 2609.53829,29.4945559 Z M2537.58757,42.749943 C2538.4367,42.6592987 2539.29782,42.6566327 2540.14828,42.7312809 C2540.62417,42.7925991 2541.20003,42.9418955 2541.38532,43.4444378 C2541.52929,43.8669999 2541.52529,44.3215541 2541.53329,44.7641113 C2541.53195,46.0477937 2541.52395,47.3328091 2541.51596,48.6178245 C2542.75699,47.3941273 2544.64054,47.0235523 2546.31347,47.3421401 C2547.34256,47.5340927 2548.27167,48.2165905 2548.70756,49.176353 C2549.59535,51.065219 2549.16479,53.2073557 2549.31675,55.214859 C2549.42206,55.7880505 2550.10056,55.8240416 2550.52579,56.0559842 C2550.49913,56.4772133 2550.44848,56.9477636 2550.10456,57.2410244 C2549.46738,57.8155489 2548.5556,57.8821991 2547.74513,57.9835073 C2546.56008,58.0461585 2545.32704,58.0608215 2544.19798,57.6502565 C2543.55413,57.4223128 2542.9956,56.7704741 2543.17556,56.0533182 C2543.57679,55.7800525 2544.27929,55.7787195 2544.33928,55.1735359 C2544.40993,54.0191548 2544.34461,52.8594418 2544.36994,51.7023947 C2544.36327,50.9999018 2544.36594,50.1787717 2543.82873,49.6509023 C2543.1289,49.0670467 2542.06649,49.3123194 2541.47197,49.933499 C2541.48263,51.454456 2541.4773,52.9754131 2541.4733,54.4963701 C2541.47996,54.8136249 2541.47063,55.1482088 2541.60527,55.4454686 C2541.7679,55.7880505 2542.19313,55.7973815 2542.49705,55.9453449 C2542.73433,56.0133281 2542.68234,56.3145869 2542.67301,56.5025404 C2542.61836,57.107724 2542.05716,57.5089581 2541.52129,57.6849145 C2540.40422,58.0394935 2539.21118,58.0528235 2538.05145,57.9848403 C2537.38228,57.9115251 2536.69045,57.8302119 2536.08793,57.5129571 C2535.57605,57.2570204 2535.25213,56.6651668 2535.34277,56.0959743 C2535.60004,55.8093786 2536.05327,55.8520347 2536.3252,55.584101 C2536.51982,55.3574904 2536.50783,55.0442345 2536.51582,54.7656368 C2536.50916,51.7877069 2536.51316,48.81111 2536.51316,45.8331802 C2536.51316,45.5425854 2536.4945,45.1813414 2536.21323,45.014716 C2535.92663,44.8600876 2535.61337,44.7694433 2535.31345,44.652139 C2535.34677,44.274899 2535.35077,43.8523369 2535.62537,43.5577431 C2536.11192,42.9978816 2536.89307,42.8672473 2537.58757,42.749943 Z M2572.48985,48.2859066 C2573.89885,47.3927943 2575.64376,47.0382153 2577.28736,47.3381411 C2577.96054,47.4581115 2578.57772,47.7793653 2579.10426,48.2112585 C2580.31864,47.300817 2581.90892,47.2248358 2583.36857,47.2408319 C2584.64293,47.2474969 2585.99727,47.8433495 2586.57847,49.0323886 C2587.59689,50.9225876 2587.03302,53.1300415 2587.23564,55.1668709 C2587.28363,55.6694132 2587.81284,55.7960485 2588.20341,55.9466779 C2588.46601,55.9906671 2588.3887,56.3079219 2588.39403,56.4998744 C2588.35137,57.0730659 2587.8435,57.482298 2587.34095,57.6729175 C2586.45716,57.9981704 2585.49739,58.0274965 2584.56695,58.0128334 C2583.73382,57.9755093 2582.8487,57.9115251 2582.1222,57.463636 C2581.62899,57.1663762 2581.32906,56.5052064 2581.55701,55.956009 C2581.76629,55.8347056 2582.05022,55.7840515 2582.17286,55.5494429 C2582.28883,55.3055032 2582.26217,55.0242395 2582.27417,54.7629708 C2582.26484,53.5632676 2582.27417,52.3635644 2582.27017,51.1651943 C2582.2555,50.6346589 2582.22218,50.0334743 2581.84494,49.6215762 C2581.55434,49.2856593 2581.05446,49.2749953 2580.65722,49.3829686 C2580.21733,49.553593 2580.0547,50.0574683 2580.06803,50.4933605 C2580.0507,51.82903 2580.06936,53.1646996 2580.0587,54.5017021 C2580.06936,54.8136249 2580.04537,55.1402108 2580.14934,55.4414696 C2580.26265,55.7653895 2580.63723,55.8320396 2580.90916,55.976004 C2581.04113,56.6011827 2580.80919,57.2983435 2580.21466,57.5956033 C2579.2109,58.0834826 2578.04718,58.0288295 2576.96078,57.9928384 C2576.10498,57.9008611 2575.09456,57.7928878 2574.54669,57.0410738 C2574.30008,56.742481 2574.34274,56.335915 2574.36273,55.977337 C2574.57602,55.8586997 2574.83995,55.8000476 2575.00391,55.608095 C2575.20253,55.225523 2575.14255,54.7776338 2575.15588,54.3617367 C2575.13322,53.2086887 2575.18387,52.0543076 2575.13055,50.9025926 C2575.0599,50.3507291 2574.99458,49.5895841 2574.37873,49.3763035 C2573.60292,49.1283649 2572.77645,49.8175277 2572.82177,50.6159968 C2572.86709,52.1302888 2572.74979,53.6512459 2572.84976,55.1642049 C2572.83377,55.6547502 2573.31632,55.8360386 2573.70289,55.957342 C2573.95616,56.6265097 2573.49628,57.3609947 2572.85909,57.5996023 C2571.70337,58.0634875 2570.41968,58.0528235 2569.19597,57.9768423 C2568.34018,57.870202 2567.2911,57.7342357 2566.81255,56.9171045 C2566.68858,56.6225107 2566.47929,56.0893093 2566.88986,55.9426789 C2567.21645,55.7920495 2567.67634,55.7400624 2567.80031,55.3388283 C2567.89895,54.7536398 2567.82564,54.1537882 2567.84563,53.5632676 C2567.82564,52.4542087 2567.88429,51.3411507 2567.82031,50.2347578 C2567.75765,49.7615416 2567.21778,49.6868934 2566.86453,49.5255999 C2566.5726,49.4696138 2566.65925,49.1256989 2566.68858,48.9164173 C2566.79255,48.3472248 2567.30576,47.9726508 2567.81897,47.7860303 C2568.69476,47.4821055 2569.6372,47.4567785 2570.55432,47.4874375 C2571.26614,47.5167636 2572.00997,47.7260452 2572.48985,48.2859066 Z M2591.73723,47.6420659 C2592.94227,47.2248358 2594.23929,47.1888447 2595.50032,47.274157 C2596.68537,47.3727992 2597.92507,47.678057 2598.81953,48.5085182 C2599.63666,49.2909913 2599.96459,50.4547034 2599.99924,51.5584303 C2600.02057,52.6274991 2599.98991,53.699234 2600.00724,54.7696358 C2600.02324,55.1308798 2600.06723,55.6227581 2600.4778,55.7547254 C2600.7364,55.8986898 2601.11764,55.9066878 2601.26427,56.2012816 C2601.31626,56.8851124 2600.82171,57.4996271 2600.19653,57.7235716 C2599.29808,58.0608215 2598.30365,58.0808166 2597.36388,57.9395182 C2596.62939,57.8368769 2595.95621,57.4076498 2595.59763,56.7518121 C2594.84715,57.854206 2593.43015,58.223448 2592.16379,58.2034529 C2591.1667,58.2127839 2590.07363,57.9088591 2589.44978,57.0797309 C2588.90457,56.3665741 2588.91524,55.4041455 2589.0592,54.5603543 C2589.22983,53.6645759 2589.85235,52.8914338 2590.67215,52.5008638 C2592.08914,51.7663789 2593.72608,51.8356951 2595.27371,51.8476921 C2595.27638,51.078549 2595.26038,50.300075 2595.07376,49.550927 C2594.98045,49.187017 2594.73651,48.7471259 2594.29928,48.78445 C2593.98069,48.7351288 2593.6661,48.8950893 2593.51947,49.180352 C2593.13822,49.8841779 2593.16755,50.7119731 2593.13956,51.4877811 C2592.16779,51.4717851 2591.09472,51.5011112 2590.25758,50.9319187 C2589.69772,50.5386826 2589.69105,49.7535435 2589.89234,49.165689 C2590.19227,48.3725519 2590.97608,47.9126657 2591.73723,47.6420659 M2593.93403,53.0780543 C2593.45148,53.5499376 2593.39416,54.2670935 2593.3915,54.9029362 C2593.40216,55.2961722 2593.3715,55.7507264 2593.66343,56.0599832 C2593.93803,56.3732391 2594.40192,56.361242 2594.7805,56.3039229 C2595.17107,56.2239427 2595.28438,55.7733875 2595.29371,55.4308056 C2595.32703,54.5510232 2595.26705,53.6712409 2595.26705,52.7927916 C2594.80849,52.6928163 2594.27795,52.7221424 2593.93403,53.0780543 Z M2607.89335,48.2979037 C2609.30767,47.4127893 2611.04459,47.0795385 2612.6922,47.303483 C2613.80926,47.4567785 2614.86101,48.1632703 2615.31423,49.2136771 C2616.06205,50.8226124 2615.81544,52.6461612 2615.85544,54.3644027 C2615.86077,54.840285 2615.77812,55.5494429 2616.34465,55.7440614 C2616.58193,55.8866928 2617.06048,55.8493687 2617.06448,56.2186107 C2617.15779,56.8624514 2616.66591,57.4049838 2616.09671,57.6142654 C2614.97298,58.0434925 2613.74261,58.0421595 2612.55889,57.9955044 C2611.79241,57.9221892 2610.97794,57.844875 2610.32076,57.4049838 C2609.85954,57.109057 2609.57694,56.4758803 2609.82488,55.956009 C2610.22212,55.8280406 2610.82598,55.7773865 2610.90596,55.2655131 C2610.97794,54.1684512 2610.91129,53.0660573 2610.93662,51.9676624 C2610.92329,51.2771666 2611.00193,50.5226866 2610.62736,49.9081719 C2609.98884,48.9004213 2608.06797,49.2296731 2607.99599,50.4933605 C2607.98666,52.0543076 2607.952,53.6192538 2608.00132,55.1788679 C2608.06664,55.7800525 2608.75447,55.8320396 2609.19437,56.0453202 C2609.24369,56.6971589 2608.89577,57.3436656 2608.27192,57.5809403 C2607.07354,58.0594885 2605.74586,58.0474915 2604.47683,57.9848403 C2603.66103,57.8861981 2602.73992,57.7942208 2602.1414,57.1650432 C2601.84013,56.8784474 2601.82814,56.4372232 2601.79081,56.0519852 C2602.22404,55.8307066 2602.93454,55.7893835 2602.98253,55.1762019 C2603.02118,53.5712656 2603.01319,51.9623304 2602.98653,50.3573941 C2602.9732,49.7255505 2602.26537,49.6748963 2601.8388,49.4376217 C2601.69217,48.8151091 2602.09607,48.1992614 2602.64927,47.9406587 C2603.56905,47.4861045 2604.62613,47.4794395 2605.62856,47.4781065 C2606.44436,47.4794395 2607.33082,47.655396 2607.89335,48.2979037 Z M2559.23703,48.0832901 C2560.02618,47.5927448 2560.99128,47.5207626 2561.89906,47.4821055 C2562.64155,47.4621105 2563.46135,47.4487804 2564.09053,47.9099997 C2564.67973,48.3472248 2564.78637,49.1403619 2564.7997,49.8241927 C2564.8077,51.4691191 2564.7997,53.1140454 2564.80103,54.7603048 C2564.81969,55.0535656 2564.8077,55.4094775 2565.03697,55.6334221 C2565.32357,55.8373717 2565.67682,55.9106868 2565.99808,56.0493192 C2566.03807,56.6185117 2565.82878,57.2236953 2565.29291,57.494295 C2564.29582,58.0181654 2563.12143,58.0434925 2562.02036,58.0154994 C2561.10858,57.9928384 2560.15681,57.486297 2559.90887,56.5531945 C2558.89445,57.6515895 2557.39614,58.2567731 2555.90717,58.2047859 C2554.83009,58.222115 2553.6917,57.862204 2552.97987,57.0210788 C2552.32136,56.2146116 2552.04676,55.1615389 2551.97211,54.1404582 C2551.92279,52.9740801 2551.96945,51.806369 2551.94945,50.6399909 C2551.94145,50.3267351 2551.87347,49.9508281 2551.56688,49.7948666 C2551.29894,49.6628993 2551.01367,49.5749211 2550.73641,49.4696138 C2550.68709,48.9377454 2550.83772,48.3432258 2551.3376,48.0699601 C2552.26671,47.5247616 2553.3891,47.4901035 2554.43819,47.4754405 C2555.13269,47.4701085 2555.9205,47.5727498 2556.40838,48.1219472 C2556.81095,48.5884985 2556.85361,49.2416702 2556.8776,49.8295247 C2556.88826,51.2958286 2556.8736,52.7607995 2556.8816,54.2271034 C2556.8856,54.7549728 2556.96291,55.3281643 2557.32283,55.7400624 C2558.02532,56.4692153 2559.55829,56.2292747 2559.79423,55.1735359 C2559.87821,54.3724008 2559.8089,53.5632676 2559.83022,52.7594665 C2559.81023,51.9143423 2559.89687,51.063886 2559.8009,50.2227608 C2559.67693,49.6895594 2559.04641,49.6455703 2558.62918,49.4549507 C2558.59319,48.9284144 2558.76781,48.3725519 2559.23703,48.0832901 Z" id="path-1"></path>
    </defs>
    <g id="Page-1" stroke="none" stroke-width="1" fill="none" fill-rule="evenodd">
        <g id="Press-Social-Copy" transform="translate(-2473.7439, -8)" fill="#FFB5A7" fill-rule="nonzero">
            <g id="All-Tech-Is-Human">
                <use xlink:href="#path-1"></use>
                <use xlink:href="#path-1"></use>
            </g>
        </g>
    </g>
</svg>