<svg width="716" height="198" viewBox="0 0 716 198" fill="none" xmlns="http://www.w3.org/2000/svg">
<path fill-rule="evenodd" clip-rule="evenodd" d="M597.189 0.676028C587.393 -0.177702 577.234 0.85434 568.243 5.04194C561.057 8.34339 554.762 13.7143 550.699 20.5388C545.29 29.5191 543.928 40.6339 546.165 50.8084C547.743 57.9786 552.006 64.4627 557.891 68.834C565.839 74.8695 575.63 77.6036 585.129 80.1432C586.118 80.424 587.115 80.6895 588.112 80.9553C591.355 81.8198 594.608 82.6866 597.67 84.0877C599.513 84.9846 601.577 86.276 601.96 88.4698C602.301 91.031 600.458 93.268 598.437 94.581C594.266 97.2881 588.83 97.1314 584.324 95.3807C578.24 93.041 573.485 88.1726 570.07 82.7422C559.922 90.7716 549.775 98.801 539.627 106.836C545.047 112.92 551.147 118.534 558.344 122.441C566.903 127.169 576.667 129.346 586.377 129.784C597.081 130.362 608.163 128.822 617.673 123.646C626.438 118.966 633.5 111.072 636.823 101.676C640.086 92.4304 640.34 81.8885 636.585 72.746C634.035 66.6294 629.301 61.6205 623.763 58.0813C615.844 52.9943 606.686 50.4116 597.714 47.8815L597.67 47.869C596.924 47.6508 596.174 47.4388 595.425 47.2267C592.109 46.2887 588.785 45.3482 585.669 43.8543C583.74 42.8763 581.6 41.5092 581.157 39.2236C580.72 36.7218 582.324 34.3065 584.41 33.0638C588.009 30.8862 592.596 30.9997 596.454 32.4316C602.052 34.5173 606.483 38.9912 609.406 44.1136C618.873 36.7759 628.329 29.4327 637.785 22.0841C633.959 17.3724 629.49 13.1578 624.411 9.81311C616.339 4.44217 606.812 1.47573 597.189 0.676028ZM66.5253 2.47535C78.3911 2.46994 90.2569 2.46994 102.123 2.47535C107.634 41.9253 113.14 81.3752 118.646 120.825C118.687 121.112 118.729 121.398 118.771 121.685L118.771 121.685L118.772 121.685L118.772 121.686L118.772 121.686L118.772 121.686C118.991 123.178 119.211 124.672 119.257 126.185C120.681 117.317 122.25 108.471 123.819 99.6265L123.82 99.6238L123.82 99.6224L123.82 99.6211C124.781 94.2033 125.742 88.7858 126.67 83.3636C128.444 73.2494 130.215 63.1352 131.986 53.021C134.937 36.1724 137.887 19.3239 140.849 2.47535C148.797 2.47174 156.744 2.47295 164.691 2.47415H164.692H164.693H164.693H164.694H164.694C168.669 2.47475 172.643 2.47535 176.619 2.47535C171.296 32.7882 165.969 63.101 160.641 93.4138C168.975 93.422 177.309 93.4209 185.643 93.4199C188.418 93.4196 191.194 93.4193 193.969 93.4193C193.267 97.4544 192.566 101.49 191.865 105.526C190.563 113.018 189.261 120.511 187.955 128.001H83.7134C83.2757 124.638 82.8528 121.275 82.4297 117.91L82.4293 117.907L82.4289 117.904L82.4286 117.901L82.4282 117.898L82.4278 117.895C82.2247 116.28 82.0216 114.665 81.8168 113.05C75.7543 113.039 69.693 113.042 63.6318 113.044C57.5706 113.047 51.5094 113.05 45.4468 113.039C43.9818 115.897 42.5364 118.765 41.0912 121.632C40.0204 123.757 38.9498 125.881 37.8713 128.001H0.544922C22.5312 86.1571 44.5229 44.3135 66.5253 2.47535ZM67.8449 67.2243L67.8405 67.233C65.2687 72.2807 62.6969 77.3284 60.1223 82.3748C62.2389 82.3748 64.3548 82.3754 66.4705 82.376H66.4711H66.4717H66.4723H66.4729H66.4735C70.7033 82.3772 74.9323 82.3784 79.1638 82.3748L78.8222 79.5004C77.7365 70.3642 76.6503 61.2244 75.5597 52.089C72.9878 57.1303 70.4186 62.173 67.8493 67.2156L67.8449 67.2243ZM213.086 2.48075C225.011 2.46454 236.936 2.46994 248.862 2.48075C246.204 17.6316 243.541 32.7824 240.878 47.9333L240.877 47.9389L240.876 47.9445L240.875 47.9502C238.212 63.1065 235.548 78.2629 232.889 93.4193C237.333 93.4214 241.776 93.4201 246.22 93.4188C252.885 93.4169 259.551 93.4149 266.217 93.4247C264.711 102.04 263.213 110.655 261.716 119.271L261.715 119.274L261.714 119.278L261.699 119.368C261.199 122.245 260.698 125.123 260.198 128.001H191.089C194.756 107.091 198.419 86.1804 202.082 65.2696C205.749 44.3395 209.415 23.4095 213.086 2.48075ZM324.147 2.47358C313.28 2.47138 302.412 2.46917 291.543 2.48075V128.006C303.522 128.001 315.496 128.001 327.475 128.001C327.477 122.129 327.477 116.258 327.476 110.386V110.364C327.475 102.524 327.474 94.6835 327.48 86.8434C334.283 100.562 341.081 114.282 347.878 128.006C358.446 128.002 369.014 128.003 379.581 128.004C393.672 128.006 407.763 128.008 421.856 127.995L421.859 127.984L421.865 127.964C423.402 122.987 424.939 118.01 426.497 113.039C431.905 113.044 437.311 113.043 442.717 113.042C449.207 113.042 455.696 113.041 462.186 113.05C462.859 115.212 463.529 117.375 464.199 119.538L464.201 119.544C465.074 122.363 465.947 125.183 466.828 128.001C490.743 128.006 514.664 128.006 538.579 128.001C538.579 114.056 538.579 100.11 538.58 86.1641V86.1635V86.1629V86.1623V86.1617V85.1163C538.581 57.5708 538.582 30.0246 538.579 2.48075C529.852 2.46917 521.129 2.47138 512.406 2.47358H512.405H512.405H512.404C508.916 2.47446 505.427 2.47535 501.939 2.47535C501.939 14.2031 501.937 25.9304 501.935 37.6575V37.6581V37.6586V37.6592V37.6598C501.931 66.9844 501.926 96.3079 501.95 125.634C493.594 100.112 485.175 74.6155 476.755 49.1191L476.754 49.1152L476.749 49.0995L476.73 49.0419C471.605 33.5232 466.48 18.0047 461.37 2.48075C452.941 2.47265 444.515 2.47366 436.088 2.47467C433.278 2.47501 430.469 2.47535 427.659 2.47535C414.058 43.4922 400.469 84.5145 386.896 125.542C382.805 118.247 378.69 110.966 374.574 103.684L374.572 103.681L374.569 103.675L374.565 103.668L374.564 103.666C371.181 97.6817 367.798 91.6969 364.429 85.7033C373.36 80.7646 380.077 72.2057 383.032 62.4634C386.485 51.1866 386.258 38.5644 381.363 27.7414C377.894 20.0092 371.923 13.4604 364.58 9.22954C356.329 4.41515 346.668 2.46994 337.185 2.47535C332.84 2.47535 328.495 2.47446 324.15 2.47358H324.149H324.148H324.147ZM327.474 41.3855V41.385L327.475 40.496V40.4956C327.475 38.7188 327.475 36.9421 327.475 35.1657C328.667 35.1894 329.859 35.1777 331.051 35.166C333.118 35.1457 335.185 35.1254 337.244 35.2899C341.448 35.733 345.603 38.1537 347.397 42.0928C349.283 46.2804 348.91 51.5648 346.111 55.2716C343.755 58.3353 339.865 59.9022 336.072 60.0265C334.338 60.0658 332.605 60.0595 330.872 60.0532C329.741 60.0491 328.611 60.045 327.48 60.0535C327.472 53.8324 327.473 47.6082 327.474 41.3855ZM441.798 60.7066L441.79 60.7327C439.497 67.9466 437.205 75.1593 434.921 82.3748C438.056 82.3775 441.192 82.3775 444.327 82.3775C447.465 82.3775 450.603 82.3775 453.741 82.3802C452.528 78.4003 451.318 74.4195 450.109 70.4388L450.105 70.4254L450.101 70.4151L450.097 70.4001C448.244 64.3038 446.392 58.2079 444.528 52.116C443.621 54.9712 442.714 57.826 441.807 60.6805L441.798 60.7066ZM641.578 128.001C641.578 116.036 641.577 104.071 641.576 92.1063V92.1058C641.574 62.2291 641.572 32.3536 641.583 2.47535C648.667 2.47535 655.752 2.47446 662.837 2.47358H662.837H662.839C680.551 2.47138 698.265 2.46917 715.977 2.48075V35.5061C709.537 35.5088 703.097 35.5088 696.656 35.5088C690.218 35.5088 683.779 35.5088 677.343 35.5115C677.343 36.5856 677.342 37.6598 677.342 38.734V38.7976C677.341 41.9873 677.34 45.1779 677.348 48.3715C681.36 48.3715 685.373 48.3709 689.387 48.3703C697.415 48.3691 705.445 48.3679 713.475 48.3715C713.477 53.8775 713.477 59.3822 713.477 64.8862C713.477 70.3902 713.477 75.8935 713.48 81.3968C704.448 81.4049 695.416 81.4039 686.384 81.4029C683.372 81.4025 680.36 81.4022 677.348 81.4022C677.332 85.9788 677.337 90.5609 677.348 95.1429H715.971C715.979 103.295 715.978 111.447 715.977 119.601V119.765L715.977 124.329L715.977 128.006C701.804 128 687.634 128.001 673.463 128.002C662.835 128.002 652.207 128.003 641.578 128.001ZM239.379 162.516C159.946 162.517 80.5128 162.517 1.07985 162.517C1.03457 171.299 1.03947 180.083 1.04437 188.866C1.0459 191.611 1.04743 194.355 1.04743 197.099C120.202 197.096 239.357 197.098 358.512 197.099C477.667 197.1 596.822 197.102 715.977 197.099V162.517C557.111 162.514 398.245 162.515 239.379 162.516Z" fill="#FFC5BA"/>
<path fill-rule="evenodd" clip-rule="evenodd" d="M597.189 0.676028C587.393 -0.177702 577.234 0.85434 568.243 5.04194C561.057 8.34339 554.762 13.7143 550.699 20.5388C545.29 29.5191 543.928 40.6339 546.165 50.8084C547.743 57.9786 552.006 64.4627 557.891 68.834C565.839 74.8695 575.63 77.6036 585.129 80.1432C586.118 80.424 587.115 80.6895 588.112 80.9553C591.355 81.8198 594.608 82.6866 597.67 84.0877C599.513 84.9846 601.577 86.276 601.96 88.4698C602.301 91.031 600.458 93.268 598.437 94.581C594.266 97.2881 588.83 97.1314 584.324 95.3807C578.24 93.041 573.485 88.1726 570.07 82.7422C559.922 90.7716 549.775 98.801 539.627 106.836C545.047 112.92 551.147 118.534 558.344 122.441C566.903 127.169 576.667 129.346 586.377 129.784C597.081 130.362 608.163 128.822 617.673 123.646C626.438 118.966 633.5 111.072 636.823 101.676C640.086 92.4304 640.34 81.8885 636.585 72.746C634.035 66.6294 629.301 61.6205 623.763 58.0813C615.844 52.9943 606.686 50.4116 597.714 47.8815L597.67 47.869C596.924 47.6508 596.174 47.4388 595.425 47.2267C592.109 46.2887 588.785 45.3482 585.669 43.8543C583.74 42.8763 581.6 41.5092 581.157 39.2236C580.72 36.7218 582.324 34.3065 584.41 33.0638C588.009 30.8862 592.596 30.9997 596.454 32.4316C602.052 34.5173 606.483 38.9912 609.406 44.1136C618.873 36.7759 628.329 29.4327 637.785 22.0841C633.959 17.3724 629.49 13.1578 624.411 9.81311C616.339 4.44217 606.812 1.47573 597.189 0.676028ZM66.5253 2.47535C78.3911 2.46994 90.2569 2.46994 102.123 2.47535C107.634 41.9253 113.14 81.3752 118.646 120.825C118.687 121.112 118.729 121.398 118.771 121.685L118.771 121.685L118.772 121.685L118.772 121.686L118.772 121.686L118.772 121.686C118.991 123.178 119.211 124.672 119.257 126.185C120.681 117.317 122.25 108.471 123.819 99.6265L123.82 99.6238L123.82 99.6224L123.82 99.6211C124.781 94.2033 125.742 88.7858 126.67 83.3636C128.444 73.2494 130.215 63.1352 131.986 53.021C134.937 36.1724 137.887 19.3239 140.849 2.47535C148.797 2.47174 156.744 2.47295 164.691 2.47415H164.692H164.693H164.693H164.694H164.694C168.669 2.47475 172.643 2.47535 176.619 2.47535C171.296 32.7882 165.969 63.101 160.641 93.4138C168.975 93.422 177.309 93.4209 185.643 93.4199C188.418 93.4196 191.194 93.4193 193.969 93.4193C193.267 97.4544 192.566 101.49 191.865 105.526C190.563 113.018 189.261 120.511 187.955 128.001H83.7134C83.2757 124.638 82.8528 121.275 82.4297 117.91L82.4293 117.907L82.4289 117.904L82.4286 117.901L82.4282 117.898L82.4278 117.895C82.2247 116.28 82.0216 114.665 81.8168 113.05C75.7543 113.039 69.693 113.042 63.6318 113.044C57.5706 113.047 51.5094 113.05 45.4468 113.039C43.9818 115.897 42.5364 118.765 41.0912 121.632C40.0204 123.757 38.9498 125.881 37.8713 128.001H0.544922C22.5312 86.1571 44.5229 44.3135 66.5253 2.47535ZM67.8449 67.2243L67.8405 67.233C65.2687 72.2807 62.6969 77.3284 60.1223 82.3748C62.2389 82.3748 64.3548 82.3754 66.4705 82.376H66.4711H66.4717H66.4723H66.4729H66.4735C70.7033 82.3772 74.9323 82.3784 79.1638 82.3748L78.8222 79.5004C77.7365 70.3642 76.6503 61.2244 75.5597 52.089C72.9878 57.1303 70.4186 62.173 67.8493 67.2156L67.8449 67.2243ZM213.086 2.48075C225.011 2.46454 236.936 2.46994 248.862 2.48075C246.204 17.6316 243.541 32.7824 240.878 47.9333L240.877 47.9389L240.876 47.9445L240.875 47.9502C238.212 63.1065 235.548 78.2629 232.889 93.4193C237.333 93.4214 241.776 93.4201 246.22 93.4188C252.885 93.4169 259.551 93.4149 266.217 93.4247C264.711 102.04 263.213 110.655 261.716 119.271L261.715 119.274L261.714 119.278L261.699 119.368C261.199 122.245 260.698 125.123 260.198 128.001H191.089C194.756 107.091 198.419 86.1804 202.082 65.2696C205.749 44.3395 209.415 23.4095 213.086 2.48075ZM324.147 2.47358C313.28 2.47138 302.412 2.46917 291.543 2.48075V128.006C303.522 128.001 315.496 128.001 327.475 128.001C327.477 122.129 327.477 116.258 327.476 110.386V110.364C327.475 102.524 327.474 94.6835 327.48 86.8434C334.283 100.562 341.081 114.282 347.878 128.006C358.446 128.002 369.014 128.003 379.581 128.004C393.672 128.006 407.763 128.008 421.856 127.995L421.859 127.984L421.865 127.964C423.402 122.987 424.939 118.01 426.497 113.039C431.905 113.044 437.311 113.043 442.717 113.042C449.207 113.042 455.696 113.041 462.186 113.05C462.859 115.212 463.529 117.375 464.199 119.538L464.201 119.544C465.074 122.363 465.947 125.183 466.828 128.001C490.743 128.006 514.664 128.006 538.579 128.001C538.579 114.056 538.579 100.11 538.58 86.1641V86.1635V86.1629V86.1623V86.1617V85.1163C538.581 57.5708 538.582 30.0246 538.579 2.48075C529.852 2.46917 521.129 2.47138 512.406 2.47358H512.405H512.405H512.404C508.916 2.47446 505.427 2.47535 501.939 2.47535C501.939 14.2031 501.937 25.9304 501.935 37.6575V37.6581V37.6586V37.6592V37.6598C501.931 66.9844 501.926 96.3079 501.95 125.634C493.594 100.112 485.175 74.6155 476.755 49.1191L476.754 49.1152L476.749 49.0995L476.73 49.0419C471.605 33.5232 466.48 18.0047 461.37 2.48075C452.941 2.47265 444.515 2.47366 436.088 2.47467C433.278 2.47501 430.469 2.47535 427.659 2.47535C414.058 43.4922 400.469 84.5145 386.896 125.542C382.805 118.247 378.69 110.966 374.574 103.684L374.572 103.681L374.569 103.675L374.565 103.668L374.564 103.666C371.181 97.6817 367.798 91.6969 364.429 85.7033C373.36 80.7646 380.077 72.2057 383.032 62.4634C386.485 51.1866 386.258 38.5644 381.363 27.7414C377.894 20.0092 371.923 13.4604 364.58 9.22954C356.329 4.41515 346.668 2.46994 337.185 2.47535C332.84 2.47535 328.495 2.47446 324.15 2.47358H324.149H324.148H324.147ZM327.474 41.3855V41.385L327.475 40.496V40.4956C327.475 38.7188 327.475 36.9421 327.475 35.1657C328.667 35.1894 329.859 35.1777 331.051 35.166C333.118 35.1457 335.185 35.1254 337.244 35.2899C341.448 35.733 345.603 38.1537 347.397 42.0928C349.283 46.2804 348.91 51.5648 346.111 55.2716C343.755 58.3353 339.865 59.9022 336.072 60.0265C334.338 60.0658 332.605 60.0595 330.872 60.0532C329.741 60.0491 328.611 60.045 327.48 60.0535C327.472 53.8324 327.473 47.6082 327.474 41.3855ZM441.798 60.7066L441.79 60.7327C439.497 67.9466 437.205 75.1593 434.921 82.3748C438.056 82.3775 441.192 82.3775 444.327 82.3775C447.465 82.3775 450.603 82.3775 453.741 82.3802C452.528 78.4003 451.318 74.4195 450.109 70.4388L450.105 70.4254L450.101 70.4151L450.097 70.4001C448.244 64.3038 446.392 58.2079 444.528 52.116C443.621 54.9712 442.714 57.826 441.807 60.6805L441.798 60.7066ZM641.578 128.001C641.578 116.036 641.577 104.071 641.576 92.1063V92.1058C641.574 62.2291 641.572 32.3536 641.583 2.47535C648.667 2.47535 655.752 2.47446 662.837 2.47358H662.837H662.839C680.551 2.47138 698.265 2.46917 715.977 2.48075V35.5061C709.537 35.5088 703.097 35.5088 696.656 35.5088C690.218 35.5088 683.779 35.5088 677.343 35.5115C677.343 36.5856 677.342 37.6598 677.342 38.734V38.7976C677.341 41.9873 677.34 45.1779 677.348 48.3715C681.36 48.3715 685.373 48.3709 689.387 48.3703C697.415 48.3691 705.445 48.3679 713.475 48.3715C713.477 53.8775 713.477 59.3822 713.477 64.8862C713.477 70.3902 713.477 75.8935 713.48 81.3968C704.448 81.4049 695.416 81.4039 686.384 81.4029C683.372 81.4025 680.36 81.4022 677.348 81.4022C677.332 85.9788 677.337 90.5609 677.348 95.1429H715.971C715.979 103.295 715.978 111.447 715.977 119.601V119.765L715.977 124.329L715.977 128.006C701.804 128 687.634 128.001 673.463 128.002C662.835 128.002 652.207 128.003 641.578 128.001ZM239.379 162.516C159.946 162.517 80.5128 162.517 1.07985 162.517C1.03457 171.299 1.03947 180.083 1.04437 188.866C1.0459 191.611 1.04743 194.355 1.04743 197.099C120.202 197.096 239.357 197.098 358.512 197.099C477.667 197.1 596.822 197.102 715.977 197.099V162.517C557.111 162.514 398.245 162.515 239.379 162.516Z" fill="#FFC5BA"/>
</svg>
