<svg width="870" height="187" viewBox="0 0 870 187" fill="none" xmlns="http://www.w3.org/2000/svg">
<path fill-rule="evenodd" clip-rule="evenodd" d="M438.692 100.505C433.575 102.488 427.775 103.484 421.292 103.484C406.456 103.484 399.033 96.0606 399.033 81.2246V35.1385H384.611V25.1062L399.503 23.2251L401.854 0.652344H414.552V22.9116H438.065V35.1385H414.552V80.4408C414.552 84.3037 415.414 87.0244 417.138 88.5919C418.863 90.1595 421.818 90.9438 425.995 90.9438C430.171 90.9438 434.516 90.4172 438.692 89.3757V100.505ZM362.923 59.1242C369.093 61.5319 373.527 64.3759 376.247 67.6675C378.968 70.9596 380.323 75.2141 380.323 80.4431C380.323 87.8664 377.558 93.7675 372.015 98.1564C366.473 102.546 359.105 104.74 349.913 104.74C339.567 104.74 330.576 102.758 322.95 98.7836V87.8105C332.77 91.0468 341.862 92.6701 350.226 92.6701C355.343 92.6701 359.239 91.6734 361.904 89.6917C364.569 87.7099 365.901 84.832 365.901 81.0704C365.901 78.562 365.096 76.5244 363.472 74.9569C361.848 73.3894 358.903 71.8213 354.615 70.2538L341.291 65.2377C329.691 60.9494 323.891 53.6379 323.891 43.292C323.891 36.4956 326.533 31.0091 331.807 26.8327C337.081 22.6563 344.012 20.5625 352.578 20.5625C361.143 20.5625 368.622 22.2308 375.934 25.5787V36.5516C367.783 33.9427 360.259 32.6327 353.361 32.6327C343.329 32.6327 338.312 36.0253 338.312 42.8218C338.312 45.5426 339.153 47.6812 340.821 49.2488C342.489 50.8163 345.781 52.5407 350.697 54.4217L362.923 59.1242ZM511.404 102.389H498.55L497.296 94.2376C493.534 97.4733 489.38 99.9817 484.834 101.762C480.288 103.542 475.765 104.426 471.275 104.426C463.851 104.426 457.928 102.31 453.483 98.0779C449.038 93.8455 446.821 88.18 446.821 81.0704C446.821 73.4452 449.542 67.3539 454.972 62.8079C460.403 58.2622 467.725 55.9892 476.918 55.9892C482.975 55.9892 489.559 56.8738 496.669 58.6541V48.3082C496.669 42.665 495.393 38.6902 492.828 36.3948C490.265 34.0995 485.909 32.9462 479.74 32.9462C470.861 32.9462 461.656 34.5698 452.151 37.8056V26.8327C455.913 24.8509 460.515 23.3057 465.945 22.2084C471.376 21.1112 476.862 20.5625 482.405 20.5625C492.336 20.5625 499.648 22.6227 504.35 26.7544C509.053 30.886 511.404 37.1786 511.404 45.6434V102.389ZM496.669 68.6863C491.239 67.3317 485.696 66.6487 480.053 66.6487C468.241 66.6487 462.34 71.1946 462.34 80.2866C462.34 84.2612 463.437 87.3177 465.632 89.4566C467.826 91.5949 470.961 92.6701 475.037 92.6701C482.147 92.6701 489.358 90.0053 496.669 84.6755V68.6863ZM544.748 102.386H529.23V22.9112H542.24L543.964 34.6679C546.887 31.5328 549.608 29.1031 552.116 27.3787C554.624 25.6544 557.188 24.378 559.797 23.5382C562.405 22.6985 565.227 22.2842 568.262 22.2842C570.244 22.2842 572.393 22.4409 574.689 22.7545V36.8625C571.341 36.4482 568.519 36.2354 566.224 36.2354C557.86 36.2354 550.705 38.7435 544.748 43.7597V102.386ZM616.709 103.484C623.197 103.484 628.992 102.488 634.112 100.505V89.3757C629.934 90.4172 625.588 90.9438 621.416 90.9438C617.238 90.9438 614.283 90.1595 612.555 88.5919C610.832 87.0244 609.971 84.3037 609.971 80.4408V35.1385H633.484V22.9116H609.971V0.652344H597.275L594.924 23.2251L580.03 25.1062V35.1385H594.453V81.2246C594.453 96.0606 601.878 103.484 616.709 103.484ZM711.859 102.384H699.006L697.283 93.9194C687.561 101.13 677.588 104.735 667.341 104.735C659.917 104.735 654.232 102.642 650.258 98.4654C646.278 94.2888 644.3 88.3772 644.3 80.7521V22.9093H659.818V75.736C659.818 81.3788 660.918 85.5332 663.111 88.198C665.305 90.8629 668.808 92.1953 673.614 92.1953C681.137 92.1953 688.719 89.687 696.341 84.6709V22.9093H711.859V102.384ZM745.362 134.68H729.844V22.9139H742.854L744.262 31.0651C752.204 24.0671 761.037 20.5625 770.754 20.5625C780.476 20.5625 788.884 24.2463 794.737 31.6138C800.597 38.9813 803.518 48.9913 803.518 61.6325C803.518 74.2738 800.44 84.7762 794.272 92.513C788.099 100.25 779.906 104.113 769.66 104.113C760.251 104.113 752.158 101.034 745.362 94.8649V134.68ZM745.362 84.0483C752.158 89.0644 759.053 91.5728 766.052 91.5728C780.476 91.5728 787.685 81.8541 787.685 62.4163C787.685 52.4846 785.94 45.1171 782.431 40.3137C778.929 35.5103 773.576 33.103 766.366 33.103C759.157 33.103 751.942 35.5103 745.362 40.3137V84.0483ZM852.079 59.1242C858.246 61.5319 862.68 64.3759 865.403 67.6675C868.126 70.9596 869.476 75.2141 869.476 80.4431C869.476 87.8664 866.712 93.7675 861.173 98.1564C855.628 102.546 848.262 104.74 839.069 104.74C828.723 104.74 819.734 102.758 812.106 98.7836V87.8105C821.927 91.0468 831.016 92.6701 839.383 92.6701C844.497 92.6701 848.396 91.6734 851.06 89.6917C853.725 87.7099 855.058 84.832 855.058 81.0704C855.058 78.562 854.249 76.5244 852.626 74.9569C851.002 73.3894 848.058 71.8213 843.77 70.2538L830.446 65.2377C818.849 60.9494 813.048 53.6379 813.048 43.292C813.048 36.4956 815.69 31.0091 820.961 26.8327C826.239 22.6563 833.169 20.5625 841.733 20.5625C850.298 20.5625 857.781 22.2308 865.089 25.5787V36.5516C856.937 33.9427 849.414 32.6327 842.519 32.6327C832.482 32.6327 827.466 36.0253 827.466 42.8218C827.466 45.5426 828.31 47.6812 829.974 49.2488C831.644 50.8163 834.937 52.5407 839.854 54.4217L852.079 59.1242ZM81.3455 77.2738C81.3455 80.8458 81.7039 83.6893 82.4318 85.8171C83.1597 87.9444 84.1895 90.2287 85.533 92.6806C85.981 93.4644 86.2051 94.1922 86.2051 94.8526C86.2051 95.8604 85.5895 96.8123 84.3577 97.6967L78.3338 101.716C77.4377 102.276 76.5981 102.556 75.8254 102.556C74.8177 102.556 73.8774 102.108 72.9814 101.212C71.6379 99.8688 70.4957 98.3909 69.5444 96.7786C68.5925 95.1663 67.6185 93.2962 66.6107 91.169C59.131 99.9921 49.7594 104.393 38.4842 104.393C30.4448 104.393 24.085 102.108 19.3936 97.5286C14.7021 92.9494 12.362 86.8132 12.362 79.1101C12.362 70.97 15.262 64.4085 21.0731 59.4372C26.8731 54.477 34.6884 51.9913 44.5081 51.9913C47.7439 51.9913 51.1254 52.2377 54.6412 52.7415C58.157 53.2454 61.8069 53.9396 65.614 54.8353V47.8037C65.614 40.5481 64.1023 35.4424 61.0907 32.4864C58.0786 29.5305 52.8833 28.0525 45.5158 28.0525C42.1679 28.0525 38.7305 28.4668 35.2147 29.3066C31.6989 30.1463 28.2615 31.2324 24.9136 32.5761C23.3461 33.2479 22.2376 33.6621 21.5657 33.8301C20.8939 33.998 20.3901 34.0764 20.0654 34.0764C18.7218 34.0764 18.0611 33.0687 18.0611 31.0645V26.373C18.0611 24.8055 18.2851 23.697 18.7329 23.0252C19.1809 22.3534 20.0766 21.6816 21.409 21.0209C24.7568 19.3414 28.7766 17.897 33.468 16.6654C38.1595 15.4337 43.1197 14.8179 48.371 14.8179C59.7582 14.8179 68.0996 17.4156 73.4073 22.5997C78.7033 27.795 81.3565 35.6328 81.3565 46.1242V77.2628L81.3455 77.2738ZM242.272 104.717C237.247 104.717 232.344 104.157 227.542 103.049C222.739 101.929 219.055 100.653 216.491 99.1973C214.924 98.3013 213.95 97.4169 213.557 96.5208C213.166 95.6254 212.976 94.7409 212.976 93.8449V88.9859C212.976 86.9814 213.703 85.9736 215.148 85.9736C215.707 85.9736 216.29 86.0859 216.905 86.3094C217.522 86.5334 218.327 86.8697 219.335 87.3171C222.571 88.7729 226.087 89.8924 229.882 90.6651C233.678 91.4488 237.474 91.841 241.27 91.841C247.294 91.841 251.951 90.7774 255.243 88.6612C258.535 86.5444 260.181 83.5328 260.181 79.6251C260.181 76.9491 259.319 74.7096 257.584 72.9291C255.848 71.1493 252.646 69.4695 247.954 67.902L234.059 63.5462C227.027 61.3183 221.922 58.0824 218.742 53.8388C215.562 49.5952 213.972 44.9597 213.972 39.9436C213.972 35.9239 214.834 32.3857 216.57 29.3066C218.294 26.2387 220.589 23.6074 223.433 21.4352C226.277 19.263 229.603 17.6171 233.398 16.4974C237.194 15.3889 241.214 14.8179 245.457 14.8179C247.574 14.8179 249.723 14.9635 251.907 15.2322C254.079 15.5121 256.151 15.8816 258.099 16.3182C260.047 16.7661 261.872 17.27 263.54 17.8298C265.22 18.3897 266.552 18.9495 267.56 19.5093C268.904 20.2931 269.844 21.0769 270.404 21.8495C270.964 22.6333 271.244 23.6857 271.244 25.0294V29.5529C271.244 31.5571 270.516 32.5648 269.072 32.5648C268.288 32.5648 267.067 32.1729 265.387 31.3892C259.912 28.937 253.777 27.7054 246.969 27.7054C241.494 27.7054 237.261 28.6011 234.249 30.3815C231.238 32.1729 229.726 35.017 229.726 38.9246C229.726 41.6007 230.666 43.8624 232.57 45.7099C234.462 47.5462 237.978 49.3153 243.117 50.9836L256.677 55.3392C263.596 57.5785 268.534 60.6463 271.49 64.5429C274.446 68.4506 275.924 72.9181 275.924 77.9342C275.924 82.0659 275.084 85.7834 273.416 89.0638C271.737 92.3559 269.418 95.1773 266.463 97.5175C263.507 99.8577 259.957 101.649 255.826 102.881C251.696 104.112 247.174 104.717 242.272 104.717ZM115.697 101.291C114.914 100.675 114.242 99.4213 113.693 97.5175L91.2549 23.5178C90.6952 21.6255 90.4147 20.3379 90.4147 19.6661C90.4147 18.1098 91.1991 17.3259 92.7549 17.3259H102.127C103.907 17.3259 105.161 17.6395 105.9 18.2441C106.628 18.8599 107.266 20.114 107.826 22.0062L123.905 85.2905L138.808 22.0062C139.256 20.114 139.871 18.8488 140.644 18.2441C141.428 17.6283 142.704 17.3259 144.496 17.3259H152.199C153.979 17.3259 155.267 17.6395 156.051 18.2441C156.835 18.8599 157.439 20.114 157.887 22.0062L172.958 86.1301L189.529 22.0062C190.089 20.114 190.727 18.8488 191.455 18.2441C192.183 17.6283 193.437 17.3259 195.229 17.3259H204.097C205.652 17.3259 206.437 18.1098 206.437 19.6661C206.437 20.114 206.38 20.6178 206.269 21.1777C206.156 21.7375 205.933 22.5213 205.597 23.5178L182.487 97.5175C181.927 99.4213 181.255 100.675 180.482 101.291C179.698 101.907 178.478 102.209 176.798 102.209H168.591C166.8 102.209 165.523 101.873 164.74 101.201C163.956 100.53 163.34 99.2532 162.903 97.3494L148 35.7335L133.265 97.3494C132.818 99.2532 132.201 100.53 131.429 101.201C130.645 101.873 129.369 102.209 127.577 102.209H119.37C117.702 102.209 116.481 101.907 115.697 101.291ZM52.4018 90.0716C48.942 91.2475 45.6501 91.8294 42.5262 91.8294L42.5038 91.841C38.1483 91.841 34.8004 90.6878 32.4603 88.4034C30.1202 86.1191 28.9445 82.738 28.9445 78.2705C28.9445 73.4668 30.512 69.7831 33.6359 67.2189C36.7599 64.6546 41.5073 63.367 47.8671 63.367C50.7671 63.367 53.7566 63.5579 56.8246 63.9494C59.8927 64.3416 62.8263 64.8676 65.614 65.5396V69.5591C65.614 72.7947 65.312 75.5608 64.6958 77.8446C64.0913 80.14 62.9939 82.1782 61.4375 83.9581C58.8738 86.8697 55.8617 88.8963 52.4018 90.0716ZM260.372 151.242C228.875 174.486 183.203 186.848 143.88 186.848C88.7693 186.848 39.1338 166.481 1.57968 132.566C-1.36508 129.901 1.25497 126.262 4.80437 128.333C45.3256 151.914 95.4314 166.111 147.195 166.111C182.106 166.111 220.489 158.867 255.792 143.886C261.122 141.624 265.578 147.39 260.372 151.242ZM236.854 135.018C247.086 133.8 269.463 131.135 273.472 136.269L273.483 136.258C277.514 141.42 269.004 162.683 265.197 172.178C264.044 175.055 266.519 176.209 269.116 174.036C286.012 159.906 290.379 130.279 286.919 126.002C283.482 121.759 253.945 118.108 235.906 130.772C233.141 132.72 233.611 135.407 236.69 135.038L236.854 135.018Z" fill="#FFC5BA"/>
<path fill-rule="evenodd" clip-rule="evenodd" d="M438.692 100.505C433.575 102.488 427.775 103.484 421.292 103.484C406.456 103.484 399.033 96.0606 399.033 81.2246V35.1385H384.611V25.1062L399.503 23.2251L401.854 0.652344H414.552V22.9116H438.065V35.1385H414.552V80.4408C414.552 84.3037 415.414 87.0244 417.138 88.5919C418.863 90.1595 421.818 90.9438 425.995 90.9438C430.171 90.9438 434.516 90.4172 438.692 89.3757V100.505ZM362.923 59.1242C369.093 61.5319 373.527 64.3759 376.247 67.6675C378.968 70.9596 380.323 75.2141 380.323 80.4431C380.323 87.8664 377.558 93.7675 372.015 98.1564C366.473 102.546 359.105 104.74 349.913 104.74C339.567 104.74 330.576 102.758 322.95 98.7836V87.8105C332.77 91.0468 341.862 92.6701 350.226 92.6701C355.343 92.6701 359.239 91.6734 361.904 89.6917C364.569 87.7099 365.901 84.832 365.901 81.0704C365.901 78.562 365.096 76.5244 363.472 74.9569C361.848 73.3894 358.903 71.8213 354.615 70.2538L341.291 65.2377C329.691 60.9494 323.891 53.6379 323.891 43.292C323.891 36.4956 326.533 31.0091 331.807 26.8327C337.081 22.6563 344.012 20.5625 352.578 20.5625C361.143 20.5625 368.622 22.2308 375.934 25.5787V36.5516C367.783 33.9427 360.259 32.6327 353.361 32.6327C343.329 32.6327 338.312 36.0253 338.312 42.8218C338.312 45.5426 339.153 47.6812 340.821 49.2488C342.489 50.8163 345.781 52.5407 350.697 54.4217L362.923 59.1242ZM511.404 102.389H498.55L497.296 94.2376C493.534 97.4733 489.38 99.9817 484.834 101.762C480.288 103.542 475.765 104.426 471.275 104.426C463.851 104.426 457.928 102.31 453.483 98.0779C449.038 93.8455 446.821 88.18 446.821 81.0704C446.821 73.4452 449.542 67.3539 454.972 62.8079C460.403 58.2622 467.725 55.9892 476.918 55.9892C482.975 55.9892 489.559 56.8738 496.669 58.6541V48.3082C496.669 42.665 495.393 38.6902 492.828 36.3948C490.265 34.0995 485.909 32.9462 479.74 32.9462C470.861 32.9462 461.656 34.5698 452.151 37.8056V26.8327C455.913 24.8509 460.515 23.3057 465.945 22.2084C471.376 21.1112 476.862 20.5625 482.405 20.5625C492.336 20.5625 499.648 22.6227 504.35 26.7544C509.053 30.886 511.404 37.1786 511.404 45.6434V102.389ZM496.669 68.6863C491.239 67.3317 485.696 66.6487 480.053 66.6487C468.241 66.6487 462.34 71.1946 462.34 80.2866C462.34 84.2612 463.437 87.3177 465.632 89.4566C467.826 91.5949 470.961 92.6701 475.037 92.6701C482.147 92.6701 489.358 90.0053 496.669 84.6755V68.6863ZM544.748 102.386H529.23V22.9112H542.24L543.964 34.6679C546.887 31.5328 549.608 29.1031 552.116 27.3787C554.624 25.6544 557.188 24.378 559.797 23.5382C562.405 22.6985 565.227 22.2842 568.262 22.2842C570.244 22.2842 572.393 22.4409 574.689 22.7545V36.8625C571.341 36.4482 568.519 36.2354 566.224 36.2354C557.86 36.2354 550.705 38.7435 544.748 43.7597V102.386ZM616.709 103.484C623.197 103.484 628.992 102.488 634.112 100.505V89.3757C629.934 90.4172 625.588 90.9438 621.416 90.9438C617.238 90.9438 614.283 90.1595 612.555 88.5919C610.832 87.0244 609.971 84.3037 609.971 80.4408V35.1385H633.484V22.9116H609.971V0.652344H597.275L594.924 23.2251L580.03 25.1062V35.1385H594.453V81.2246C594.453 96.0606 601.878 103.484 616.709 103.484ZM711.859 102.384H699.006L697.283 93.9194C687.561 101.13 677.588 104.735 667.341 104.735C659.917 104.735 654.232 102.642 650.258 98.4654C646.278 94.2888 644.3 88.3772 644.3 80.7521V22.9093H659.818V75.736C659.818 81.3788 660.918 85.5332 663.111 88.198C665.305 90.8629 668.808 92.1953 673.614 92.1953C681.137 92.1953 688.719 89.687 696.341 84.6709V22.9093H711.859V102.384ZM745.362 134.68H729.844V22.9139H742.854L744.262 31.0651C752.204 24.0671 761.037 20.5625 770.754 20.5625C780.476 20.5625 788.884 24.2463 794.737 31.6138C800.597 38.9813 803.518 48.9913 803.518 61.6325C803.518 74.2738 800.44 84.7762 794.272 92.513C788.099 100.25 779.906 104.113 769.66 104.113C760.251 104.113 752.158 101.034 745.362 94.8649V134.68ZM745.362 84.0483C752.158 89.0644 759.053 91.5728 766.052 91.5728C780.476 91.5728 787.685 81.8541 787.685 62.4163C787.685 52.4846 785.94 45.1171 782.431 40.3137C778.929 35.5103 773.576 33.103 766.366 33.103C759.157 33.103 751.942 35.5103 745.362 40.3137V84.0483ZM852.079 59.1242C858.246 61.5319 862.68 64.3759 865.403 67.6675C868.126 70.9596 869.476 75.2141 869.476 80.4431C869.476 87.8664 866.712 93.7675 861.173 98.1564C855.628 102.546 848.262 104.74 839.069 104.74C828.723 104.74 819.734 102.758 812.106 98.7836V87.8105C821.927 91.0468 831.016 92.6701 839.383 92.6701C844.497 92.6701 848.396 91.6734 851.06 89.6917C853.725 87.7099 855.058 84.832 855.058 81.0704C855.058 78.562 854.249 76.5244 852.626 74.9569C851.002 73.3894 848.058 71.8213 843.77 70.2538L830.446 65.2377C818.849 60.9494 813.048 53.6379 813.048 43.292C813.048 36.4956 815.69 31.0091 820.961 26.8327C826.239 22.6563 833.169 20.5625 841.733 20.5625C850.298 20.5625 857.781 22.2308 865.089 25.5787V36.5516C856.937 33.9427 849.414 32.6327 842.519 32.6327C832.482 32.6327 827.466 36.0253 827.466 42.8218C827.466 45.5426 828.31 47.6812 829.974 49.2488C831.644 50.8163 834.937 52.5407 839.854 54.4217L852.079 59.1242ZM81.3455 77.2738C81.3455 80.8458 81.7039 83.6893 82.4318 85.8171C83.1597 87.9444 84.1895 90.2287 85.533 92.6806C85.981 93.4644 86.2051 94.1922 86.2051 94.8526C86.2051 95.8604 85.5895 96.8123 84.3577 97.6967L78.3338 101.716C77.4377 102.276 76.5981 102.556 75.8254 102.556C74.8177 102.556 73.8774 102.108 72.9814 101.212C71.6379 99.8688 70.4957 98.3909 69.5444 96.7786C68.5925 95.1663 67.6185 93.2962 66.6107 91.169C59.131 99.9921 49.7594 104.393 38.4842 104.393C30.4448 104.393 24.085 102.108 19.3936 97.5286C14.7021 92.9494 12.362 86.8132 12.362 79.1101C12.362 70.97 15.262 64.4085 21.0731 59.4372C26.8731 54.477 34.6884 51.9913 44.5081 51.9913C47.7439 51.9913 51.1254 52.2377 54.6412 52.7415C58.157 53.2454 61.8069 53.9396 65.614 54.8353V47.8037C65.614 40.5481 64.1023 35.4424 61.0907 32.4864C58.0786 29.5305 52.8833 28.0525 45.5158 28.0525C42.1679 28.0525 38.7305 28.4668 35.2147 29.3066C31.6989 30.1463 28.2615 31.2324 24.9136 32.5761C23.3461 33.2479 22.2376 33.6621 21.5657 33.8301C20.8939 33.998 20.3901 34.0764 20.0654 34.0764C18.7218 34.0764 18.0611 33.0687 18.0611 31.0645V26.373C18.0611 24.8055 18.2851 23.697 18.7329 23.0252C19.1809 22.3534 20.0766 21.6816 21.409 21.0209C24.7568 19.3414 28.7766 17.897 33.468 16.6654C38.1595 15.4337 43.1197 14.8179 48.371 14.8179C59.7582 14.8179 68.0996 17.4156 73.4073 22.5997C78.7033 27.795 81.3565 35.6328 81.3565 46.1242V77.2628L81.3455 77.2738ZM242.272 104.717C237.247 104.717 232.344 104.157 227.542 103.049C222.739 101.929 219.055 100.653 216.491 99.1973C214.924 98.3013 213.95 97.4169 213.557 96.5208C213.166 95.6254 212.976 94.7409 212.976 93.8449V88.9859C212.976 86.9814 213.703 85.9736 215.148 85.9736C215.707 85.9736 216.29 86.0859 216.905 86.3094C217.522 86.5334 218.327 86.8697 219.335 87.3171C222.571 88.7729 226.087 89.8924 229.882 90.6651C233.678 91.4488 237.474 91.841 241.27 91.841C247.294 91.841 251.951 90.7774 255.243 88.6612C258.535 86.5444 260.181 83.5328 260.181 79.6251C260.181 76.9491 259.319 74.7096 257.584 72.9291C255.848 71.1493 252.646 69.4695 247.954 67.902L234.059 63.5462C227.027 61.3183 221.922 58.0824 218.742 53.8388C215.562 49.5952 213.972 44.9597 213.972 39.9436C213.972 35.9239 214.834 32.3857 216.57 29.3066C218.294 26.2387 220.589 23.6074 223.433 21.4352C226.277 19.263 229.603 17.6171 233.398 16.4974C237.194 15.3889 241.214 14.8179 245.457 14.8179C247.574 14.8179 249.723 14.9635 251.907 15.2322C254.079 15.5121 256.151 15.8816 258.099 16.3182C260.047 16.7661 261.872 17.27 263.54 17.8298C265.22 18.3897 266.552 18.9495 267.56 19.5093C268.904 20.2931 269.844 21.0769 270.404 21.8495C270.964 22.6333 271.244 23.6857 271.244 25.0294V29.5529C271.244 31.5571 270.516 32.5648 269.072 32.5648C268.288 32.5648 267.067 32.1729 265.387 31.3892C259.912 28.937 253.777 27.7054 246.969 27.7054C241.494 27.7054 237.261 28.6011 234.249 30.3815C231.238 32.1729 229.726 35.017 229.726 38.9246C229.726 41.6007 230.666 43.8624 232.57 45.7099C234.462 47.5462 237.978 49.3153 243.117 50.9836L256.677 55.3392C263.596 57.5785 268.534 60.6463 271.49 64.5429C274.446 68.4506 275.924 72.9181 275.924 77.9342C275.924 82.0659 275.084 85.7834 273.416 89.0638C271.737 92.3559 269.418 95.1773 266.463 97.5175C263.507 99.8577 259.957 101.649 255.826 102.881C251.696 104.112 247.174 104.717 242.272 104.717ZM115.697 101.291C114.914 100.675 114.242 99.4213 113.693 97.5175L91.2549 23.5178C90.6952 21.6255 90.4147 20.3379 90.4147 19.6661C90.4147 18.1098 91.1991 17.3259 92.7549 17.3259H102.127C103.907 17.3259 105.161 17.6395 105.9 18.2441C106.628 18.8599 107.266 20.114 107.826 22.0062L123.905 85.2905L138.808 22.0062C139.256 20.114 139.871 18.8488 140.644 18.2441C141.428 17.6283 142.704 17.3259 144.496 17.3259H152.199C153.979 17.3259 155.267 17.6395 156.051 18.2441C156.835 18.8599 157.439 20.114 157.887 22.0062L172.958 86.1301L189.529 22.0062C190.089 20.114 190.727 18.8488 191.455 18.2441C192.183 17.6283 193.437 17.3259 195.229 17.3259H204.097C205.652 17.3259 206.437 18.1098 206.437 19.6661C206.437 20.114 206.38 20.6178 206.269 21.1777C206.156 21.7375 205.933 22.5213 205.597 23.5178L182.487 97.5175C181.927 99.4213 181.255 100.675 180.482 101.291C179.698 101.907 178.478 102.209 176.798 102.209H168.591C166.8 102.209 165.523 101.873 164.74 101.201C163.956 100.53 163.34 99.2532 162.903 97.3494L148 35.7335L133.265 97.3494C132.818 99.2532 132.201 100.53 131.429 101.201C130.645 101.873 129.369 102.209 127.577 102.209H119.37C117.702 102.209 116.481 101.907 115.697 101.291ZM52.4018 90.0716C48.942 91.2475 45.6501 91.8294 42.5262 91.8294L42.5038 91.841C38.1483 91.841 34.8004 90.6878 32.4603 88.4034C30.1202 86.1191 28.9445 82.738 28.9445 78.2705C28.9445 73.4668 30.512 69.7831 33.6359 67.2189C36.7599 64.6546 41.5073 63.367 47.8671 63.367C50.7671 63.367 53.7566 63.5579 56.8246 63.9494C59.8927 64.3416 62.8263 64.8676 65.614 65.5396V69.5591C65.614 72.7947 65.312 75.5608 64.6958 77.8446C64.0913 80.14 62.9939 82.1782 61.4375 83.9581C58.8738 86.8697 55.8617 88.8963 52.4018 90.0716ZM260.372 151.242C228.875 174.486 183.203 186.848 143.88 186.848C88.7693 186.848 39.1338 166.481 1.57968 132.566C-1.36508 129.901 1.25497 126.262 4.80437 128.333C45.3256 151.914 95.4314 166.111 147.195 166.111C182.106 166.111 220.489 158.867 255.792 143.886C261.122 141.624 265.578 147.39 260.372 151.242ZM236.854 135.018C247.086 133.8 269.463 131.135 273.472 136.269L273.483 136.258C277.514 141.42 269.004 162.683 265.197 172.178C264.044 175.055 266.519 176.209 269.116 174.036C286.012 159.906 290.379 130.279 286.919 126.002C283.482 121.759 253.945 118.108 235.906 130.772C233.141 132.72 233.611 135.407 236.69 135.038L236.854 135.018Z" fill="#FFC5BA"/>
</svg>
