<svg width="969" height="241" viewBox="0 0 969 241" fill="none" xmlns="http://www.w3.org/2000/svg">
<path d="M497.674 3.41162H463.23L426.187 53.4526V3.41162H395.643V111.292H426.187V61.2513L463.23 111.292H497.512L456.407 57.3519L497.674 3.41162V3.41162Z" fill="#FFC5BA"/>
<path d="M103.357 238.344H133.577V179.043L180.531 238.344H207.176V130.301H176.957V187.491L131.79 130.301H103.357V238.344V238.344Z" fill="#FFC5BA"/>
<path d="M247.468 238.344H278.012V156.622H310.994V130.301H214.486V156.622H247.468V238.344V238.344Z" fill="#FFC5BA"/>
<path fill-rule="evenodd" clip-rule="evenodd" d="M98.1579 30.7066C98.1579 43.2169 91.0092 50.528 81.261 54.7523C94.5836 58.9765 103.032 66.4502 103.032 81.0726V81.3975C103.032 99.9192 87.5973 111.13 61.4395 111.13H0.837891V87.084L7.01178 86.2716V28.1071L0.837891 27.2947V3.24902H61.1146C74.9246 3.24902 84.5104 6.66091 91.0092 12.9973C95.5584 17.2215 98.1579 22.908 98.1579 30.3817V30.7066ZM36.5815 27.2947H54.1283C63.2267 27.2947 67.9384 30.7066 67.9384 36.5555V36.8805C67.9384 43.2169 62.7393 46.3038 53.4785 46.3038H36.5815V27.2947ZM72.65 77.3357C72.65 83.6721 67.2885 87.2465 58.0276 87.2465H36.744V67.425H57.7027C67.9384 67.425 72.65 71.3243 72.65 77.1733V77.3357Z" fill="#FFC5BA"/>
<path d="M92.7964 212.836H37.0689V195.777H82.0733V172.219H37.0689V155.809H87.5973L96.2083 130.301L16.5976 130.464V130.301H0.837891V154.509L7.01178 155.322V213.486L0.837891 214.299V238.344H16.5976V238.344H92.7964V212.836V212.836Z" fill="#FFC5BA"/>
<path d="M110.344 111.292H174.195L183.131 85.1345H140.726V3.41162H110.344V111.292V111.292Z" fill="#FFC5BA"/>
<path d="M349.989 113.404C374.359 113.404 388.819 111.942 388.819 111.942L380.208 86.1092C380.208 86.1092 362.499 86.1092 351.126 86.1092C339.753 86.1092 324.968 73.4365 324.968 57.1894V56.8645C324.968 41.1048 335.854 28.2696 351.126 28.2696C366.398 28.2696 380.371 28.2696 380.371 28.2696L388.982 2.92413C388.982 2.92413 374.034 0.812012 351.451 0.812012C318.144 0.812012 293.611 25.5076 293.611 57.0269V57.3519C293.611 89.5211 318.794 113.242 350.314 113.242" fill="#FFC5BA"/>
<path fill-rule="evenodd" clip-rule="evenodd" d="M451.369 238.344H420.987H420.824V130.301H472.815C489.549 130.301 501.247 134.526 508.558 141.999C515.057 148.173 518.307 156.459 518.307 167.182V167.507C518.307 183.917 509.371 194.965 495.723 200.651L521.881 238.344H486.787L464.691 205.688H451.369V238.344ZM451.369 156.134V182.129H471.353C481.751 182.129 487.762 177.093 487.762 169.294V168.969C487.762 160.521 481.588 156.134 471.353 156.134H451.369Z" fill="#FFC5BA"/>
<path fill-rule="evenodd" clip-rule="evenodd" d="M558.763 238.344H528.381V130.301H575.497C603.28 130.301 621.152 144.436 621.152 168.319V168.644C621.152 193.99 601.168 207.475 573.873 207.475H558.763V238.344ZM558.763 155.484V183.917H573.223C583.946 183.917 590.607 178.393 590.607 169.944V169.619C590.607 160.358 584.108 155.484 573.06 155.484H558.763Z" fill="#FFC5BA"/>
<path fill-rule="evenodd" clip-rule="evenodd" d="M660.144 238.344H629.762H629.6V130.301H681.59C698.325 130.301 710.023 134.526 717.334 141.999C723.833 148.173 727.082 156.459 727.082 167.182V167.507C727.082 183.917 718.146 194.965 704.499 200.651L730.656 238.344H695.563L673.467 205.688H660.144V238.344ZM660.144 156.134V182.129H680.291C690.526 182.129 696.538 177.093 696.538 169.294V168.969C696.538 160.521 690.364 156.134 680.128 156.134H660.144Z" fill="#FFC5BA"/>
<rect x="736.994" y="130.301" width="30.5445" height="108.043" fill="#FFC5BA"/>
<path d="M410.101 212.836H354.536V195.777H399.54V172.219H354.536V155.809H405.064L413.513 130.301L333.902 130.464V130.301H318.143V154.509L324.316 155.322V213.486L318.143 214.299V238.344H333.902V238.344H410.101V212.836V212.836Z" fill="#FFC5BA"/>
<path d="M965.589 212.836H909.862V195.777H954.866V172.219H909.862V155.809H960.39L969.001 130.301L889.391 130.464V130.301H873.631V154.509L879.805 155.322V213.486L873.631 214.299V238.344H889.391V238.344H965.589V212.836V212.836Z" fill="#FFC5BA"/>
<path d="M823.429 239.969C850.074 239.969 867.783 226.809 867.783 204.875V204.55C867.783 184.404 852.023 176.28 826.84 170.919C811.568 167.507 807.831 165.395 807.831 160.358V160.033C807.831 156.134 811.406 153.047 818.879 153.047C826.353 153.047 857.06 154.184 857.06 154.184L865.184 130.139C865.184 130.139 838.376 128.189 819.692 128.189C801.008 128.189 777.124 142.649 777.124 162.795V163.12C777.124 185.379 795.159 191.715 818.554 197.077C833.502 200.489 837.076 202.926 837.076 207.475V207.8C837.076 212.349 832.689 215.273 824.566 215.273C811.893 215.273 783.461 214.299 783.461 214.299L775.662 238.344C775.662 238.344 803.932 240.131 823.429 240.131" fill="#FFC5BA"/>
<path fill-rule="evenodd" clip-rule="evenodd" d="M218.224 3.41162H264.365L300.759 111.455H270.214L264.203 92.1207H218.386L212.375 111.455H181.83L218.224 3.41162ZM239.345 25.3452L226.022 67.9126H226.185H256.892L243.569 25.3452H239.345Z" fill="#FFC5BA"/>
</svg>
