<svg width="549" height="250" viewBox="0 0 549 250" fill="none" xmlns="http://www.w3.org/2000/svg">
<path fill-rule="evenodd" clip-rule="evenodd" d="M142.336 121.556C154.6 124.337 164.682 130.455 172.584 139.91H0.583008V0.172852H105.98C129.772 0.172852 148.395 5.9699 161.847 17.564C175.3 29.1581 182.026 44.8929 182.026 64.7685C182.026 79.4386 178.413 91.6242 171.186 101.325C163.96 111.027 154.343 117.77 142.336 121.556ZM128.048 184.013H187.33C186.806 203.672 179.979 219.35 166.85 231.049C153.175 243.235 134.108 249.327 109.649 249.327H0.583008V184.013H57.6176V200.348H99.643C109.204 200.348 116.598 198.041 121.823 193.427C124.678 190.907 126.752 187.769 128.048 184.013ZM317.476 184.013H260.442V249.327H317.476V184.013ZM260.442 139.91H317.476V48.797H383.121V0.190051L194.404 0.172852V48.797H260.442V139.91ZM405.096 249.327V184.013H462.131V200.703H548.516V249.327H405.096ZM405.096 139.91H541.623V99.1958H462.131V48.797H548.516V0.172852H405.096V139.91ZM57.6176 100.97H94.9735C104.313 100.97 111.484 98.7818 116.487 94.4044C121.49 90.0271 123.991 83.5793 123.991 75.0612C123.991 66.5431 121.49 60.0362 116.487 55.5406C111.484 51.0449 104.313 48.797 94.9735 48.797H57.6176V100.97ZM202.184 159.876C202.339 160.163 202.46 160.477 202.548 160.819H204.616C204.55 160.179 204.379 159.611 204.103 159.115C203.827 158.619 203.466 158.197 203.02 157.849C202.573 157.502 202.057 157.237 201.473 157.055C200.889 156.874 200.266 156.783 199.604 156.783C198.722 156.783 197.93 156.948 197.23 157.279C196.53 157.61 195.937 158.056 195.452 158.619C194.967 159.181 194.595 159.837 194.335 160.587C194.076 161.337 193.947 162.131 193.947 162.969C193.947 163.818 194.076 164.618 194.335 165.368C194.595 166.117 194.967 166.774 195.452 167.336C195.937 167.898 196.53 168.342 197.23 168.668C197.93 168.993 198.722 169.156 199.604 169.156C200.321 169.156 200.977 169.04 201.572 168.808C202.168 168.577 202.686 168.249 203.127 167.824C203.568 167.399 203.918 166.895 204.178 166.31C204.437 165.726 204.588 165.081 204.632 164.375H202.614C202.57 164.805 202.477 165.208 202.333 165.583C202.19 165.958 201.991 166.286 201.738 166.567C201.484 166.848 201.181 167.069 200.828 167.228C200.475 167.388 200.067 167.468 199.604 167.468C198.975 167.468 198.432 167.341 197.975 167.088C197.517 166.834 197.145 166.495 196.858 166.071C196.571 165.646 196.359 165.164 196.221 164.623C196.083 164.083 196.014 163.531 196.014 162.969C196.014 162.407 196.083 161.855 196.221 161.315C196.359 160.775 196.571 160.292 196.858 159.868C197.145 159.443 197.517 159.104 197.975 158.85C198.432 158.597 198.975 158.47 199.604 158.47C200.034 158.47 200.412 158.528 200.737 158.643C201.062 158.759 201.346 158.922 201.589 159.131C201.831 159.341 202.03 159.589 202.184 159.876ZM15.2294 157.064H24.7903V158.85H21.0354V168.874H18.9678V158.85H15.2294V157.064ZM41.7246 157.064H43.7923V161.762H49.1682V157.064H51.2359V168.874H49.1682V163.548H43.7923V168.874H41.7246V157.064ZM77.8303 157.064H69.328V168.874H77.9461V167.088H71.3957V163.631H77.3506V161.943H71.3957V158.85H77.8303V157.064ZM115.569 157.064H121.309C122.368 157.064 123.217 157.306 123.857 157.792C124.496 158.277 124.816 159.01 124.816 159.992C124.816 160.587 124.67 161.097 124.378 161.522C124.086 161.946 123.669 162.274 123.129 162.506V162.539C123.857 162.693 124.408 163.038 124.783 163.573C125.158 164.108 125.345 164.778 125.345 165.583C125.345 166.046 125.263 166.479 125.097 166.881C124.932 167.284 124.673 167.631 124.32 167.923C123.967 168.215 123.515 168.447 122.963 168.618C122.412 168.789 121.756 168.874 120.995 168.874H115.569V157.064ZM117.637 162.01H121.012C121.508 162.01 121.921 161.869 122.252 161.588C122.583 161.307 122.748 160.901 122.748 160.372C122.748 159.777 122.6 159.357 122.302 159.115C122.004 158.872 121.574 158.751 121.012 158.751H117.637V162.01ZM121.293 167.187H117.637V163.498H121.293C121.921 163.498 122.409 163.656 122.757 163.97C123.104 164.284 123.278 164.733 123.278 165.318C123.278 165.913 123.104 166.374 122.757 166.699C122.409 167.024 121.921 167.187 121.293 167.187ZM144.893 157.064H142.826V168.874H150.898V167.088H144.893V157.064ZM173.291 157.064H171.091L166.558 168.874H168.692L169.8 165.748H174.515L175.623 168.874H177.84L173.291 157.064ZM173.969 164.177H170.363L172.149 159.098H172.199L173.969 164.177ZM222.129 157.064H224.197V162.44L229.457 157.064H232.004L227.29 161.778L232.335 168.874H229.755L225.884 163.234L224.197 164.904V168.874H222.129V157.064ZM277.716 157.064H268.155V158.85H271.894V168.874H273.962V158.85H277.716V157.064ZM294.7 157.064H303.203V158.85H296.768V161.943H302.723V163.631H296.768V167.088H303.318V168.874H294.7V157.064ZM328.341 159.876C328.496 160.163 328.617 160.477 328.705 160.819H330.773C330.707 160.179 330.536 159.611 330.26 159.115C329.984 158.619 329.623 158.197 329.177 157.849C328.73 157.502 328.215 157.237 327.63 157.055C327.046 156.874 326.423 156.783 325.761 156.783C324.879 156.783 324.087 156.948 323.387 157.279C322.687 157.61 322.094 158.056 321.609 158.619C321.124 159.181 320.752 159.837 320.492 160.587C320.233 161.337 320.104 162.131 320.104 162.969C320.104 163.818 320.233 164.618 320.492 165.368C320.752 166.117 321.124 166.774 321.609 167.336C322.094 167.898 322.687 168.342 323.387 168.668C324.087 168.993 324.879 169.156 325.761 169.156C326.478 169.156 327.134 169.04 327.729 168.808C328.325 168.577 328.843 168.249 329.284 167.824C329.725 167.399 330.075 166.895 330.335 166.31C330.594 165.726 330.745 165.081 330.789 164.375H328.771C328.727 164.805 328.634 165.208 328.49 165.583C328.347 165.958 328.148 166.286 327.895 166.567C327.641 166.848 327.338 167.069 326.985 167.228C326.632 167.388 326.224 167.468 325.761 167.468C325.132 167.468 324.589 167.341 324.132 167.088C323.674 166.834 323.302 166.495 323.015 166.071C322.728 165.646 322.516 165.164 322.378 164.623C322.24 164.083 322.171 163.531 322.171 162.969C322.171 162.407 322.24 161.855 322.378 161.315C322.516 160.775 322.728 160.292 323.015 159.868C323.302 159.443 323.674 159.104 324.132 158.85C324.589 158.597 325.132 158.47 325.761 158.47C326.191 158.47 326.569 158.528 326.894 158.643C327.219 158.759 327.503 158.922 327.746 159.131C327.988 159.341 328.187 159.589 328.341 159.876ZM348.236 157.064H350.304V161.762H355.68V157.064H357.748V168.874H355.68V163.548H350.304V168.874H348.236V157.064ZM404.552 157.064H396.049V168.874H404.667V167.088H398.117V163.631H404.072V161.943H398.117V158.85H404.552V157.064ZM422.081 157.064H430.236V158.85H424.149V161.943H429.492V163.631H424.149V168.874H422.081V157.064ZM455.656 157.064H447.501V168.874H449.569V163.631H454.912V161.943H449.569V158.85H455.656V157.064ZM472.921 157.064H481.424V158.85H474.989V161.943H480.944V163.631H474.989V167.088H481.539V168.874H472.921V157.064ZM506.562 159.876C506.717 160.163 506.838 160.477 506.926 160.819H508.994C508.928 160.179 508.757 159.611 508.481 159.115C508.205 158.619 507.844 158.197 507.398 157.849C506.951 157.502 506.436 157.237 505.851 157.055C505.267 156.874 504.644 156.783 503.982 156.783C503.1 156.783 502.308 156.948 501.608 157.279C500.908 157.61 500.315 158.056 499.83 158.619C499.345 159.181 498.973 159.837 498.714 160.587C498.454 161.337 498.325 162.131 498.325 162.969C498.325 163.818 498.454 164.618 498.714 165.368C498.973 166.117 499.345 166.774 499.83 167.336C500.315 167.898 500.908 168.342 501.608 168.668C502.308 168.993 503.1 169.156 503.982 169.156C504.699 169.156 505.355 169.04 505.95 168.808C506.546 168.577 507.064 168.249 507.505 167.824C507.946 167.399 508.296 166.895 508.556 166.31C508.815 165.726 508.966 165.081 509.01 164.375H506.992C506.948 164.805 506.855 165.208 506.711 165.583C506.568 165.958 506.369 166.286 506.116 166.567C505.862 166.848 505.559 167.069 505.206 167.228C504.853 167.388 504.445 167.468 503.982 167.468C503.353 167.468 502.81 167.341 502.353 167.088C501.895 166.834 501.523 166.495 501.236 166.071C500.949 165.646 500.737 165.164 500.599 164.623C500.461 164.083 500.392 163.531 500.392 162.969C500.392 162.407 500.461 161.855 500.599 161.315C500.737 160.775 500.949 160.292 501.236 159.868C501.523 159.443 501.895 159.104 502.353 158.85C502.81 158.597 503.353 158.47 503.982 158.47C504.412 158.47 504.79 158.528 505.115 158.643C505.44 158.759 505.724 158.922 505.967 159.131C506.21 159.341 506.408 159.589 506.562 159.876ZM525.382 157.064H534.943V158.85H531.188V168.874H529.121V158.85H525.382V157.064Z" fill="#FFC5BA"/>
<path fill-rule="evenodd" clip-rule="evenodd" d="M142.336 121.556C154.6 124.337 164.682 130.455 172.584 139.91H0.583008V0.172852H105.98C129.772 0.172852 148.395 5.9699 161.847 17.564C175.3 29.1581 182.026 44.8929 182.026 64.7685C182.026 79.4386 178.413 91.6242 171.186 101.325C163.96 111.027 154.343 117.77 142.336 121.556ZM128.048 184.013H187.33C186.806 203.672 179.979 219.35 166.85 231.049C153.175 243.235 134.108 249.327 109.649 249.327H0.583008V184.013H57.6176V200.348H99.643C109.204 200.348 116.598 198.041 121.823 193.427C124.678 190.907 126.752 187.769 128.048 184.013ZM317.476 184.013H260.442V249.327H317.476V184.013ZM260.442 139.91H317.476V48.797H383.121V0.190051L194.404 0.172852V48.797H260.442V139.91ZM405.096 249.327V184.013H462.131V200.703H548.516V249.327H405.096ZM405.096 139.91H541.623V99.1958H462.131V48.797H548.516V0.172852H405.096V139.91ZM57.6176 100.97H94.9735C104.313 100.97 111.484 98.7818 116.487 94.4044C121.49 90.0271 123.991 83.5793 123.991 75.0612C123.991 66.5431 121.49 60.0362 116.487 55.5406C111.484 51.0449 104.313 48.797 94.9735 48.797H57.6176V100.97ZM202.184 159.876C202.339 160.163 202.46 160.477 202.548 160.819H204.616C204.55 160.179 204.379 159.611 204.103 159.115C203.827 158.619 203.466 158.197 203.02 157.849C202.573 157.502 202.057 157.237 201.473 157.055C200.889 156.874 200.266 156.783 199.604 156.783C198.722 156.783 197.93 156.948 197.23 157.279C196.53 157.61 195.937 158.056 195.452 158.619C194.967 159.181 194.595 159.837 194.335 160.587C194.076 161.337 193.947 162.131 193.947 162.969C193.947 163.818 194.076 164.618 194.335 165.368C194.595 166.117 194.967 166.774 195.452 167.336C195.937 167.898 196.53 168.342 197.23 168.668C197.93 168.993 198.722 169.156 199.604 169.156C200.321 169.156 200.977 169.04 201.572 168.808C202.168 168.577 202.686 168.249 203.127 167.824C203.568 167.399 203.918 166.895 204.178 166.31C204.437 165.726 204.588 165.081 204.632 164.375H202.614C202.57 164.805 202.477 165.208 202.333 165.583C202.19 165.958 201.991 166.286 201.738 166.567C201.484 166.848 201.181 167.069 200.828 167.228C200.475 167.388 200.067 167.468 199.604 167.468C198.975 167.468 198.432 167.341 197.975 167.088C197.517 166.834 197.145 166.495 196.858 166.071C196.571 165.646 196.359 165.164 196.221 164.623C196.083 164.083 196.014 163.531 196.014 162.969C196.014 162.407 196.083 161.855 196.221 161.315C196.359 160.775 196.571 160.292 196.858 159.868C197.145 159.443 197.517 159.104 197.975 158.85C198.432 158.597 198.975 158.47 199.604 158.47C200.034 158.47 200.412 158.528 200.737 158.643C201.062 158.759 201.346 158.922 201.589 159.131C201.831 159.341 202.03 159.589 202.184 159.876ZM15.2294 157.064H24.7903V158.85H21.0354V168.874H18.9678V158.85H15.2294V157.064ZM41.7246 157.064H43.7923V161.762H49.1682V157.064H51.2359V168.874H49.1682V163.548H43.7923V168.874H41.7246V157.064ZM77.8303 157.064H69.328V168.874H77.9461V167.088H71.3957V163.631H77.3506V161.943H71.3957V158.85H77.8303V157.064ZM115.569 157.064H121.309C122.368 157.064 123.217 157.306 123.857 157.792C124.496 158.277 124.816 159.01 124.816 159.992C124.816 160.587 124.67 161.097 124.378 161.522C124.086 161.946 123.669 162.274 123.129 162.506V162.539C123.857 162.693 124.408 163.038 124.783 163.573C125.158 164.108 125.345 164.778 125.345 165.583C125.345 166.046 125.263 166.479 125.097 166.881C124.932 167.284 124.673 167.631 124.32 167.923C123.967 168.215 123.515 168.447 122.963 168.618C122.412 168.789 121.756 168.874 120.995 168.874H115.569V157.064ZM117.637 162.01H121.012C121.508 162.01 121.921 161.869 122.252 161.588C122.583 161.307 122.748 160.901 122.748 160.372C122.748 159.777 122.6 159.357 122.302 159.115C122.004 158.872 121.574 158.751 121.012 158.751H117.637V162.01ZM121.293 167.187H117.637V163.498H121.293C121.921 163.498 122.409 163.656 122.757 163.97C123.104 164.284 123.278 164.733 123.278 165.318C123.278 165.913 123.104 166.374 122.757 166.699C122.409 167.024 121.921 167.187 121.293 167.187ZM144.893 157.064H142.826V168.874H150.898V167.088H144.893V157.064ZM173.291 157.064H171.091L166.558 168.874H168.692L169.8 165.748H174.515L175.623 168.874H177.84L173.291 157.064ZM173.969 164.177H170.363L172.149 159.098H172.199L173.969 164.177ZM222.129 157.064H224.197V162.44L229.457 157.064H232.004L227.29 161.778L232.335 168.874H229.755L225.884 163.234L224.197 164.904V168.874H222.129V157.064ZM277.716 157.064H268.155V158.85H271.894V168.874H273.962V158.85H277.716V157.064ZM294.7 157.064H303.203V158.85H296.768V161.943H302.723V163.631H296.768V167.088H303.318V168.874H294.7V157.064ZM328.341 159.876C328.496 160.163 328.617 160.477 328.705 160.819H330.773C330.707 160.179 330.536 159.611 330.26 159.115C329.984 158.619 329.623 158.197 329.177 157.849C328.73 157.502 328.215 157.237 327.63 157.055C327.046 156.874 326.423 156.783 325.761 156.783C324.879 156.783 324.087 156.948 323.387 157.279C322.687 157.61 322.094 158.056 321.609 158.619C321.124 159.181 320.752 159.837 320.492 160.587C320.233 161.337 320.104 162.131 320.104 162.969C320.104 163.818 320.233 164.618 320.492 165.368C320.752 166.117 321.124 166.774 321.609 167.336C322.094 167.898 322.687 168.342 323.387 168.668C324.087 168.993 324.879 169.156 325.761 169.156C326.478 169.156 327.134 169.04 327.729 168.808C328.325 168.577 328.843 168.249 329.284 167.824C329.725 167.399 330.075 166.895 330.335 166.31C330.594 165.726 330.745 165.081 330.789 164.375H328.771C328.727 164.805 328.634 165.208 328.49 165.583C328.347 165.958 328.148 166.286 327.895 166.567C327.641 166.848 327.338 167.069 326.985 167.228C326.632 167.388 326.224 167.468 325.761 167.468C325.132 167.468 324.589 167.341 324.132 167.088C323.674 166.834 323.302 166.495 323.015 166.071C322.728 165.646 322.516 165.164 322.378 164.623C322.24 164.083 322.171 163.531 322.171 162.969C322.171 162.407 322.24 161.855 322.378 161.315C322.516 160.775 322.728 160.292 323.015 159.868C323.302 159.443 323.674 159.104 324.132 158.85C324.589 158.597 325.132 158.47 325.761 158.47C326.191 158.47 326.569 158.528 326.894 158.643C327.219 158.759 327.503 158.922 327.746 159.131C327.988 159.341 328.187 159.589 328.341 159.876ZM348.236 157.064H350.304V161.762H355.68V157.064H357.748V168.874H355.68V163.548H350.304V168.874H348.236V157.064ZM404.552 157.064H396.049V168.874H404.667V167.088H398.117V163.631H404.072V161.943H398.117V158.85H404.552V157.064ZM422.081 157.064H430.236V158.85H424.149V161.943H429.492V163.631H424.149V168.874H422.081V157.064ZM455.656 157.064H447.501V168.874H449.569V163.631H454.912V161.943H449.569V158.85H455.656V157.064ZM472.921 157.064H481.424V158.85H474.989V161.943H480.944V163.631H474.989V167.088H481.539V168.874H472.921V157.064ZM506.562 159.876C506.717 160.163 506.838 160.477 506.926 160.819H508.994C508.928 160.179 508.757 159.611 508.481 159.115C508.205 158.619 507.844 158.197 507.398 157.849C506.951 157.502 506.436 157.237 505.851 157.055C505.267 156.874 504.644 156.783 503.982 156.783C503.1 156.783 502.308 156.948 501.608 157.279C500.908 157.61 500.315 158.056 499.83 158.619C499.345 159.181 498.973 159.837 498.714 160.587C498.454 161.337 498.325 162.131 498.325 162.969C498.325 163.818 498.454 164.618 498.714 165.368C498.973 166.117 499.345 166.774 499.83 167.336C500.315 167.898 500.908 168.342 501.608 168.668C502.308 168.993 503.1 169.156 503.982 169.156C504.699 169.156 505.355 169.04 505.95 168.808C506.546 168.577 507.064 168.249 507.505 167.824C507.946 167.399 508.296 166.895 508.556 166.31C508.815 165.726 508.966 165.081 509.01 164.375H506.992C506.948 164.805 506.855 165.208 506.711 165.583C506.568 165.958 506.369 166.286 506.116 166.567C505.862 166.848 505.559 167.069 505.206 167.228C504.853 167.388 504.445 167.468 503.982 167.468C503.353 167.468 502.81 167.341 502.353 167.088C501.895 166.834 501.523 166.495 501.236 166.071C500.949 165.646 500.737 165.164 500.599 164.623C500.461 164.083 500.392 163.531 500.392 162.969C500.392 162.407 500.461 161.855 500.599 161.315C500.737 160.775 500.949 160.292 501.236 159.868C501.523 159.443 501.895 159.104 502.353 158.85C502.81 158.597 503.353 158.47 503.982 158.47C504.412 158.47 504.79 158.528 505.115 158.643C505.44 158.759 505.724 158.922 505.967 159.131C506.21 159.341 506.408 159.589 506.562 159.876ZM525.382 157.064H534.943V158.85H531.188V168.874H529.121V158.85H525.382V157.064Z" fill="#FFC5BA"/>
</svg>
