<svg width="1734" height="254" viewBox="0 0 1734 254" fill="none" xmlns="http://www.w3.org/2000/svg">
<path fill-rule="evenodd" clip-rule="evenodd" d="M21.6103 2.77962C26.2414 0.912208 31.3208 0.613421 36.3255 0.762815H154.271C162.04 0.762815 169.734 3.67598 175.56 8.83004C182.208 14.7311 186.466 23.3959 186.466 32.3595V160.091C186.615 165.095 185.719 170.1 183.627 174.582C178.697 185.637 167.194 193.405 155.018 193.629H63.9632V253.162C53.9919 243.863 44.0579 234.546 34.1239 225.228L34.1219 225.226C24.1873 215.908 14.2526 206.589 4.28066 197.289C3.97324 196.982 3.6314 196.677 3.28268 196.367C1.85202 195.092 0.305603 193.715 0.545834 191.613V32.3595C0.545834 19.437 9.43472 7.18672 21.6103 2.77962ZM12.9455 33.1064V181.155H154.271C164.729 181.304 174.066 172.042 174.066 161.585V33.1064C174.215 22.5742 164.804 13.0877 154.271 13.1624H32.5907C22.0584 13.1624 12.7961 22.5742 12.9455 33.1064ZM19.3012 193.561L19.2947 193.555H51.1154V223.433C40.5107 213.426 29.9059 203.493 19.3012 193.561ZM32.5907 32.2101H136.419C141.349 32.3595 146.727 33.4799 150.312 37.14C153.898 40.8002 155.018 46.1036 155.018 51.0336V80.9122C155.018 84.8711 153.599 88.7554 150.835 91.6685C147.698 95.0299 143.291 96.8226 139.033 98.2418C147.25 99.8104 154.421 106.683 154.944 115.273C155.043 121.397 155.01 127.554 154.977 133.7V133.7V133.7V133.7V133.701V133.701V133.701V133.701V133.701V133.701V133.701V133.701V133.702V133.702V133.702V133.702V133.702V133.702V133.702V133.703V133.703V133.703V133.703V133.703V133.703V133.703V133.704V133.704V133.704V133.704V133.704V133.704V133.704V133.704V133.705V133.705V133.705V133.705V133.705V133.705V133.705V133.706V133.706V133.706V133.706V133.706V133.706V133.706V133.707V133.707V133.707V133.707V133.707V133.707V133.707V133.708V133.708V133.708V133.708V133.708V133.708V133.708V133.708V133.709V133.709V133.709V133.709V133.709V133.709V133.712C154.96 136.782 154.944 139.851 154.944 142.91C154.944 148.214 153.226 153.741 149.267 157.327C145.382 160.838 140.004 162.182 134.925 162.107H32.5907V32.2101ZM84.3554 86.2904V65.5247H84.4301H103.552C103.488 68.4946 103.507 71.4507 103.525 74.4048V74.4052V74.4055V74.4058V74.4062V74.4065V74.4069V74.4072V74.4076V74.4079V74.4082V74.4086V74.4089V74.4093V74.4096V74.41V74.4103V74.4107V74.411V74.4113V74.4117V74.412V74.4124V74.4127V74.4131V74.4134V74.4137V74.4141V74.4144V74.4148V74.4151V74.4155V74.4158V74.4161V74.4165V74.4168V74.4172V74.4175V74.4179V74.4182V74.4185V74.4189V74.4192V74.4196V74.4199V74.4203V74.4206V74.421V74.4213V74.4216V74.422V74.4223V74.4227V74.423V74.4234V74.4237V74.424V74.4244V74.4247V74.4251V74.4254V74.4258V74.4261V74.4264V74.4268V74.4271V74.4275V74.4278V74.4282C103.549 78.3764 103.574 82.3212 103.403 86.2904H84.3554ZM84.3554 108.923V129.241H103.478V108.923H84.3554ZM674.906 45.3567C668.482 45.8795 661.685 47.8963 657.502 53.0504L657.577 53.1251C652.497 59.4743 651.228 67.915 651.003 75.7582V105.711C650.929 112.584 650.929 119.53 653.095 126.104C654.813 131.407 658.025 136.561 663.03 139.176C670.051 142.836 678.342 143.06 686.036 142.163C692.311 141.342 698.735 138.429 702.096 132.826C706.67 125.589 706.627 116.854 706.585 108.561C706.582 107.781 706.578 107.005 706.578 106.234H686.111C686.038 108.107 686.076 109.987 686.114 111.868C686.192 115.764 686.271 119.661 685.364 123.489C684.318 129.166 674.682 129.092 673.188 123.713C672.084 120.594 672.11 117.193 672.135 113.853C672.139 113.353 672.143 112.855 672.143 112.359V71.2017C672.217 67.9897 672.367 64.4043 674.383 61.7152C677.371 58.802 684.169 59.1755 685.289 63.8067C686.257 67.5764 686.183 71.4504 686.109 75.3101C686.074 77.1099 686.04 78.9065 686.111 80.6881H706.578C706.565 79.5433 706.568 78.3939 706.57 77.2428V77.2418V77.2409V77.2399V77.2389V77.238V77.237V77.2361V77.2351V77.2341V77.2332V77.2322V77.2313V77.2303V77.2293V77.2284V77.2274V77.2264V77.2255V77.2245V77.2236V77.2226V77.2216V77.2207V77.2197V77.2188V77.2178V77.2168V77.2159V77.2149V77.214V77.213V77.212V77.2111V77.2101V77.2091V77.2082V77.2072V77.2063V77.2053V77.2043V77.2034V77.2024V77.2015V77.2005V77.1995V77.1986V77.1976V77.1966V77.1957V77.1947V77.1938V77.1928V77.1918V77.1909V77.1899V77.189V77.188C706.584 71.6731 706.598 66.1189 704.934 60.8188C703.366 55.5901 700.004 50.5854 694.925 48.1951C688.725 45.1326 681.629 44.9085 674.906 45.3567ZM1107.47 46.5518C1113.97 44.7591 1121.07 44.535 1127.57 46.5518C1131.6 47.7469 1135.04 50.5854 1136.9 54.3202C1139.89 59.6984 1141.09 65.8982 1141.31 72.0233C1135.34 72.7703 1129.29 73.5173 1123.31 74.1895C1123.25 73.3989 1123.21 72.6018 1123.16 71.8036C1123 68.756 1122.83 65.6924 1121.59 62.9103C1119.95 59.4743 1114.27 59.7731 1112.7 63.1344C1110.09 68.1391 1111.88 74.563 1115.69 78.5219C1118.49 81.6067 1121.66 84.3529 1124.83 87.0987C1129.95 91.5339 1135.07 95.9682 1138.62 101.827C1142.28 107.579 1143.55 114.6 1142.95 121.323C1142.36 128.345 1138.32 135.067 1132.27 138.727C1125.85 142.836 1117.71 143.134 1110.39 141.715C1104.86 140.669 1099.48 137.756 1096.34 132.976C1092.39 126.925 1091.41 119.53 1091.12 112.434C1094.1 111.986 1097.07 111.538 1100.04 111.09C1103.01 110.641 1105.98 110.193 1108.97 109.745C1108.98 109.952 1108.99 110.159 1109 110.367C1109.01 110.599 1109.02 110.831 1109.03 111.065C1109.21 115.154 1109.4 119.408 1111.36 123.116C1112.93 126.178 1117.11 127.598 1120.1 125.88C1122.71 124.012 1122.64 120.427 1122.41 117.588C1122.11 112.957 1119.43 108.849 1116.29 105.637C1113.84 103.143 1111.15 100.853 1108.46 98.5601C1103.17 94.0551 1097.87 89.5409 1094.4 83.4519C1090.74 76.8039 1090.52 68.662 1092.31 61.4164C1094.18 54.2455 1100.23 48.5686 1107.32 46.6265L1107.47 46.5518ZM1711.69 45.3567C1704.52 44.7591 1696.83 45.5807 1690.78 49.7638L1690.7 49.6891C1686 52.8263 1682.86 58.0551 1681.89 63.6573C1680.62 70.7535 1681.29 78.5219 1685.33 84.647C1688.73 90.0624 1693.54 94.15 1698.36 98.2386L1698.36 98.2393C1701.77 101.143 1705.19 104.048 1708.11 107.429C1711.92 111.762 1713.79 118.186 1711.84 123.788C1710.13 127.672 1704.22 127 1702.06 123.863C1699.6 120.307 1699.38 115.857 1699.18 111.625C1699.16 111.319 1699.15 111.014 1699.13 110.711C1699.11 110.362 1699.09 110.015 1699.07 109.67C1696.1 110.116 1693.15 110.562 1690.19 111.008L1690.17 111.011L1690.14 111.015L1690.12 111.019C1687.16 111.466 1684.2 111.912 1681.22 112.359C1681.59 119.605 1682.56 127.299 1686.82 133.349C1690.11 138.055 1695.56 140.819 1701.09 141.79C1708.26 142.985 1716.18 142.686 1722.45 138.653C1728.28 135.067 1732.16 128.718 1732.98 121.921C1733.8 114.526 1732.24 106.608 1727.83 100.483C1724.38 95.1728 1719.62 91.0686 1714.85 86.9591C1711.57 84.1314 1708.28 81.3011 1705.42 78.0737C1701.83 74.1895 1700.27 67.915 1702.81 63.0597C1704.37 59.6984 1710.13 59.549 1711.69 63.0597C1712.83 65.9213 1713.01 68.9731 1713.19 71.9875L1713.19 72.0023C1713.23 72.7599 1713.28 73.5151 1713.34 74.2642C1719.31 73.592 1725.36 72.845 1731.34 72.098C1731.04 65.1512 1729.55 57.9804 1725.51 52.154C1722.38 47.7469 1716.85 45.8048 1711.69 45.3567ZM256.307 62.014V46.4771H305.756V62.014H291.638V141.118H270.649V62.014H256.382H256.307ZM335.261 46.4771H314.346V141.118H335.261V99.7357H349.827V141.118H370.891V46.4771H349.827V84.8711H335.261V46.4771ZM385.308 46.4024H427.81V60.6695H406.223V84.1242H422.656V98.6153H406.223V126.925H428.034V141.043H385.308V46.4024ZM491.153 46.4024H467.399V140.968H497.129C504.075 140.894 511.396 139.549 516.848 134.918C522.003 130.585 524.318 123.863 524.841 117.364C525.439 110.417 524.916 102.724 520.583 96.8973C517.745 93.0131 513.039 90.9216 508.333 90.1746C513.487 89.2035 518.417 85.9916 520.434 81.0616C522.675 75.4594 522.525 69.1849 521.405 63.3585C520.135 56.8599 515.429 51.0336 509.08 48.7927C503.328 46.7759 497.203 46.4024 491.153 46.4024ZM488.314 60.4454V84.2736C488.817 84.2736 489.324 84.2792 489.833 84.2849C493.031 84.3204 496.32 84.357 499.22 83.0037C502.432 81.4351 503.478 77.5509 503.702 74.2642C504.001 70.4547 503.702 65.8982 500.639 63.2091C497.667 60.5015 493.586 60.4796 489.79 60.4593C489.292 60.4567 488.799 60.454 488.314 60.4454ZM488.314 126.402V98.1671C489.046 98.1795 489.795 98.1713 490.553 98.1631C494.366 98.1216 498.396 98.0777 501.386 100.632C504.598 103.545 504.822 108.251 504.972 112.285C504.897 116.542 504.449 121.398 501.013 124.311C497.91 126.59 494.003 126.508 490.291 126.43H490.291H490.29H490.29C489.623 126.416 488.963 126.402 488.314 126.402ZM536.12 46.4024H557.035V126.925H578.772V141.043H536.12V46.4024ZM625.009 46.4024H601.181C595.28 77.9244 589.304 109.521 583.328 141.043H603.048C603.607 137.729 604.147 134.396 604.687 131.063L604.692 131.034L604.696 131.005C605.236 127.672 605.776 124.339 606.335 121.024H620.228C620.751 124.347 621.274 127.688 621.797 131.03L621.797 131.034C622.32 134.376 622.843 137.719 623.366 141.043H642.637C636.811 109.521 630.91 77.9244 625.009 46.4024ZM608.202 108.625H618.286C617.573 103.535 616.885 98.4321 616.195 93.3219L616.194 93.3106L616.192 93.2949C615.224 86.1147 614.254 78.9196 613.207 71.7245C612.274 79.054 611.262 86.3571 610.249 93.6651L610.246 93.69C609.557 98.6626 608.867 103.637 608.202 108.625ZM738.921 46.4024H718.006V140.968H738.921V104.666C738.747 103.038 739.613 101.681 740.464 100.35C740.706 99.9706 740.947 99.5936 741.162 99.2129C743.418 106.128 745.673 113.024 747.929 119.92L747.93 119.924L747.997 120.129C750.275 127.094 752.554 134.059 754.832 141.043H776.12C773.057 132.415 769.995 123.768 766.932 115.122C763.87 106.476 760.807 97.8306 757.745 89.2035C760.658 82.07 763.59 74.9365 766.522 67.803L766.522 67.8012L766.525 67.794L766.528 67.7868L766.529 67.785L766.532 67.7778L766.533 67.7761L766.536 67.7689L766.541 67.7563L766.546 67.7438L766.551 67.7313L766.554 67.7241L766.557 67.7169L766.558 67.7151L766.558 67.7134L766.559 67.7116L766.56 67.7098L766.561 67.708L766.561 67.7062L766.562 67.7044L766.563 67.7027L766.563 67.7009L766.564 67.6991L766.565 67.6973L766.566 67.6955L766.566 67.6937L766.567 67.6919L766.568 67.6902L766.569 67.6884L766.569 67.6866L766.57 67.6848L766.571 67.683L766.572 67.6812L766.572 67.6794L766.573 67.6777L766.574 67.6759L766.574 67.6741L766.575 67.6723L766.576 67.6705L766.577 67.6687L766.577 67.6669L766.578 67.6652L766.579 67.6634L766.58 67.6616L766.58 67.6598L766.581 67.658L766.582 67.6562L766.583 67.6544L766.583 67.6527L766.584 67.6509L766.585 67.6491L766.585 67.6473L766.586 67.6455L766.587 67.6437L766.588 67.642C769.497 60.5621 772.407 53.4823 775.299 46.4024H754.832C752.183 52.8199 749.534 59.2561 746.884 65.6923L746.878 65.708C744.226 72.1518 741.574 78.5955 738.921 85.0205V46.4024ZM810.257 46.4024H828.034C828.568 51.6531 829.089 56.9038 829.611 62.1545C830.914 75.2792 832.217 88.4038 833.711 101.528C835.065 90.0901 836.565 78.6517 838.065 67.2133C838.965 60.351 839.864 53.4888 840.733 46.6265H854.626C855.615 53.723 856.581 60.8195 857.547 67.9116C859.061 79.0341 860.574 90.1458 862.171 101.23C863.239 90.3239 864.387 79.4447 865.535 68.5604C866.314 61.1801 867.093 53.7973 867.848 46.4024H885.327C881.592 77.9244 877.782 109.521 873.973 141.043H855.747C854.562 132.88 853.419 124.718 852.276 116.555C850.751 105.67 849.227 94.7851 847.605 83.9001C846.331 93.7421 845.018 103.584 843.705 113.416L843.703 113.436L843.7 113.453C842.475 122.637 841.25 131.811 840.06 140.968H821.61C819.706 125.208 817.801 109.429 815.896 93.6504C813.992 77.87 812.087 62.0895 810.182 46.3277L810.257 46.4024ZM932.609 46.4024H908.856C904.937 66.8198 901.081 87.2684 897.226 107.708L897.219 107.747C895.125 118.85 893.031 129.951 890.929 141.043H910.649C911.206 137.739 911.744 134.416 912.282 131.093L912.283 131.092L912.283 131.091L912.283 131.09L912.283 131.089L912.283 131.087L912.284 131.086L912.284 131.085L912.284 131.084L912.284 131.083L912.284 131.082L912.284 131.081L912.285 131.079L912.285 131.078L912.285 131.077L912.285 131.076L912.285 131.075L912.286 131.074L912.286 131.073L912.286 131.071L912.286 131.07L912.286 131.069L912.286 131.068L912.287 131.067L912.287 131.066L912.287 131.065L912.287 131.063L912.287 131.062L912.288 131.061L912.288 131.06L912.288 131.059L912.288 131.058L912.288 131.057L912.289 131.055L912.289 131.054L912.289 131.053L912.289 131.052L912.289 131.051L912.289 131.05L912.29 131.048L912.29 131.047L912.29 131.046L912.29 131.045L912.29 131.044L912.291 131.043L912.291 131.042L912.291 131.04L912.291 131.039L912.291 131.038L912.291 131.037L912.292 131.036L912.292 131.035L912.292 131.034L912.292 131.033L912.293 131.031L912.293 131.028L912.293 131.027L912.294 131.023L912.294 131.02L912.295 131.019C912.835 127.681 913.376 124.343 913.935 121.024H927.829C928.352 124.348 928.875 127.691 929.397 131.034L929.399 131.042C929.921 134.382 930.444 137.722 930.966 141.043H950.238C944.411 109.521 938.51 77.9244 932.609 46.4024ZM915.877 108.625H925.887C925.533 105.991 925.184 103.353 924.833 100.713C923.555 91.0775 922.273 81.4154 920.807 71.7992C919.892 78.951 918.899 86.1028 917.905 93.2694C917.196 98.3784 916.487 103.495 915.803 108.625H915.877ZM980.863 46.4024H959.948V141.043H1002.6V126.925H980.863V46.4024ZM1011.64 46.4024H1032.55V126.925H1054.29V141.043H1011.64V46.4024ZM1197.11 46.4024H1147.66V61.9393H1161.85V141.043H1182.92V61.9393H1197.11V46.4024ZM1205.4 46.4024H1233.71C1241.26 46.7012 1249.25 47.747 1255.45 52.3034C1260.6 56.113 1262.47 62.761 1262.77 68.8861C1262.99 74.8618 1262.69 81.0616 1260.3 86.5892C1258.59 90.6228 1255 93.3119 1251.27 95.254C1255.6 110.492 1259.93 125.73 1264.19 141.043H1242.6C1239.67 129.258 1236.79 117.422 1233.92 105.62L1233.9 105.55C1233.34 103.237 1232.78 100.925 1232.22 98.6153H1226.24V141.043H1205.33V46.4024H1205.4ZM1226.32 86.6639V60.5201C1227.5 60.5846 1228.71 60.5562 1229.93 60.5277C1232.96 60.4571 1236.02 60.3854 1238.79 61.7152C1242.9 63.9561 1243.5 69.2596 1243.5 73.4426C1243.42 77.5509 1242.9 82.4809 1239.24 84.9458C1236.23 86.7379 1232.73 86.6957 1229.3 86.6542C1228.29 86.6421 1227.3 86.6301 1226.32 86.6639ZM1275.47 46.4024H1317.89V60.6695C1315.47 60.6695 1313.06 60.6528 1310.65 60.6361C1305.86 60.603 1301.08 60.57 1296.31 60.6695V84.0495H1312.81C1312.81 85.6673 1312.8 87.2767 1312.78 88.8807L1312.78 88.8992C1312.75 92.1028 1312.72 95.2843 1312.81 98.4659H1296.23V126.701H1318.12V140.894C1308.65 140.844 1299.17 140.86 1289.72 140.877H1289.72H1289.72H1289.71H1289.71H1289.71H1289.7H1289.7H1289.7H1289.7H1289.69H1289.69H1289.69H1289.68H1289.68H1289.68H1289.67H1289.67H1289.67H1289.67H1289.66H1289.66H1289.66H1289.65H1289.65H1289.65H1289.65H1289.64H1289.64H1289.64H1289.63H1289.63H1289.63H1289.62H1289.62H1289.62H1289.62H1289.61H1289.61H1289.61H1289.6H1289.6H1289.6H1289.6H1289.59H1289.59L1289.57 140.877C1284.84 140.885 1280.11 140.894 1275.39 140.894C1275.39 132.008 1275.38 123.116 1275.37 114.222V114.214V114.206V114.198V114.191V114.183V114.175V114.167V114.159V114.151V114.143V114.135V114.128V114.12V114.112V114.104V114.096V114.088V114.08V114.072V114.065V114.057V114.049V114.041V114.033V114.025V114.017V114.009V114.002V113.994V113.986V113.978V113.97V113.962V113.954V113.946V113.939V113.931V113.923V113.915V113.907V113.899V113.891V113.883V113.876V113.868C1275.34 91.3277 1275.31 68.7713 1275.47 46.253V46.4024ZM1370.18 46.4024H1327.68V140.968H1370.41V126.851H1348.59V98.5406H1365.03V84.0495H1348.59V60.6695H1370.18V46.4024ZM1374.22 46.4024H1423.59V61.9393H1409.47V141.043H1388.48V61.9393H1374.22V46.4024ZM1505.53 46.4024H1456.08V61.9393H1470.35V141.043H1491.34V61.9393H1505.53V46.4024ZM1513.9 46.4024H1534.81V141.043H1513.9V46.4024ZM1550.27 46.4024H1550.2L1550.28 46.3277L1550.27 46.4024ZM1550.27 46.4024H1572.61C1574.81 57.6291 1576.92 68.8839 1579.04 80.1496L1579.04 80.16L1579.05 80.1713L1579.05 80.1834L1579.05 80.1944L1579.05 80.2062C1580.38 87.2859 1581.71 94.3698 1583.07 101.454C1584.93 92.2663 1586.8 83.0976 1588.67 73.9288C1590.54 64.7596 1592.4 55.5903 1594.27 46.4024H1615.86C1616.12 62.005 1616.4 77.626 1616.68 93.2471V93.2523V93.2576V93.2628V93.268V93.2733V93.2785V93.2838V93.289V93.2943V93.2995V93.3047V93.31V93.3152V93.3205V93.3257V93.3309V93.3362V93.3414V93.3467V93.3519V93.3571V93.3624V93.3676V93.3729V93.3781V93.3834V93.3886V93.3938V93.3991V93.4043V93.4096V93.4148V93.42V93.4253V93.4305V93.4358V93.441V93.4463V93.4515L1616.68 93.7621C1616.96 109.529 1617.24 125.295 1617.5 141.043H1602.71C1602.38 130.548 1602.1 120.072 1601.82 109.596C1601.54 99.1195 1601.26 88.6433 1600.92 78.1484C1599.13 88.6434 1597.3 99.1197 1595.47 109.596V109.597C1593.64 120.073 1591.81 130.549 1590.01 141.043H1576.87L1575.41 133.134L1575.05 131.191C1571.77 113.391 1568.48 95.5455 1565.14 77.7003C1564.63 98.3304 1564.19 119.032 1563.75 139.665L1563.75 139.774L1563.72 140.968H1548.63C1548.89 125.207 1549.17 109.428 1549.45 93.6479L1549.46 93.031V93.0208L1549.47 93.0102C1549.74 77.4681 1550.02 61.9262 1550.27 46.4024ZM1631.17 46.4024H1673.67V60.6695H1652.09V84.1242H1668.52V98.6153H1652.09V126.925H1673.9V141.043H1631.17V46.4024ZM854.934 166.76C852.065 167.944 849.177 169.136 846.858 171.146L846.708 171.22C847.175 171.376 847.648 171.505 848.118 171.633C849.228 171.936 850.32 172.234 851.265 172.864C851.585 174.145 851.576 175.482 851.567 176.779V176.782C851.565 176.996 851.564 177.209 851.564 177.42C851.534 181.903 851.552 186.374 851.57 190.842C851.597 197.542 851.623 204.237 851.489 210.959C851.429 212.949 849.567 213.527 847.947 214.03C847.561 214.15 847.189 214.266 846.858 214.395V215.964C848.405 215.964 849.952 215.98 851.498 215.997L851.503 215.997C855.631 216.041 859.76 216.086 863.889 215.814C863.639 214.494 862.486 214.043 861.35 213.599C860.107 213.112 858.884 212.634 858.884 211.034C858.868 209.998 858.842 208.96 858.816 207.919C858.719 204.079 858.622 200.213 859.033 196.393C860.751 192.584 865.831 190.044 869.864 191.837C872.231 193.02 872.328 196.033 872.402 198.34L872.404 198.41C872.374 200.049 872.392 201.7 872.41 203.353V203.356V203.359V203.361V203.364V203.367V203.369V203.372V203.375V203.377V203.38V203.383V203.386V203.388V203.391V203.394V203.396V203.399V203.402V203.404V203.407V203.41V203.413V203.415V203.418V203.421V203.423V203.426V203.429V203.432V203.434V203.437V203.44V203.442V203.445V203.448V203.45V203.453C872.437 205.985 872.464 208.523 872.329 211.034C872.27 212.928 870.474 213.462 868.876 213.937C868.458 214.061 868.054 214.181 867.698 214.32V215.964H884.206V214.246C883.795 214.069 883.332 213.934 882.862 213.797C881.541 213.411 880.165 213.009 879.724 211.631C879.343 209.027 879.421 206.37 879.499 203.715C879.604 200.126 879.709 196.542 878.679 193.106C877.035 187.952 870.835 186.533 866.13 187.728C863.543 188.296 861.649 190.196 859.818 192.032C859.481 192.371 859.146 192.707 858.809 193.032C858.777 189.03 858.786 185.041 858.796 181.055V181.054V181.052V181.051V181.05V181.049V181.047V181.046V181.045V181.044V181.042V181.041V181.04V181.038V181.037V181.036V181.035V181.033V181.032V181.031V181.029V181.028V181.027V181.026V181.024V181.023V181.022V181.02V181.019V181.018V181.017V181.015V181.014V181.013V181.011V181.01V181.009V181.008V181.006C858.808 175.708 858.82 170.414 858.735 165.095C857.507 165.697 856.222 166.228 854.934 166.76ZM1214.14 170.548C1216.94 168.979 1219.87 167.663 1222.8 166.346L1222.81 166.342C1223.78 165.904 1224.75 165.467 1225.72 165.021C1225.79 171.946 1225.78 178.872 1225.77 185.804V185.825C1225.76 194.139 1225.75 202.463 1225.87 210.81C1225.87 212.861 1227.96 213.482 1229.68 213.995L1229.69 213.995C1229.81 214.032 1229.93 214.067 1230.05 214.103C1230.2 214.15 1230.36 214.198 1230.5 214.246V215.889C1228.95 215.889 1227.41 215.906 1225.86 215.922L1225.85 215.922C1221.73 215.967 1217.6 216.011 1213.47 215.74C1213.72 214.454 1214.86 214.005 1215.98 213.56C1217.22 213.074 1218.43 212.593 1218.47 211.034C1218.62 198.783 1218.55 186.533 1218.47 174.358C1218.51 172.999 1217.33 172.708 1216.18 172.425C1215.05 172.148 1213.96 171.879 1214.07 170.623L1214.14 170.548ZM1362.24 166.555C1359.24 167.808 1356.22 169.066 1353.67 171.071V171.146C1354.14 171.347 1354.72 171.477 1355.31 171.612C1356.94 171.977 1358.69 172.372 1358.53 174.283C1358.53 177.971 1358.52 181.667 1358.51 185.366V185.374V185.382V185.391V185.399V185.407V185.416V185.424V185.432V185.44V185.449V185.457V185.465V185.474V185.482V185.49V185.498C1358.5 192.993 1358.48 200.499 1358.53 207.971C1358.51 208.329 1358.51 208.698 1358.51 209.072C1358.52 210.101 1358.52 211.168 1358.08 212.154C1357.39 213.116 1356.23 213.466 1355.11 213.806C1354.67 213.942 1354.23 214.075 1353.82 214.246V215.889H1370.41C1370.33 215.441 1370.33 214.619 1370.33 214.171C1369.98 214.032 1369.58 213.913 1369.18 213.79C1367.61 213.318 1365.89 212.798 1365.77 210.959C1365.63 206.253 1365.48 201.472 1365.77 196.692C1367.19 192.285 1373.1 189.521 1377.2 191.911C1379.23 193.518 1379.21 196.121 1379.2 198.548C1379.19 199.167 1379.19 199.775 1379.22 200.352C1379.16 201.789 1379.2 203.238 1379.23 204.694V204.695V204.697V204.699V204.701V204.703V204.705V204.706V204.708V204.71V204.712V204.714V204.716V204.718V204.72V204.722V204.724V204.726V204.728V204.731V204.733V204.735V204.737V204.739V204.741V204.744V204.746V204.748V204.751V204.753V204.755V204.758V204.76V204.763V204.765V204.767C1379.29 206.995 1379.34 209.238 1379.07 211.482C1378.62 212.885 1377.2 213.276 1375.89 213.637C1375.46 213.757 1375.03 213.873 1374.66 214.021C1374.59 214.47 1374.59 215.366 1374.59 215.814C1376.43 215.814 1378.27 215.823 1380.12 215.831C1383.8 215.847 1387.49 215.864 1391.17 215.814V214.171C1390.76 213.995 1390.3 213.859 1389.83 213.722C1388.51 213.336 1387.13 212.934 1386.69 211.557C1386.32 208.991 1386.41 206.362 1386.5 203.732C1386.62 200.006 1386.75 196.28 1385.57 192.733C1383.7 187.654 1377.35 186.533 1372.72 187.803C1370.31 188.484 1368.56 190.245 1366.84 191.976C1366.48 192.332 1366.13 192.688 1365.77 193.032C1365.7 188.363 1365.7 183.713 1365.7 179.064C1365.7 174.414 1365.7 169.764 1365.63 165.095C1364.52 165.608 1363.38 166.081 1362.24 166.555ZM535.448 174.955C535.672 170.473 543.814 170.399 543.963 174.955C543.767 178.676 543.155 182.396 542.545 186.096L542.544 186.1L542.544 186.104L542.543 186.107L542.543 186.111L542.542 186.114C542.223 188.054 541.904 189.987 541.648 191.911H537.763C537.494 189.632 537.127 187.364 536.761 185.099C536.216 181.723 535.671 178.352 535.448 174.955ZM777.166 175.777C777.539 172.64 774.178 170.399 771.414 171.444V171.519C767.754 172.416 767.605 178.615 771.265 179.661C773.879 180.707 777.315 178.839 777.166 175.777ZM1095.07 183.695C1098.36 177.047 1105.31 172.49 1112.55 171.444C1118.23 170.548 1123.91 171.669 1129.29 173.387C1130.53 173.778 1131.77 173.771 1133.06 173.762L1133.36 173.761C1133.45 173.76 1133.53 173.76 1133.62 173.76V184.815C1131.81 184.564 1131.01 183.059 1130.23 181.579L1130.23 181.578C1129.85 180.86 1129.47 180.147 1128.99 179.586C1125.1 173.984 1117.18 173.237 1111.13 175.179C1106.05 176.823 1103.22 181.977 1102.47 186.981C1101.35 194.003 1101.95 201.697 1106.13 207.672C1110.01 213.275 1118.01 215.067 1124.21 212.677C1128.31 211.108 1131.53 207.747 1133.62 203.937H1136.01C1135.01 206.427 1133.88 208.851 1132.75 211.274C1132.19 212.486 1131.63 213.698 1131.08 214.918C1128.33 214.685 1125.67 215.257 1123.02 215.83C1120.56 216.361 1118.09 216.893 1115.54 216.785C1109.19 216.561 1102.77 214.171 1098.36 209.54C1091.79 202.892 1090.82 192.061 1095 183.919L1095.07 183.695ZM1152.14 175.702C1152.59 172.64 1149.15 170.399 1146.39 171.444C1142.66 172.416 1142.51 178.541 1146.24 179.586C1148.93 180.632 1152.37 178.765 1152.14 175.702ZM1200.92 171.594C1203.76 170.324 1207.42 172.49 1207.04 175.777C1207.27 178.989 1203.53 180.782 1200.84 179.586C1197.56 178.317 1197.63 172.864 1200.84 171.669L1200.92 171.594ZM1309.01 175.777C1309.38 172.415 1305.49 170.249 1302.66 171.669H1302.73C1299.44 173.088 1299.67 178.69 1303.18 179.661C1305.79 180.632 1309.15 178.765 1309.01 175.777ZM1418.36 175.03C1418.51 171.594 1423.44 170.473 1425.76 172.714C1427.11 173.665 1426.93 175.418 1426.77 176.907L1426.77 176.917L1426.76 177.06L1426.74 177.218L1426.73 177.345C1426.39 180.124 1425.96 182.878 1425.53 185.636L1425.53 185.639L1425.52 185.641L1425.52 185.643L1425.52 185.646L1425.52 185.648L1425.52 185.651L1425.52 185.653L1425.52 185.656L1425.52 185.658L1425.52 185.66L1425.52 185.663L1425.52 185.665L1425.52 185.668L1425.52 185.67L1425.52 185.673L1425.52 185.675L1425.52 185.677L1425.52 185.68L1425.52 185.682L1425.52 185.685L1425.52 185.687L1425.52 185.69L1425.52 185.692L1425.52 185.694L1425.52 185.697L1425.52 185.699L1425.52 185.702L1425.52 185.704L1425.51 185.707C1425.18 187.819 1424.85 189.933 1424.56 192.061H1420.68C1420.41 189.837 1420.05 187.637 1419.68 185.437L1419.68 185.436C1419.11 182.019 1418.54 178.603 1418.36 175.105V175.03ZM556.064 174.358C555.018 170.697 549.043 170.697 547.698 174.208V174.283C547.698 177.946 548.315 181.58 548.931 185.204C549.32 187.493 549.708 189.777 549.939 192.061H553.823C554.072 190.094 554.404 188.135 554.736 186.176C555.4 182.259 556.064 178.341 556.064 174.358ZM1249.85 172.49C1251.49 172.44 1253.13 172.382 1254.76 172.324C1260.42 172.125 1266.05 171.926 1271.73 172.042C1275.99 172.042 1280.32 173.835 1283.09 177.271C1286.3 181.006 1286.82 186.981 1283.91 191.015C1282.73 192.656 1280.97 193.721 1279.24 194.766C1279 194.91 1278.76 195.053 1278.53 195.198C1279.84 197.224 1281.12 199.272 1282.4 201.321C1284.47 204.635 1286.55 207.952 1288.76 211.183C1290.26 213.499 1292.72 214.918 1295.11 216.188C1290.7 217.383 1285.55 216.188 1281.89 213.573C1278.76 210.54 1276.57 206.815 1274.37 203.085C1273.1 200.937 1271.83 198.787 1270.39 196.767C1269.43 196.728 1268.48 196.67 1267.55 196.612C1266.67 196.558 1265.8 196.504 1264.93 196.468C1264.93 197.792 1264.92 199.117 1264.9 200.441C1264.86 203.972 1264.81 207.503 1265.08 211.034C1265.38 213.022 1267.21 213.296 1268.96 213.558C1270.7 213.818 1272.37 214.068 1272.4 215.964H1250.07V214.246C1250.25 214.217 1250.44 214.189 1250.64 214.161C1253.02 213.81 1256.33 213.324 1256.12 210.287C1256.27 199.829 1256.19 189.372 1256.12 178.914C1256.34 175.553 1252.68 174.208 1249.92 174.283V172.64L1249.85 172.49ZM1264.84 180.718C1264.85 178.518 1264.86 176.322 1264.86 174.134H1264.79C1265.15 174.122 1265.52 174.103 1265.89 174.083C1267.87 173.98 1269.91 173.874 1271.73 174.88C1275.09 176.524 1276.81 180.333 1276.81 183.919C1276.81 187.056 1276.21 190.641 1273.52 192.584C1271.06 194.451 1267.77 194.227 1264.86 193.928C1264.81 189.543 1264.83 185.125 1264.84 180.718ZM1430.54 175.03C1430.69 170.772 1437.93 170.399 1438.9 174.358C1438.9 178.341 1438.24 182.259 1437.57 186.176C1437.24 188.135 1436.91 190.094 1436.66 192.061H1432.78C1432.52 189.841 1432.15 187.633 1431.78 185.427L1431.78 185.421L1431.78 185.416L1431.78 185.41L1431.78 185.405L1431.78 185.4L1431.78 185.395C1431.21 181.97 1430.64 178.551 1430.46 175.105L1430.54 175.03ZM587.735 172.415H578.847V172.49C578.473 174.947 577.641 177.25 576.815 179.538C576.485 180.45 576.157 181.36 575.859 182.275C572.796 191.09 569.734 199.904 566.746 208.718C566.073 210.585 565.252 212.826 563.16 213.499C562.828 213.698 562.41 213.818 561.989 213.94C560.99 214.228 559.971 214.523 560.023 215.889C563.904 215.939 567.751 215.922 571.609 215.906H571.612C573.546 215.897 575.482 215.889 577.427 215.889V214.32C577.002 214.256 576.555 214.207 576.099 214.157C573.912 213.918 571.531 213.658 570.481 211.556C571.676 207.149 573.17 202.668 575.037 198.485C579.22 197.887 583.777 197.812 587.96 198.485C588.922 200.501 589.659 202.602 590.396 204.701L590.397 204.703C590.861 206.025 591.325 207.345 591.844 208.643C591.913 208.865 592 209.097 592.09 209.335C592.483 210.38 592.92 211.54 592.068 212.453C590.807 213.714 588.982 213.848 587.214 213.978C586.574 214.025 585.941 214.072 585.345 214.171V215.814H607.381C607.455 215.441 607.455 214.768 607.455 214.395L607.443 214.391C604.905 213.645 601.852 212.747 601.106 209.913C598.865 203.676 596.643 197.421 594.421 191.165L594.42 191.161C592.198 184.906 589.976 178.651 587.735 172.415ZM580.863 181.379L580.824 181.476L580.789 181.454L580.863 181.379ZM580.824 181.476C581.634 181.996 582.435 182.663 582.656 183.62C584.001 187.28 585.345 191.015 586.69 194.75C584.349 194.8 582.009 194.783 579.668 194.766C578.498 194.758 577.328 194.75 576.158 194.75C576.29 194.353 576.422 193.955 576.553 193.558L576.849 192.663L576.862 192.625C578.099 188.886 579.332 185.155 580.824 181.476ZM949.416 172.415H935.299L935.224 172.49V174.134C935.617 174.215 936.029 174.279 936.446 174.344C937.931 174.575 939.494 174.818 940.602 175.926C940.926 178.839 940.877 181.752 940.829 184.665C940.799 186.458 940.769 188.251 940.826 190.044C940.773 192.525 940.815 195.016 940.857 197.506V197.507C940.932 201.988 941.007 206.467 940.527 210.884C940.229 213.573 937.465 214.246 935.224 214.246V215.889H952.553C952.628 215.441 952.703 214.619 952.703 214.246C952.517 214.207 952.324 214.171 952.123 214.136C951.934 214.102 951.738 214.069 951.539 214.035C949.071 213.615 946.012 213.095 945.756 210.212C945.607 200.8 945.607 191.463 945.756 182.051C951.432 188.148 957.014 194.363 962.594 200.577L962.595 200.578L962.596 200.578L962.596 200.579L962.597 200.58L962.598 200.58L962.599 200.581L962.599 200.582L962.6 200.583L962.601 200.583C966.932 205.406 971.262 210.228 975.635 214.993C976.979 216.785 981.237 216.86 981.013 213.947C981.077 208.739 981.059 203.518 981.04 198.294V198.293V198.292V198.29V198.289V198.288V198.286V198.285V198.284V198.282V198.281V198.28V198.278V198.277V198.276V198.274V198.273V198.272V198.27V198.269V198.268V198.266V198.265C981.016 191.286 980.992 184.304 981.162 177.345C981.529 175.807 982.974 175.364 984.351 174.942C985.781 174.504 987.138 174.089 987.138 172.49H969.584V174.208L969.71 174.212L969.8 174.214L969.964 174.218L970.217 174.223C972.632 174.27 975.74 174.33 976.083 177.345C976.754 182.663 976.656 188.041 976.559 193.403V193.405V193.408V193.41V193.412V193.415V193.417V193.42V193.422V193.425V193.427V193.429V193.432V193.434V193.436V193.439V193.441V193.444V193.446V193.448V193.451V193.453V193.455C976.505 196.436 976.451 199.412 976.531 202.369C971.285 196.65 966.089 190.881 960.899 185.12L960.897 185.119L960.895 185.117C957.071 180.871 953.25 176.63 949.416 172.415ZM831.165 185.826L831.165 185.825C832.657 184.19 834.149 182.554 836.55 182.35L836.483 182.657L836.41 182.994L836.403 183.029C836.077 184.536 835.744 186.076 835.355 187.504C838.417 187.504 841.554 187.504 844.617 187.579C844.729 188.326 844.822 189.073 844.916 189.82C845.009 190.567 845.102 191.314 845.214 192.061H835.429V207.149C835.429 208.867 835.877 211.183 837.82 211.557C839.469 211.779 840.826 210.965 842.192 210.144C843.115 209.59 844.041 209.034 845.065 208.793C844.542 212.079 841.853 214.47 839.089 215.889C834.757 218.055 828.856 214.768 828.408 209.988C828.273 206.402 828.3 202.817 828.327 199.232C828.345 196.841 828.363 194.451 828.333 192.061C827.279 192.061 826.225 191.995 825.108 191.925L824.897 191.911C825.427 190.587 826.558 189.751 827.677 188.923C828.136 188.584 828.593 188.247 829.005 187.878V187.952C829.785 187.338 830.475 186.582 831.165 185.826ZM1404.99 182.35C1403.2 182.649 1401.55 183.545 1400.43 184.965H1400.51C1399.02 186.778 1397.26 188.188 1395.48 189.609C1394.84 190.12 1394.19 190.632 1393.56 191.164C1393.56 192.2 1394.51 192.161 1395.45 192.123C1395.93 192.103 1396.42 192.083 1396.77 192.21C1396.77 194.127 1396.76 196.045 1396.74 197.962C1396.71 201.796 1396.67 205.631 1396.77 209.465C1396.77 212.154 1398.64 214.768 1401.11 215.889C1406.19 218.503 1412.53 214.021 1413.43 208.793C1412.48 209.052 1411.6 209.577 1410.71 210.104C1409.3 210.944 1407.88 211.786 1406.19 211.557C1404.32 211.034 1403.87 208.793 1403.87 207.149C1403.82 203.818 1403.84 200.487 1403.85 197.134L1403.85 197.079C1403.86 195.412 1403.87 193.741 1403.87 192.061H1413.66C1413.54 191.318 1413.45 190.575 1413.36 189.832L1413.36 189.818C1413.26 189.072 1413.17 188.325 1413.06 187.579C1410 187.504 1406.86 187.504 1403.8 187.504C1404.24 185.786 1404.69 184.068 1404.99 182.35ZM622.096 187.205C625.681 186.608 629.566 186.458 633.076 187.728C634.944 188.326 636.587 190.866 635.018 192.584C633.375 193.704 630.835 193.629 629.416 192.135C629.187 191.941 628.957 191.732 628.723 191.521C627.428 190.35 626.022 189.078 624.187 189.521C620.901 189.745 618.959 192.957 618.361 195.87C617.614 199.754 617.539 203.937 619.033 207.672C620.453 211.258 624.71 213.05 628.296 211.93C629.69 211.482 630.752 210.502 631.815 209.523C632.346 209.033 632.877 208.544 633.45 208.12C634.346 207.747 635.989 208.12 635.84 209.465C632.479 214.694 625.756 218.055 619.631 216.188C613.058 213.947 609.248 206.402 610.518 199.68C611.041 193.555 615.821 188.102 622.021 187.28L622.096 187.205ZM661.312 187.131C655.336 186.16 648.09 186.981 644.057 191.986L643.982 192.061C639.799 197.663 639.425 206.328 643.982 211.855C646.596 215.217 651.003 217.308 655.336 216.486C660.042 215.964 663.777 212.826 666.54 209.166C666.346 209.043 666.156 208.894 665.964 208.744C665.345 208.259 664.707 207.761 663.851 208.046C663.226 208.504 662.648 209.032 662.064 209.565L662.064 209.566C661.601 209.988 661.135 210.413 660.639 210.81C657.427 213.424 652.124 212.303 649.958 208.867C648.24 206.104 648.09 202.742 648.165 199.605C648.314 196.767 648.837 193.629 650.854 191.388C652.497 189.446 655.784 188.699 657.801 190.492C658.225 190.795 658.627 191.169 659.033 191.546L659.033 191.547C660.128 192.564 661.246 193.603 662.88 193.331C664.15 193.331 665.793 192.882 665.943 191.388C666.316 188.774 663.478 187.504 661.312 187.131ZM678.118 188.55C682.376 186.234 688.277 185.861 692.161 189.148C694.925 191.538 696.867 195.198 696.494 198.933C692.823 199.018 689.152 199.006 685.481 198.994C682.728 198.985 679.975 198.975 677.222 199.007C677.222 199.272 677.22 199.538 677.218 199.804V199.805C677.203 201.942 677.189 204.111 678.118 206.104C679.463 209.614 682.974 212.378 686.858 212.229C689.759 212.229 692.213 210.504 694.516 208.885C694.703 208.754 694.889 208.623 695.074 208.494C695.261 208.681 695.523 208.979 695.784 209.278C696.045 209.577 696.307 209.876 696.494 210.063C692.684 213.947 687.381 217.383 681.629 216.486C676.102 215.814 671.545 211.108 670.798 205.655C669.902 199.232 672.217 191.762 678.118 188.55ZM689.473 196.544H689.473H689.472H689.471H689.471H689.47H689.47H689.469H689.469H689.468H689.468H689.467H689.466H689.466H689.465H689.465C685.609 196.618 681.826 196.691 677.969 196.542C677.969 192.808 681.48 189.148 685.289 190.119C688.277 190.641 689.547 193.779 689.547 196.542L689.473 196.544ZM702.992 191.09C705.98 187.43 711.209 185.936 715.691 187.355C715.892 187.432 716.119 187.497 716.353 187.563C717.245 187.817 718.23 188.097 718.23 189.222C718.41 190.895 718.398 192.568 718.386 194.242C718.383 194.66 718.38 195.078 718.38 195.497C716.609 196.018 715.964 194.614 715.33 193.235C715.055 192.636 714.783 192.042 714.421 191.613C713.076 188.923 708.221 188.998 707.773 192.285C706.933 194.74 709.167 196.189 711.042 197.406C711.335 197.596 711.619 197.78 711.881 197.962C715.765 200.203 720.172 203.116 720.695 207.971C721.368 211.93 718.006 215.142 714.495 216.188C711.657 217.308 708.52 216.636 705.681 215.889C705.233 216.113 704.785 216.318 704.337 216.524C703.889 216.729 703.44 216.935 702.992 217.159C702.957 216.92 702.922 216.682 702.885 216.442L702.841 216.148L702.841 216.147C702.426 213.407 702.004 210.614 702.469 207.822C704.115 208.292 704.897 209.666 705.679 211.04C706.388 212.284 707.096 213.528 708.445 214.096C709.864 214.694 711.732 214.993 713.076 214.096C714.645 212.303 714.57 209.241 712.777 207.672C711.578 206.505 710.166 205.617 708.76 204.733C706.837 203.525 704.927 202.325 703.59 200.427C701.722 197.887 700.901 193.928 703.142 191.314L702.992 191.09ZM741.461 188.55C736.382 185.263 728.763 186.981 725.625 192.135H725.7C724.355 194.899 725.252 198.261 727.119 200.576C728.395 202.316 730.211 203.435 732.029 204.556C733.723 205.6 735.419 206.646 736.68 208.195C738.324 210.361 737.353 215.067 733.991 214.544C731.302 214.619 729.584 212.378 728.538 210.212C728.016 209.166 726.746 207.149 725.551 208.569C725.419 211.059 725.748 213.492 726.083 215.968L726.083 215.97C726.13 216.315 726.177 216.662 726.223 217.009C726.797 216.788 727.346 216.541 727.883 216.299L727.884 216.299C728.255 216.131 728.621 215.967 728.987 215.814C733.319 217.233 738.548 217.009 741.909 213.648C744.897 211.034 744.449 206.328 742.133 203.415C740.603 201.3 738.423 199.944 736.228 198.579C734.78 197.679 733.326 196.775 732.049 195.646C730.406 194.376 730.705 191.762 732.049 190.417C733.917 188.923 736.904 189.82 737.876 191.911C738.204 192.327 738.455 192.851 738.706 193.376C739.313 194.643 739.92 195.91 741.61 195.646C741.624 195.238 741.641 194.825 741.659 194.409L741.659 194.406C741.743 192.464 741.83 190.456 741.461 188.55ZM764.916 192.359C767.452 190.945 770.084 189.722 772.707 188.502L772.712 188.5L772.712 188.5C774.105 187.853 775.495 187.206 776.867 186.533C777.16 191.093 777.125 195.652 777.09 200.211C777.062 203.794 777.034 207.376 777.166 210.959C777.289 212.863 779.179 213.403 780.802 213.867L780.803 213.868C781.153 213.968 781.492 214.065 781.797 214.171V215.814H765.214V214.096C765.513 213.992 765.842 213.897 766.181 213.799C767.791 213.334 769.648 212.797 769.771 210.884C769.958 206.705 769.885 202.473 769.812 198.276C769.806 197.95 769.801 197.623 769.795 197.297C769.787 196.796 769.778 196.295 769.771 195.796C769.874 193.938 768.266 193.47 766.695 193.014C765.992 192.81 765.297 192.608 764.766 192.285L764.916 192.359ZM801.592 188.176C796.363 185.487 789.267 186.981 786.055 192.061V191.986C784.411 195.123 785.905 199.007 788.221 201.398C789.432 202.609 790.892 203.513 792.358 204.421C793.787 205.305 795.221 206.194 796.438 207.373C798.23 208.942 798.305 212.005 796.736 213.797C793.973 215.441 790.387 213.573 789.341 210.735C789.307 210.671 789.271 210.601 789.232 210.528L789.23 210.525C788.595 209.316 787.387 207.017 785.98 208.494C785.791 210.888 786.133 213.282 786.469 215.631C786.532 216.067 786.594 216.502 786.652 216.935C787.101 216.748 787.549 216.543 787.997 216.337L787.998 216.337C788.446 216.131 788.894 215.926 789.341 215.74C793.674 217.233 798.977 217.009 802.339 213.573C805.252 211.034 804.804 206.328 802.563 203.489C801.061 201.304 798.837 199.924 796.603 198.536C795.17 197.647 793.733 196.755 792.479 195.646C790.761 194.376 791.06 191.687 792.479 190.343C794.346 188.849 797.334 189.745 798.305 191.911C798.631 192.324 798.881 192.856 799.13 193.387C799.739 194.684 800.344 195.974 802.04 195.497C802.018 194.792 802.048 194.068 802.078 193.337C802.15 191.591 802.224 189.809 801.592 188.176ZM894.215 188.998C898.548 186.384 904.673 185.711 908.856 188.998C911.694 191.388 913.637 195.123 913.338 198.933C909.055 199.032 904.773 198.999 900.49 198.966C898.349 198.949 896.207 198.933 894.066 198.933C893.767 202.219 894.141 205.655 896.158 208.345C897.95 210.884 901.162 212.453 904.299 212.079C906.819 211.88 908.985 210.387 911.059 208.957C911.322 208.776 911.583 208.596 911.844 208.419C911.93 208.488 912.036 208.577 912.153 208.677C912.245 208.755 912.344 208.84 912.445 208.928L912.591 209.054L912.762 209.202C912.854 209.282 912.945 209.36 913.03 209.433C913.146 209.532 913.252 209.62 913.338 209.689C910.499 213.125 906.466 215.59 902.059 216.412C895.859 217.383 889.51 213.125 887.941 207.075C886.298 200.576 888.389 192.658 894.215 188.849V188.998ZM897.724 196.627C897.309 196.625 896.894 196.623 896.477 196.621C895.924 196.619 895.369 196.617 894.813 196.617C894.514 192.733 898.548 188.923 902.432 190.268C905.121 191.015 906.167 194.003 906.316 196.542C903.463 196.654 900.609 196.641 897.724 196.627ZM997.82 188.55C1002.08 186.234 1007.98 185.861 1011.86 189.148C1014.63 191.538 1016.57 195.123 1016.27 198.858C1012.6 199.029 1008.93 199.004 1005.26 198.98C1002.5 198.962 999.751 198.943 996.998 199.007C996.923 201.547 996.849 204.236 998.044 206.627C999.463 209.988 1002.9 212.378 1006.63 212.229C1009.6 212.229 1012.1 210.424 1014.39 208.775L1014.58 208.635L1014.78 208.494C1014.96 208.681 1015.22 208.979 1015.49 209.278C1015.75 209.577 1016.01 209.876 1016.19 210.063C1012.68 213.648 1008.05 216.711 1002.9 216.636C997.222 216.636 991.993 212.303 990.723 206.776C989.304 200.128 991.62 192.061 997.82 188.625V188.55ZM1009.1 196.544H1009.1H1009.1H1009.1H1009.1H1009.1H1009.1H1009.1H1009.1C1005.24 196.618 1001.45 196.691 997.595 196.542V196.468C997.67 192.808 1001.11 189.148 1004.99 190.119C1007.9 190.641 1009.17 193.853 1009.17 196.542L1009.1 196.544ZM1140.04 192.584C1142.26 190.882 1144.85 189.748 1147.43 188.615C1148.92 187.958 1150.42 187.301 1151.84 186.533C1152.14 191.093 1152.1 195.652 1152.07 200.212C1152.04 203.794 1152.01 207.376 1152.14 210.959C1152.26 212.79 1154.01 213.313 1155.59 213.784C1156.01 213.909 1156.41 214.03 1156.77 214.171V215.814H1140.12C1140.12 215.366 1140.12 214.544 1140.19 214.096C1140.49 213.992 1140.82 213.897 1141.16 213.799C1142.77 213.334 1144.62 212.797 1144.75 210.884C1144.91 207.31 1144.88 203.735 1144.85 200.161C1144.83 198.731 1144.82 197.3 1144.82 195.87C1145.04 193.879 1143.22 193.444 1141.56 193.049C1140.97 192.911 1140.41 192.777 1139.97 192.584H1140.04ZM1206.9 186.608C1202.79 188.401 1198.75 190.193 1194.87 192.359H1194.79C1195.3 192.682 1195.99 192.884 1196.7 193.089C1198.28 193.551 1199.93 194.033 1199.72 195.945C1199.72 197.585 1199.74 199.234 1199.76 200.886V200.896C1199.79 204.204 1199.82 207.523 1199.72 210.81C1199.72 212.794 1197.84 213.375 1196.2 213.876C1195.81 213.998 1195.43 214.115 1195.09 214.246V215.814C1196.62 215.814 1198.14 215.831 1199.68 215.847L1199.68 215.847C1203.78 215.892 1207.92 215.937 1212.05 215.665C1211.84 214.35 1210.69 213.897 1209.55 213.446C1208.3 212.949 1207.04 212.454 1207.04 210.81C1206.93 206.776 1206.95 202.742 1206.97 198.709C1206.99 194.675 1207.01 190.641 1206.9 186.608ZM1296.83 192.658C1299.02 190.9 1301.63 189.776 1304.24 188.652C1305.73 188.01 1307.22 187.368 1308.63 186.608C1308.88 191.049 1308.85 195.467 1308.83 199.888C1308.81 203.572 1308.79 207.258 1308.93 210.959C1308.99 212.833 1310.81 213.386 1312.45 213.885C1312.84 214.003 1313.22 214.117 1313.56 214.246V215.889C1309.88 215.939 1306.23 215.922 1302.57 215.906C1300.74 215.897 1298.9 215.889 1297.05 215.889V214.171C1297.36 214.065 1297.7 213.968 1298.05 213.867C1299.67 213.403 1301.56 212.863 1301.69 210.959C1301.85 207.384 1301.81 203.77 1301.78 200.173V200.167V200.159C1301.77 198.726 1301.76 197.295 1301.76 195.87C1301.92 193.932 1300.22 193.507 1298.64 193.113C1298.03 192.961 1297.44 192.813 1296.98 192.584L1296.83 192.658ZM1342.47 189.82C1337.39 185.861 1330 185.936 1324.54 188.998C1320.21 191.314 1317.45 196.767 1319.24 201.622C1320.28 204.759 1323.27 206.552 1326.11 207.971C1325.45 208.27 1324.78 208.544 1324.1 208.819C1322.42 209.505 1320.73 210.191 1319.24 211.258C1317.82 212.303 1317.97 214.47 1319.09 215.665C1320.54 217.604 1322.83 218.259 1325.01 218.88C1325.18 218.929 1325.35 218.977 1325.51 219.026C1324.47 220.109 1323.27 221.024 1322.08 221.939C1320.88 222.854 1319.69 223.769 1318.64 224.852C1316.77 226.72 1317 229.932 1318.79 231.799C1321.63 234.787 1326.11 235.534 1330.07 235.534C1336.64 235.459 1343.74 234.04 1348.52 229.26C1350.84 227.019 1352.48 223.732 1351.58 220.445C1351.06 217.607 1348.45 215.814 1345.76 215.291C1342.54 214.631 1339.27 214.567 1336.02 214.504C1333.75 214.46 1331.49 214.416 1329.25 214.171C1327.83 214.021 1326.48 213.723 1325.36 212.976C1324.4 211.109 1326.25 210.116 1327.79 209.292C1328.16 209.094 1328.51 208.906 1328.8 208.718C1334.03 209.54 1340 208.419 1343.74 204.386C1346.35 201.547 1347.03 197.215 1345.16 193.779C1347.7 193.853 1350.16 193.853 1352.7 193.629L1352.61 193.049L1352.61 193.043L1352.61 193.04C1352.41 191.873 1352.21 190.66 1351.96 189.446C1348.82 189.446 1345.61 189.596 1342.47 189.82ZM1330.37 188.923C1327.16 189.895 1326.04 193.629 1326.04 196.617C1326.04 199.979 1326.78 203.788 1329.55 206.029C1331.94 207.971 1335.82 207.224 1337.32 204.61C1339.41 201.024 1339.26 196.393 1337.76 192.584C1336.64 189.67 1333.36 187.803 1330.37 188.923ZM1328.8 231.5C1326.41 230.305 1324.09 227.915 1324.32 225.077H1324.39C1324.63 223.084 1326.15 221.781 1327.62 220.519C1328.03 220.172 1328.43 219.828 1328.8 219.474C1330.67 219.576 1332.55 219.601 1334.44 219.626C1336.7 219.655 1338.96 219.685 1341.2 219.848C1342.84 219.923 1344.64 220.744 1345.23 222.387C1346.05 224.628 1345.08 227.168 1343.52 228.886C1339.86 232.77 1333.58 234.19 1328.8 231.5ZM1019.11 188.401C1020.26 187.44 1021.69 187.468 1023.11 187.495C1023.34 187.5 1023.58 187.504 1023.81 187.504C1028.22 187.504 1032.63 187.504 1037.04 187.579C1036.76 188.897 1035.66 189.109 1034.54 189.325C1033.81 189.464 1033.08 189.605 1032.55 190.044C1032.05 191.383 1032.55 192.639 1033.05 193.905L1033.05 193.906C1033.22 194.334 1033.39 194.764 1033.52 195.198C1034.22 196.925 1034.84 198.693 1035.47 200.464L1035.47 200.471C1036.52 203.448 1037.57 206.432 1038.98 209.241C1040.26 206.381 1041.34 203.452 1042.42 200.531L1042.42 200.528C1043.28 198.186 1044.14 195.848 1045.1 193.555C1044.19 191.272 1042.14 190.185 1040.09 189.101C1039.9 188.998 1039.7 188.895 1039.51 188.791C1039.41 188.736 1039.3 188.681 1039.2 188.625L1039.5 187.654C1043.52 187.445 1047.51 187.491 1051.51 187.538C1053.23 187.559 1054.95 187.579 1056.68 187.579C1056.6 188.914 1055.51 189.114 1054.4 189.318C1053.39 189.502 1052.37 189.689 1052.05 190.716C1051.99 191.716 1052.31 192.633 1052.63 193.559C1052.74 193.879 1052.85 194.2 1052.95 194.526C1053.55 196.12 1054.14 197.725 1054.73 199.329C1055.65 201.858 1056.57 204.382 1057.58 206.851C1058.85 204.733 1059.67 202.438 1060.5 200.132C1060.99 198.778 1061.48 197.421 1062.06 196.094C1062.17 195.721 1062.32 195.338 1062.48 194.95C1062.95 193.784 1063.44 192.565 1062.88 191.388C1062.44 190.398 1061.43 190.095 1060.46 189.8C1059.3 189.451 1058.18 189.114 1058.1 187.654C1062.73 187.504 1067.29 187.504 1071.92 187.654C1071.62 188.82 1070.63 189.228 1069.64 189.642C1068.65 190.05 1067.66 190.464 1067.29 191.613C1065.27 196.138 1063.5 200.777 1061.74 205.418C1060.3 209.202 1058.86 212.986 1057.28 216.711C1056.08 216.711 1054.89 216.711 1053.69 216.785C1052.25 213.224 1050.93 209.614 1049.61 205.997C1048.6 203.242 1047.59 200.483 1046.52 197.738C1044.13 204.087 1041.67 210.436 1039.2 216.711H1033.9C1032.93 214.096 1031.97 211.472 1031.02 208.849C1029.11 203.604 1027.2 198.36 1025.16 193.181C1024.4 191.151 1022.52 190.202 1020.71 189.285C1020.18 189.021 1019.67 188.759 1019.18 188.475L1019.11 188.401ZM1169.77 187.405C1165.79 187.355 1161.83 187.305 1157.89 187.654L1157.82 187.579C1158.46 188.413 1159.42 188.861 1160.38 189.308C1161.65 189.902 1162.91 190.494 1163.42 191.986C1165.5 197.029 1167.36 202.129 1169.21 207.233C1170.35 210.37 1171.49 213.508 1172.68 216.636H1178.21C1179.88 212.797 1181.36 208.88 1182.83 204.971C1184.6 200.285 1186.37 195.61 1188.45 191.09C1188.79 189.947 1189.79 189.581 1190.78 189.22C1191.73 188.873 1192.67 188.53 1193 187.504H1183.52C1183.29 187.504 1183.07 187.5 1182.84 187.495C1181.47 187.468 1180.05 187.439 1178.96 188.401C1179.51 188.678 1180.15 188.853 1180.78 189.03C1182.03 189.376 1183.3 189.728 1184.04 190.866C1184.44 192.422 1183.87 193.934 1183.31 195.402C1183.14 195.836 1182.98 196.266 1182.84 196.692C1182.3 198.048 1181.79 199.412 1181.28 200.772C1180.19 203.68 1179.11 206.567 1177.69 209.316C1177.24 208.118 1176.79 206.924 1176.34 205.73C1174.46 200.744 1172.59 195.779 1170.97 190.716C1170.85 189.165 1172.06 189.043 1173.3 188.919C1174.44 188.804 1175.6 188.687 1175.75 187.43C1173.75 187.454 1171.76 187.429 1169.77 187.405Z" fill="#FFC5BA"/>
<path fill-rule="evenodd" clip-rule="evenodd" d="M21.6103 2.77962C26.2414 0.912208 31.3208 0.613421 36.3255 0.762815H154.271C162.04 0.762815 169.734 3.67598 175.56 8.83004C182.208 14.7311 186.466 23.3959 186.466 32.3595V160.091C186.615 165.095 185.719 170.1 183.627 174.582C178.697 185.637 167.194 193.405 155.018 193.629H63.9632V253.162C53.9919 243.863 44.0579 234.546 34.1239 225.228L34.1219 225.226C24.1873 215.908 14.2526 206.589 4.28066 197.289C3.97324 196.982 3.6314 196.677 3.28268 196.367C1.85202 195.092 0.305603 193.715 0.545834 191.613V32.3595C0.545834 19.437 9.43472 7.18672 21.6103 2.77962ZM12.9455 33.1064V181.155H154.271C164.729 181.304 174.066 172.042 174.066 161.585V33.1064C174.215 22.5742 164.804 13.0877 154.271 13.1624H32.5907C22.0584 13.1624 12.7961 22.5742 12.9455 33.1064ZM19.3012 193.561L19.2947 193.555H51.1154V223.433C40.5107 213.426 29.9059 203.493 19.3012 193.561ZM32.5907 32.2101H136.419C141.349 32.3595 146.727 33.4799 150.312 37.14C153.898 40.8002 155.018 46.1036 155.018 51.0336V80.9122C155.018 84.8711 153.599 88.7554 150.835 91.6685C147.698 95.0299 143.291 96.8226 139.033 98.2418C147.25 99.8104 154.421 106.683 154.944 115.273C155.043 121.397 155.01 127.554 154.977 133.7V133.7V133.7V133.7V133.701V133.701V133.701V133.701V133.701V133.701V133.701V133.701V133.702V133.702V133.702V133.702V133.702V133.702V133.702V133.703V133.703V133.703V133.703V133.703V133.703V133.703V133.704V133.704V133.704V133.704V133.704V133.704V133.704V133.704V133.705V133.705V133.705V133.705V133.705V133.705V133.705V133.706V133.706V133.706V133.706V133.706V133.706V133.706V133.707V133.707V133.707V133.707V133.707V133.707V133.707V133.708V133.708V133.708V133.708V133.708V133.708V133.708V133.708V133.709V133.709V133.709V133.709V133.709V133.709V133.712C154.96 136.782 154.944 139.851 154.944 142.91C154.944 148.214 153.226 153.741 149.267 157.327C145.382 160.838 140.004 162.182 134.925 162.107H32.5907V32.2101ZM84.3554 86.2904V65.5247H84.4301H103.552C103.488 68.4946 103.507 71.4507 103.525 74.4048V74.4052V74.4055V74.4058V74.4062V74.4065V74.4069V74.4072V74.4076V74.4079V74.4082V74.4086V74.4089V74.4093V74.4096V74.41V74.4103V74.4107V74.411V74.4113V74.4117V74.412V74.4124V74.4127V74.4131V74.4134V74.4137V74.4141V74.4144V74.4148V74.4151V74.4155V74.4158V74.4161V74.4165V74.4168V74.4172V74.4175V74.4179V74.4182V74.4185V74.4189V74.4192V74.4196V74.4199V74.4203V74.4206V74.421V74.4213V74.4216V74.422V74.4223V74.4227V74.423V74.4234V74.4237V74.424V74.4244V74.4247V74.4251V74.4254V74.4258V74.4261V74.4264V74.4268V74.4271V74.4275V74.4278V74.4282C103.549 78.3764 103.574 82.3212 103.403 86.2904H84.3554ZM84.3554 108.923V129.241H103.478V108.923H84.3554ZM674.906 45.3567C668.482 45.8795 661.685 47.8963 657.502 53.0504L657.577 53.1251C652.497 59.4743 651.228 67.915 651.003 75.7582V105.711C650.929 112.584 650.929 119.53 653.095 126.104C654.813 131.407 658.025 136.561 663.03 139.176C670.051 142.836 678.342 143.06 686.036 142.163C692.311 141.342 698.735 138.429 702.096 132.826C706.67 125.589 706.627 116.854 706.585 108.561C706.582 107.781 706.578 107.005 706.578 106.234H686.111C686.038 108.107 686.076 109.987 686.114 111.868C686.192 115.764 686.271 119.661 685.364 123.489C684.318 129.166 674.682 129.092 673.188 123.713C672.084 120.594 672.11 117.193 672.135 113.853C672.139 113.353 672.143 112.855 672.143 112.359V71.2017C672.217 67.9897 672.367 64.4043 674.383 61.7152C677.371 58.802 684.169 59.1755 685.289 63.8067C686.257 67.5764 686.183 71.4504 686.109 75.3101C686.074 77.1099 686.04 78.9065 686.111 80.6881H706.578C706.565 79.5433 706.568 78.3939 706.57 77.2428V77.2418V77.2409V77.2399V77.2389V77.238V77.237V77.2361V77.2351V77.2341V77.2332V77.2322V77.2313V77.2303V77.2293V77.2284V77.2274V77.2264V77.2255V77.2245V77.2236V77.2226V77.2216V77.2207V77.2197V77.2188V77.2178V77.2168V77.2159V77.2149V77.214V77.213V77.212V77.2111V77.2101V77.2091V77.2082V77.2072V77.2063V77.2053V77.2043V77.2034V77.2024V77.2015V77.2005V77.1995V77.1986V77.1976V77.1966V77.1957V77.1947V77.1938V77.1928V77.1918V77.1909V77.1899V77.189V77.188C706.584 71.6731 706.598 66.1189 704.934 60.8188C703.366 55.5901 700.004 50.5854 694.925 48.1951C688.725 45.1326 681.629 44.9085 674.906 45.3567ZM1107.47 46.5518C1113.97 44.7591 1121.07 44.535 1127.57 46.5518C1131.6 47.7469 1135.04 50.5854 1136.9 54.3202C1139.89 59.6984 1141.09 65.8982 1141.31 72.0233C1135.34 72.7703 1129.29 73.5173 1123.31 74.1895C1123.25 73.3989 1123.21 72.6018 1123.16 71.8036C1123 68.756 1122.83 65.6924 1121.59 62.9103C1119.95 59.4743 1114.27 59.7731 1112.7 63.1344C1110.09 68.1391 1111.88 74.563 1115.69 78.5219C1118.49 81.6067 1121.66 84.3529 1124.83 87.0987C1129.95 91.5339 1135.07 95.9682 1138.62 101.827C1142.28 107.579 1143.55 114.6 1142.95 121.323C1142.36 128.345 1138.32 135.067 1132.27 138.727C1125.85 142.836 1117.71 143.134 1110.39 141.715C1104.86 140.669 1099.48 137.756 1096.34 132.976C1092.39 126.925 1091.41 119.53 1091.12 112.434C1094.1 111.986 1097.07 111.538 1100.04 111.09C1103.01 110.641 1105.98 110.193 1108.97 109.745C1108.98 109.952 1108.99 110.159 1109 110.367C1109.01 110.599 1109.02 110.831 1109.03 111.065C1109.21 115.154 1109.4 119.408 1111.36 123.116C1112.93 126.178 1117.11 127.598 1120.1 125.88C1122.71 124.012 1122.64 120.427 1122.41 117.588C1122.11 112.957 1119.43 108.849 1116.29 105.637C1113.84 103.143 1111.15 100.853 1108.46 98.5601C1103.17 94.0551 1097.87 89.5409 1094.4 83.4519C1090.74 76.8039 1090.52 68.662 1092.31 61.4164C1094.18 54.2455 1100.23 48.5686 1107.32 46.6265L1107.47 46.5518ZM1711.69 45.3567C1704.52 44.7591 1696.83 45.5807 1690.78 49.7638L1690.7 49.6891C1686 52.8263 1682.86 58.0551 1681.89 63.6573C1680.62 70.7535 1681.29 78.5219 1685.33 84.647C1688.73 90.0624 1693.54 94.15 1698.36 98.2386L1698.36 98.2393C1701.77 101.143 1705.19 104.048 1708.11 107.429C1711.92 111.762 1713.79 118.186 1711.84 123.788C1710.13 127.672 1704.22 127 1702.06 123.863C1699.6 120.307 1699.38 115.857 1699.18 111.625C1699.16 111.319 1699.15 111.014 1699.13 110.711C1699.11 110.362 1699.09 110.015 1699.07 109.67C1696.1 110.116 1693.15 110.562 1690.19 111.008L1690.17 111.011L1690.14 111.015L1690.12 111.019C1687.16 111.466 1684.2 111.912 1681.22 112.359C1681.59 119.605 1682.56 127.299 1686.82 133.349C1690.11 138.055 1695.56 140.819 1701.09 141.79C1708.26 142.985 1716.18 142.686 1722.45 138.653C1728.28 135.067 1732.16 128.718 1732.98 121.921C1733.8 114.526 1732.24 106.608 1727.83 100.483C1724.38 95.1728 1719.62 91.0686 1714.85 86.9591C1711.57 84.1314 1708.28 81.3011 1705.42 78.0737C1701.83 74.1895 1700.27 67.915 1702.81 63.0597C1704.37 59.6984 1710.13 59.549 1711.69 63.0597C1712.83 65.9213 1713.01 68.9731 1713.19 71.9875L1713.19 72.0023C1713.23 72.7599 1713.28 73.5151 1713.34 74.2642C1719.31 73.592 1725.36 72.845 1731.34 72.098C1731.04 65.1512 1729.55 57.9804 1725.51 52.154C1722.38 47.7469 1716.85 45.8048 1711.69 45.3567ZM256.307 62.014V46.4771H305.756V62.014H291.638V141.118H270.649V62.014H256.382H256.307ZM335.261 46.4771H314.346V141.118H335.261V99.7357H349.827V141.118H370.891V46.4771H349.827V84.8711H335.261V46.4771ZM385.308 46.4024H427.81V60.6695H406.223V84.1242H422.656V98.6153H406.223V126.925H428.034V141.043H385.308V46.4024ZM491.153 46.4024H467.399V140.968H497.129C504.075 140.894 511.396 139.549 516.848 134.918C522.003 130.585 524.318 123.863 524.841 117.364C525.439 110.417 524.916 102.724 520.583 96.8973C517.745 93.0131 513.039 90.9216 508.333 90.1746C513.487 89.2035 518.417 85.9916 520.434 81.0616C522.675 75.4594 522.525 69.1849 521.405 63.3585C520.135 56.8599 515.429 51.0336 509.08 48.7927C503.328 46.7759 497.203 46.4024 491.153 46.4024ZM488.314 60.4454V84.2736C488.817 84.2736 489.324 84.2792 489.833 84.2849C493.031 84.3204 496.32 84.357 499.22 83.0037C502.432 81.4351 503.478 77.5509 503.702 74.2642C504.001 70.4547 503.702 65.8982 500.639 63.2091C497.667 60.5015 493.586 60.4796 489.79 60.4593C489.292 60.4567 488.799 60.454 488.314 60.4454ZM488.314 126.402V98.1671C489.046 98.1795 489.795 98.1713 490.553 98.1631C494.366 98.1216 498.396 98.0777 501.386 100.632C504.598 103.545 504.822 108.251 504.972 112.285C504.897 116.542 504.449 121.398 501.013 124.311C497.91 126.59 494.003 126.508 490.291 126.43H490.291H490.29H490.29C489.623 126.416 488.963 126.402 488.314 126.402ZM536.12 46.4024H557.035V126.925H578.772V141.043H536.12V46.4024ZM625.009 46.4024H601.181C595.28 77.9244 589.304 109.521 583.328 141.043H603.048C603.607 137.729 604.147 134.396 604.687 131.063L604.692 131.034L604.696 131.005C605.236 127.672 605.776 124.339 606.335 121.024H620.228C620.751 124.347 621.274 127.688 621.797 131.03L621.797 131.034C622.32 134.376 622.843 137.719 623.366 141.043H642.637C636.811 109.521 630.91 77.9244 625.009 46.4024ZM608.202 108.625H618.286C617.573 103.535 616.885 98.4321 616.195 93.3219L616.194 93.3106L616.192 93.2949C615.224 86.1147 614.254 78.9196 613.207 71.7245C612.274 79.054 611.262 86.3571 610.249 93.6651L610.246 93.69C609.557 98.6626 608.867 103.637 608.202 108.625ZM738.921 46.4024H718.006V140.968H738.921V104.666C738.747 103.038 739.613 101.681 740.464 100.35C740.706 99.9706 740.947 99.5936 741.162 99.2129C743.418 106.128 745.673 113.024 747.929 119.92L747.93 119.924L747.997 120.129C750.275 127.094 752.554 134.059 754.832 141.043H776.12C773.057 132.415 769.995 123.768 766.932 115.122C763.87 106.476 760.807 97.8306 757.745 89.2035C760.658 82.07 763.59 74.9365 766.522 67.803L766.522 67.8012L766.525 67.794L766.528 67.7868L766.529 67.785L766.532 67.7778L766.533 67.7761L766.536 67.7689L766.541 67.7563L766.546 67.7438L766.551 67.7313L766.554 67.7241L766.557 67.7169L766.558 67.7151L766.558 67.7134L766.559 67.7116L766.56 67.7098L766.561 67.708L766.561 67.7062L766.562 67.7044L766.563 67.7027L766.563 67.7009L766.564 67.6991L766.565 67.6973L766.566 67.6955L766.566 67.6937L766.567 67.6919L766.568 67.6902L766.569 67.6884L766.569 67.6866L766.57 67.6848L766.571 67.683L766.572 67.6812L766.572 67.6794L766.573 67.6777L766.574 67.6759L766.574 67.6741L766.575 67.6723L766.576 67.6705L766.577 67.6687L766.577 67.6669L766.578 67.6652L766.579 67.6634L766.58 67.6616L766.58 67.6598L766.581 67.658L766.582 67.6562L766.583 67.6544L766.583 67.6527L766.584 67.6509L766.585 67.6491L766.585 67.6473L766.586 67.6455L766.587 67.6437L766.588 67.642C769.497 60.5621 772.407 53.4823 775.299 46.4024H754.832C752.183 52.8199 749.534 59.2561 746.884 65.6923L746.878 65.708C744.226 72.1518 741.574 78.5955 738.921 85.0205V46.4024ZM810.257 46.4024H828.034C828.568 51.6531 829.089 56.9038 829.611 62.1545C830.914 75.2792 832.217 88.4038 833.711 101.528C835.065 90.0901 836.565 78.6517 838.065 67.2133C838.965 60.351 839.864 53.4888 840.733 46.6265H854.626C855.615 53.723 856.581 60.8195 857.547 67.9116C859.061 79.0341 860.574 90.1458 862.171 101.23C863.239 90.3239 864.387 79.4447 865.535 68.5604C866.314 61.1801 867.093 53.7973 867.848 46.4024H885.327C881.592 77.9244 877.782 109.521 873.973 141.043H855.747C854.562 132.88 853.419 124.718 852.276 116.555C850.751 105.67 849.227 94.7851 847.605 83.9001C846.331 93.7421 845.018 103.584 843.705 113.416L843.703 113.436L843.7 113.453C842.475 122.637 841.25 131.811 840.06 140.968H821.61C819.706 125.208 817.801 109.429 815.896 93.6504C813.992 77.87 812.087 62.0895 810.182 46.3277L810.257 46.4024ZM932.609 46.4024H908.856C904.937 66.8198 901.081 87.2684 897.226 107.708L897.219 107.747C895.125 118.85 893.031 129.951 890.929 141.043H910.649C911.206 137.739 911.744 134.416 912.282 131.093L912.283 131.092L912.283 131.091L912.283 131.09L912.283 131.089L912.283 131.087L912.284 131.086L912.284 131.085L912.284 131.084L912.284 131.083L912.284 131.082L912.284 131.081L912.285 131.079L912.285 131.078L912.285 131.077L912.285 131.076L912.285 131.075L912.286 131.074L912.286 131.073L912.286 131.071L912.286 131.07L912.286 131.069L912.286 131.068L912.287 131.067L912.287 131.066L912.287 131.065L912.287 131.063L912.287 131.062L912.288 131.061L912.288 131.06L912.288 131.059L912.288 131.058L912.288 131.057L912.289 131.055L912.289 131.054L912.289 131.053L912.289 131.052L912.289 131.051L912.289 131.05L912.29 131.048L912.29 131.047L912.29 131.046L912.29 131.045L912.29 131.044L912.291 131.043L912.291 131.042L912.291 131.04L912.291 131.039L912.291 131.038L912.291 131.037L912.292 131.036L912.292 131.035L912.292 131.034L912.292 131.033L912.293 131.031L912.293 131.028L912.293 131.027L912.294 131.023L912.294 131.02L912.295 131.019C912.835 127.681 913.376 124.343 913.935 121.024H927.829C928.352 124.348 928.875 127.691 929.397 131.034L929.399 131.042C929.921 134.382 930.444 137.722 930.966 141.043H950.238C944.411 109.521 938.51 77.9244 932.609 46.4024ZM915.877 108.625H925.887C925.533 105.991 925.184 103.353 924.833 100.713C923.555 91.0775 922.273 81.4154 920.807 71.7992C919.892 78.951 918.899 86.1028 917.905 93.2694C917.196 98.3784 916.487 103.495 915.803 108.625H915.877ZM980.863 46.4024H959.948V141.043H1002.6V126.925H980.863V46.4024ZM1011.64 46.4024H1032.55V126.925H1054.29V141.043H1011.64V46.4024ZM1197.11 46.4024H1147.66V61.9393H1161.85V141.043H1182.92V61.9393H1197.11V46.4024ZM1205.4 46.4024H1233.71C1241.26 46.7012 1249.25 47.747 1255.45 52.3034C1260.6 56.113 1262.47 62.761 1262.77 68.8861C1262.99 74.8618 1262.69 81.0616 1260.3 86.5892C1258.59 90.6228 1255 93.3119 1251.27 95.254C1255.6 110.492 1259.93 125.73 1264.19 141.043H1242.6C1239.67 129.258 1236.79 117.422 1233.92 105.62L1233.9 105.55C1233.34 103.237 1232.78 100.925 1232.22 98.6153H1226.24V141.043H1205.33V46.4024H1205.4ZM1226.32 86.6639V60.5201C1227.5 60.5846 1228.71 60.5562 1229.93 60.5277C1232.96 60.4571 1236.02 60.3854 1238.79 61.7152C1242.9 63.9561 1243.5 69.2596 1243.5 73.4426C1243.42 77.5509 1242.9 82.4809 1239.24 84.9458C1236.23 86.7379 1232.73 86.6957 1229.3 86.6542C1228.29 86.6421 1227.3 86.6301 1226.32 86.6639ZM1275.47 46.4024H1317.89V60.6695C1315.47 60.6695 1313.06 60.6528 1310.65 60.6361C1305.86 60.603 1301.08 60.57 1296.31 60.6695V84.0495H1312.81C1312.81 85.6673 1312.8 87.2767 1312.78 88.8807L1312.78 88.8992C1312.75 92.1028 1312.72 95.2843 1312.81 98.4659H1296.23V126.701H1318.12V140.894C1308.65 140.844 1299.17 140.86 1289.72 140.877H1289.72H1289.72H1289.71H1289.71H1289.71H1289.7H1289.7H1289.7H1289.7H1289.69H1289.69H1289.69H1289.68H1289.68H1289.68H1289.67H1289.67H1289.67H1289.67H1289.66H1289.66H1289.66H1289.65H1289.65H1289.65H1289.65H1289.64H1289.64H1289.64H1289.63H1289.63H1289.63H1289.62H1289.62H1289.62H1289.62H1289.61H1289.61H1289.61H1289.6H1289.6H1289.6H1289.6H1289.59H1289.59L1289.57 140.877C1284.84 140.885 1280.11 140.894 1275.39 140.894C1275.39 132.008 1275.38 123.116 1275.37 114.222V114.214V114.206V114.198V114.191V114.183V114.175V114.167V114.159V114.151V114.143V114.135V114.128V114.12V114.112V114.104V114.096V114.088V114.08V114.072V114.065V114.057V114.049V114.041V114.033V114.025V114.017V114.009V114.002V113.994V113.986V113.978V113.97V113.962V113.954V113.946V113.939V113.931V113.923V113.915V113.907V113.899V113.891V113.883V113.876V113.868C1275.34 91.3277 1275.31 68.7713 1275.47 46.253V46.4024ZM1370.18 46.4024H1327.68V140.968H1370.41V126.851H1348.59V98.5406H1365.03V84.0495H1348.59V60.6695H1370.18V46.4024ZM1374.22 46.4024H1423.59V61.9393H1409.47V141.043H1388.48V61.9393H1374.22V46.4024ZM1505.53 46.4024H1456.08V61.9393H1470.35V141.043H1491.34V61.9393H1505.53V46.4024ZM1513.9 46.4024H1534.81V141.043H1513.9V46.4024ZM1550.27 46.4024H1550.2L1550.28 46.3277L1550.27 46.4024ZM1550.27 46.4024H1572.61C1574.81 57.6291 1576.92 68.8839 1579.04 80.1496L1579.04 80.16L1579.05 80.1713L1579.05 80.1834L1579.05 80.1944L1579.05 80.2062C1580.38 87.2859 1581.71 94.3698 1583.07 101.454C1584.93 92.2663 1586.8 83.0976 1588.67 73.9288C1590.54 64.7596 1592.4 55.5903 1594.27 46.4024H1615.86C1616.12 62.005 1616.4 77.626 1616.68 93.2471V93.2523V93.2576V93.2628V93.268V93.2733V93.2785V93.2838V93.289V93.2943V93.2995V93.3047V93.31V93.3152V93.3205V93.3257V93.3309V93.3362V93.3414V93.3467V93.3519V93.3571V93.3624V93.3676V93.3729V93.3781V93.3834V93.3886V93.3938V93.3991V93.4043V93.4096V93.4148V93.42V93.4253V93.4305V93.4358V93.441V93.4463V93.4515L1616.68 93.7621C1616.96 109.529 1617.24 125.295 1617.5 141.043H1602.71C1602.38 130.548 1602.1 120.072 1601.82 109.596C1601.54 99.1195 1601.26 88.6433 1600.92 78.1484C1599.13 88.6434 1597.3 99.1197 1595.47 109.596V109.597C1593.64 120.073 1591.81 130.549 1590.01 141.043H1576.87L1575.41 133.134L1575.05 131.191C1571.77 113.391 1568.48 95.5455 1565.14 77.7003C1564.63 98.3304 1564.19 119.032 1563.75 139.665L1563.75 139.774L1563.72 140.968H1548.63C1548.89 125.207 1549.17 109.428 1549.45 93.6479L1549.46 93.031V93.0208L1549.47 93.0102C1549.74 77.4681 1550.02 61.9262 1550.27 46.4024ZM1631.17 46.4024H1673.67V60.6695H1652.09V84.1242H1668.52V98.6153H1652.09V126.925H1673.9V141.043H1631.17V46.4024ZM854.934 166.76C852.065 167.944 849.177 169.136 846.858 171.146L846.708 171.22C847.175 171.376 847.648 171.505 848.118 171.633C849.228 171.936 850.32 172.234 851.265 172.864C851.585 174.145 851.576 175.482 851.567 176.779V176.782C851.565 176.996 851.564 177.209 851.564 177.42C851.534 181.903 851.552 186.374 851.57 190.842C851.597 197.542 851.623 204.237 851.489 210.959C851.429 212.949 849.567 213.527 847.947 214.03C847.561 214.15 847.189 214.266 846.858 214.395V215.964C848.405 215.964 849.952 215.98 851.498 215.997L851.503 215.997C855.631 216.041 859.76 216.086 863.889 215.814C863.639 214.494 862.486 214.043 861.35 213.599C860.107 213.112 858.884 212.634 858.884 211.034C858.868 209.998 858.842 208.96 858.816 207.919C858.719 204.079 858.622 200.213 859.033 196.393C860.751 192.584 865.831 190.044 869.864 191.837C872.231 193.02 872.328 196.033 872.402 198.34L872.404 198.41C872.374 200.049 872.392 201.7 872.41 203.353V203.356V203.359V203.361V203.364V203.367V203.369V203.372V203.375V203.377V203.38V203.383V203.386V203.388V203.391V203.394V203.396V203.399V203.402V203.404V203.407V203.41V203.413V203.415V203.418V203.421V203.423V203.426V203.429V203.432V203.434V203.437V203.44V203.442V203.445V203.448V203.45V203.453C872.437 205.985 872.464 208.523 872.329 211.034C872.27 212.928 870.474 213.462 868.876 213.937C868.458 214.061 868.054 214.181 867.698 214.32V215.964H884.206V214.246C883.795 214.069 883.332 213.934 882.862 213.797C881.541 213.411 880.165 213.009 879.724 211.631C879.343 209.027 879.421 206.37 879.499 203.715C879.604 200.126 879.709 196.542 878.679 193.106C877.035 187.952 870.835 186.533 866.13 187.728C863.543 188.296 861.649 190.196 859.818 192.032C859.481 192.371 859.146 192.707 858.809 193.032C858.777 189.03 858.786 185.041 858.796 181.055V181.054V181.052V181.051V181.05V181.049V181.047V181.046V181.045V181.044V181.042V181.041V181.04V181.038V181.037V181.036V181.035V181.033V181.032V181.031V181.029V181.028V181.027V181.026V181.024V181.023V181.022V181.02V181.019V181.018V181.017V181.015V181.014V181.013V181.011V181.01V181.009V181.008V181.006C858.808 175.708 858.82 170.414 858.735 165.095C857.507 165.697 856.222 166.228 854.934 166.76ZM1214.14 170.548C1216.94 168.979 1219.87 167.663 1222.8 166.346L1222.81 166.342C1223.78 165.904 1224.75 165.467 1225.72 165.021C1225.79 171.946 1225.78 178.872 1225.77 185.804V185.825C1225.76 194.139 1225.75 202.463 1225.87 210.81C1225.87 212.861 1227.96 213.482 1229.68 213.995L1229.69 213.995C1229.81 214.032 1229.93 214.067 1230.05 214.103C1230.2 214.15 1230.36 214.198 1230.5 214.246V215.889C1228.95 215.889 1227.41 215.906 1225.86 215.922L1225.85 215.922C1221.73 215.967 1217.6 216.011 1213.47 215.74C1213.72 214.454 1214.86 214.005 1215.98 213.56C1217.22 213.074 1218.43 212.593 1218.47 211.034C1218.62 198.783 1218.55 186.533 1218.47 174.358C1218.51 172.999 1217.33 172.708 1216.18 172.425C1215.05 172.148 1213.96 171.879 1214.07 170.623L1214.14 170.548ZM1362.24 166.555C1359.24 167.808 1356.22 169.066 1353.67 171.071V171.146C1354.14 171.347 1354.72 171.477 1355.31 171.612C1356.94 171.977 1358.69 172.372 1358.53 174.283C1358.53 177.971 1358.52 181.667 1358.51 185.366V185.374V185.382V185.391V185.399V185.407V185.416V185.424V185.432V185.44V185.449V185.457V185.465V185.474V185.482V185.49V185.498C1358.5 192.993 1358.48 200.499 1358.53 207.971C1358.51 208.329 1358.51 208.698 1358.51 209.072C1358.52 210.101 1358.52 211.168 1358.08 212.154C1357.39 213.116 1356.23 213.466 1355.11 213.806C1354.67 213.942 1354.23 214.075 1353.82 214.246V215.889H1370.41C1370.33 215.441 1370.33 214.619 1370.33 214.171C1369.98 214.032 1369.58 213.913 1369.18 213.79C1367.61 213.318 1365.89 212.798 1365.77 210.959C1365.63 206.253 1365.48 201.472 1365.77 196.692C1367.19 192.285 1373.1 189.521 1377.2 191.911C1379.23 193.518 1379.21 196.121 1379.2 198.548C1379.19 199.167 1379.19 199.775 1379.22 200.352C1379.16 201.789 1379.2 203.238 1379.23 204.694V204.695V204.697V204.699V204.701V204.703V204.705V204.706V204.708V204.71V204.712V204.714V204.716V204.718V204.72V204.722V204.724V204.726V204.728V204.731V204.733V204.735V204.737V204.739V204.741V204.744V204.746V204.748V204.751V204.753V204.755V204.758V204.76V204.763V204.765V204.767C1379.29 206.995 1379.34 209.238 1379.07 211.482C1378.62 212.885 1377.2 213.276 1375.89 213.637C1375.46 213.757 1375.03 213.873 1374.66 214.021C1374.59 214.47 1374.59 215.366 1374.59 215.814C1376.43 215.814 1378.27 215.823 1380.12 215.831C1383.8 215.847 1387.49 215.864 1391.17 215.814V214.171C1390.76 213.995 1390.3 213.859 1389.83 213.722C1388.51 213.336 1387.13 212.934 1386.69 211.557C1386.32 208.991 1386.41 206.362 1386.5 203.732C1386.62 200.006 1386.75 196.28 1385.57 192.733C1383.7 187.654 1377.35 186.533 1372.72 187.803C1370.31 188.484 1368.56 190.245 1366.84 191.976C1366.48 192.332 1366.13 192.688 1365.77 193.032C1365.7 188.363 1365.7 183.713 1365.7 179.064C1365.7 174.414 1365.7 169.764 1365.63 165.095C1364.52 165.608 1363.38 166.081 1362.24 166.555ZM535.448 174.955C535.672 170.473 543.814 170.399 543.963 174.955C543.767 178.676 543.155 182.396 542.545 186.096L542.544 186.1L542.544 186.104L542.543 186.107L542.543 186.111L542.542 186.114C542.223 188.054 541.904 189.987 541.648 191.911H537.763C537.494 189.632 537.127 187.364 536.761 185.099C536.216 181.723 535.671 178.352 535.448 174.955ZM777.166 175.777C777.539 172.64 774.178 170.399 771.414 171.444V171.519C767.754 172.416 767.605 178.615 771.265 179.661C773.879 180.707 777.315 178.839 777.166 175.777ZM1095.07 183.695C1098.36 177.047 1105.31 172.49 1112.55 171.444C1118.23 170.548 1123.91 171.669 1129.29 173.387C1130.53 173.778 1131.77 173.771 1133.06 173.762L1133.36 173.761C1133.45 173.76 1133.53 173.76 1133.62 173.76V184.815C1131.81 184.564 1131.01 183.059 1130.23 181.579L1130.23 181.578C1129.85 180.86 1129.47 180.147 1128.99 179.586C1125.1 173.984 1117.18 173.237 1111.13 175.179C1106.05 176.823 1103.22 181.977 1102.47 186.981C1101.35 194.003 1101.95 201.697 1106.13 207.672C1110.01 213.275 1118.01 215.067 1124.21 212.677C1128.31 211.108 1131.53 207.747 1133.62 203.937H1136.01C1135.01 206.427 1133.88 208.851 1132.75 211.274C1132.19 212.486 1131.63 213.698 1131.08 214.918C1128.33 214.685 1125.67 215.257 1123.02 215.83C1120.56 216.361 1118.09 216.893 1115.54 216.785C1109.19 216.561 1102.77 214.171 1098.36 209.54C1091.79 202.892 1090.82 192.061 1095 183.919L1095.07 183.695ZM1152.14 175.702C1152.59 172.64 1149.15 170.399 1146.39 171.444C1142.66 172.416 1142.51 178.541 1146.24 179.586C1148.93 180.632 1152.37 178.765 1152.14 175.702ZM1200.92 171.594C1203.76 170.324 1207.42 172.49 1207.04 175.777C1207.27 178.989 1203.53 180.782 1200.84 179.586C1197.56 178.317 1197.63 172.864 1200.84 171.669L1200.92 171.594ZM1309.01 175.777C1309.38 172.415 1305.49 170.249 1302.66 171.669H1302.73C1299.44 173.088 1299.67 178.69 1303.18 179.661C1305.79 180.632 1309.15 178.765 1309.01 175.777ZM1418.36 175.03C1418.51 171.594 1423.44 170.473 1425.76 172.714C1427.11 173.665 1426.93 175.418 1426.77 176.907L1426.77 176.917L1426.76 177.06L1426.74 177.218L1426.73 177.345C1426.39 180.124 1425.96 182.878 1425.53 185.636L1425.53 185.639L1425.52 185.641L1425.52 185.643L1425.52 185.646L1425.52 185.648L1425.52 185.651L1425.52 185.653L1425.52 185.656L1425.52 185.658L1425.52 185.66L1425.52 185.663L1425.52 185.665L1425.52 185.668L1425.52 185.67L1425.52 185.673L1425.52 185.675L1425.52 185.677L1425.52 185.68L1425.52 185.682L1425.52 185.685L1425.52 185.687L1425.52 185.69L1425.52 185.692L1425.52 185.694L1425.52 185.697L1425.52 185.699L1425.52 185.702L1425.52 185.704L1425.51 185.707C1425.18 187.819 1424.85 189.933 1424.56 192.061H1420.68C1420.41 189.837 1420.05 187.637 1419.68 185.437L1419.68 185.436C1419.11 182.019 1418.54 178.603 1418.36 175.105V175.03ZM556.064 174.358C555.018 170.697 549.043 170.697 547.698 174.208V174.283C547.698 177.946 548.315 181.58 548.931 185.204C549.32 187.493 549.708 189.777 549.939 192.061H553.823C554.072 190.094 554.404 188.135 554.736 186.176C555.4 182.259 556.064 178.341 556.064 174.358ZM1249.85 172.49C1251.49 172.44 1253.13 172.382 1254.76 172.324C1260.42 172.125 1266.05 171.926 1271.73 172.042C1275.99 172.042 1280.32 173.835 1283.09 177.271C1286.3 181.006 1286.82 186.981 1283.91 191.015C1282.73 192.656 1280.97 193.721 1279.24 194.766C1279 194.91 1278.76 195.053 1278.53 195.198C1279.84 197.224 1281.12 199.272 1282.4 201.321C1284.47 204.635 1286.55 207.952 1288.76 211.183C1290.26 213.499 1292.72 214.918 1295.11 216.188C1290.7 217.383 1285.55 216.188 1281.89 213.573C1278.76 210.54 1276.57 206.815 1274.37 203.085C1273.1 200.937 1271.83 198.787 1270.39 196.767C1269.43 196.728 1268.48 196.67 1267.55 196.612C1266.67 196.558 1265.8 196.504 1264.93 196.468C1264.93 197.792 1264.92 199.117 1264.9 200.441C1264.86 203.972 1264.81 207.503 1265.08 211.034C1265.38 213.022 1267.21 213.296 1268.96 213.558C1270.7 213.818 1272.37 214.068 1272.4 215.964H1250.07V214.246C1250.25 214.217 1250.44 214.189 1250.64 214.161C1253.02 213.81 1256.33 213.324 1256.12 210.287C1256.27 199.829 1256.19 189.372 1256.12 178.914C1256.34 175.553 1252.68 174.208 1249.92 174.283V172.64L1249.85 172.49ZM1264.84 180.718C1264.85 178.518 1264.86 176.322 1264.86 174.134H1264.79C1265.15 174.122 1265.52 174.103 1265.89 174.083C1267.87 173.98 1269.91 173.874 1271.73 174.88C1275.09 176.524 1276.81 180.333 1276.81 183.919C1276.81 187.056 1276.21 190.641 1273.52 192.584C1271.06 194.451 1267.77 194.227 1264.86 193.928C1264.81 189.543 1264.83 185.125 1264.84 180.718ZM1430.54 175.03C1430.69 170.772 1437.93 170.399 1438.9 174.358C1438.9 178.341 1438.24 182.259 1437.57 186.176C1437.24 188.135 1436.91 190.094 1436.66 192.061H1432.78C1432.52 189.841 1432.15 187.633 1431.78 185.427L1431.78 185.421L1431.78 185.416L1431.78 185.41L1431.78 185.405L1431.78 185.4L1431.78 185.395C1431.21 181.97 1430.64 178.551 1430.46 175.105L1430.54 175.03ZM587.735 172.415H578.847V172.49C578.473 174.947 577.641 177.25 576.815 179.538C576.485 180.45 576.157 181.36 575.859 182.275C572.796 191.09 569.734 199.904 566.746 208.718C566.073 210.585 565.252 212.826 563.16 213.499C562.828 213.698 562.41 213.818 561.989 213.94C560.99 214.228 559.971 214.523 560.023 215.889C563.904 215.939 567.751 215.922 571.609 215.906H571.612C573.546 215.897 575.482 215.889 577.427 215.889V214.32C577.002 214.256 576.555 214.207 576.099 214.157C573.912 213.918 571.531 213.658 570.481 211.556C571.676 207.149 573.17 202.668 575.037 198.485C579.22 197.887 583.777 197.812 587.96 198.485C588.922 200.501 589.659 202.602 590.396 204.701L590.397 204.703C590.861 206.025 591.325 207.345 591.844 208.643C591.913 208.865 592 209.097 592.09 209.335C592.483 210.38 592.92 211.54 592.068 212.453C590.807 213.714 588.982 213.848 587.214 213.978C586.574 214.025 585.941 214.072 585.345 214.171V215.814H607.381C607.455 215.441 607.455 214.768 607.455 214.395L607.443 214.391C604.905 213.645 601.852 212.747 601.106 209.913C598.865 203.676 596.643 197.421 594.421 191.165L594.42 191.161C592.198 184.906 589.976 178.651 587.735 172.415ZM580.863 181.379L580.824 181.476L580.789 181.454L580.863 181.379ZM580.824 181.476C581.634 181.996 582.435 182.663 582.656 183.62C584.001 187.28 585.345 191.015 586.69 194.75C584.349 194.8 582.009 194.783 579.668 194.766C578.498 194.758 577.328 194.75 576.158 194.75C576.29 194.353 576.422 193.955 576.553 193.558L576.849 192.663L576.862 192.625C578.099 188.886 579.332 185.155 580.824 181.476ZM949.416 172.415H935.299L935.224 172.49V174.134C935.617 174.215 936.029 174.279 936.446 174.344C937.931 174.575 939.494 174.818 940.602 175.926C940.926 178.839 940.877 181.752 940.829 184.665C940.799 186.458 940.769 188.251 940.826 190.044C940.773 192.525 940.815 195.016 940.857 197.506V197.507C940.932 201.988 941.007 206.467 940.527 210.884C940.229 213.573 937.465 214.246 935.224 214.246V215.889H952.553C952.628 215.441 952.703 214.619 952.703 214.246C952.517 214.207 952.324 214.171 952.123 214.136C951.934 214.102 951.738 214.069 951.539 214.035C949.071 213.615 946.012 213.095 945.756 210.212C945.607 200.8 945.607 191.463 945.756 182.051C951.432 188.148 957.014 194.363 962.594 200.577L962.595 200.578L962.596 200.578L962.596 200.579L962.597 200.58L962.598 200.58L962.599 200.581L962.599 200.582L962.6 200.583L962.601 200.583C966.932 205.406 971.262 210.228 975.635 214.993C976.979 216.785 981.237 216.86 981.013 213.947C981.077 208.739 981.059 203.518 981.04 198.294V198.293V198.292V198.29V198.289V198.288V198.286V198.285V198.284V198.282V198.281V198.28V198.278V198.277V198.276V198.274V198.273V198.272V198.27V198.269V198.268V198.266V198.265C981.016 191.286 980.992 184.304 981.162 177.345C981.529 175.807 982.974 175.364 984.351 174.942C985.781 174.504 987.138 174.089 987.138 172.49H969.584V174.208L969.71 174.212L969.8 174.214L969.964 174.218L970.217 174.223C972.632 174.27 975.74 174.33 976.083 177.345C976.754 182.663 976.656 188.041 976.559 193.403V193.405V193.408V193.41V193.412V193.415V193.417V193.42V193.422V193.425V193.427V193.429V193.432V193.434V193.436V193.439V193.441V193.444V193.446V193.448V193.451V193.453V193.455C976.505 196.436 976.451 199.412 976.531 202.369C971.285 196.65 966.089 190.881 960.899 185.12L960.897 185.119L960.895 185.117C957.071 180.871 953.25 176.63 949.416 172.415ZM831.165 185.826L831.165 185.825C832.657 184.19 834.149 182.554 836.55 182.35L836.483 182.657L836.41 182.994L836.403 183.029C836.077 184.536 835.744 186.076 835.355 187.504C838.417 187.504 841.554 187.504 844.617 187.579C844.729 188.326 844.822 189.073 844.916 189.82C845.009 190.567 845.102 191.314 845.214 192.061H835.429V207.149C835.429 208.867 835.877 211.183 837.82 211.557C839.469 211.779 840.826 210.965 842.192 210.144C843.115 209.59 844.041 209.034 845.065 208.793C844.542 212.079 841.853 214.47 839.089 215.889C834.757 218.055 828.856 214.768 828.408 209.988C828.273 206.402 828.3 202.817 828.327 199.232C828.345 196.841 828.363 194.451 828.333 192.061C827.279 192.061 826.225 191.995 825.108 191.925L824.897 191.911C825.427 190.587 826.558 189.751 827.677 188.923C828.136 188.584 828.593 188.247 829.005 187.878V187.952C829.785 187.338 830.475 186.582 831.165 185.826ZM1404.99 182.35C1403.2 182.649 1401.55 183.545 1400.43 184.965H1400.51C1399.02 186.778 1397.26 188.188 1395.48 189.609C1394.84 190.12 1394.19 190.632 1393.56 191.164C1393.56 192.2 1394.51 192.161 1395.45 192.123C1395.93 192.103 1396.42 192.083 1396.77 192.21C1396.77 194.127 1396.76 196.045 1396.74 197.962C1396.71 201.796 1396.67 205.631 1396.77 209.465C1396.77 212.154 1398.64 214.768 1401.11 215.889C1406.19 218.503 1412.53 214.021 1413.43 208.793C1412.48 209.052 1411.6 209.577 1410.71 210.104C1409.3 210.944 1407.88 211.786 1406.19 211.557C1404.32 211.034 1403.87 208.793 1403.87 207.149C1403.82 203.818 1403.84 200.487 1403.85 197.134L1403.85 197.079C1403.86 195.412 1403.87 193.741 1403.87 192.061H1413.66C1413.54 191.318 1413.45 190.575 1413.36 189.832L1413.36 189.818C1413.26 189.072 1413.17 188.325 1413.06 187.579C1410 187.504 1406.86 187.504 1403.8 187.504C1404.24 185.786 1404.69 184.068 1404.99 182.35ZM622.096 187.205C625.681 186.608 629.566 186.458 633.076 187.728C634.944 188.326 636.587 190.866 635.018 192.584C633.375 193.704 630.835 193.629 629.416 192.135C629.187 191.941 628.957 191.732 628.723 191.521C627.428 190.35 626.022 189.078 624.187 189.521C620.901 189.745 618.959 192.957 618.361 195.87C617.614 199.754 617.539 203.937 619.033 207.672C620.453 211.258 624.71 213.05 628.296 211.93C629.69 211.482 630.752 210.502 631.815 209.523C632.346 209.033 632.877 208.544 633.45 208.12C634.346 207.747 635.989 208.12 635.84 209.465C632.479 214.694 625.756 218.055 619.631 216.188C613.058 213.947 609.248 206.402 610.518 199.68C611.041 193.555 615.821 188.102 622.021 187.28L622.096 187.205ZM661.312 187.131C655.336 186.16 648.09 186.981 644.057 191.986L643.982 192.061C639.799 197.663 639.425 206.328 643.982 211.855C646.596 215.217 651.003 217.308 655.336 216.486C660.042 215.964 663.777 212.826 666.54 209.166C666.346 209.043 666.156 208.894 665.964 208.744C665.345 208.259 664.707 207.761 663.851 208.046C663.226 208.504 662.648 209.032 662.064 209.565L662.064 209.566C661.601 209.988 661.135 210.413 660.639 210.81C657.427 213.424 652.124 212.303 649.958 208.867C648.24 206.104 648.09 202.742 648.165 199.605C648.314 196.767 648.837 193.629 650.854 191.388C652.497 189.446 655.784 188.699 657.801 190.492C658.225 190.795 658.627 191.169 659.033 191.546L659.033 191.547C660.128 192.564 661.246 193.603 662.88 193.331C664.15 193.331 665.793 192.882 665.943 191.388C666.316 188.774 663.478 187.504 661.312 187.131ZM678.118 188.55C682.376 186.234 688.277 185.861 692.161 189.148C694.925 191.538 696.867 195.198 696.494 198.933C692.823 199.018 689.152 199.006 685.481 198.994C682.728 198.985 679.975 198.975 677.222 199.007C677.222 199.272 677.22 199.538 677.218 199.804V199.805C677.203 201.942 677.189 204.111 678.118 206.104C679.463 209.614 682.974 212.378 686.858 212.229C689.759 212.229 692.213 210.504 694.516 208.885C694.703 208.754 694.889 208.623 695.074 208.494C695.261 208.681 695.523 208.979 695.784 209.278C696.045 209.577 696.307 209.876 696.494 210.063C692.684 213.947 687.381 217.383 681.629 216.486C676.102 215.814 671.545 211.108 670.798 205.655C669.902 199.232 672.217 191.762 678.118 188.55ZM689.473 196.544H689.473H689.472H689.471H689.471H689.47H689.47H689.469H689.469H689.468H689.468H689.467H689.466H689.466H689.465H689.465C685.609 196.618 681.826 196.691 677.969 196.542C677.969 192.808 681.48 189.148 685.289 190.119C688.277 190.641 689.547 193.779 689.547 196.542L689.473 196.544ZM702.992 191.09C705.98 187.43 711.209 185.936 715.691 187.355C715.892 187.432 716.119 187.497 716.353 187.563C717.245 187.817 718.23 188.097 718.23 189.222C718.41 190.895 718.398 192.568 718.386 194.242C718.383 194.66 718.38 195.078 718.38 195.497C716.609 196.018 715.964 194.614 715.33 193.235C715.055 192.636 714.783 192.042 714.421 191.613C713.076 188.923 708.221 188.998 707.773 192.285C706.933 194.74 709.167 196.189 711.042 197.406C711.335 197.596 711.619 197.78 711.881 197.962C715.765 200.203 720.172 203.116 720.695 207.971C721.368 211.93 718.006 215.142 714.495 216.188C711.657 217.308 708.52 216.636 705.681 215.889C705.233 216.113 704.785 216.318 704.337 216.524C703.889 216.729 703.44 216.935 702.992 217.159C702.957 216.92 702.922 216.682 702.885 216.442L702.841 216.148L702.841 216.147C702.426 213.407 702.004 210.614 702.469 207.822C704.115 208.292 704.897 209.666 705.679 211.04C706.388 212.284 707.096 213.528 708.445 214.096C709.864 214.694 711.732 214.993 713.076 214.096C714.645 212.303 714.57 209.241 712.777 207.672C711.578 206.505 710.166 205.617 708.76 204.733C706.837 203.525 704.927 202.325 703.59 200.427C701.722 197.887 700.901 193.928 703.142 191.314L702.992 191.09ZM741.461 188.55C736.382 185.263 728.763 186.981 725.625 192.135H725.7C724.355 194.899 725.252 198.261 727.119 200.576C728.395 202.316 730.211 203.435 732.029 204.556C733.723 205.6 735.419 206.646 736.68 208.195C738.324 210.361 737.353 215.067 733.991 214.544C731.302 214.619 729.584 212.378 728.538 210.212C728.016 209.166 726.746 207.149 725.551 208.569C725.419 211.059 725.748 213.492 726.083 215.968L726.083 215.97C726.13 216.315 726.177 216.662 726.223 217.009C726.797 216.788 727.346 216.541 727.883 216.299L727.884 216.299C728.255 216.131 728.621 215.967 728.987 215.814C733.319 217.233 738.548 217.009 741.909 213.648C744.897 211.034 744.449 206.328 742.133 203.415C740.603 201.3 738.423 199.944 736.228 198.579C734.78 197.679 733.326 196.775 732.049 195.646C730.406 194.376 730.705 191.762 732.049 190.417C733.917 188.923 736.904 189.82 737.876 191.911C738.204 192.327 738.455 192.851 738.706 193.376C739.313 194.643 739.92 195.91 741.61 195.646C741.624 195.238 741.641 194.825 741.659 194.409L741.659 194.406C741.743 192.464 741.83 190.456 741.461 188.55ZM764.916 192.359C767.452 190.945 770.084 189.722 772.707 188.502L772.712 188.5L772.712 188.5C774.105 187.853 775.495 187.206 776.867 186.533C777.16 191.093 777.125 195.652 777.09 200.211C777.062 203.794 777.034 207.376 777.166 210.959C777.289 212.863 779.179 213.403 780.802 213.867L780.803 213.868C781.153 213.968 781.492 214.065 781.797 214.171V215.814H765.214V214.096C765.513 213.992 765.842 213.897 766.181 213.799C767.791 213.334 769.648 212.797 769.771 210.884C769.958 206.705 769.885 202.473 769.812 198.276C769.806 197.95 769.801 197.623 769.795 197.297C769.787 196.796 769.778 196.295 769.771 195.796C769.874 193.938 768.266 193.47 766.695 193.014C765.992 192.81 765.297 192.608 764.766 192.285L764.916 192.359ZM801.592 188.176C796.363 185.487 789.267 186.981 786.055 192.061V191.986C784.411 195.123 785.905 199.007 788.221 201.398C789.432 202.609 790.892 203.513 792.358 204.421C793.787 205.305 795.221 206.194 796.438 207.373C798.23 208.942 798.305 212.005 796.736 213.797C793.973 215.441 790.387 213.573 789.341 210.735C789.307 210.671 789.271 210.601 789.232 210.528L789.23 210.525C788.595 209.316 787.387 207.017 785.98 208.494C785.791 210.888 786.133 213.282 786.469 215.631C786.532 216.067 786.594 216.502 786.652 216.935C787.101 216.748 787.549 216.543 787.997 216.337L787.998 216.337C788.446 216.131 788.894 215.926 789.341 215.74C793.674 217.233 798.977 217.009 802.339 213.573C805.252 211.034 804.804 206.328 802.563 203.489C801.061 201.304 798.837 199.924 796.603 198.536C795.17 197.647 793.733 196.755 792.479 195.646C790.761 194.376 791.06 191.687 792.479 190.343C794.346 188.849 797.334 189.745 798.305 191.911C798.631 192.324 798.881 192.856 799.13 193.387C799.739 194.684 800.344 195.974 802.04 195.497C802.018 194.792 802.048 194.068 802.078 193.337C802.15 191.591 802.224 189.809 801.592 188.176ZM894.215 188.998C898.548 186.384 904.673 185.711 908.856 188.998C911.694 191.388 913.637 195.123 913.338 198.933C909.055 199.032 904.773 198.999 900.49 198.966C898.349 198.949 896.207 198.933 894.066 198.933C893.767 202.219 894.141 205.655 896.158 208.345C897.95 210.884 901.162 212.453 904.299 212.079C906.819 211.88 908.985 210.387 911.059 208.957C911.322 208.776 911.583 208.596 911.844 208.419C911.93 208.488 912.036 208.577 912.153 208.677C912.245 208.755 912.344 208.84 912.445 208.928L912.591 209.054L912.762 209.202C912.854 209.282 912.945 209.36 913.03 209.433C913.146 209.532 913.252 209.62 913.338 209.689C910.499 213.125 906.466 215.59 902.059 216.412C895.859 217.383 889.51 213.125 887.941 207.075C886.298 200.576 888.389 192.658 894.215 188.849V188.998ZM897.724 196.627C897.309 196.625 896.894 196.623 896.477 196.621C895.924 196.619 895.369 196.617 894.813 196.617C894.514 192.733 898.548 188.923 902.432 190.268C905.121 191.015 906.167 194.003 906.316 196.542C903.463 196.654 900.609 196.641 897.724 196.627ZM997.82 188.55C1002.08 186.234 1007.98 185.861 1011.86 189.148C1014.63 191.538 1016.57 195.123 1016.27 198.858C1012.6 199.029 1008.93 199.004 1005.26 198.98C1002.5 198.962 999.751 198.943 996.998 199.007C996.923 201.547 996.849 204.236 998.044 206.627C999.463 209.988 1002.9 212.378 1006.63 212.229C1009.6 212.229 1012.1 210.424 1014.39 208.775L1014.58 208.635L1014.78 208.494C1014.96 208.681 1015.22 208.979 1015.49 209.278C1015.75 209.577 1016.01 209.876 1016.19 210.063C1012.68 213.648 1008.05 216.711 1002.9 216.636C997.222 216.636 991.993 212.303 990.723 206.776C989.304 200.128 991.62 192.061 997.82 188.625V188.55ZM1009.1 196.544H1009.1H1009.1H1009.1H1009.1H1009.1H1009.1H1009.1H1009.1C1005.24 196.618 1001.45 196.691 997.595 196.542V196.468C997.67 192.808 1001.11 189.148 1004.99 190.119C1007.9 190.641 1009.17 193.853 1009.17 196.542L1009.1 196.544ZM1140.04 192.584C1142.26 190.882 1144.85 189.748 1147.43 188.615C1148.92 187.958 1150.42 187.301 1151.84 186.533C1152.14 191.093 1152.1 195.652 1152.07 200.212C1152.04 203.794 1152.01 207.376 1152.14 210.959C1152.26 212.79 1154.01 213.313 1155.59 213.784C1156.01 213.909 1156.41 214.03 1156.77 214.171V215.814H1140.12C1140.12 215.366 1140.12 214.544 1140.19 214.096C1140.49 213.992 1140.82 213.897 1141.16 213.799C1142.77 213.334 1144.62 212.797 1144.75 210.884C1144.91 207.31 1144.88 203.735 1144.85 200.161C1144.83 198.731 1144.82 197.3 1144.82 195.87C1145.04 193.879 1143.22 193.444 1141.56 193.049C1140.97 192.911 1140.41 192.777 1139.97 192.584H1140.04ZM1206.9 186.608C1202.79 188.401 1198.75 190.193 1194.87 192.359H1194.79C1195.3 192.682 1195.99 192.884 1196.7 193.089C1198.28 193.551 1199.93 194.033 1199.72 195.945C1199.72 197.585 1199.74 199.234 1199.76 200.886V200.896C1199.79 204.204 1199.82 207.523 1199.72 210.81C1199.72 212.794 1197.84 213.375 1196.2 213.876C1195.81 213.998 1195.43 214.115 1195.09 214.246V215.814C1196.62 215.814 1198.14 215.831 1199.68 215.847L1199.68 215.847C1203.78 215.892 1207.92 215.937 1212.05 215.665C1211.84 214.35 1210.69 213.897 1209.55 213.446C1208.3 212.949 1207.04 212.454 1207.04 210.81C1206.93 206.776 1206.95 202.742 1206.97 198.709C1206.99 194.675 1207.01 190.641 1206.9 186.608ZM1296.83 192.658C1299.02 190.9 1301.63 189.776 1304.24 188.652C1305.73 188.01 1307.22 187.368 1308.63 186.608C1308.88 191.049 1308.85 195.467 1308.83 199.888C1308.81 203.572 1308.79 207.258 1308.93 210.959C1308.99 212.833 1310.81 213.386 1312.45 213.885C1312.84 214.003 1313.22 214.117 1313.56 214.246V215.889C1309.88 215.939 1306.23 215.922 1302.57 215.906C1300.74 215.897 1298.9 215.889 1297.05 215.889V214.171C1297.36 214.065 1297.7 213.968 1298.05 213.867C1299.67 213.403 1301.56 212.863 1301.69 210.959C1301.85 207.384 1301.81 203.77 1301.78 200.173V200.167V200.159C1301.77 198.726 1301.76 197.295 1301.76 195.87C1301.92 193.932 1300.22 193.507 1298.64 193.113C1298.03 192.961 1297.44 192.813 1296.98 192.584L1296.83 192.658ZM1342.47 189.82C1337.39 185.861 1330 185.936 1324.54 188.998C1320.21 191.314 1317.45 196.767 1319.24 201.622C1320.28 204.759 1323.27 206.552 1326.11 207.971C1325.45 208.27 1324.78 208.544 1324.1 208.819C1322.42 209.505 1320.73 210.191 1319.24 211.258C1317.82 212.303 1317.97 214.47 1319.09 215.665C1320.54 217.604 1322.83 218.259 1325.01 218.88C1325.18 218.929 1325.35 218.977 1325.51 219.026C1324.47 220.109 1323.27 221.024 1322.08 221.939C1320.88 222.854 1319.69 223.769 1318.64 224.852C1316.77 226.72 1317 229.932 1318.79 231.799C1321.63 234.787 1326.11 235.534 1330.07 235.534C1336.64 235.459 1343.74 234.04 1348.52 229.26C1350.84 227.019 1352.48 223.732 1351.58 220.445C1351.06 217.607 1348.45 215.814 1345.76 215.291C1342.54 214.631 1339.27 214.567 1336.02 214.504C1333.75 214.46 1331.49 214.416 1329.25 214.171C1327.83 214.021 1326.48 213.723 1325.36 212.976C1324.4 211.109 1326.25 210.116 1327.79 209.292C1328.16 209.094 1328.51 208.906 1328.8 208.718C1334.03 209.54 1340 208.419 1343.74 204.386C1346.35 201.547 1347.03 197.215 1345.16 193.779C1347.7 193.853 1350.16 193.853 1352.7 193.629L1352.61 193.049L1352.61 193.043L1352.61 193.04C1352.41 191.873 1352.21 190.66 1351.96 189.446C1348.82 189.446 1345.61 189.596 1342.47 189.82ZM1330.37 188.923C1327.16 189.895 1326.04 193.629 1326.04 196.617C1326.04 199.979 1326.78 203.788 1329.55 206.029C1331.94 207.971 1335.82 207.224 1337.32 204.61C1339.41 201.024 1339.26 196.393 1337.76 192.584C1336.64 189.67 1333.36 187.803 1330.37 188.923ZM1328.8 231.5C1326.41 230.305 1324.09 227.915 1324.32 225.077H1324.39C1324.63 223.084 1326.15 221.781 1327.62 220.519C1328.03 220.172 1328.43 219.828 1328.8 219.474C1330.67 219.576 1332.55 219.601 1334.44 219.626C1336.7 219.655 1338.96 219.685 1341.2 219.848C1342.84 219.923 1344.64 220.744 1345.23 222.387C1346.05 224.628 1345.08 227.168 1343.52 228.886C1339.86 232.77 1333.58 234.19 1328.8 231.5ZM1019.11 188.401C1020.26 187.44 1021.69 187.468 1023.11 187.495C1023.34 187.5 1023.58 187.504 1023.81 187.504C1028.22 187.504 1032.63 187.504 1037.04 187.579C1036.76 188.897 1035.66 189.109 1034.54 189.325C1033.81 189.464 1033.08 189.605 1032.55 190.044C1032.05 191.383 1032.55 192.639 1033.05 193.905L1033.05 193.906C1033.22 194.334 1033.39 194.764 1033.52 195.198C1034.22 196.925 1034.84 198.693 1035.47 200.464L1035.47 200.471C1036.52 203.448 1037.57 206.432 1038.98 209.241C1040.26 206.381 1041.34 203.452 1042.42 200.531L1042.42 200.528C1043.28 198.186 1044.14 195.848 1045.1 193.555C1044.19 191.272 1042.14 190.185 1040.09 189.101C1039.9 188.998 1039.7 188.895 1039.51 188.791C1039.41 188.736 1039.3 188.681 1039.2 188.625L1039.5 187.654C1043.52 187.445 1047.51 187.491 1051.51 187.538C1053.23 187.559 1054.95 187.579 1056.68 187.579C1056.6 188.914 1055.51 189.114 1054.4 189.318C1053.39 189.502 1052.37 189.689 1052.05 190.716C1051.99 191.716 1052.31 192.633 1052.63 193.559C1052.74 193.879 1052.85 194.2 1052.95 194.526C1053.55 196.12 1054.14 197.725 1054.73 199.329C1055.65 201.858 1056.57 204.382 1057.58 206.851C1058.85 204.733 1059.67 202.438 1060.5 200.132C1060.99 198.778 1061.48 197.421 1062.06 196.094C1062.17 195.721 1062.32 195.338 1062.48 194.95C1062.95 193.784 1063.44 192.565 1062.88 191.388C1062.44 190.398 1061.43 190.095 1060.46 189.8C1059.3 189.451 1058.18 189.114 1058.1 187.654C1062.73 187.504 1067.29 187.504 1071.92 187.654C1071.62 188.82 1070.63 189.228 1069.64 189.642C1068.65 190.05 1067.66 190.464 1067.29 191.613C1065.27 196.138 1063.5 200.777 1061.74 205.418C1060.3 209.202 1058.86 212.986 1057.28 216.711C1056.08 216.711 1054.89 216.711 1053.69 216.785C1052.25 213.224 1050.93 209.614 1049.61 205.997C1048.6 203.242 1047.59 200.483 1046.52 197.738C1044.13 204.087 1041.67 210.436 1039.2 216.711H1033.9C1032.93 214.096 1031.97 211.472 1031.02 208.849C1029.11 203.604 1027.2 198.36 1025.16 193.181C1024.4 191.151 1022.52 190.202 1020.71 189.285C1020.18 189.021 1019.67 188.759 1019.18 188.475L1019.11 188.401ZM1169.77 187.405C1165.79 187.355 1161.83 187.305 1157.89 187.654L1157.82 187.579C1158.46 188.413 1159.42 188.861 1160.38 189.308C1161.65 189.902 1162.91 190.494 1163.42 191.986C1165.5 197.029 1167.36 202.129 1169.21 207.233C1170.35 210.37 1171.49 213.508 1172.68 216.636H1178.21C1179.88 212.797 1181.36 208.88 1182.83 204.971C1184.6 200.285 1186.37 195.61 1188.45 191.09C1188.79 189.947 1189.79 189.581 1190.78 189.22C1191.73 188.873 1192.67 188.53 1193 187.504H1183.52C1183.29 187.504 1183.07 187.5 1182.84 187.495C1181.47 187.468 1180.05 187.439 1178.96 188.401C1179.51 188.678 1180.15 188.853 1180.78 189.03C1182.03 189.376 1183.3 189.728 1184.04 190.866C1184.44 192.422 1183.87 193.934 1183.31 195.402C1183.14 195.836 1182.98 196.266 1182.84 196.692C1182.3 198.048 1181.79 199.412 1181.28 200.772C1180.19 203.68 1179.11 206.567 1177.69 209.316C1177.24 208.118 1176.79 206.924 1176.34 205.73C1174.46 200.744 1172.59 195.779 1170.97 190.716C1170.85 189.165 1172.06 189.043 1173.3 188.919C1174.44 188.804 1175.6 188.687 1175.75 187.43C1173.75 187.454 1171.76 187.429 1169.77 187.405Z" fill="#FFC5BA"/>
</svg>
