<?xml version="1.0" encoding="UTF-8"?>
<svg width="200px" height="61px" viewBox="0 0 200 61" version="1.1" xmlns="http://www.w3.org/2000/svg" xmlns:xlink="http://www.w3.org/1999/xlink">
    <title>CBS</title>
    <defs>
        <path d="M968.402715,8.27682755 C951.791164,8.27682755 938.537743,21.8436739 938.537743,38.4104499 C938.537743,54.9772259 951.746389,68.7231724 968.402715,68.7231724 C985.059041,68.7231724 998.178136,55.1563261 998.178136,38.4104499 C998.178136,21.8884489 985.148591,8.27682755 968.402715,8.27682755 Z M968.402715,21.0824977 C981.969561,21.0824977 991.909627,29.7240862 996.118483,38.4104499 C991.909627,47.2759138 981.969561,55.9175023 968.402715,55.9175023 C954.835868,55.9175023 944.851028,47.2311387 940.686946,38.4104499 C944.895803,29.6793112 954.746318,21.0824977 968.402715,21.0824977 L968.402715,21.0824977 Z M968.402715,22.4257498 C959.537251,22.4257498 952.328464,29.589761 952.328464,38.4104499 C952.328464,47.2311387 959.537251,54.4847001 968.402715,54.4847001 C977.268179,54.4847001 984.387415,47.3654639 984.387415,38.4104499 C984.387415,29.4554358 977.268179,22.4257498 968.402715,22.4257498 Z M1026.69986,11.8588332 C1011.07336,11.8588332 1000.19301,23.7242268 1000.19301,38.1417994 L1000.19301,38.3208997 C1000.19301,52.9175726 1011.29723,64.4695408 1026.29688,64.4695408 C1041.29653,64.4695408 1041.92338,60.9770853 1047.11729,55.3354264 L1039.99805,48.1714152 C1036.01307,51.7981959 1032.43107,54.1264995 1026.65508,54.1264995 C1017.92394,54.1264995 1011.87931,46.8281631 1011.87931,38.0970244 L1011.87931,37.9626992 C1011.87931,29.2315604 1018.05827,22.1123243 1026.65508,22.1123243 C1035.25189,22.1123243 1035.74442,24.2615276 1039.63985,27.8435333 L1046.75909,19.6049203 C1042.01293,14.948313 1036.28172,11.769283 1026.69986,11.769283 L1026.69986,11.8588332 Z M1051.37092,12.7543346 L1051.37092,63.5740394 L1075.54946,63.5740394 C1087.01188,63.5740394 1094.57886,58.9174321 1094.57886,49.6489925 L1094.57886,49.4698922 C1094.57886,42.6640815 1090.95208,39.2611762 1085.08655,36.9776476 C1088.71333,34.9627694 1091.75803,31.7389644 1091.75803,26.0077554 L1091.75803,25.8734302 C1091.75803,22.3809747 1090.59388,19.5601453 1088.26558,17.1870665 C1085.3552,14.321462 1080.78814,12.7095595 1075.01216,12.7095595 L1051.41569,12.7095595 L1051.37092,12.7543346 Z M1062.25126,22.5152999 L1073.3107,22.5152999 C1078.05686,22.5152999 1080.65382,24.3958529 1080.65382,27.7539831 L1080.65382,27.9330834 C1080.65382,31.6941893 1077.51956,33.3060918 1072.54953,33.3060918 L1062.25126,33.3060918 C1062.25126,33.3060918 1062.25126,22.560075 1062.25126,22.560075 L1062.25126,22.560075 L1062.25126,22.5152999 Z M1062.25126,42.5745314 L1075.23603,42.5745314 C1080.92247,42.5745314 1083.51942,44.6789597 1083.51942,48.1266401 L1083.51942,48.3057404 C1083.51942,52.0668463 1080.51949,53.768299 1075.59423,53.768299 L1062.29604,53.768299 C1062.29604,53.768299 1062.29604,42.5745314 1062.29604,42.5745314 L1062.29604,42.5745314 L1062.25126,42.5745314 Z M1116.51865,11.9931584 C1106.17561,11.9931584 1098.74294,18.0825679 1098.74294,27.3510075 L1098.74294,27.4853327 C1098.74294,37.5597235 1105.36965,40.425328 1115.57837,43.0222821 C1124.08563,45.2162605 1125.83186,46.6490628 1125.83186,49.4698922 L1125.83186,49.6489925 C1125.83186,52.6041471 1123.05581,54.439925 1118.48875,54.439925 C1113.92169,54.439925 1107.87706,52.0668463 1103.31,48.3057404 L1096.68329,56.2309278 C1102.7727,61.6934864 1110.56356,64.3352156 1118.26487,64.3352156 L1118.26487,64.3352156 C1129.23477,64.3352156 1136.93608,58.6487816 1136.93608,48.5743908 L1136.93608,48.4400656 C1136.93608,39.5298266 1131.11532,35.8582709 1120.77228,33.1717666 C1111.99637,30.9330131 1109.80239,29.8136364 1109.80239,26.5002812 L1109.80239,26.365956 C1109.80239,23.9033271 1112.04114,21.8884489 1116.33955,21.8884489 C1120.63795,21.8884489 1125.07069,23.7690019 1129.54819,26.9032568 L1135.32418,18.4407685 C1130.17504,14.321462 1123.86176,11.9931584 1116.4291,11.9931584 L1116.51865,11.9931584 Z" id="path-1"></path>
    </defs>
    <g id="Page-1" stroke="none" stroke-width="1" fill="none" fill-rule="evenodd">
        <g id="Press-Social-Copy" transform="translate(-937.7439, -8)" fill="#FFB5A7" fill-rule="nonzero">
            <g id="CBS">
                <use xlink:href="#path-1"></use>
                <use xlink:href="#path-1"></use>
            </g>
        </g>
    </g>
</svg>