<?xml version="1.0" encoding="UTF-8"?>
<svg width="190px" height="51px" viewBox="0 0 190 51" version="1.1" xmlns="http://www.w3.org/2000/svg" xmlns:xlink="http://www.w3.org/1999/xlink">
    <title>Forbes</title>
    <defs>
        <path d="M95.588415,28.145765 C95.588415,28.5693473 92.3409504,37.3233824 92.1056268,37.3704471 C92.0114974,37.3704471 91.3996563,37.1821883 90.6936857,36.8056706 C89.2346799,36.1467648 87.8698034,35.7702471 86.504927,35.7702471 C85.1400506,35.7702471 82.9750742,36.3820883 82.2691036,37.1821883 C82.0808448,37.4332 81.9396507,39.237347 81.8455212,42.5946293 C81.7513918,47.5364233 81.9867154,53.6077702 82.2220389,56.0551348 C82.5044271,58.1730465 83.0221389,59.20847 84.1987565,59.6320524 C84.6223388,59.8203112 87.0226387,60.1497641 87.775674,60.1497641 C88.5287093,60.1497641 87.775674,60.6204111 87.775674,61.2322523 L87.775674,62.3147405 C87.775674,62.3147405 77.6567625,62.3147405 77.6567625,62.3147405 C72.1031274,62.3147405 67.5378511,62.2206111 67.3966569,62.1735464 C67.2554628,62.079417 67.2083981,61.7499641 67.2554628,61.0910582 L67.2554628,60.1497641 C67.2554628,60.1497641 67.7261099,60.00857 67.7261099,60.00857 C67.9614334,60.00857 68.5262098,59.8673759 68.9497922,59.7732465 C70.2676039,59.4908582 71.0206392,58.7848877 71.4442215,57.4200112 C71.8207392,56.337523 71.9619333,52.6194114 71.9619333,45.2773175 C71.9619333,37.9352235 71.8207392,34.1700472 70.8794451,32.9934296 C70.408798,32.3345237 70.0322804,32.1462649 68.8556628,31.9109414 C68.2438216,31.816812 67.6319805,31.7226825 67.4437216,31.6756178 C67.1613334,31.6756178 67.1142687,31.5344237 67.1142687,30.8755179 C67.1142687,30.216612 67.2083981,30.1224826 67.4437216,30.0283532 C67.867304,29.8871591 81.3748742,27.1574062 81.7984565,27.1574062 L82.1749742,27.1574062 L82.1749742,29.1811885 C82.0808448,30.3107414 82.0337801,31.9109414 81.9867154,32.758106 L81.9867154,34.358306 C81.9867154,34.358306 82.4573624,33.5111413 82.4573624,33.5111413 C84.0104977,30.687259 85.704827,28.945865 88.1051269,27.8633768 C89.4229387,27.2515356 90.2701034,27.0632768 91.8703033,27.0632768 C93.4705033,27.0632768 95.588415,27.6751179 95.5413503,28.145765 L95.588415,28.145765 Z M66.9730746,49.7013997 C65.5611335,56.2433936 61.5135689,60.8557347 55.4892867,62.5971287 C54.8774455,62.7383229 53.842022,62.9265817 53.2772456,63.0677758 C52.0535633,63.2089699 48.3354516,63.2089699 47.158834,63.0677758 C43.81724,62.5971287 40.946293,61.2322523 38.7342519,59.0202112 C36.8987284,57.2317524 35.7221108,55.2079701 34.8278814,52.4311526 C33.4159402,48.1953291 33.4159402,42.641694 34.8278814,38.4529353 C36.1927578,34.358306 39.1578342,30.8284532 42.8288812,28.9929297 C47.9118692,26.4514356 55.0657043,26.5926297 59.7721748,29.3694473 C64.0079982,31.8638767 66.5494923,36.2879589 67.3025275,42.3122411 C67.4907863,44.1477645 67.3025275,48.054135 66.9730746,49.7013997 L66.9730746,49.7013997 Z M56.8070984,45.7008998 C56.8070984,38.3588059 55.6775455,33.6052707 53.2301809,31.1579061 C52.1947574,30.1224826 51.5358515,29.7930297 50.1709751,29.7930297 C47.2529634,29.7930297 45.4174399,32.8051707 44.7114693,38.8294529 C44.3820164,41.5592058 44.3349517,48.1011997 44.7114693,50.5014997 C45.7468928,57.937723 48.3825163,61.5146405 52.1476927,60.3850876 C53.1360515,60.1026994 54.3126691,58.9731465 54.9715749,57.7494642 C56.242322,55.2550348 56.8541631,51.5369232 56.8541631,45.6538351 L56.8070984,45.7008998 Z M18.1199113,19.0152123 L18.1199113,18.2151123 L22.4027994,18.2151123 C27.2975286,18.2151123 28.1446933,18.3563064 29.8860874,19.2034711 C32.3805167,20.4271534 34.2631049,22.8745181 35.9103696,27.2044709 C36.3496402,28.3654003 37.0399225,28.7889826 37.9812166,28.4752179 L38.9695754,28.145765 L38.8283813,21.8390946 C38.8283813,18.3563064 38.6871872,15.2500359 38.6871872,15.0147124 L38.545993,14.449936 L19.7671759,14.449936 C9.41294091,14.449936 0.753035273,14.449936 0.470647046,14.449936 L0,14.5911301 L0,15.720683 C0,15.720683 0.0941294091,16.8502359 0.0941294091,16.8502359 L1.50607055,16.99143 C3.34159402,17.1796888 4.47114693,17.79153 5.1300528,18.6857594 C6.58905864,20.8507358 6.87144687,23.8158122 6.87144687,37.7940294 C6.87144687,51.7722467 6.54199393,56.337523 5.1300528,58.1730465 C4.37701752,59.1614053 3.76517637,59.4437935 2.11791171,59.7732465 C-0.0941294091,60.1968288 0.0470647046,60.1497641 0.0470647046,61.2322523 C0.0470647046,62.3147405 0.0470647046,62.2206111 0.188258818,62.2676758 C0.423582341,62.4088699 24.4736464,62.4088699 24.7560346,62.2676758 C25.0854875,62.1264817 25.0854875,60.3850876 24.7560346,60.2438935 C24.6148405,60.2438935 23.8147405,60.0556347 22.9675758,59.8673759 C22.1204111,59.7261818 21.1791171,59.4908582 20.8967288,59.3967288 C19.2965289,58.737823 18.4493642,56.8081701 18.1199113,53.3724466 C17.8845877,50.925082 17.6963289,46.3598057 17.6963289,43.0182116 L17.6963289,39.9590058 L19.1553348,39.9590058 C22.30867,40.1002 23.8618052,40.2413941 24.5677758,40.570847 C25.9797169,41.1826882 27.1563345,42.9240822 27.721111,45.3714469 L28.0505639,46.6421939 L29.1801168,46.6421939 C29.1801168,46.6421939 30.3096697,46.7363233 30.3096697,46.7363233 L30.3096697,30.3578061 L29.1801168,30.3578061 C29.1801168,30.3578061 28.0505639,30.4519355 28.0505639,30.4519355 L27.721111,31.7226825 C27.1092698,34.2171119 26.0738463,35.7702471 24.5207111,36.5232824 C23.9088699,36.8527353 23.4382229,36.8998 22.0262817,36.9939295 C21.0379229,36.9939295 19.6730465,37.1351236 19.0141406,37.1351236 L17.7433936,37.1351236 L17.7433936,33.087559 C17.7433936,29.0399944 17.9316524,20.3800887 18.1199113,19.0152123 L18.1199113,19.0152123 Z M188.823595,47.1128409 C187.694042,44.8066704 185.57613,43.2535352 181.152048,41.4180117 C177.57513,39.9590058 175.692542,38.8294529 174.657119,37.6528353 C173.715825,36.6644765 173.480501,35.8643765 173.57463,34.4053707 C173.715825,33.0404943 173.998213,32.2403943 174.845377,31.3461649 C175.927866,30.1695473 177.481001,29.745965 179.26946,30.1695473 C182.187471,30.7813885 184.07006,32.8051707 185.717324,37.1821883 C186.282101,38.7353235 186.37623,38.7823882 187.411654,38.3588059 L188.070559,38.1234824 L188.070559,36.3350236 C188.070559,35.3466648 188.070559,33.3228825 187.929365,31.7697472 L187.788171,28.9929297 L187.270459,28.8046709 C184.587771,27.6751179 179.410654,26.9691474 176.116124,27.2515356 C172.303883,27.6280532 169.480001,28.8046709 167.362089,31.0637767 C165.197113,33.2758178 164.208754,35.8643765 164.444078,38.970647 C164.585272,41.5592058 165.291242,43.3476646 166.891442,44.9949292 C168.303384,46.4539351 169.527066,47.2069703 173.103983,48.5718468 C178.751748,50.7838879 180.304883,52.1487643 180.210754,54.8314525 C180.210754,57.137623 178.987071,58.8319524 176.77503,59.6320524 C175.97493,59.8673759 173.951148,59.8673759 172.86866,59.6320524 C170.044778,58.8790171 167.879801,56.4316524 166.044278,51.9605055 L165.573631,50.7838879 L165.008854,50.7838879 C164.679401,50.7838879 164.255819,50.925082 164.06756,51.0192114 L163.691042,51.2074702 L163.691042,53.2312525 C163.691042,54.3137407 163.785172,56.6199113 163.832237,58.3142406 L163.973431,61.4675758 L164.585272,61.7028994 C165.856019,62.2676758 169.762389,63.1148405 172.209754,63.350164 C172.539207,63.350164 174.186472,63.350164 175.880801,63.350164 C178.845877,63.350164 179.128266,63.350164 180.587271,62.879517 C185.058418,61.7028994 187.882301,59.2555347 189.200112,55.4903583 C189.623695,54.3137407 189.670759,54.0313525 189.717824,52.2428937 C189.717824,49.8896585 189.482501,48.6659762 188.729465,47.2069703 L188.823595,47.1128409 Z M161.76139,40.9002999 C161.902584,41.7474646 161.902584,42.7358234 161.902584,43.112341 L161.902584,43.7712469 C161.902584,43.7712469 151.783672,43.7712469 151.783672,43.7712469 L141.664761,43.7712469 C141.664761,43.7712469 141.664761,44.9949292 141.664761,44.9949292 C141.805955,47.7246821 142.417796,50.2191114 143.45322,52.2899584 C143.923867,53.2783172 144.300384,53.7489643 145.288743,54.7373231 C147.500784,56.9493642 149.665761,57.7965289 153.101484,57.7965289 C156.537207,57.7965289 157.384372,57.3258818 159.219896,56.1021995 C159.737607,55.7256819 160.302384,55.4903583 160.396513,55.4903583 C160.678901,55.4903583 161.337807,56.337523 161.337807,56.7140407 C161.337807,57.3258818 159.36109,59.3025994 157.478501,60.5733464 C155.878302,61.6558346 153.430937,62.5971287 151.26596,62.9736464 C149.75989,63.2089699 146.371231,63.2089699 144.912225,62.9736464 C138.181973,61.7499641 133.334308,56.9493642 131.734108,49.8896585 C131.545849,48.9954291 131.404655,47.9600056 131.35759,45.983288 C131.263461,42.8299528 131.498785,40.9473646 132.345949,38.5470647 C133.85202,33.9347237 136.628837,30.6401943 140.629337,28.7105415 C144.818096,26.6396944 150.607055,26.4985003 154.372231,28.3810885 C158.56099,30.4990002 161.055419,34.7348236 161.66726,40.8061705 L161.76139,40.9002999 Z M151.595413,40.6649764 L151.454219,38.970647 C151.171831,33.0404943 149.75989,29.7930297 147.35959,29.7930297 C144.95929,29.7930297 142.747249,33.0404943 141.900084,38.5470647 C141.805955,39.2059706 141.711825,40.0060705 141.711825,40.3355235 L141.711825,40.9002999 L144.300384,40.9002999 C145.712325,40.8061705 147.924366,40.7591058 149.242178,40.7591058 L151.595413,40.6179117 L151.595413,40.6649764 Z M128.298385,39.4412941 C128.674902,41.0885588 128.769032,45.1361233 128.533708,47.1128409 C128.345449,48.8071703 127.733608,51.1604055 127.121767,52.6194114 C124.862661,58.3142406 120.062061,61.9852876 113.614197,62.9736464 C112.155191,63.1619052 107.54285,63.2089699 105.519068,62.9736464 C104.201256,62.8324523 100.059562,62.1264817 98.6005561,61.7970288 L97.6121973,61.6087699 L97.7533914,56.2904583 C97.9887149,43.4888587 97.9887149,36.4762177 97.8945855,29.6518355 C97.8004561,22.9686475 97.7533914,22.3097416 97.4710032,21.3213828 C97.0944855,20.0977005 96.6709032,19.2505358 96.059062,18.8269535 C95.8708032,18.6857594 95.258962,18.4033711 94.6941856,18.3092417 C92.9998562,17.9797888 93.0939856,18.0268535 93.0469209,17.2267535 C93.0469209,16.8031712 93.0469209,16.520783 93.188115,16.4266536 C93.3293092,16.2854594 107.260462,13.649836 107.684044,13.649836 C108.107626,13.649836 107.825238,15.3912301 107.825238,21.5567064 C107.825238,25.8866592 107.731109,29.4635767 107.825238,29.4635767 C107.919368,29.4635767 108.390015,29.1811885 108.954791,28.945865 C110.696185,28.145765 112.296385,27.8633768 114.696685,27.7221827 C116.202756,27.7221827 116.955791,27.7221827 117.755891,27.8633768 C122.980073,28.945865 126.933508,33.2287531 128.157191,39.4883588 L128.298385,39.4412941 Z M117.94415,40.6649764 C117.191114,36.2879589 115.590914,33.4170119 113.237679,32.2403943 C110.884444,31.0637767 112.155191,31.7226825 110.978573,31.7226825 C109.801956,31.7226825 109.425438,31.816812 108.813597,31.9580061 L107.872303,32.1933296 L107.872303,37.1821883 C107.778173,43.5359234 108.013497,59.5379229 108.154691,60.00857 C108.295885,60.2909582 108.390015,60.3850876 108.907726,60.5262817 C110.225538,60.6674759 110.413797,60.6674759 111.166832,60.5262817 C112.155191,60.3380229 112.908226,59.9144406 113.755391,59.1614053 C115.826238,57.3258818 117.379373,53.4665761 117.991214,48.7130409 C118.273603,46.7363233 118.179473,42.3593058 117.991214,40.7120411 L117.94415,40.6649764 Z" id="path-1"></path>
    </defs>
    <g id="Page-1" stroke="none" stroke-width="1" fill="none" fill-rule="evenodd">
        <g id="Press-Social-Copy" transform="translate(0.2561, -13)" fill="#FFB5A7" fill-rule="nonzero">
            <g id="Forbes">
                <use xlink:href="#path-1"></use>
                <use xlink:href="#path-1"></use>
            </g>
        </g>
    </g>
</svg>