<?xml version="1.0" encoding="UTF-8"?>
<svg width="127px" height="63px" viewBox="0 0 127 63" version="1.1" xmlns="http://www.w3.org/2000/svg" xmlns:xlink="http://www.w3.org/1999/xlink">
    <title>FOX Business</title>
    <defs>
        <path d="M1855.45961,50.9150928 L1857.08678,53.4932057 L1748.74264,53.4932057 L1748.74264,50.9150928 L1855.45961,50.9150928 Z M1853.00829,13.4479277 L1867.52602,53.4720736 L1860.5947,53.4720736 L1844.04829,26.9935864 L1853.00829,13.4479277 Z M1868.89961,7.86906048 L1874.94338,53.4720736 L1869.47017,53.4720736 L1856.05131,7.86906048 L1868.89961,7.86906048 Z M1797.93811,7.74226804 C1810.27924,7.74226804 1820.27471,16.8924556 1820.29584,28.1981145 C1820.29584,39.5037735 1810.27924,48.653961 1797.93811,48.653961 C1785.59697,48.653961 1775.6015,39.5037735 1775.6015,28.1981145 C1775.6015,16.8924556 1785.59697,7.74226804 1797.93811,7.74226804 Z M1775.79169,8.08038121 L1775.96075,19.0267949 L1760.89358,19.0267949 L1760.89358,24.4154735 L1773.78415,24.4154735 L1773.78415,35.7845286 L1760.74566,35.7845286 L1760.74566,48.4215082 L1748.7849,48.4215082 L1748.7849,8.08038121 L1775.79169,8.08038121 Z M1828.60074,7.86906048 L1833.86263,16.4698141 L1838.46942,7.86906048 L1853.07168,7.86906048 L1840.54036,27.2683033 L1854.08602,48.4215082 L1839.50489,48.4215082 L1833.54565,39.4826414 L1827.6498,48.4215082 L1813.36452,48.4215082 L1826.55093,27.1203788 L1814.23093,7.86906048 L1828.60074,7.86906048 Z M1798.08603,16.152833 C1794.46634,16.152833 1794.28493,18.5561184 1794.28128,18.9833692 L1794.28163,19.0312792 L1794.28205,19.0437015 L1794.28231,37.7535518 C1794.28453,37.8499774 1794.37312,39.7784904 1797.91697,39.7784904 C1801.48578,39.7784904 1801.79226,38.2681582 1801.80484,36.3680164 L1801.8056,19.0437015 C1801.8062,19.0353141 1801.80749,19.0146314 1801.80814,18.9833692 L1801.80818,18.9072469 C1801.79776,18.3273703 1801.52915,16.152833 1798.08603,16.152833 Z M1783.92754,65.0735815 C1783.92754,66.2147135 1783.5683,67.1867888 1782.84981,68.0109397 C1782.13131,68.8350905 1781.22264,69.2365999 1780.10264,69.2365999 L1771.1849,69.2365999 C1770.04377,69.2365999 1769.13509,68.8350905 1768.4166,68.0109397 C1767.69811,67.1656568 1767.36,66.1935814 1767.36,65.0735815 L1767.36,55.7332054 L1770.50867,55.7332054 L1770.50867,65.0735815 C1770.50867,65.7498079 1770.72,66.087921 1771.1849,66.087921 L1780.0815,66.087921 C1780.52528,66.087921 1780.7366,65.7498079 1780.7366,65.0735815 L1780.7366,55.7332054 L1783.90641,55.7332054 L1783.90641,65.0735815 M1802.05886,65.0947136 C1802.05886,66.2147135 1801.72075,67.1867888 1801.04452,67.9898076 C1800.3049,68.8350905 1799.37509,69.2365999 1798.25509,69.2365999 L1786.61131,69.2365999 L1786.61131,66.087921 L1798.25509,66.087921 C1798.69886,66.087921 1798.91018,65.7498079 1798.91018,65.0947136 C1798.91018,64.4184873 1798.69886,64.0803741 1798.25509,64.0803741 L1789.78113,64.0803741 C1788.66113,64.0803741 1787.73131,63.6577327 1787.01282,62.8335818 C1786.31547,62.0305631 1785.95622,61.0796198 1785.95622,59.9384879 C1785.95622,58.7973559 1786.31547,57.8252806 1787.03396,57.0011297 C1787.75245,56.1769789 1788.66113,55.7543374 1789.78113,55.7543374 L1801.4249,55.7543374 L1801.4249,58.9241484 L1789.78113,58.9241484 C1789.33735,58.9241484 1789.12603,59.2622615 1789.12603,59.9384879 C1789.12603,60.6147142 1789.33735,60.9528273 1789.78113,60.9528273 L1798.25509,60.9528273 C1799.37509,60.9528273 1800.3049,61.3754688 1801.04452,62.1996196 C1801.69961,62.9815063 1802.05886,63.9535817 1802.05886,65.0947136 M1803.70716,55.7332054 L1806.85584,55.7332054 L1806.85584,69.257732 L1803.70716,69.257732 Z M1823.25433,69.257732 L1820.10565,69.257732 L1812.01207,60.1498086 L1812.01207,69.257732 L1808.86339,69.257732 L1808.86339,55.7332054 L1812.01207,55.7332054 L1820.10565,64.7777325 L1820.10565,55.7332054 L1823.25433,55.7332054 L1823.25433,69.257732 M1839.67395,58.9030163 L1828.43169,58.9030163 L1828.43169,60.9316953 L1838.93433,60.9316953 L1838.93433,64.0803741 L1828.43169,64.0803741 L1828.43169,66.087921 L1839.63168,66.087921 L1839.63168,69.257732 L1825.26188,69.257732 L1825.26188,55.7332054 L1839.67395,55.7332054 L1839.67395,58.9030163 M1857.763,65.0947136 C1857.763,66.2147135 1857.42489,67.1867888 1856.74866,67.9898076 C1856.00904,68.8350905 1855.10036,69.2365999 1853.95923,69.2365999 L1842.33659,69.2365999 L1842.33659,66.087921 L1853.95923,66.087921 C1854.403,66.087921 1854.61432,65.7498079 1854.61432,65.0947136 C1854.61432,64.4184873 1854.403,64.0803741 1853.95923,64.0803741 L1845.5064,64.0803741 C1844.3864,64.0803741 1843.45659,63.6577327 1842.71697,62.8335818 C1842.01961,62.0305631 1841.66036,61.0796198 1841.66036,59.9384879 C1841.66036,58.7973559 1842.01961,57.8252806 1842.7381,57.0011297 C1843.45659,56.1769789 1844.36527,55.7543374 1845.48527,55.7543374 L1857.10791,55.7543374 L1857.10791,58.9241484 L1845.48527,58.9241484 C1845.0415,58.9241484 1844.83017,59.2622615 1844.83017,59.9384879 C1844.83017,60.6147142 1845.0415,60.9528273 1845.48527,60.9528273 L1853.95923,60.9528273 C1855.07923,60.9528273 1856.00904,61.3754688 1856.74866,62.1996196 C1857.42489,62.9815063 1857.763,63.9535817 1857.763,65.0947136 M1875.53508,65.0947136 C1875.53508,66.2147135 1875.19696,67.1867888 1874.52074,67.9898076 C1873.78111,68.8350905 1872.8513,69.2365999 1871.75244,69.2365999 L1860.08753,69.2365999 L1860.08753,66.087921 L1871.7313,66.087921 C1872.17508,66.087921 1872.3864,65.7498079 1872.3864,65.0947136 C1872.3864,64.4184873 1872.17508,64.0803741 1871.7313,64.0803741 L1863.25734,64.0803741 C1862.13734,64.0803741 1861.22866,63.6577327 1860.46791,62.8335818 C1859.77055,62.0305631 1859.43244,61.0796198 1859.43244,59.9384879 C1859.43244,58.7973559 1859.79168,57.8252806 1860.51017,57.0011297 C1861.22866,56.1769789 1862.13734,55.7543374 1863.25734,55.7543374 L1874.90111,55.7543374 L1874.90111,58.9241484 L1863.25734,58.9241484 C1862.81357,58.9241484 1862.60225,59.2622615 1862.60225,59.9384879 C1862.60225,60.6147142 1862.81357,60.9528273 1863.25734,60.9528273 L1871.7313,60.9528273 C1872.83017,60.9528273 1873.75998,61.3754688 1874.4996,62.1996196 C1875.19696,62.9815063 1875.53508,63.9535817 1875.53508,65.0947136 M1764.04226,62.4109404 C1765.14113,63.0871667 1765.69056,64.1437703 1765.69056,65.5384871 C1765.69056,66.5528266 1765.37358,67.3981096 1764.71849,68.095468 C1764.02113,68.8773546 1763.09132,69.257732 1761.88679,69.257732 L1748.80604,69.257732 L1748.80604,55.7332054 L1761.65434,55.7332054 C1762.83773,55.7332054 1763.78868,56.1347148 1764.48603,56.8954694 C1765.12,57.5928278 1765.43698,58.4592428 1765.43698,59.4735823 C1765.43698,60.7203745 1764.97207,61.713582 1764.04226,62.4109404 M1761.65434,60.9528273 C1762.09811,60.9528273 1762.33056,60.6147142 1762.33056,59.9173558 C1762.33056,59.2411295 1762.11924,58.9030163 1761.65434,58.9030163 L1751.97585,58.9030163 L1751.97585,60.9528273 L1761.65434,60.9528273 Z M1761.88679,66.087921 C1762.35169,66.087921 1762.58415,65.7498079 1762.58415,65.0947136 C1762.58415,64.4184873 1762.35169,64.0803741 1761.88679,64.0803741 L1751.95471,64.0803741 L1751.95471,66.1090531 L1761.88679,66.1090531 L1761.88679,66.087921 Z" id="path-1"></path>
    </defs>
    <g id="Page-1" stroke="none" stroke-width="1" fill="none" fill-rule="evenodd">
        <g id="Press-Social-Copy" transform="translate(-1748.7439, -7)" fill="#FFB5A7" fill-rule="nonzero">
            <g id="FOX-Business">
                <use xlink:href="#path-1"></use>
                <use xlink:href="#path-1"></use>
            </g>
        </g>
    </g>
</svg>