<?xml version="1.0" encoding="UTF-8"?>
<svg width="134px" height="55px" viewBox="0 0 134 55" version="1.1" xmlns="http://www.w3.org/2000/svg" xmlns:xlink="http://www.w3.org/1999/xlink">
    <title>FOX</title>
    <defs>
        <path d="M1474.62966,38.5223875 L1459.58524,11.7916706 L1477.94301,11.7916706 L1484.6145,25.1794166 L1491.28599,11.7916706 L1509.64376,11.7916706 L1492.94266,38.5223875 L1509.64376,65.2531045 L1492.94266,65.2531045 L1484.56972,51.8653585 L1477.89824,65.2531045 L1459.54046,65.2531045 L1474.58488,38.5223875 L1474.62966,38.5223875 Z M1409.97446,38.8805881 C1409.97446,23.7018393 1422.86968,11.7916706 1438.76483,11.7916706 C1454.65998,11.7916706 1467.5552,23.7018393 1467.5552,38.8805881 C1467.5552,54.0593369 1454.65998,64.8949039 1438.76483,64.8949039 C1422.86968,64.8949039 1409.97446,52.9847352 1409.97446,38.8805881 L1409.97446,38.8805881 Z M1434.5112,49.3579545 C1434.5112,51.6862582 1436.39175,53.5220361 1438.67528,53.5220361 C1440.95881,53.5220361 1442.70503,51.7758083 1442.83936,49.626605 L1442.83936,49.3579545 C1442.83936,49.3579545 1442.83936,27.6420455 1442.83936,27.6420455 C1442.83936,25.3585169 1440.95881,23.4779639 1438.67528,23.4779639 C1436.39175,23.4779639 1434.64552,25.2241917 1434.5112,27.373395 L1434.5112,27.6420455 C1434.5112,27.6420455 1434.5112,49.3579545 1434.5112,49.3579545 Z M1391.07938,46.8505506 L1407.78048,46.8505506 L1407.78048,31.806127 L1391.07938,31.806127 L1391.07938,26.7913191 L1411.13861,26.7913191 L1410.28788,11.7468955 L1376.03495,11.7468955 L1376.03495,63.5516518 L1391.07938,63.5516518 L1391.07938,46.8505506 L1391.07938,46.8505506 Z" id="path-1"></path>
    </defs>
    <g id="Page-1" stroke="none" stroke-width="1" fill="none" fill-rule="evenodd">
        <g id="Press-Social-Copy" transform="translate(-1375.7439, -11)" fill="#FFB5A7" fill-rule="nonzero">
            <g id="FOX">
                <use xlink:href="#path-1"></use>
                <use xlink:href="#path-1"></use>
            </g>
        </g>
    </g>
</svg>