<svg width="1214" height="249" viewBox="0 0 1214 249" fill="none" xmlns="http://www.w3.org/2000/svg">
<path d="M16.7998 0.619629C77.7172 0.619629 138.625 0.619629 199.542 0.619629C199.542 28.8439 199.542 57.0681 199.542 85.3018C193.041 85.3018 186.531 85.2924 180.03 85.3018C180.03 63.5785 180.03 41.8647 180.03 20.1508C132.134 20.1508 84.2275 20.1508 36.331 20.1508C36.331 52.4864 36.331 84.8314 36.331 117.167C29.8206 117.167 23.3102 117.167 16.7998 117.167C16.7998 78.321 16.7998 39.475 16.7998 0.619629Z" fill="#FFC5BA"/>
<path d="M169.841 97.8994C182.09 96.8645 194.499 97.1186 206.626 99.2636C211.537 100.148 217.248 101.061 220.174 105.623C224.615 111.447 222.319 120.827 215.686 123.932C210.832 126.763 205.328 124.233 200.257 123.565C178.807 120.535 156.829 123.565 136.301 130.122C125.924 133.293 116.186 138.128 106.139 142.136C78.2436 153.097 47.5356 158.224 17.7308 153.605C12.6222 152.645 6.61047 152.09 3.2706 147.555C-0.69961 142.729 -0.106901 135.033 4.51247 130.837C7.26904 128.297 11.1922 126.905 14.9366 127.62C34.8065 132.164 55.636 130.536 75.3271 125.841C86.1652 123.17 96.7211 119.397 106.882 114.768C126.761 105.774 148.08 99.7999 169.841 97.8994Z" fill="#FFC5BA"/>
<path d="M180.011 134.685C186.512 134.685 193.023 134.685 199.524 134.685C199.524 172.75 199.542 210.815 199.533 248.88C138.625 248.88 77.7077 248.88 16.7998 248.88C16.7998 221.795 16.7998 194.709 16.7998 167.613C23.3008 167.613 29.8018 167.613 36.3122 167.613C36.3122 188.198 36.3122 208.774 36.3122 229.359C84.2087 229.359 132.115 229.359 180.011 229.359C180.011 197.804 180.011 166.249 180.011 134.685Z" fill="#FFC5BA"/>
<path d="M279.55 73.4385C286.665 73.4385 293.772 73.4385 300.887 73.4385C300.86 85.2886 300.933 97.1478 300.842 108.998C308.691 101.366 320.432 99.0037 330.988 100.85C338.556 101.991 345.654 106.373 349.827 112.836C353.756 118.956 354.761 126.425 354.761 133.558C354.761 147.355 354.761 161.151 354.761 174.939C347.645 174.948 340.539 174.939 333.432 174.948C333.432 163.288 333.414 151.628 333.441 139.977C333.478 134.219 333.541 127.728 329.521 123.12C324.76 117.77 316.431 117.843 310.257 120.414C304.246 123.229 301.096 129.865 300.969 136.274C300.761 149.165 300.942 162.057 300.878 174.948C293.772 174.939 286.665 174.948 279.55 174.939C279.55 141.108 279.55 107.269 279.55 73.4385Z" fill="#FFC5BA"/>
<path fill-rule="evenodd" clip-rule="evenodd" d="M649.142 73.4385H627.804C627.811 78.0606 627.809 82.6841 627.806 87.3085C627.802 94.5762 627.798 101.846 627.831 109.116C624.292 105.422 619.847 102.552 614.841 101.357C601.678 98.1799 586.46 102.027 577.615 112.619C569.929 121.609 567.829 134.21 569.613 145.653C570.916 154.579 575.606 163.043 582.784 168.575C591.113 175.129 602.384 177.13 612.695 175.419C618.905 174.486 624.609 171.227 628.764 166.547C628.737 169.344 628.737 172.142 628.737 174.948C635.535 174.939 642.343 174.939 649.142 174.948V73.4385ZM591.068 132.943C592.181 126.37 597.124 120.568 603.561 118.694C609.499 116.937 616.434 117.843 621.259 121.916C625.396 125.184 627.723 130.326 628.076 135.532C628.719 142.131 627.098 149.555 621.775 153.954C614.605 160.418 602.348 159.866 595.775 152.796C590.787 147.608 589.846 139.769 591.068 132.943Z" fill="#FFC5BA"/>
<path d="M763.704 85.0898C770.81 85.0898 777.926 85.0898 785.032 85.0898C785.032 91.0919 785.032 97.0848 785.032 103.087C791.143 103.087 797.254 103.087 803.364 103.087C803.355 108.519 803.355 113.95 803.364 119.382C797.254 119.382 791.143 119.382 785.032 119.382C785.05 129.25 785.014 139.126 785.041 149.003C784.951 152.352 785.974 156.173 789.16 157.847C793.524 160.165 798.829 158.97 802.903 156.553C804.722 161.586 806.696 166.556 808.57 171.572C801.88 175.682 793.687 176.533 786.028 175.709C779.573 175.03 773.037 172.323 768.927 167.145C765.062 162.338 763.758 156.019 763.722 149.981C763.677 139.778 763.722 129.585 763.704 119.382C759.92 119.382 756.136 119.382 752.352 119.382C752.352 113.95 752.352 108.519 752.352 103.087C756.136 103.087 759.92 103.087 763.704 103.087C763.704 97.0848 763.704 91.0919 763.704 85.0898Z" fill="#FFC5BA"/>
<path fill-rule="evenodd" clip-rule="evenodd" d="M445.073 110.7C429.511 95.7717 401.438 96.9576 387.352 113.379C374.913 127.62 375.384 151.664 389.28 164.772C400.035 175.029 416.104 177.754 430.344 175.12C438.129 173.825 445.426 169.969 450.767 164.139C448.595 161.768 446.408 159.415 444.221 157.063C442.626 155.347 441.031 153.631 439.442 151.908C431.928 159.196 420.087 160.889 410.545 156.978C405.077 154.796 401.248 149.781 399.745 144.195C410.733 144.158 421.721 144.162 432.709 144.165C440.315 144.168 447.922 144.17 455.529 144.159C457.022 132.227 453.899 119.246 445.073 110.7ZM399.464 131.666C400.524 126.895 402.796 122.07 407.114 119.463C414.411 114.765 425.165 115.453 431.168 121.98C433.775 124.605 435.024 128.181 435.929 131.693C433.613 131.697 431.297 131.702 428.981 131.706C419.142 131.727 409.306 131.747 399.464 131.666Z" fill="#FFC5BA"/>
<path fill-rule="evenodd" clip-rule="evenodd" d="M517.024 100.751C503.581 99.1485 489.341 101.729 477.898 109.143C478.923 111.127 479.949 113.108 480.975 115.089C482.505 118.042 484.034 120.995 485.556 123.953C490.554 120.341 496.51 118.141 502.63 117.48C508.623 116.892 515.512 117.173 520.093 121.609C522.908 124.171 523.443 128.127 523.841 131.702C520.545 131.846 517.174 131.788 513.784 131.73C503.749 131.558 493.55 131.382 484.651 136.437C474.023 142.394 472.204 158.282 480.025 167.208C486.199 174.45 496.402 176.442 505.5 175.98C513.113 175.708 520.989 172.567 525.19 165.913C525.108 168.919 525.117 171.933 525.126 174.948C527.344 174.948 529.562 174.947 531.78 174.946C536.216 174.944 540.652 174.942 545.088 174.948V139.09C545.224 130.571 545.169 121.446 540.507 113.977C535.682 105.739 526.059 101.991 517.024 100.751ZM498.058 158.245C494.419 154.47 495.687 147.083 500.946 145.499C505.87 143.87 511.046 144.016 516.21 144.162C518.737 144.234 521.261 144.305 523.75 144.168C523.745 144.902 523.756 145.637 523.767 146.374C523.793 148.165 523.82 149.962 523.615 151.745C522.076 157.304 516.472 160.717 511.004 161.423C506.559 162.057 501.326 161.695 498.058 158.245Z" fill="#FFC5BA"/>
<path d="M679.006 109.813C685.623 103.032 695.436 100.769 704.598 100.362C715.226 99.9997 726.207 101.584 735.685 106.645C733.332 111.723 730.933 116.775 728.57 121.853C720.694 117.653 711.596 115.725 702.706 116.72C700.198 117.046 697.672 117.789 695.645 119.337C693.707 120.776 693.056 123.709 694.432 125.746C695.853 127.928 698.632 128.38 700.968 129.041C708.626 130.707 716.502 131.531 724.007 133.903C729.041 135.487 733.748 138.782 736.228 143.535C739.623 150.904 738.437 160.355 732.779 166.303C727.492 171.888 719.807 174.414 712.365 175.437C698.469 177.202 683.758 175.111 671.51 168.086C673.891 162.998 676.281 157.911 678.616 152.805C687.769 158.209 698.723 160.618 709.296 159.567C712.736 159.151 717.525 157.766 717.706 153.574C718.041 150.524 715.036 148.804 712.501 148.17C702.099 145.291 690.331 146.187 681.07 139.896C671.175 133.468 670.985 117.807 679.006 109.813Z" fill="#FFC5BA"/>
<path d="M850.739 111.017C856.66 103.286 866.636 100.153 876.078 100.199C876.105 106.771 876.078 113.352 876.087 119.925C869.877 119.554 862.798 119.536 857.882 123.944C853.455 127.611 851.853 133.54 851.78 139.081C851.708 151.039 851.78 162.989 851.753 174.939C844.638 174.948 837.531 174.939 830.425 174.948C830.416 150.424 830.416 125.909 830.425 101.385C837.205 101.385 843.995 101.385 850.785 101.385C850.785 104.598 850.794 107.803 850.739 111.017Z" fill="#FFC5BA"/>
<path fill-rule="evenodd" clip-rule="evenodd" d="M960.713 111.026C945.214 95.7175 916.752 96.8944 902.594 113.47C890.273 127.683 890.716 151.573 904.504 164.673C915.195 174.975 931.246 177.655 945.459 175.165C953.326 173.88 960.713 170.023 966.09 164.121C964.707 162.625 963.321 161.134 961.935 159.643C959.546 157.074 957.158 154.507 954.792 151.917C947.206 159.196 935.311 160.907 925.742 156.924C920.346 154.697 916.562 149.736 915.078 144.186C927.031 144.157 938.981 144.162 950.932 144.166C957.571 144.169 964.211 144.172 970.852 144.168C972.319 132.372 969.304 119.59 960.713 111.026ZM914.833 131.684C915.838 126.488 918.572 121.4 923.406 118.875C930.413 115 940.072 115.652 945.912 121.382C948.845 124.08 950.32 127.9 951.244 131.693C939.104 131.73 926.973 131.73 914.833 131.684Z" fill="#FFC5BA"/>
<path fill-rule="evenodd" clip-rule="evenodd" d="M1031.52 100.57C1018.33 99.357 1004.42 101.819 993.221 109.143C994.541 111.717 995.874 114.286 997.207 116.857C998.433 119.223 999.661 121.589 1000.88 123.963C1005.56 120.559 1011.09 118.404 1016.82 117.626C1022.92 116.874 1029.91 116.892 1034.87 121.093C1038.06 123.646 1038.78 127.873 1039.15 131.703C1035.84 131.849 1032.46 131.79 1029.06 131.732C1018.99 131.557 1008.75 131.38 999.848 136.51C988.957 142.72 987.5 159.323 996.091 168.05C1003.44 175.582 1014.97 176.994 1024.92 175.464C1031.18 174.586 1037.05 171.255 1040.5 165.877C1040.42 168.901 1040.43 171.924 1040.44 174.948C1047.09 174.939 1053.75 174.939 1060.4 174.948C1060.4 169.537 1060.4 164.126 1060.41 158.717C1060.41 150.064 1060.42 141.413 1060.39 132.762C1060.37 125.167 1058.8 117.164 1053.84 111.171C1048.42 104.553 1039.83 101.421 1031.52 100.57ZM1017.63 160.898C1013.35 159.757 1010.35 155.195 1011.52 150.822C1012.21 146.604 1016.78 144.829 1020.53 144.422C1024.44 144.071 1028.37 144.115 1032.3 144.159C1034.56 144.184 1036.82 144.209 1039.07 144.159C1039.02 145.109 1039.05 146.09 1039.09 147.075C1039.18 149.661 1039.27 152.282 1037.75 154.471C1033.68 161.025 1024.68 162.953 1017.63 160.898Z" fill="#FFC5BA"/>
<path d="M1109.84 109.741C1122.03 96.4783 1146.93 96.8133 1157.19 112.248C1166.36 100.806 1183.24 97.4741 1196.66 102.526C1204.83 105.622 1210.9 113.126 1212.63 121.654C1214.54 130.327 1213.55 139.271 1213.79 148.079C1213.79 157.033 1213.79 165.986 1213.79 174.948C1206.69 174.948 1199.57 174.939 1192.46 174.948C1192.46 163.587 1192.46 152.235 1192.47 140.873C1192.45 135.215 1192.8 129.005 1189.49 124.089C1184.91 117.245 1174.33 117.3 1168.28 122.025C1163.77 125.674 1162.35 131.757 1162.29 137.316C1162.2 149.854 1162.28 162.401 1162.26 174.948C1155.14 174.948 1148.03 174.939 1140.93 174.948C1140.89 161.785 1140.98 148.614 1140.88 135.46C1140.82 129.919 1139.56 123.32 1134.23 120.45C1127.91 117.191 1118.93 118.486 1114.59 124.415C1111.39 128.552 1110.87 134.02 1110.84 139.081C1110.84 151.031 1110.85 162.989 1110.84 174.948C1103.74 174.939 1096.62 174.948 1089.52 174.948C1089.52 150.424 1089.52 125.909 1089.52 101.385C1096.31 101.385 1103.09 101.385 1109.88 101.385C1109.88 104.173 1109.88 106.952 1109.84 109.741Z" fill="#FFC5BA"/>
</svg>
