<svg width="217" height="303" viewBox="0 0 217 303" fill="none" xmlns="http://www.w3.org/2000/svg">
<path fill-rule="evenodd" clip-rule="evenodd" d="M158.802 1.1594C166.549 0.630911 174.404 1.04196 181.972 2.85541C188.843 4.48234 195.447 7.37695 201.129 11.5911C205.578 14.8622 209.323 19.1143 211.834 24.0434C215.112 30.3024 216.431 37.4146 216.597 44.4266C216.65 47.6396 216.627 50.8525 216.603 54.0655C216.587 56.2583 216.571 58.4512 216.58 60.6441C216.579 62.7674 216.58 64.8906 216.581 67.0136V67.0138V67.014V67.0141C216.584 74.0916 216.586 81.1681 216.528 88.2465C216.559 88.737 216.162 89.1619 215.658 89.0617C206.711 89.0705 197.767 89.0695 188.822 89.0685H188.822H188.822H188.822C183.711 89.0679 178.6 89.0674 173.489 89.0686C172.566 89.1481 171.589 88.5125 171.437 87.573C171.343 86.9239 171.355 86.2677 171.367 85.6134C171.372 85.3519 171.377 85.0907 171.375 84.8303C171.372 78.5504 171.372 72.2705 171.373 65.9908C171.373 58.4509 171.374 50.9115 171.368 43.3731C171.378 40.0329 168.18 37.1556 164.867 37.425C161.613 37.4941 158.857 40.5234 158.905 43.7427C158.89 65.7724 158.892 87.8021 158.895 109.831V109.831V109.832V109.832C158.896 123.38 158.897 136.927 158.895 150.474C158.903 152.563 158.898 154.653 158.894 156.743C158.886 160.171 158.879 163.599 158.926 167.026C158.943 170.529 162.415 173.531 165.886 173.009C168.839 172.743 171.368 170.069 171.364 167.085C171.377 159.647 171.375 152.209 171.372 144.771C171.37 137.8 171.368 130.828 171.378 123.856C171.271 122.712 172.304 121.652 173.458 121.797C176.972 121.797 180.487 121.797 184.001 121.797H184.001H184.001H184.002C194.552 121.796 205.102 121.795 215.651 121.801C216.065 121.728 216.576 122.042 216.528 122.509C216.587 133.445 216.587 144.377 216.576 155.313C216.579 156.43 216.592 157.548 216.605 158.668V158.668V158.668V158.668C216.666 163.987 216.727 169.326 215.737 174.57C214.362 182.639 210.59 190.411 204.532 195.997C198.456 201.603 190.843 205.399 182.857 207.423C176.76 208.964 170.449 209.582 164.169 209.492C153.703 209.482 143.061 207.537 133.766 202.573C129.299 200.135 124.995 197.209 121.697 193.285C117.938 188.94 115.489 183.558 114.301 177.962C113.445 174.163 113.217 170.256 113.213 166.373V51.6873C113.219 50.5526 113.214 49.4144 113.208 48.2747C113.18 42.4102 113.152 36.5054 114.705 30.8137C116.453 23.9225 120.332 17.5496 125.869 13.0591C135.147 5.57041 147.026 1.9366 158.802 1.1594ZM2.47508 3.62224C1.32483 3.51516 0.212583 4.53415 0.392201 5.71548C0.392201 25.7193 0.391268 45.7234 0.390336 65.7276C0.38816 112.405 0.385983 159.082 0.395655 205.758C0.347297 206.87 1.45264 207.699 2.50962 207.585C16.3264 207.592 30.1432 207.599 43.9599 207.582C44.9893 207.675 46.0152 206.812 45.9807 205.758C45.9893 195.738 45.9876 185.716 45.9858 175.695C45.9841 165.673 45.9824 155.652 45.991 145.631C45.839 144.526 46.63 143.369 47.7976 143.355C50.3266 143.335 52.8556 143.339 55.3855 143.343C56.8742 143.345 58.3632 143.347 59.8527 143.344C64.2982 143.351 68.7231 142.564 72.9544 141.223C79.8732 138.971 86.5467 135.344 91.3273 129.749C95.6692 124.782 98.3704 118.554 99.7555 112.143C101.208 105.82 101.169 99.3434 101.129 92.8899V92.8896V92.8893V92.8889V92.8886C101.119 91.2409 101.109 89.5947 101.123 87.9529V48.9171C101.075 42.0605 100.205 35.1901 98.1977 28.6237C98.1007 28.189 97.9354 27.7775 97.7703 27.3668C97.559 26.841 97.3483 26.3165 97.2823 25.7464C96.8338 25.1741 96.5178 24.5232 96.2017 23.872L96.2016 23.8719C95.8822 23.2141 95.5627 22.5558 95.1062 21.9778C91.3135 15.8155 85.5381 10.9969 78.9578 8.05052C72.7748 5.1939 65.9908 3.48408 59.1549 3.61879C49.7077 3.62224 40.2614 3.62138 30.815 3.62052C21.3687 3.61965 11.9223 3.61879 2.47508 3.62224ZM46.2812 40.9655C46.2224 40.1296 46.6508 39.1866 47.5039 38.9414C48.4871 38.76 49.491 38.7832 50.4946 38.8064C51.0777 38.8199 51.6608 38.8333 52.2396 38.8067C54.6645 38.6892 57.1964 39.8947 58.3743 42.064C58.9695 43.1542 58.9556 44.4058 58.942 45.6256V45.6258V45.6259V45.6261V45.6263C58.9387 45.9211 58.9354 46.2142 58.9408 46.5026C58.9366 53.6387 58.938 60.7748 58.9394 67.9107V67.9174V67.9176V67.9177V67.9179C58.9415 78.62 58.9435 89.3215 58.927 100.022C58.9995 101.766 58.2499 103.552 56.7059 104.454C54.8092 105.561 52.6221 105.519 50.4733 105.477C49.781 105.464 49.0927 105.451 48.4193 105.476C47.3071 105.583 46.2052 104.671 46.2915 103.518C46.2849 93.5872 46.2862 83.6577 46.2875 73.7286V73.7284V73.7282V73.728V73.7278C46.2888 62.8067 46.2902 51.8861 46.2812 40.9655ZM198.031 224.701C192.594 222.829 186.687 222.577 181.029 223.433C175.699 224.266 170.535 226.559 166.601 230.293C162.981 233.779 160.529 238.431 159.637 243.374C159.074 246.052 159.091 248.78 159.107 251.504V251.505V251.505C159.112 252.253 159.116 253.001 159.109 253.747C159.109 256.282 159.109 258.816 159.11 261.35V261.425C159.11 266.468 159.111 271.512 159.109 276.555C159.109 279.36 159.544 282.155 160.321 284.845C162.069 290.718 166.114 295.92 171.527 298.838C177.724 302.348 185.133 303.073 192.103 302.241C198.469 301.498 204.725 298.614 208.874 293.64C212.932 288.942 214.569 282.617 214.67 276.517C214.683 271.45 214.694 266.383 214.666 261.319C214.725 260.531 214 259.892 213.24 259.968C207.221 259.961 201.2 259.962 195.181 259.964H195.18H195.179C192.771 259.964 190.363 259.965 187.955 259.965C187.157 259.882 186.228 260.459 186.328 261.347C186.299 263.338 186.306 265.332 186.312 267.326V267.326V267.327L186.315 268.156C186.316 268.545 186.317 268.933 186.318 269.322C186.228 270.099 186.867 270.942 187.692 270.877C189.703 270.905 191.715 270.896 193.726 270.888H193.729C196.433 270.876 199.136 270.865 201.837 270.942C201.921 272.498 201.911 274.059 201.9 275.619C201.894 276.504 201.888 277.388 201.9 278.272C201.958 281.429 201.088 284.735 198.898 287.091C196.825 289.45 193.799 290.821 190.718 291.232C186.494 291.809 181.955 291.305 178.311 288.956C175.63 287.16 173.458 284.479 172.608 281.336C171.932 279.032 171.954 276.638 171.976 274.256C171.983 273.52 171.99 272.785 171.976 272.055V251.685L171.974 251.401C171.956 248.633 171.938 245.792 172.94 243.167C174.473 238.414 179.002 234.939 183.903 234.29C187.278 233.872 190.815 234.045 193.989 235.354C197.015 236.68 199.499 239.216 200.818 242.241C201.644 244.127 201.896 246.207 201.91 248.255C201.824 249.012 202.38 249.81 203.202 249.758C205.7 249.786 208.201 249.78 210.703 249.773C211.536 249.771 212.369 249.769 213.202 249.768C213.886 249.799 214.715 249.347 214.666 248.569C214.815 244.68 214.158 240.725 212.459 237.205C209.678 231.24 204.2 226.805 198.031 224.701ZM0.340388 225.775C0.288575 225.022 0.540731 223.9 1.48027 223.896C3.29306 223.853 5.10694 223.86 6.92129 223.866C8.33249 223.871 9.74398 223.876 11.1555 223.858C11.2347 223.859 11.3161 223.859 11.399 223.859C12.1219 223.859 12.9526 223.859 13.3523 224.563C16.0261 228.601 18.6925 232.644 21.3589 236.688L21.3609 236.691L21.3664 236.699C24.7394 241.814 28.1125 246.93 31.5007 252.034C31.701 252.552 32.3297 252.518 32.5024 252.013C35.8481 246.949 39.1904 241.882 42.5326 236.816L42.5337 236.814L42.5689 236.761C45.1255 232.885 47.6819 229.01 50.2397 225.136C50.2692 225.094 50.299 225.05 50.3292 225.006C50.6994 224.464 51.1359 223.825 51.8735 223.886C54.367 223.858 56.8641 223.863 59.361 223.868H59.3644H59.3645C60.3356 223.87 61.3067 223.872 62.2775 223.872C63.0616 223.837 63.7456 224.601 63.6419 225.385C63.6471 237.764 63.6463 250.142 63.6454 262.52V262.543C63.6445 274.929 63.6437 287.315 63.6488 299.702C63.6972 300.472 63.5245 301.564 62.5573 301.633C60.391 301.696 58.2233 301.686 56.055 301.677C54.7868 301.671 53.5184 301.665 52.25 301.674C51.5039 301.743 50.6991 301.163 50.7405 300.372C50.7326 290.773 50.7338 281.174 50.7349 271.574V271.562C50.7357 264.359 50.7366 257.157 50.7336 249.955C50.732 249.7 50.7359 249.444 50.7399 249.189C50.7526 248.359 50.7654 247.528 50.5885 246.715C50.0198 247.036 49.6852 247.592 49.3546 248.142C49.2274 248.353 49.1008 248.564 48.9616 248.759C46.6178 252.377 44.2643 255.988 41.9108 259.6L41.9099 259.601C40.039 262.472 38.1681 265.343 36.302 268.217C35.9462 268.804 35.3901 269.371 34.6405 269.315C32.9065 269.35 31.1691 269.35 29.4351 269.319C28.6993 269.36 28.1605 268.79 27.7874 268.238C25.2031 264.261 22.5854 260.306 19.9675 256.351C18.6315 254.333 17.2954 252.315 15.9637 250.293C15.6943 249.903 15.4406 249.501 15.1869 249.1C14.6795 248.297 14.1721 247.494 13.5389 246.78C13.3178 247.229 13.2211 247.706 13.2487 248.21C13.2598 259.315 13.2581 270.422 13.2563 281.528C13.2554 287.699 13.2544 293.87 13.2556 300.04C13.4076 300.873 12.7237 301.754 11.8498 301.671C8.49919 301.678 5.14863 301.678 1.79806 301.671C0.903422 301.764 0.240217 300.876 0.350751 300.037C0.344171 288.25 0.345425 276.462 0.346678 264.674C0.348056 251.708 0.349435 238.741 0.340388 225.775ZM105.13 224.411C105.426 223.879 106.092 223.871 106.645 223.864C106.706 223.864 106.765 223.863 106.823 223.862C109.257 223.873 111.692 223.871 114.127 223.869C116.188 223.867 118.248 223.866 120.308 223.872C121.02 223.817 121.538 224.47 121.714 225.098C125.858 238.012 130.023 250.921 134.188 263.829C137.722 274.781 141.256 285.734 144.777 296.69C144.916 297.193 145.092 297.687 145.269 298.181L145.269 298.181C145.619 299.163 145.969 300.144 146.024 301.194C145.367 301.716 144.549 301.698 143.753 301.681C143.532 301.676 143.312 301.671 143.099 301.678C140.097 301.671 137.095 301.674 134.094 301.681C133.417 301.702 132.529 301.571 132.325 300.804C131.682 298.969 131.126 297.103 130.571 295.239L130.57 295.238C129.866 292.874 129.161 290.51 128.28 288.21C122.136 288.201 115.993 288.202 109.851 288.203H109.793C106.272 288.204 102.751 288.204 99.2305 288.203C98.7642 288.182 98.1252 288.182 98.0595 288.783C97.484 290.585 96.9313 292.395 96.3788 294.205L96.3781 294.207C95.7171 296.372 95.0563 298.536 94.3566 300.686C94.1666 301.429 93.3929 301.754 92.6883 301.674C91.2876 301.666 89.8869 301.671 88.4866 301.675H88.4763C86.1954 301.681 83.9155 301.688 81.6383 301.643C80.8507 301.64 80.419 300.793 80.754 300.123C85.6174 284.915 90.5012 269.712 95.3849 254.51L95.3874 254.502L95.3946 254.479C98.2843 245.484 101.174 236.488 104.059 227.492C104.163 227.182 104.257 226.868 104.351 226.555C104.57 225.823 104.789 225.093 105.13 224.411ZM104.885 266.417L104.882 266.425C103.927 269.558 102.972 272.69 102.018 275.823C101.967 276.009 101.906 276.194 101.844 276.38C101.661 276.931 101.476 277.487 101.569 278.079C104.77 278.106 107.972 278.103 111.173 278.099L111.22 278.099C113.205 278.096 115.19 278.094 117.175 278.099C118.176 278.063 119.182 278.082 120.187 278.1C121.839 278.131 123.491 278.162 125.123 277.947C124.072 274.524 123.025 271.098 121.979 267.673L121.979 267.671L121.978 267.669C119.116 258.301 116.255 248.931 113.286 239.599C113.04 239.903 112.857 240.241 112.733 240.614C110.128 249.219 107.507 257.817 104.885 266.417Z" fill="#FFC5BA"/>
<path fill-rule="evenodd" clip-rule="evenodd" d="M158.802 1.1594C166.549 0.630911 174.404 1.04196 181.972 2.85541C188.843 4.48234 195.447 7.37695 201.129 11.5911C205.578 14.8622 209.323 19.1143 211.834 24.0434C215.112 30.3024 216.431 37.4146 216.597 44.4266C216.65 47.6396 216.627 50.8525 216.603 54.0655C216.587 56.2583 216.571 58.4512 216.58 60.6441C216.579 62.7674 216.58 64.8906 216.581 67.0136V67.0138V67.014V67.0141C216.584 74.0916 216.586 81.1681 216.528 88.2465C216.559 88.737 216.162 89.1619 215.658 89.0617C206.711 89.0705 197.767 89.0695 188.822 89.0685H188.822H188.822H188.822C183.711 89.0679 178.6 89.0674 173.489 89.0686C172.566 89.1481 171.589 88.5125 171.437 87.573C171.343 86.9239 171.355 86.2677 171.367 85.6134C171.372 85.3519 171.377 85.0907 171.375 84.8303C171.372 78.5504 171.372 72.2705 171.373 65.9908C171.373 58.4509 171.374 50.9115 171.368 43.3731C171.378 40.0329 168.18 37.1556 164.867 37.425C161.613 37.4941 158.857 40.5234 158.905 43.7427C158.89 65.7724 158.892 87.8021 158.895 109.831V109.831V109.832V109.832C158.896 123.38 158.897 136.927 158.895 150.474C158.903 152.563 158.898 154.653 158.894 156.743C158.886 160.171 158.879 163.599 158.926 167.026C158.943 170.529 162.415 173.531 165.886 173.009C168.839 172.743 171.368 170.069 171.364 167.085C171.377 159.647 171.375 152.209 171.372 144.771C171.37 137.8 171.368 130.828 171.378 123.856C171.271 122.712 172.304 121.652 173.458 121.797C176.972 121.797 180.487 121.797 184.001 121.797H184.001H184.001H184.002C194.552 121.796 205.102 121.795 215.651 121.801C216.065 121.728 216.576 122.042 216.528 122.509C216.587 133.445 216.587 144.377 216.576 155.313C216.579 156.43 216.592 157.548 216.605 158.668V158.668V158.668V158.668C216.666 163.987 216.727 169.326 215.737 174.57C214.362 182.639 210.59 190.411 204.532 195.997C198.456 201.603 190.843 205.399 182.857 207.423C176.76 208.964 170.449 209.582 164.169 209.492C153.703 209.482 143.061 207.537 133.766 202.573C129.299 200.135 124.995 197.209 121.697 193.285C117.938 188.94 115.489 183.558 114.301 177.962C113.445 174.163 113.217 170.256 113.213 166.373V51.6873C113.219 50.5526 113.214 49.4144 113.208 48.2747C113.18 42.4102 113.152 36.5054 114.705 30.8137C116.453 23.9225 120.332 17.5496 125.869 13.0591C135.147 5.57041 147.026 1.9366 158.802 1.1594ZM2.47508 3.62224C1.32483 3.51516 0.212583 4.53415 0.392201 5.71548C0.392201 25.7193 0.391268 45.7234 0.390336 65.7276C0.38816 112.405 0.385983 159.082 0.395655 205.758C0.347297 206.87 1.45264 207.699 2.50962 207.585C16.3264 207.592 30.1432 207.599 43.9599 207.582C44.9893 207.675 46.0152 206.812 45.9807 205.758C45.9893 195.738 45.9876 185.716 45.9858 175.695C45.9841 165.673 45.9824 155.652 45.991 145.631C45.839 144.526 46.63 143.369 47.7976 143.355C50.3266 143.335 52.8556 143.339 55.3855 143.343C56.8742 143.345 58.3632 143.347 59.8527 143.344C64.2982 143.351 68.7231 142.564 72.9544 141.223C79.8732 138.971 86.5467 135.344 91.3273 129.749C95.6692 124.782 98.3704 118.554 99.7555 112.143C101.208 105.82 101.169 99.3434 101.129 92.8899V92.8896V92.8893V92.8889V92.8886C101.119 91.2409 101.109 89.5947 101.123 87.9529V48.9171C101.075 42.0605 100.205 35.1901 98.1977 28.6237C98.1007 28.189 97.9354 27.7775 97.7703 27.3668C97.559 26.841 97.3483 26.3165 97.2823 25.7464C96.8338 25.1741 96.5178 24.5232 96.2017 23.872L96.2016 23.8719C95.8822 23.2141 95.5627 22.5558 95.1062 21.9778C91.3135 15.8155 85.5381 10.9969 78.9578 8.05052C72.7748 5.1939 65.9908 3.48408 59.1549 3.61879C49.7077 3.62224 40.2614 3.62138 30.815 3.62052C21.3687 3.61965 11.9223 3.61879 2.47508 3.62224ZM46.2812 40.9655C46.2224 40.1296 46.6508 39.1866 47.5039 38.9414C48.4871 38.76 49.491 38.7832 50.4946 38.8064C51.0777 38.8199 51.6608 38.8333 52.2396 38.8067C54.6645 38.6892 57.1964 39.8947 58.3743 42.064C58.9695 43.1542 58.9556 44.4058 58.942 45.6256V45.6258V45.6259V45.6261V45.6263C58.9387 45.9211 58.9354 46.2142 58.9408 46.5026C58.9366 53.6387 58.938 60.7748 58.9394 67.9107V67.9174V67.9176V67.9177V67.9179C58.9415 78.62 58.9435 89.3215 58.927 100.022C58.9995 101.766 58.2499 103.552 56.7059 104.454C54.8092 105.561 52.6221 105.519 50.4733 105.477C49.781 105.464 49.0927 105.451 48.4193 105.476C47.3071 105.583 46.2052 104.671 46.2915 103.518C46.2849 93.5872 46.2862 83.6577 46.2875 73.7286V73.7284V73.7282V73.728V73.7278C46.2888 62.8067 46.2902 51.8861 46.2812 40.9655ZM198.031 224.701C192.594 222.829 186.687 222.577 181.029 223.433C175.699 224.266 170.535 226.559 166.601 230.293C162.981 233.779 160.529 238.431 159.637 243.374C159.074 246.052 159.091 248.78 159.107 251.504V251.505V251.505C159.112 252.253 159.116 253.001 159.109 253.747C159.109 256.282 159.109 258.816 159.11 261.35V261.425C159.11 266.468 159.111 271.512 159.109 276.555C159.109 279.36 159.544 282.155 160.321 284.845C162.069 290.718 166.114 295.92 171.527 298.838C177.724 302.348 185.133 303.073 192.103 302.241C198.469 301.498 204.725 298.614 208.874 293.64C212.932 288.942 214.569 282.617 214.67 276.517C214.683 271.45 214.694 266.383 214.666 261.319C214.725 260.531 214 259.892 213.24 259.968C207.221 259.961 201.2 259.962 195.181 259.964H195.18H195.179C192.771 259.964 190.363 259.965 187.955 259.965C187.157 259.882 186.228 260.459 186.328 261.347C186.299 263.338 186.306 265.332 186.312 267.326V267.326V267.327L186.315 268.156C186.316 268.545 186.317 268.933 186.318 269.322C186.228 270.099 186.867 270.942 187.692 270.877C189.703 270.905 191.715 270.896 193.726 270.888H193.729C196.433 270.876 199.136 270.865 201.837 270.942C201.921 272.498 201.911 274.059 201.9 275.619C201.894 276.504 201.888 277.388 201.9 278.272C201.958 281.429 201.088 284.735 198.898 287.091C196.825 289.45 193.799 290.821 190.718 291.232C186.494 291.809 181.955 291.305 178.311 288.956C175.63 287.16 173.458 284.479 172.608 281.336C171.932 279.032 171.954 276.638 171.976 274.256C171.983 273.52 171.99 272.785 171.976 272.055V251.685L171.974 251.401C171.956 248.633 171.938 245.792 172.94 243.167C174.473 238.414 179.002 234.939 183.903 234.29C187.278 233.872 190.815 234.045 193.989 235.354C197.015 236.68 199.499 239.216 200.818 242.241C201.644 244.127 201.896 246.207 201.91 248.255C201.824 249.012 202.38 249.81 203.202 249.758C205.7 249.786 208.201 249.78 210.703 249.773C211.536 249.771 212.369 249.769 213.202 249.768C213.886 249.799 214.715 249.347 214.666 248.569C214.815 244.68 214.158 240.725 212.459 237.205C209.678 231.24 204.2 226.805 198.031 224.701ZM0.340388 225.775C0.288575 225.022 0.540731 223.9 1.48027 223.896C3.29306 223.853 5.10694 223.86 6.92129 223.866C8.33249 223.871 9.74398 223.876 11.1555 223.858C11.2347 223.859 11.3161 223.859 11.399 223.859C12.1219 223.859 12.9526 223.859 13.3523 224.563C16.0261 228.601 18.6925 232.644 21.3589 236.688L21.3609 236.691L21.3664 236.699C24.7394 241.814 28.1125 246.93 31.5007 252.034C31.701 252.552 32.3297 252.518 32.5024 252.013C35.8481 246.949 39.1904 241.882 42.5326 236.816L42.5337 236.814L42.5689 236.761C45.1255 232.885 47.6819 229.01 50.2397 225.136C50.2692 225.094 50.299 225.05 50.3292 225.006C50.6994 224.464 51.1359 223.825 51.8735 223.886C54.367 223.858 56.8641 223.863 59.361 223.868H59.3644H59.3645C60.3356 223.87 61.3067 223.872 62.2775 223.872C63.0616 223.837 63.7456 224.601 63.6419 225.385C63.6471 237.764 63.6463 250.142 63.6454 262.52V262.543C63.6445 274.929 63.6437 287.315 63.6488 299.702C63.6972 300.472 63.5245 301.564 62.5573 301.633C60.391 301.696 58.2233 301.686 56.055 301.677C54.7868 301.671 53.5184 301.665 52.25 301.674C51.5039 301.743 50.6991 301.163 50.7405 300.372C50.7326 290.773 50.7338 281.174 50.7349 271.574V271.562C50.7357 264.359 50.7366 257.157 50.7336 249.955C50.732 249.7 50.7359 249.444 50.7399 249.189C50.7526 248.359 50.7654 247.528 50.5885 246.715C50.0198 247.036 49.6852 247.592 49.3546 248.142C49.2274 248.353 49.1008 248.564 48.9616 248.759C46.6178 252.377 44.2643 255.988 41.9108 259.6L41.9099 259.601C40.039 262.472 38.1681 265.343 36.302 268.217C35.9462 268.804 35.3901 269.371 34.6405 269.315C32.9065 269.35 31.1691 269.35 29.4351 269.319C28.6993 269.36 28.1605 268.79 27.7874 268.238C25.2031 264.261 22.5854 260.306 19.9675 256.351C18.6315 254.333 17.2954 252.315 15.9637 250.293C15.6943 249.903 15.4406 249.501 15.1869 249.1C14.6795 248.297 14.1721 247.494 13.5389 246.78C13.3178 247.229 13.2211 247.706 13.2487 248.21C13.2598 259.315 13.2581 270.422 13.2563 281.528C13.2554 287.699 13.2544 293.87 13.2556 300.04C13.4076 300.873 12.7237 301.754 11.8498 301.671C8.49919 301.678 5.14863 301.678 1.79806 301.671C0.903422 301.764 0.240217 300.876 0.350751 300.037C0.344171 288.25 0.345425 276.462 0.346678 264.674C0.348056 251.708 0.349435 238.741 0.340388 225.775ZM105.13 224.411C105.426 223.879 106.092 223.871 106.645 223.864C106.706 223.864 106.765 223.863 106.823 223.862C109.257 223.873 111.692 223.871 114.127 223.869C116.188 223.867 118.248 223.866 120.308 223.872C121.02 223.817 121.538 224.47 121.714 225.098C125.858 238.012 130.023 250.921 134.188 263.829C137.722 274.781 141.256 285.734 144.777 296.69C144.916 297.193 145.092 297.687 145.269 298.181L145.269 298.181C145.619 299.163 145.969 300.144 146.024 301.194C145.367 301.716 144.549 301.698 143.753 301.681C143.532 301.676 143.312 301.671 143.099 301.678C140.097 301.671 137.095 301.674 134.094 301.681C133.417 301.702 132.529 301.571 132.325 300.804C131.682 298.969 131.126 297.103 130.571 295.239L130.57 295.238C129.866 292.874 129.161 290.51 128.28 288.21C122.136 288.201 115.993 288.202 109.851 288.203H109.793C106.272 288.204 102.751 288.204 99.2305 288.203C98.7642 288.182 98.1252 288.182 98.0595 288.783C97.484 290.585 96.9313 292.395 96.3788 294.205L96.3781 294.207C95.7171 296.372 95.0563 298.536 94.3566 300.686C94.1666 301.429 93.3929 301.754 92.6883 301.674C91.2876 301.666 89.8869 301.671 88.4866 301.675H88.4763C86.1954 301.681 83.9155 301.688 81.6383 301.643C80.8507 301.64 80.419 300.793 80.754 300.123C85.6174 284.915 90.5012 269.712 95.3849 254.51L95.3874 254.502L95.3946 254.479C98.2843 245.484 101.174 236.488 104.059 227.492C104.163 227.182 104.257 226.868 104.351 226.555C104.57 225.823 104.789 225.093 105.13 224.411ZM104.885 266.417L104.882 266.425C103.927 269.558 102.972 272.69 102.018 275.823C101.967 276.009 101.906 276.194 101.844 276.38C101.661 276.931 101.476 277.487 101.569 278.079C104.77 278.106 107.972 278.103 111.173 278.099L111.22 278.099C113.205 278.096 115.19 278.094 117.175 278.099C118.176 278.063 119.182 278.082 120.187 278.1C121.839 278.131 123.491 278.162 125.123 277.947C124.072 274.524 123.025 271.098 121.979 267.673L121.979 267.671L121.978 267.669C119.116 258.301 116.255 248.931 113.286 239.599C113.04 239.903 112.857 240.241 112.733 240.614C110.128 249.219 107.507 257.817 104.885 266.417Z" fill="#FFC5BA"/>
</svg>
