<?xml version="1.0" encoding="UTF-8"?>
<svg width="271px" height="49px" viewBox="0 0 271 49" version="1.1" xmlns="http://www.w3.org/2000/svg" xmlns:xlink="http://www.w3.org/1999/xlink">
    <title>Techstars</title>
    <defs>
        <path d="M433.54889,16.5889702 L442.766804,16.5889702 L442.766804,24.8210106 L449.372154,24.8210106 L449.372154,31.3770668 L442.766804,31.3770668 L442.766804,44.8835284 C442.766804,47.7425604 443.65409,48.2847906 446.75959,48.2847906 L449.372154,48.2847906 L449.372154,54.9394341 L443.506209,54.9394341 C436.062867,54.9394341 433.54889,53.4606244 433.54889,46.510219 L433.54889,31.3770668 L428.816699,31.3770668 L428.816699,24.8210106 L433.54889,24.8210106 L433.54889,16.5889702 L433.54889,16.5889702 Z M472.096529,45.4750522 C471.012068,47.2496238 468.843148,48.4819652 465.343298,48.4819652 C461.843449,48.4819652 458.688655,46.510219 458.392893,42.221671 L480.722919,42.221671 C481.363736,31.4756541 475.251323,23.9337248 465.244711,23.9337248 C455.238099,23.9337248 449.125685,30.0954318 449.125685,39.7076946 C449.125685,49.3199574 455.829623,55.6788389 465.63906,55.6788389 C475.448497,55.6788389 477.962474,52.6226323 480.673625,45.4750522 L472.145823,45.4750522 L472.096529,45.4750522 Z M465.244711,30.9827176 C468.793854,30.9827176 471.406418,32.8558765 471.554299,36.6514879 L458.540774,36.6514879 C459.03371,32.6587018 461.942036,30.9827176 465.244711,30.9827176 Z M497.482761,23.9337248 C488.363435,23.9337248 482.103141,30.1447254 482.103141,39.7076946 C482.103141,49.2706637 487.574737,55.6788389 497.482761,55.6788389 C507.390786,55.6788389 510.742755,52.8691005 512.813088,43.8976553 L504.186699,43.8976553 C503.496587,46.7566873 501.426254,48.5312589 498.024992,48.5312589 C494.623729,48.5312589 491.468935,46.362338 491.468935,39.8062819 C491.468935,33.2502257 494.722317,31.1305985 498.024992,31.1305985 C501.327667,31.1305985 502.954357,32.3629399 503.792349,35.9120831 L512.418739,35.9120831 C510.644167,26.7927569 503.743056,23.9830185 497.482761,23.9830185 L497.482761,23.9337248 Z M523.115462,14.3707557 L513.897549,14.3707557 L513.897549,54.9394341 L523.115462,54.9394341 L523.115462,39.5105199 C523.115462,33.8910432 524.791446,31.3277731 528.784233,31.3277731 C532.777019,31.3277731 533.368542,34.8276227 533.368542,39.1654643 L533.368542,54.9394341 L542.586456,54.9394341 L542.586456,36.8486625 C542.586456,28.7152094 540.171067,24.1308995 532.481257,24.1308995 C524.791446,24.1308995 524.495685,26.5462886 523.115462,28.7645031 L523.115462,14.321462 L523.115462,14.3707557 Z M572.409118,33.6445749 C571.22607,26.7434632 565.015069,24.0323122 558.113957,24.0323122 C551.212846,24.0323122 544.361028,27.3349871 544.361028,33.2995194 C544.361028,39.2640517 548.353814,41.5808535 554.170465,42.5174329 L559.543473,43.4047187 C563.043323,43.9962426 564.226371,44.8342347 564.226371,46.2144571 C564.226371,47.5946794 561.958863,48.8763145 558.606894,48.8763145 C555.254925,48.8763145 553.086005,47.9890287 552.297306,45.080703 L543.72021,45.080703 C544.804671,52.1789894 550.473441,55.5802516 558.508307,55.5802516 C566.543173,55.5802516 573.049935,52.1789894 573.049935,45.3764649 C573.049935,38.5739405 569.599379,37.933123 562.353212,36.6021943 L556.733735,35.6163212 C554.121171,35.1233846 553.036711,34.3346861 553.036711,32.9051701 C553.036711,31.4756541 554.663402,30.6869556 557.867489,30.6869556 C561.071577,30.6869556 563.14191,31.3277731 563.733434,33.5952813 L572.359824,33.5952813 L572.409118,33.6445749 Z M577.880713,24.8210106 L573.148522,24.8210106 L573.148522,31.3770668 L577.880713,31.3770668 L577.880713,46.510219 C577.880713,53.5099181 580.39469,54.9394341 587.838032,54.9394341 L593.703977,54.9394341 L593.703977,48.2847906 L591.091413,48.2847906 C587.985913,48.2847906 587.098627,47.7425604 587.098627,44.8835284 L587.098627,31.3770668 L593.703977,31.3770668 L593.703977,24.8210106 L587.098627,24.8210106 L587.098627,16.5889702 L577.880713,16.5889702 L577.880713,24.8210106 L577.880713,24.8210106 Z M614.752367,36.1092577 C603.069771,36.9965435 594.739143,39.4119326 594.739143,46.8059809 C594.739143,54.2000292 599.422041,55.6295452 605.140105,55.6295452 C610.858169,55.6295452 613.02709,54.4464975 615.245304,51.2424099 L615.343891,54.8901404 L624.413924,54.8901404 C623.970281,53.0662752 623.723813,49.4678383 623.723813,46.1651634 L623.723813,43.0103695 L623.8224,36.4543133 C623.970281,27.3349871 619.090209,23.7858439 610.414526,23.7858439 C601.738842,23.7858439 596.070072,28.8137967 595.626429,34.4825671 L604.252819,34.4825671 C604.647168,31.5742414 606.668208,30.0461381 609.625827,30.0461381 C612.583447,30.0461381 614.703074,31.2784795 614.703074,34.8769163 L614.703074,36.0599641 L614.752367,36.1092577 Z M614.998836,42.2709646 C614.998836,47.791854 612.189097,49.369251 608.492073,49.369251 C604.795049,49.369251 604.252819,48.087616 604.252819,46.1158698 C604.252819,42.8131948 608.590661,42.1230837 614.998836,41.5315598 L614.998836,42.2709646 L614.998836,42.2709646 Z M644.920085,24.623836 C644.673616,24.623836 644.427148,24.5745424 644.18068,24.5745424 L643.490569,24.5745424 C639.202021,24.7224233 636.688044,26.9406378 635.258528,30.489781 L635.258528,24.771717 L626.38567,24.771717 L626.38567,54.8901404 L635.603584,54.8901404 L635.603584,39.7569882 C635.603584,35.074091 637.871092,33.4474003 642.356815,33.4474003 C643.194807,33.4474003 644.032799,33.4474003 644.870791,33.5952813 L644.870791,24.5745424 L644.920085,24.623836 Z M674.003341,33.6445749 C672.820294,26.7434632 666.609293,24.0323122 659.757475,24.0323122 C652.905657,24.0323122 646.004545,27.3349871 646.004545,33.2995194 C646.004545,39.2640517 649.948037,41.5808535 655.764689,42.5174329 L661.137697,43.4047187 C664.637547,43.9962426 665.820594,44.8342347 665.820594,46.2144571 C665.820594,47.5946794 663.553086,48.8763145 660.201118,48.8763145 C656.849149,48.8763145 654.680228,47.9890287 653.89153,45.080703 L645.314434,45.080703 C646.398894,52.1789894 652.067665,55.5802516 660.10253,55.5802516 C668.137396,55.5802516 674.644159,52.1789894 674.644159,45.3764649 C674.644159,38.5739405 671.193603,37.933123 663.947436,36.6021943 L658.327959,35.6163212 C655.715395,35.1233846 654.630935,34.3346861 654.630935,32.9051701 C654.630935,31.4756541 656.257625,30.6869556 659.461713,30.6869556 C662.665801,30.6869556 664.736134,31.3277731 665.327658,33.5952813 L673.954048,33.5952813 L674.003341,33.6445749 Z M699.438867,62.678538 L699.438867,54.8901404 L674.545571,54.8901404 L674.545571,62.678538 L699.438867,62.678538 Z" id="path-1"></path>
    </defs>
    <g id="Page-1" stroke="none" stroke-width="1" fill="none" fill-rule="evenodd">
        <g id="Press-Social-Copy" transform="translate(-428.7439, -14)" fill="#FFB5A7" fill-rule="nonzero">
            <g id="Techstars">
                <use xlink:href="#path-1"></use>
                <use xlink:href="#path-1"></use>
            </g>
        </g>
    </g>
</svg>