<svg width="672" height="187" viewBox="0 0 672 187" fill="none" xmlns="http://www.w3.org/2000/svg">
<path fill-rule="evenodd" clip-rule="evenodd" d="M241.18 0.652344V148.631H277.619V92.6391C277.619 84.7667 282.192 76.9318 290.967 76.9318C299.587 76.9318 303.393 84.6498 303.393 92.6391V148.631H339.566V83.7515C339.566 60.1439 326.575 43.623 304.401 43.623C286.274 43.623 277.619 55.6672 277.619 55.6672V0.652344H241.18ZM117.562 97.33C117.562 70.5261 136.535 43.6103 166.546 43.6103C185.678 43.6103 194.343 55.3118 194.343 55.3118V45.9798H229.182V148.632H194.343V138.855C194.343 138.855 186.576 151.405 165.977 151.405C138.363 151.405 117.562 127.492 117.562 97.33ZM194.95 97.4428C194.95 87.5558 187.805 76.5986 173.957 76.5986C160.948 76.5986 152.913 86.1242 152.913 97.8959C152.913 109.503 162.903 118.537 173.957 118.537C187.295 118.537 194.95 108.089 194.95 97.4428ZM0.375977 45.9792H40.3199L63.5787 105.485L87.1394 45.9792H126.031L67.4687 186.848H28.3303L44.3609 149.52L0.375977 45.9792ZM346.859 97.757C346.859 69.7567 367.324 43.6224 401.693 43.6224C429.877 43.6224 456.682 62.929 456.682 98.2916C456.682 130.61 431.081 151.405 401.823 151.405C371.638 151.405 346.859 129.622 346.859 97.757ZM422.562 97.7952C422.562 87.0123 414.162 76.9007 402.021 76.9007C388.898 76.9007 381.63 86.812 381.63 97.6945C381.63 108.991 390.372 118.336 402.021 118.336C414.734 118.336 422.562 106.992 422.562 97.7952ZM517.388 43.6224C483.019 43.6224 462.554 69.7567 462.554 97.757C462.554 129.622 487.332 151.405 517.518 151.405C546.775 151.405 572.376 130.61 572.376 98.2916C572.376 62.929 545.571 43.6224 517.388 43.6224ZM517.716 76.9007C529.856 76.9007 538.256 87.0123 538.256 97.7952C538.256 106.992 530.429 118.336 517.716 118.336C506.067 118.336 497.325 108.991 497.325 97.6945C497.325 86.812 504.593 76.9007 517.716 76.9007ZM625.326 126.613C625.326 139.977 614.493 150.81 601.129 150.81C587.766 150.81 576.932 139.977 576.932 126.613C576.932 113.25 587.766 102.416 601.129 102.416C614.493 102.416 625.326 113.25 625.326 126.613ZM589.716 93.5279H633.277L671.776 0.652344H628.378L589.716 93.5279Z" fill="#FFC5BA"/>
<path fill-rule="evenodd" clip-rule="evenodd" d="M241.18 0.652344V148.631H277.619V92.6391C277.619 84.7667 282.192 76.9318 290.967 76.9318C299.587 76.9318 303.393 84.6498 303.393 92.6391V148.631H339.566V83.7515C339.566 60.1439 326.575 43.623 304.401 43.623C286.274 43.623 277.619 55.6672 277.619 55.6672V0.652344H241.18ZM117.562 97.33C117.562 70.5261 136.535 43.6103 166.546 43.6103C185.678 43.6103 194.343 55.3118 194.343 55.3118V45.9798H229.182V148.632H194.343V138.855C194.343 138.855 186.576 151.405 165.977 151.405C138.363 151.405 117.562 127.492 117.562 97.33ZM194.95 97.4428C194.95 87.5558 187.805 76.5986 173.957 76.5986C160.948 76.5986 152.913 86.1242 152.913 97.8959C152.913 109.503 162.903 118.537 173.957 118.537C187.295 118.537 194.95 108.089 194.95 97.4428ZM0.375977 45.9792H40.3199L63.5787 105.485L87.1394 45.9792H126.031L67.4687 186.848H28.3303L44.3609 149.52L0.375977 45.9792ZM346.859 97.757C346.859 69.7567 367.324 43.6224 401.693 43.6224C429.877 43.6224 456.682 62.929 456.682 98.2916C456.682 130.61 431.081 151.405 401.823 151.405C371.638 151.405 346.859 129.622 346.859 97.757ZM422.562 97.7952C422.562 87.0123 414.162 76.9007 402.021 76.9007C388.898 76.9007 381.63 86.812 381.63 97.6945C381.63 108.991 390.372 118.336 402.021 118.336C414.734 118.336 422.562 106.992 422.562 97.7952ZM517.388 43.6224C483.019 43.6224 462.554 69.7567 462.554 97.757C462.554 129.622 487.332 151.405 517.518 151.405C546.775 151.405 572.376 130.61 572.376 98.2916C572.376 62.929 545.571 43.6224 517.388 43.6224ZM517.716 76.9007C529.856 76.9007 538.256 87.0123 538.256 97.7952C538.256 106.992 530.429 118.336 517.716 118.336C506.067 118.336 497.325 108.991 497.325 97.6945C497.325 86.812 504.593 76.9007 517.716 76.9007ZM625.326 126.613C625.326 139.977 614.493 150.81 601.129 150.81C587.766 150.81 576.932 139.977 576.932 126.613C576.932 113.25 587.766 102.416 601.129 102.416C614.493 102.416 625.326 113.25 625.326 126.613ZM589.716 93.5279H633.277L671.776 0.652344H628.378L589.716 93.5279Z" fill="#FFC5BA"/>
</svg>
